G04 #@! TF.GenerationSoftware,KiCad,Pcbnew,(5.1.5)-3*
G04 #@! TF.CreationDate,2020-01-02T00:08:27-06:00*
G04 #@! TF.ProjectId,untitled-keyboard-project,756e7469-746c-4656-942d-6b6579626f61,rev?*
G04 #@! TF.SameCoordinates,Original*
G04 #@! TF.FileFunction,Soldermask,Top*
G04 #@! TF.FilePolarity,Negative*
%FSLAX46Y46*%
G04 Gerber Fmt 4.6, Leading zero omitted, Abs format (unit mm)*
G04 Created by KiCad (PCBNEW (5.1.5)-3) date 2020-01-02 00:08:27*
%MOMM*%
%LPD*%
G04 APERTURE LIST*
%ADD10C,0.100000*%
G04 APERTURE END LIST*
D10*
G36*
X73750254Y-106231818D02*
G01*
X74123511Y-106386426D01*
X74123513Y-106386427D01*
X74459436Y-106610884D01*
X74745116Y-106896564D01*
X74969574Y-107232489D01*
X75124182Y-107605746D01*
X75203000Y-108001993D01*
X75203000Y-108406007D01*
X75124182Y-108802254D01*
X74969574Y-109175511D01*
X74969573Y-109175513D01*
X74745116Y-109511436D01*
X74459436Y-109797116D01*
X74123513Y-110021573D01*
X74123512Y-110021574D01*
X74123511Y-110021574D01*
X73750254Y-110176182D01*
X73354007Y-110255000D01*
X72949993Y-110255000D01*
X72553746Y-110176182D01*
X72180489Y-110021574D01*
X72180488Y-110021574D01*
X72180487Y-110021573D01*
X71844564Y-109797116D01*
X71558884Y-109511436D01*
X71334427Y-109175513D01*
X71334426Y-109175511D01*
X71179818Y-108802254D01*
X71101000Y-108406007D01*
X71101000Y-108001993D01*
X71179818Y-107605746D01*
X71334426Y-107232489D01*
X71558884Y-106896564D01*
X71844564Y-106610884D01*
X72180487Y-106386427D01*
X72180489Y-106386426D01*
X72553746Y-106231818D01*
X72949993Y-106153000D01*
X73354007Y-106153000D01*
X73750254Y-106231818D01*
G37*
G36*
X170270254Y-106231818D02*
G01*
X170643511Y-106386426D01*
X170643513Y-106386427D01*
X170979436Y-106610884D01*
X171265116Y-106896564D01*
X171489574Y-107232489D01*
X171644182Y-107605746D01*
X171723000Y-108001993D01*
X171723000Y-108406007D01*
X171644182Y-108802254D01*
X171489574Y-109175511D01*
X171489573Y-109175513D01*
X171265116Y-109511436D01*
X170979436Y-109797116D01*
X170643513Y-110021573D01*
X170643512Y-110021574D01*
X170643511Y-110021574D01*
X170270254Y-110176182D01*
X169874007Y-110255000D01*
X169469993Y-110255000D01*
X169073746Y-110176182D01*
X168700489Y-110021574D01*
X168700488Y-110021574D01*
X168700487Y-110021573D01*
X168364564Y-109797116D01*
X168078884Y-109511436D01*
X167854427Y-109175513D01*
X167854426Y-109175511D01*
X167699818Y-108802254D01*
X167621000Y-108406007D01*
X167621000Y-108001993D01*
X167699818Y-107605746D01*
X167854426Y-107232489D01*
X168078884Y-106896564D01*
X168364564Y-106610884D01*
X168700487Y-106386427D01*
X168700489Y-106386426D01*
X169073746Y-106231818D01*
X169469993Y-106153000D01*
X169874007Y-106153000D01*
X170270254Y-106231818D01*
G37*
G36*
X131662254Y-106231818D02*
G01*
X132035511Y-106386426D01*
X132035513Y-106386427D01*
X132371436Y-106610884D01*
X132657116Y-106896564D01*
X132881574Y-107232489D01*
X133036182Y-107605746D01*
X133115000Y-108001993D01*
X133115000Y-108406007D01*
X133036182Y-108802254D01*
X132881574Y-109175511D01*
X132881573Y-109175513D01*
X132657116Y-109511436D01*
X132371436Y-109797116D01*
X132035513Y-110021573D01*
X132035512Y-110021574D01*
X132035511Y-110021574D01*
X131662254Y-110176182D01*
X131266007Y-110255000D01*
X130861993Y-110255000D01*
X130465746Y-110176182D01*
X130092489Y-110021574D01*
X130092488Y-110021574D01*
X130092487Y-110021573D01*
X129756564Y-109797116D01*
X129470884Y-109511436D01*
X129246427Y-109175513D01*
X129246426Y-109175511D01*
X129091818Y-108802254D01*
X129013000Y-108406007D01*
X129013000Y-108001993D01*
X129091818Y-107605746D01*
X129246426Y-107232489D01*
X129470884Y-106896564D01*
X129756564Y-106610884D01*
X130092487Y-106386427D01*
X130092489Y-106386426D01*
X130465746Y-106231818D01*
X130861993Y-106153000D01*
X131266007Y-106153000D01*
X131662254Y-106231818D01*
G37*
G36*
X150966254Y-106231818D02*
G01*
X151339511Y-106386426D01*
X151339513Y-106386427D01*
X151675436Y-106610884D01*
X151961116Y-106896564D01*
X152185574Y-107232489D01*
X152340182Y-107605746D01*
X152419000Y-108001993D01*
X152419000Y-108406007D01*
X152340182Y-108802254D01*
X152185574Y-109175511D01*
X152185573Y-109175513D01*
X151961116Y-109511436D01*
X151675436Y-109797116D01*
X151339513Y-110021573D01*
X151339512Y-110021574D01*
X151339511Y-110021574D01*
X150966254Y-110176182D01*
X150570007Y-110255000D01*
X150165993Y-110255000D01*
X149769746Y-110176182D01*
X149396489Y-110021574D01*
X149396488Y-110021574D01*
X149396487Y-110021573D01*
X149060564Y-109797116D01*
X148774884Y-109511436D01*
X148550427Y-109175513D01*
X148550426Y-109175511D01*
X148395818Y-108802254D01*
X148317000Y-108406007D01*
X148317000Y-108001993D01*
X148395818Y-107605746D01*
X148550426Y-107232489D01*
X148774884Y-106896564D01*
X149060564Y-106610884D01*
X149396487Y-106386427D01*
X149396489Y-106386426D01*
X149769746Y-106231818D01*
X150165993Y-106153000D01*
X150570007Y-106153000D01*
X150966254Y-106231818D01*
G37*
G36*
X93054254Y-106231818D02*
G01*
X93427511Y-106386426D01*
X93427513Y-106386427D01*
X93763436Y-106610884D01*
X94049116Y-106896564D01*
X94273574Y-107232489D01*
X94428182Y-107605746D01*
X94507000Y-108001993D01*
X94507000Y-108406007D01*
X94428182Y-108802254D01*
X94273574Y-109175511D01*
X94273573Y-109175513D01*
X94049116Y-109511436D01*
X93763436Y-109797116D01*
X93427513Y-110021573D01*
X93427512Y-110021574D01*
X93427511Y-110021574D01*
X93054254Y-110176182D01*
X92658007Y-110255000D01*
X92253993Y-110255000D01*
X91857746Y-110176182D01*
X91484489Y-110021574D01*
X91484488Y-110021574D01*
X91484487Y-110021573D01*
X91148564Y-109797116D01*
X90862884Y-109511436D01*
X90638427Y-109175513D01*
X90638426Y-109175511D01*
X90483818Y-108802254D01*
X90405000Y-108406007D01*
X90405000Y-108001993D01*
X90483818Y-107605746D01*
X90638426Y-107232489D01*
X90862884Y-106896564D01*
X91148564Y-106610884D01*
X91484487Y-106386427D01*
X91484489Y-106386426D01*
X91857746Y-106231818D01*
X92253993Y-106153000D01*
X92658007Y-106153000D01*
X93054254Y-106231818D01*
G37*
G36*
X112358254Y-106231818D02*
G01*
X112731511Y-106386426D01*
X112731513Y-106386427D01*
X113067436Y-106610884D01*
X113353116Y-106896564D01*
X113577574Y-107232489D01*
X113732182Y-107605746D01*
X113811000Y-108001993D01*
X113811000Y-108406007D01*
X113732182Y-108802254D01*
X113577574Y-109175511D01*
X113577573Y-109175513D01*
X113353116Y-109511436D01*
X113067436Y-109797116D01*
X112731513Y-110021573D01*
X112731512Y-110021574D01*
X112731511Y-110021574D01*
X112358254Y-110176182D01*
X111962007Y-110255000D01*
X111557993Y-110255000D01*
X111161746Y-110176182D01*
X110788489Y-110021574D01*
X110788488Y-110021574D01*
X110788487Y-110021573D01*
X110452564Y-109797116D01*
X110166884Y-109511436D01*
X109942427Y-109175513D01*
X109942426Y-109175511D01*
X109787818Y-108802254D01*
X109709000Y-108406007D01*
X109709000Y-108001993D01*
X109787818Y-107605746D01*
X109942426Y-107232489D01*
X110166884Y-106896564D01*
X110452564Y-106610884D01*
X110788487Y-106386427D01*
X110788489Y-106386426D01*
X111161746Y-106231818D01*
X111557993Y-106153000D01*
X111962007Y-106153000D01*
X112358254Y-106231818D01*
G37*
G36*
X145401512Y-107307927D02*
G01*
X145550812Y-107337624D01*
X145714784Y-107405544D01*
X145862354Y-107504147D01*
X145987853Y-107629646D01*
X146086456Y-107777216D01*
X146154376Y-107941188D01*
X146189000Y-108115259D01*
X146189000Y-108292741D01*
X146154376Y-108466812D01*
X146086456Y-108630784D01*
X145987853Y-108778354D01*
X145862354Y-108903853D01*
X145714784Y-109002456D01*
X145550812Y-109070376D01*
X145401512Y-109100073D01*
X145376742Y-109105000D01*
X145199258Y-109105000D01*
X145174488Y-109100073D01*
X145025188Y-109070376D01*
X144861216Y-109002456D01*
X144713646Y-108903853D01*
X144588147Y-108778354D01*
X144489544Y-108630784D01*
X144421624Y-108466812D01*
X144387000Y-108292741D01*
X144387000Y-108115259D01*
X144421624Y-107941188D01*
X144489544Y-107777216D01*
X144588147Y-107629646D01*
X144713646Y-107504147D01*
X144861216Y-107405544D01*
X145025188Y-107337624D01*
X145174488Y-107307927D01*
X145199258Y-107303000D01*
X145376742Y-107303000D01*
X145401512Y-107307927D01*
G37*
G36*
X164705512Y-107307927D02*
G01*
X164854812Y-107337624D01*
X165018784Y-107405544D01*
X165166354Y-107504147D01*
X165291853Y-107629646D01*
X165390456Y-107777216D01*
X165458376Y-107941188D01*
X165493000Y-108115259D01*
X165493000Y-108292741D01*
X165458376Y-108466812D01*
X165390456Y-108630784D01*
X165291853Y-108778354D01*
X165166354Y-108903853D01*
X165018784Y-109002456D01*
X164854812Y-109070376D01*
X164705512Y-109100073D01*
X164680742Y-109105000D01*
X164503258Y-109105000D01*
X164478488Y-109100073D01*
X164329188Y-109070376D01*
X164165216Y-109002456D01*
X164017646Y-108903853D01*
X163892147Y-108778354D01*
X163793544Y-108630784D01*
X163725624Y-108466812D01*
X163691000Y-108292741D01*
X163691000Y-108115259D01*
X163725624Y-107941188D01*
X163793544Y-107777216D01*
X163892147Y-107629646D01*
X164017646Y-107504147D01*
X164165216Y-107405544D01*
X164329188Y-107337624D01*
X164478488Y-107307927D01*
X164503258Y-107303000D01*
X164680742Y-107303000D01*
X164705512Y-107307927D01*
G37*
G36*
X155561512Y-107307927D02*
G01*
X155710812Y-107337624D01*
X155874784Y-107405544D01*
X156022354Y-107504147D01*
X156147853Y-107629646D01*
X156246456Y-107777216D01*
X156314376Y-107941188D01*
X156349000Y-108115259D01*
X156349000Y-108292741D01*
X156314376Y-108466812D01*
X156246456Y-108630784D01*
X156147853Y-108778354D01*
X156022354Y-108903853D01*
X155874784Y-109002456D01*
X155710812Y-109070376D01*
X155561512Y-109100073D01*
X155536742Y-109105000D01*
X155359258Y-109105000D01*
X155334488Y-109100073D01*
X155185188Y-109070376D01*
X155021216Y-109002456D01*
X154873646Y-108903853D01*
X154748147Y-108778354D01*
X154649544Y-108630784D01*
X154581624Y-108466812D01*
X154547000Y-108292741D01*
X154547000Y-108115259D01*
X154581624Y-107941188D01*
X154649544Y-107777216D01*
X154748147Y-107629646D01*
X154873646Y-107504147D01*
X155021216Y-107405544D01*
X155185188Y-107337624D01*
X155334488Y-107307927D01*
X155359258Y-107303000D01*
X155536742Y-107303000D01*
X155561512Y-107307927D01*
G37*
G36*
X116953512Y-107307927D02*
G01*
X117102812Y-107337624D01*
X117266784Y-107405544D01*
X117414354Y-107504147D01*
X117539853Y-107629646D01*
X117638456Y-107777216D01*
X117706376Y-107941188D01*
X117741000Y-108115259D01*
X117741000Y-108292741D01*
X117706376Y-108466812D01*
X117638456Y-108630784D01*
X117539853Y-108778354D01*
X117414354Y-108903853D01*
X117266784Y-109002456D01*
X117102812Y-109070376D01*
X116953512Y-109100073D01*
X116928742Y-109105000D01*
X116751258Y-109105000D01*
X116726488Y-109100073D01*
X116577188Y-109070376D01*
X116413216Y-109002456D01*
X116265646Y-108903853D01*
X116140147Y-108778354D01*
X116041544Y-108630784D01*
X115973624Y-108466812D01*
X115939000Y-108292741D01*
X115939000Y-108115259D01*
X115973624Y-107941188D01*
X116041544Y-107777216D01*
X116140147Y-107629646D01*
X116265646Y-107504147D01*
X116413216Y-107405544D01*
X116577188Y-107337624D01*
X116726488Y-107307927D01*
X116751258Y-107303000D01*
X116928742Y-107303000D01*
X116953512Y-107307927D01*
G37*
G36*
X106793512Y-107307927D02*
G01*
X106942812Y-107337624D01*
X107106784Y-107405544D01*
X107254354Y-107504147D01*
X107379853Y-107629646D01*
X107478456Y-107777216D01*
X107546376Y-107941188D01*
X107581000Y-108115259D01*
X107581000Y-108292741D01*
X107546376Y-108466812D01*
X107478456Y-108630784D01*
X107379853Y-108778354D01*
X107254354Y-108903853D01*
X107106784Y-109002456D01*
X106942812Y-109070376D01*
X106793512Y-109100073D01*
X106768742Y-109105000D01*
X106591258Y-109105000D01*
X106566488Y-109100073D01*
X106417188Y-109070376D01*
X106253216Y-109002456D01*
X106105646Y-108903853D01*
X105980147Y-108778354D01*
X105881544Y-108630784D01*
X105813624Y-108466812D01*
X105779000Y-108292741D01*
X105779000Y-108115259D01*
X105813624Y-107941188D01*
X105881544Y-107777216D01*
X105980147Y-107629646D01*
X106105646Y-107504147D01*
X106253216Y-107405544D01*
X106417188Y-107337624D01*
X106566488Y-107307927D01*
X106591258Y-107303000D01*
X106768742Y-107303000D01*
X106793512Y-107307927D01*
G37*
G36*
X87489512Y-107307927D02*
G01*
X87638812Y-107337624D01*
X87802784Y-107405544D01*
X87950354Y-107504147D01*
X88075853Y-107629646D01*
X88174456Y-107777216D01*
X88242376Y-107941188D01*
X88277000Y-108115259D01*
X88277000Y-108292741D01*
X88242376Y-108466812D01*
X88174456Y-108630784D01*
X88075853Y-108778354D01*
X87950354Y-108903853D01*
X87802784Y-109002456D01*
X87638812Y-109070376D01*
X87489512Y-109100073D01*
X87464742Y-109105000D01*
X87287258Y-109105000D01*
X87262488Y-109100073D01*
X87113188Y-109070376D01*
X86949216Y-109002456D01*
X86801646Y-108903853D01*
X86676147Y-108778354D01*
X86577544Y-108630784D01*
X86509624Y-108466812D01*
X86475000Y-108292741D01*
X86475000Y-108115259D01*
X86509624Y-107941188D01*
X86577544Y-107777216D01*
X86676147Y-107629646D01*
X86801646Y-107504147D01*
X86949216Y-107405544D01*
X87113188Y-107337624D01*
X87262488Y-107307927D01*
X87287258Y-107303000D01*
X87464742Y-107303000D01*
X87489512Y-107307927D01*
G37*
G36*
X97649512Y-107307927D02*
G01*
X97798812Y-107337624D01*
X97962784Y-107405544D01*
X98110354Y-107504147D01*
X98235853Y-107629646D01*
X98334456Y-107777216D01*
X98402376Y-107941188D01*
X98437000Y-108115259D01*
X98437000Y-108292741D01*
X98402376Y-108466812D01*
X98334456Y-108630784D01*
X98235853Y-108778354D01*
X98110354Y-108903853D01*
X97962784Y-109002456D01*
X97798812Y-109070376D01*
X97649512Y-109100073D01*
X97624742Y-109105000D01*
X97447258Y-109105000D01*
X97422488Y-109100073D01*
X97273188Y-109070376D01*
X97109216Y-109002456D01*
X96961646Y-108903853D01*
X96836147Y-108778354D01*
X96737544Y-108630784D01*
X96669624Y-108466812D01*
X96635000Y-108292741D01*
X96635000Y-108115259D01*
X96669624Y-107941188D01*
X96737544Y-107777216D01*
X96836147Y-107629646D01*
X96961646Y-107504147D01*
X97109216Y-107405544D01*
X97273188Y-107337624D01*
X97422488Y-107307927D01*
X97447258Y-107303000D01*
X97624742Y-107303000D01*
X97649512Y-107307927D01*
G37*
G36*
X68185512Y-107307927D02*
G01*
X68334812Y-107337624D01*
X68498784Y-107405544D01*
X68646354Y-107504147D01*
X68771853Y-107629646D01*
X68870456Y-107777216D01*
X68938376Y-107941188D01*
X68973000Y-108115259D01*
X68973000Y-108292741D01*
X68938376Y-108466812D01*
X68870456Y-108630784D01*
X68771853Y-108778354D01*
X68646354Y-108903853D01*
X68498784Y-109002456D01*
X68334812Y-109070376D01*
X68185512Y-109100073D01*
X68160742Y-109105000D01*
X67983258Y-109105000D01*
X67958488Y-109100073D01*
X67809188Y-109070376D01*
X67645216Y-109002456D01*
X67497646Y-108903853D01*
X67372147Y-108778354D01*
X67273544Y-108630784D01*
X67205624Y-108466812D01*
X67171000Y-108292741D01*
X67171000Y-108115259D01*
X67205624Y-107941188D01*
X67273544Y-107777216D01*
X67372147Y-107629646D01*
X67497646Y-107504147D01*
X67645216Y-107405544D01*
X67809188Y-107337624D01*
X67958488Y-107307927D01*
X67983258Y-107303000D01*
X68160742Y-107303000D01*
X68185512Y-107307927D01*
G37*
G36*
X78345512Y-107307927D02*
G01*
X78494812Y-107337624D01*
X78658784Y-107405544D01*
X78806354Y-107504147D01*
X78931853Y-107629646D01*
X79030456Y-107777216D01*
X79098376Y-107941188D01*
X79133000Y-108115259D01*
X79133000Y-108292741D01*
X79098376Y-108466812D01*
X79030456Y-108630784D01*
X78931853Y-108778354D01*
X78806354Y-108903853D01*
X78658784Y-109002456D01*
X78494812Y-109070376D01*
X78345512Y-109100073D01*
X78320742Y-109105000D01*
X78143258Y-109105000D01*
X78118488Y-109100073D01*
X77969188Y-109070376D01*
X77805216Y-109002456D01*
X77657646Y-108903853D01*
X77532147Y-108778354D01*
X77433544Y-108630784D01*
X77365624Y-108466812D01*
X77331000Y-108292741D01*
X77331000Y-108115259D01*
X77365624Y-107941188D01*
X77433544Y-107777216D01*
X77532147Y-107629646D01*
X77657646Y-107504147D01*
X77805216Y-107405544D01*
X77969188Y-107337624D01*
X78118488Y-107307927D01*
X78143258Y-107303000D01*
X78320742Y-107303000D01*
X78345512Y-107307927D01*
G37*
G36*
X126097512Y-107307927D02*
G01*
X126246812Y-107337624D01*
X126410784Y-107405544D01*
X126558354Y-107504147D01*
X126683853Y-107629646D01*
X126782456Y-107777216D01*
X126850376Y-107941188D01*
X126885000Y-108115259D01*
X126885000Y-108292741D01*
X126850376Y-108466812D01*
X126782456Y-108630784D01*
X126683853Y-108778354D01*
X126558354Y-108903853D01*
X126410784Y-109002456D01*
X126246812Y-109070376D01*
X126097512Y-109100073D01*
X126072742Y-109105000D01*
X125895258Y-109105000D01*
X125870488Y-109100073D01*
X125721188Y-109070376D01*
X125557216Y-109002456D01*
X125409646Y-108903853D01*
X125284147Y-108778354D01*
X125185544Y-108630784D01*
X125117624Y-108466812D01*
X125083000Y-108292741D01*
X125083000Y-108115259D01*
X125117624Y-107941188D01*
X125185544Y-107777216D01*
X125284147Y-107629646D01*
X125409646Y-107504147D01*
X125557216Y-107405544D01*
X125721188Y-107337624D01*
X125870488Y-107307927D01*
X125895258Y-107303000D01*
X126072742Y-107303000D01*
X126097512Y-107307927D01*
G37*
G36*
X136257512Y-107307927D02*
G01*
X136406812Y-107337624D01*
X136570784Y-107405544D01*
X136718354Y-107504147D01*
X136843853Y-107629646D01*
X136942456Y-107777216D01*
X137010376Y-107941188D01*
X137045000Y-108115259D01*
X137045000Y-108292741D01*
X137010376Y-108466812D01*
X136942456Y-108630784D01*
X136843853Y-108778354D01*
X136718354Y-108903853D01*
X136570784Y-109002456D01*
X136406812Y-109070376D01*
X136257512Y-109100073D01*
X136232742Y-109105000D01*
X136055258Y-109105000D01*
X136030488Y-109100073D01*
X135881188Y-109070376D01*
X135717216Y-109002456D01*
X135569646Y-108903853D01*
X135444147Y-108778354D01*
X135345544Y-108630784D01*
X135277624Y-108466812D01*
X135243000Y-108292741D01*
X135243000Y-108115259D01*
X135277624Y-107941188D01*
X135345544Y-107777216D01*
X135444147Y-107629646D01*
X135569646Y-107504147D01*
X135717216Y-107405544D01*
X135881188Y-107337624D01*
X136030488Y-107307927D01*
X136055258Y-107303000D01*
X136232742Y-107303000D01*
X136257512Y-107307927D01*
G37*
G36*
X174865512Y-107307927D02*
G01*
X175014812Y-107337624D01*
X175178784Y-107405544D01*
X175326354Y-107504147D01*
X175451853Y-107629646D01*
X175550456Y-107777216D01*
X175618376Y-107941188D01*
X175653000Y-108115259D01*
X175653000Y-108292741D01*
X175618376Y-108466812D01*
X175550456Y-108630784D01*
X175451853Y-108778354D01*
X175326354Y-108903853D01*
X175178784Y-109002456D01*
X175014812Y-109070376D01*
X174865512Y-109100073D01*
X174840742Y-109105000D01*
X174663258Y-109105000D01*
X174638488Y-109100073D01*
X174489188Y-109070376D01*
X174325216Y-109002456D01*
X174177646Y-108903853D01*
X174052147Y-108778354D01*
X173953544Y-108630784D01*
X173885624Y-108466812D01*
X173851000Y-108292741D01*
X173851000Y-108115259D01*
X173885624Y-107941188D01*
X173953544Y-107777216D01*
X174052147Y-107629646D01*
X174177646Y-107504147D01*
X174325216Y-107405544D01*
X174489188Y-107337624D01*
X174638488Y-107307927D01*
X174663258Y-107303000D01*
X174840742Y-107303000D01*
X174865512Y-107307927D01*
G37*
G36*
X127478549Y-104535116D02*
G01*
X127589734Y-104557232D01*
X127799203Y-104643997D01*
X127987720Y-104769960D01*
X128148040Y-104930280D01*
X128274003Y-105118797D01*
X128360768Y-105328266D01*
X128405000Y-105550636D01*
X128405000Y-105777364D01*
X128360768Y-105999734D01*
X128274003Y-106209203D01*
X128148040Y-106397720D01*
X127987720Y-106558040D01*
X127799203Y-106684003D01*
X127589734Y-106770768D01*
X127478549Y-106792884D01*
X127367365Y-106815000D01*
X127140635Y-106815000D01*
X127029451Y-106792884D01*
X126918266Y-106770768D01*
X126708797Y-106684003D01*
X126520280Y-106558040D01*
X126359960Y-106397720D01*
X126233997Y-106209203D01*
X126147232Y-105999734D01*
X126103000Y-105777364D01*
X126103000Y-105550636D01*
X126147232Y-105328266D01*
X126233997Y-105118797D01*
X126359960Y-104930280D01*
X126520280Y-104769960D01*
X126708797Y-104643997D01*
X126918266Y-104557232D01*
X127029451Y-104535116D01*
X127140635Y-104513000D01*
X127367365Y-104513000D01*
X127478549Y-104535116D01*
G37*
G36*
X108174549Y-104535116D02*
G01*
X108285734Y-104557232D01*
X108495203Y-104643997D01*
X108683720Y-104769960D01*
X108844040Y-104930280D01*
X108970003Y-105118797D01*
X109056768Y-105328266D01*
X109101000Y-105550636D01*
X109101000Y-105777364D01*
X109056768Y-105999734D01*
X108970003Y-106209203D01*
X108844040Y-106397720D01*
X108683720Y-106558040D01*
X108495203Y-106684003D01*
X108285734Y-106770768D01*
X108174549Y-106792884D01*
X108063365Y-106815000D01*
X107836635Y-106815000D01*
X107725451Y-106792884D01*
X107614266Y-106770768D01*
X107404797Y-106684003D01*
X107216280Y-106558040D01*
X107055960Y-106397720D01*
X106929997Y-106209203D01*
X106843232Y-105999734D01*
X106799000Y-105777364D01*
X106799000Y-105550636D01*
X106843232Y-105328266D01*
X106929997Y-105118797D01*
X107055960Y-104930280D01*
X107216280Y-104769960D01*
X107404797Y-104643997D01*
X107614266Y-104557232D01*
X107725451Y-104535116D01*
X107836635Y-104513000D01*
X108063365Y-104513000D01*
X108174549Y-104535116D01*
G37*
G36*
X88870549Y-104535116D02*
G01*
X88981734Y-104557232D01*
X89191203Y-104643997D01*
X89379720Y-104769960D01*
X89540040Y-104930280D01*
X89666003Y-105118797D01*
X89752768Y-105328266D01*
X89797000Y-105550636D01*
X89797000Y-105777364D01*
X89752768Y-105999734D01*
X89666003Y-106209203D01*
X89540040Y-106397720D01*
X89379720Y-106558040D01*
X89191203Y-106684003D01*
X88981734Y-106770768D01*
X88870549Y-106792884D01*
X88759365Y-106815000D01*
X88532635Y-106815000D01*
X88421451Y-106792884D01*
X88310266Y-106770768D01*
X88100797Y-106684003D01*
X87912280Y-106558040D01*
X87751960Y-106397720D01*
X87625997Y-106209203D01*
X87539232Y-105999734D01*
X87495000Y-105777364D01*
X87495000Y-105550636D01*
X87539232Y-105328266D01*
X87625997Y-105118797D01*
X87751960Y-104930280D01*
X87912280Y-104769960D01*
X88100797Y-104643997D01*
X88310266Y-104557232D01*
X88421451Y-104535116D01*
X88532635Y-104513000D01*
X88759365Y-104513000D01*
X88870549Y-104535116D01*
G37*
G36*
X146782549Y-104535116D02*
G01*
X146893734Y-104557232D01*
X147103203Y-104643997D01*
X147291720Y-104769960D01*
X147452040Y-104930280D01*
X147578003Y-105118797D01*
X147664768Y-105328266D01*
X147709000Y-105550636D01*
X147709000Y-105777364D01*
X147664768Y-105999734D01*
X147578003Y-106209203D01*
X147452040Y-106397720D01*
X147291720Y-106558040D01*
X147103203Y-106684003D01*
X146893734Y-106770768D01*
X146782549Y-106792884D01*
X146671365Y-106815000D01*
X146444635Y-106815000D01*
X146333451Y-106792884D01*
X146222266Y-106770768D01*
X146012797Y-106684003D01*
X145824280Y-106558040D01*
X145663960Y-106397720D01*
X145537997Y-106209203D01*
X145451232Y-105999734D01*
X145407000Y-105777364D01*
X145407000Y-105550636D01*
X145451232Y-105328266D01*
X145537997Y-105118797D01*
X145663960Y-104930280D01*
X145824280Y-104769960D01*
X146012797Y-104643997D01*
X146222266Y-104557232D01*
X146333451Y-104535116D01*
X146444635Y-104513000D01*
X146671365Y-104513000D01*
X146782549Y-104535116D01*
G37*
G36*
X166086549Y-104535116D02*
G01*
X166197734Y-104557232D01*
X166407203Y-104643997D01*
X166595720Y-104769960D01*
X166756040Y-104930280D01*
X166882003Y-105118797D01*
X166968768Y-105328266D01*
X167013000Y-105550636D01*
X167013000Y-105777364D01*
X166968768Y-105999734D01*
X166882003Y-106209203D01*
X166756040Y-106397720D01*
X166595720Y-106558040D01*
X166407203Y-106684003D01*
X166197734Y-106770768D01*
X166086549Y-106792884D01*
X165975365Y-106815000D01*
X165748635Y-106815000D01*
X165637451Y-106792884D01*
X165526266Y-106770768D01*
X165316797Y-106684003D01*
X165128280Y-106558040D01*
X164967960Y-106397720D01*
X164841997Y-106209203D01*
X164755232Y-105999734D01*
X164711000Y-105777364D01*
X164711000Y-105550636D01*
X164755232Y-105328266D01*
X164841997Y-105118797D01*
X164967960Y-104930280D01*
X165128280Y-104769960D01*
X165316797Y-104643997D01*
X165526266Y-104557232D01*
X165637451Y-104535116D01*
X165748635Y-104513000D01*
X165975365Y-104513000D01*
X166086549Y-104535116D01*
G37*
G36*
X69566549Y-104535116D02*
G01*
X69677734Y-104557232D01*
X69887203Y-104643997D01*
X70075720Y-104769960D01*
X70236040Y-104930280D01*
X70362003Y-105118797D01*
X70448768Y-105328266D01*
X70493000Y-105550636D01*
X70493000Y-105777364D01*
X70448768Y-105999734D01*
X70362003Y-106209203D01*
X70236040Y-106397720D01*
X70075720Y-106558040D01*
X69887203Y-106684003D01*
X69677734Y-106770768D01*
X69566549Y-106792884D01*
X69455365Y-106815000D01*
X69228635Y-106815000D01*
X69117451Y-106792884D01*
X69006266Y-106770768D01*
X68796797Y-106684003D01*
X68608280Y-106558040D01*
X68447960Y-106397720D01*
X68321997Y-106209203D01*
X68235232Y-105999734D01*
X68191000Y-105777364D01*
X68191000Y-105550636D01*
X68235232Y-105328266D01*
X68321997Y-105118797D01*
X68447960Y-104930280D01*
X68608280Y-104769960D01*
X68796797Y-104643997D01*
X69006266Y-104557232D01*
X69117451Y-104535116D01*
X69228635Y-104513000D01*
X69455365Y-104513000D01*
X69566549Y-104535116D01*
G37*
G36*
X75916549Y-101995116D02*
G01*
X76027734Y-102017232D01*
X76237203Y-102103997D01*
X76425720Y-102229960D01*
X76586040Y-102390280D01*
X76712003Y-102578797D01*
X76798768Y-102788266D01*
X76843000Y-103010636D01*
X76843000Y-103237364D01*
X76798768Y-103459734D01*
X76712003Y-103669203D01*
X76586040Y-103857720D01*
X76425720Y-104018040D01*
X76237203Y-104144003D01*
X76027734Y-104230768D01*
X75916549Y-104252884D01*
X75805365Y-104275000D01*
X75578635Y-104275000D01*
X75467451Y-104252884D01*
X75356266Y-104230768D01*
X75146797Y-104144003D01*
X74958280Y-104018040D01*
X74797960Y-103857720D01*
X74671997Y-103669203D01*
X74585232Y-103459734D01*
X74541000Y-103237364D01*
X74541000Y-103010636D01*
X74585232Y-102788266D01*
X74671997Y-102578797D01*
X74797960Y-102390280D01*
X74958280Y-102229960D01*
X75146797Y-102103997D01*
X75356266Y-102017232D01*
X75467451Y-101995116D01*
X75578635Y-101973000D01*
X75805365Y-101973000D01*
X75916549Y-101995116D01*
G37*
G36*
X172436549Y-101995116D02*
G01*
X172547734Y-102017232D01*
X172757203Y-102103997D01*
X172945720Y-102229960D01*
X173106040Y-102390280D01*
X173232003Y-102578797D01*
X173318768Y-102788266D01*
X173363000Y-103010636D01*
X173363000Y-103237364D01*
X173318768Y-103459734D01*
X173232003Y-103669203D01*
X173106040Y-103857720D01*
X172945720Y-104018040D01*
X172757203Y-104144003D01*
X172547734Y-104230768D01*
X172436549Y-104252884D01*
X172325365Y-104275000D01*
X172098635Y-104275000D01*
X171987451Y-104252884D01*
X171876266Y-104230768D01*
X171666797Y-104144003D01*
X171478280Y-104018040D01*
X171317960Y-103857720D01*
X171191997Y-103669203D01*
X171105232Y-103459734D01*
X171061000Y-103237364D01*
X171061000Y-103010636D01*
X171105232Y-102788266D01*
X171191997Y-102578797D01*
X171317960Y-102390280D01*
X171478280Y-102229960D01*
X171666797Y-102103997D01*
X171876266Y-102017232D01*
X171987451Y-101995116D01*
X172098635Y-101973000D01*
X172325365Y-101973000D01*
X172436549Y-101995116D01*
G37*
G36*
X133828549Y-101995116D02*
G01*
X133939734Y-102017232D01*
X134149203Y-102103997D01*
X134337720Y-102229960D01*
X134498040Y-102390280D01*
X134624003Y-102578797D01*
X134710768Y-102788266D01*
X134755000Y-103010636D01*
X134755000Y-103237364D01*
X134710768Y-103459734D01*
X134624003Y-103669203D01*
X134498040Y-103857720D01*
X134337720Y-104018040D01*
X134149203Y-104144003D01*
X133939734Y-104230768D01*
X133828549Y-104252884D01*
X133717365Y-104275000D01*
X133490635Y-104275000D01*
X133379451Y-104252884D01*
X133268266Y-104230768D01*
X133058797Y-104144003D01*
X132870280Y-104018040D01*
X132709960Y-103857720D01*
X132583997Y-103669203D01*
X132497232Y-103459734D01*
X132453000Y-103237364D01*
X132453000Y-103010636D01*
X132497232Y-102788266D01*
X132583997Y-102578797D01*
X132709960Y-102390280D01*
X132870280Y-102229960D01*
X133058797Y-102103997D01*
X133268266Y-102017232D01*
X133379451Y-101995116D01*
X133490635Y-101973000D01*
X133717365Y-101973000D01*
X133828549Y-101995116D01*
G37*
G36*
X114524549Y-101995116D02*
G01*
X114635734Y-102017232D01*
X114845203Y-102103997D01*
X115033720Y-102229960D01*
X115194040Y-102390280D01*
X115320003Y-102578797D01*
X115406768Y-102788266D01*
X115451000Y-103010636D01*
X115451000Y-103237364D01*
X115406768Y-103459734D01*
X115320003Y-103669203D01*
X115194040Y-103857720D01*
X115033720Y-104018040D01*
X114845203Y-104144003D01*
X114635734Y-104230768D01*
X114524549Y-104252884D01*
X114413365Y-104275000D01*
X114186635Y-104275000D01*
X114075451Y-104252884D01*
X113964266Y-104230768D01*
X113754797Y-104144003D01*
X113566280Y-104018040D01*
X113405960Y-103857720D01*
X113279997Y-103669203D01*
X113193232Y-103459734D01*
X113149000Y-103237364D01*
X113149000Y-103010636D01*
X113193232Y-102788266D01*
X113279997Y-102578797D01*
X113405960Y-102390280D01*
X113566280Y-102229960D01*
X113754797Y-102103997D01*
X113964266Y-102017232D01*
X114075451Y-101995116D01*
X114186635Y-101973000D01*
X114413365Y-101973000D01*
X114524549Y-101995116D01*
G37*
G36*
X95220549Y-101995116D02*
G01*
X95331734Y-102017232D01*
X95541203Y-102103997D01*
X95729720Y-102229960D01*
X95890040Y-102390280D01*
X96016003Y-102578797D01*
X96102768Y-102788266D01*
X96147000Y-103010636D01*
X96147000Y-103237364D01*
X96102768Y-103459734D01*
X96016003Y-103669203D01*
X95890040Y-103857720D01*
X95729720Y-104018040D01*
X95541203Y-104144003D01*
X95331734Y-104230768D01*
X95220549Y-104252884D01*
X95109365Y-104275000D01*
X94882635Y-104275000D01*
X94771451Y-104252884D01*
X94660266Y-104230768D01*
X94450797Y-104144003D01*
X94262280Y-104018040D01*
X94101960Y-103857720D01*
X93975997Y-103669203D01*
X93889232Y-103459734D01*
X93845000Y-103237364D01*
X93845000Y-103010636D01*
X93889232Y-102788266D01*
X93975997Y-102578797D01*
X94101960Y-102390280D01*
X94262280Y-102229960D01*
X94450797Y-102103997D01*
X94660266Y-102017232D01*
X94771451Y-101995116D01*
X94882635Y-101973000D01*
X95109365Y-101973000D01*
X95220549Y-101995116D01*
G37*
G36*
X153132549Y-101995116D02*
G01*
X153243734Y-102017232D01*
X153453203Y-102103997D01*
X153641720Y-102229960D01*
X153802040Y-102390280D01*
X153928003Y-102578797D01*
X154014768Y-102788266D01*
X154059000Y-103010636D01*
X154059000Y-103237364D01*
X154014768Y-103459734D01*
X153928003Y-103669203D01*
X153802040Y-103857720D01*
X153641720Y-104018040D01*
X153453203Y-104144003D01*
X153243734Y-104230768D01*
X153132549Y-104252884D01*
X153021365Y-104275000D01*
X152794635Y-104275000D01*
X152683451Y-104252884D01*
X152572266Y-104230768D01*
X152362797Y-104144003D01*
X152174280Y-104018040D01*
X152013960Y-103857720D01*
X151887997Y-103669203D01*
X151801232Y-103459734D01*
X151757000Y-103237364D01*
X151757000Y-103010636D01*
X151801232Y-102788266D01*
X151887997Y-102578797D01*
X152013960Y-102390280D01*
X152174280Y-102229960D01*
X152362797Y-102103997D01*
X152572266Y-102017232D01*
X152683451Y-101995116D01*
X152794635Y-101973000D01*
X153021365Y-101973000D01*
X153132549Y-101995116D01*
G37*
G36*
X194231000Y-94475000D02*
G01*
X193129000Y-94475000D01*
X193129000Y-92673000D01*
X194231000Y-92673000D01*
X194231000Y-94475000D01*
G37*
G36*
X198031000Y-94475000D02*
G01*
X196929000Y-94475000D01*
X196929000Y-92673000D01*
X198031000Y-92673000D01*
X198031000Y-94475000D01*
G37*
G36*
X73750254Y-86927818D02*
G01*
X74123511Y-87082426D01*
X74123513Y-87082427D01*
X74459436Y-87306884D01*
X74745116Y-87592564D01*
X74940182Y-87884500D01*
X74969574Y-87928489D01*
X75124182Y-88301746D01*
X75203000Y-88697993D01*
X75203000Y-89102007D01*
X75124182Y-89498254D01*
X74969574Y-89871511D01*
X74969573Y-89871513D01*
X74745116Y-90207436D01*
X74459436Y-90493116D01*
X74123513Y-90717573D01*
X74123512Y-90717574D01*
X74123511Y-90717574D01*
X73750254Y-90872182D01*
X73354007Y-90951000D01*
X72949993Y-90951000D01*
X72553746Y-90872182D01*
X72180489Y-90717574D01*
X72180488Y-90717574D01*
X72180487Y-90717573D01*
X71844564Y-90493116D01*
X71558884Y-90207436D01*
X71334427Y-89871513D01*
X71334426Y-89871511D01*
X71179818Y-89498254D01*
X71101000Y-89102007D01*
X71101000Y-88697993D01*
X71179818Y-88301746D01*
X71334426Y-87928489D01*
X71363819Y-87884500D01*
X71558884Y-87592564D01*
X71844564Y-87306884D01*
X72180487Y-87082427D01*
X72180489Y-87082426D01*
X72553746Y-86927818D01*
X72949993Y-86849000D01*
X73354007Y-86849000D01*
X73750254Y-86927818D01*
G37*
G36*
X150966254Y-86927818D02*
G01*
X151339511Y-87082426D01*
X151339513Y-87082427D01*
X151675436Y-87306884D01*
X151961116Y-87592564D01*
X152156182Y-87884500D01*
X152185574Y-87928489D01*
X152340182Y-88301746D01*
X152419000Y-88697993D01*
X152419000Y-89102007D01*
X152340182Y-89498254D01*
X152185574Y-89871511D01*
X152185573Y-89871513D01*
X151961116Y-90207436D01*
X151675436Y-90493116D01*
X151339513Y-90717573D01*
X151339512Y-90717574D01*
X151339511Y-90717574D01*
X150966254Y-90872182D01*
X150570007Y-90951000D01*
X150165993Y-90951000D01*
X149769746Y-90872182D01*
X149396489Y-90717574D01*
X149396488Y-90717574D01*
X149396487Y-90717573D01*
X149060564Y-90493116D01*
X148774884Y-90207436D01*
X148550427Y-89871513D01*
X148550426Y-89871511D01*
X148395818Y-89498254D01*
X148317000Y-89102007D01*
X148317000Y-88697993D01*
X148395818Y-88301746D01*
X148550426Y-87928489D01*
X148579819Y-87884500D01*
X148774884Y-87592564D01*
X149060564Y-87306884D01*
X149396487Y-87082427D01*
X149396489Y-87082426D01*
X149769746Y-86927818D01*
X150165993Y-86849000D01*
X150570007Y-86849000D01*
X150966254Y-86927818D01*
G37*
G36*
X131662254Y-86927818D02*
G01*
X132035511Y-87082426D01*
X132035513Y-87082427D01*
X132371436Y-87306884D01*
X132657116Y-87592564D01*
X132852182Y-87884500D01*
X132881574Y-87928489D01*
X133036182Y-88301746D01*
X133115000Y-88697993D01*
X133115000Y-89102007D01*
X133036182Y-89498254D01*
X132881574Y-89871511D01*
X132881573Y-89871513D01*
X132657116Y-90207436D01*
X132371436Y-90493116D01*
X132035513Y-90717573D01*
X132035512Y-90717574D01*
X132035511Y-90717574D01*
X131662254Y-90872182D01*
X131266007Y-90951000D01*
X130861993Y-90951000D01*
X130465746Y-90872182D01*
X130092489Y-90717574D01*
X130092488Y-90717574D01*
X130092487Y-90717573D01*
X129756564Y-90493116D01*
X129470884Y-90207436D01*
X129246427Y-89871513D01*
X129246426Y-89871511D01*
X129091818Y-89498254D01*
X129013000Y-89102007D01*
X129013000Y-88697993D01*
X129091818Y-88301746D01*
X129246426Y-87928489D01*
X129275819Y-87884500D01*
X129470884Y-87592564D01*
X129756564Y-87306884D01*
X130092487Y-87082427D01*
X130092489Y-87082426D01*
X130465746Y-86927818D01*
X130861993Y-86849000D01*
X131266007Y-86849000D01*
X131662254Y-86927818D01*
G37*
G36*
X170270254Y-86927818D02*
G01*
X170643511Y-87082426D01*
X170643513Y-87082427D01*
X170979436Y-87306884D01*
X171265116Y-87592564D01*
X171460182Y-87884500D01*
X171489574Y-87928489D01*
X171644182Y-88301746D01*
X171723000Y-88697993D01*
X171723000Y-89102007D01*
X171644182Y-89498254D01*
X171489574Y-89871511D01*
X171489573Y-89871513D01*
X171265116Y-90207436D01*
X170979436Y-90493116D01*
X170643513Y-90717573D01*
X170643512Y-90717574D01*
X170643511Y-90717574D01*
X170270254Y-90872182D01*
X169874007Y-90951000D01*
X169469993Y-90951000D01*
X169073746Y-90872182D01*
X168700489Y-90717574D01*
X168700488Y-90717574D01*
X168700487Y-90717573D01*
X168364564Y-90493116D01*
X168078884Y-90207436D01*
X167854427Y-89871513D01*
X167854426Y-89871511D01*
X167699818Y-89498254D01*
X167621000Y-89102007D01*
X167621000Y-88697993D01*
X167699818Y-88301746D01*
X167854426Y-87928489D01*
X167883819Y-87884500D01*
X168078884Y-87592564D01*
X168364564Y-87306884D01*
X168700487Y-87082427D01*
X168700489Y-87082426D01*
X169073746Y-86927818D01*
X169469993Y-86849000D01*
X169874007Y-86849000D01*
X170270254Y-86927818D01*
G37*
G36*
X93054254Y-86927818D02*
G01*
X93427511Y-87082426D01*
X93427513Y-87082427D01*
X93763436Y-87306884D01*
X94049116Y-87592564D01*
X94244182Y-87884500D01*
X94273574Y-87928489D01*
X94428182Y-88301746D01*
X94507000Y-88697993D01*
X94507000Y-89102007D01*
X94428182Y-89498254D01*
X94273574Y-89871511D01*
X94273573Y-89871513D01*
X94049116Y-90207436D01*
X93763436Y-90493116D01*
X93427513Y-90717573D01*
X93427512Y-90717574D01*
X93427511Y-90717574D01*
X93054254Y-90872182D01*
X92658007Y-90951000D01*
X92253993Y-90951000D01*
X91857746Y-90872182D01*
X91484489Y-90717574D01*
X91484488Y-90717574D01*
X91484487Y-90717573D01*
X91148564Y-90493116D01*
X90862884Y-90207436D01*
X90638427Y-89871513D01*
X90638426Y-89871511D01*
X90483818Y-89498254D01*
X90405000Y-89102007D01*
X90405000Y-88697993D01*
X90483818Y-88301746D01*
X90638426Y-87928489D01*
X90667819Y-87884500D01*
X90862884Y-87592564D01*
X91148564Y-87306884D01*
X91484487Y-87082427D01*
X91484489Y-87082426D01*
X91857746Y-86927818D01*
X92253993Y-86849000D01*
X92658007Y-86849000D01*
X93054254Y-86927818D01*
G37*
G36*
X112358254Y-86927818D02*
G01*
X112731511Y-87082426D01*
X112731513Y-87082427D01*
X113067436Y-87306884D01*
X113353116Y-87592564D01*
X113548182Y-87884500D01*
X113577574Y-87928489D01*
X113732182Y-88301746D01*
X113811000Y-88697993D01*
X113811000Y-89102007D01*
X113732182Y-89498254D01*
X113577574Y-89871511D01*
X113577573Y-89871513D01*
X113353116Y-90207436D01*
X113067436Y-90493116D01*
X112731513Y-90717573D01*
X112731512Y-90717574D01*
X112731511Y-90717574D01*
X112358254Y-90872182D01*
X111962007Y-90951000D01*
X111557993Y-90951000D01*
X111161746Y-90872182D01*
X110788489Y-90717574D01*
X110788488Y-90717574D01*
X110788487Y-90717573D01*
X110452564Y-90493116D01*
X110166884Y-90207436D01*
X109942427Y-89871513D01*
X109942426Y-89871511D01*
X109787818Y-89498254D01*
X109709000Y-89102007D01*
X109709000Y-88697993D01*
X109787818Y-88301746D01*
X109942426Y-87928489D01*
X109971819Y-87884500D01*
X110166884Y-87592564D01*
X110452564Y-87306884D01*
X110788487Y-87082427D01*
X110788489Y-87082426D01*
X111161746Y-86927818D01*
X111557993Y-86849000D01*
X111962007Y-86849000D01*
X112358254Y-86927818D01*
G37*
G36*
X164705512Y-88003927D02*
G01*
X164854812Y-88033624D01*
X165018784Y-88101544D01*
X165166354Y-88200147D01*
X165291853Y-88325646D01*
X165390456Y-88473216D01*
X165458376Y-88637188D01*
X165493000Y-88811259D01*
X165493000Y-88988741D01*
X165458376Y-89162812D01*
X165390456Y-89326784D01*
X165291853Y-89474354D01*
X165166354Y-89599853D01*
X165018784Y-89698456D01*
X164854812Y-89766376D01*
X164705512Y-89796073D01*
X164680742Y-89801000D01*
X164503258Y-89801000D01*
X164478488Y-89796073D01*
X164329188Y-89766376D01*
X164165216Y-89698456D01*
X164017646Y-89599853D01*
X163892147Y-89474354D01*
X163793544Y-89326784D01*
X163725624Y-89162812D01*
X163691000Y-88988741D01*
X163691000Y-88811259D01*
X163725624Y-88637188D01*
X163793544Y-88473216D01*
X163892147Y-88325646D01*
X164017646Y-88200147D01*
X164165216Y-88101544D01*
X164329188Y-88033624D01*
X164478488Y-88003927D01*
X164503258Y-87999000D01*
X164680742Y-87999000D01*
X164705512Y-88003927D01*
G37*
G36*
X174865512Y-88003927D02*
G01*
X175014812Y-88033624D01*
X175178784Y-88101544D01*
X175326354Y-88200147D01*
X175451853Y-88325646D01*
X175550456Y-88473216D01*
X175618376Y-88637188D01*
X175653000Y-88811259D01*
X175653000Y-88988741D01*
X175618376Y-89162812D01*
X175550456Y-89326784D01*
X175451853Y-89474354D01*
X175326354Y-89599853D01*
X175178784Y-89698456D01*
X175014812Y-89766376D01*
X174865512Y-89796073D01*
X174840742Y-89801000D01*
X174663258Y-89801000D01*
X174638488Y-89796073D01*
X174489188Y-89766376D01*
X174325216Y-89698456D01*
X174177646Y-89599853D01*
X174052147Y-89474354D01*
X173953544Y-89326784D01*
X173885624Y-89162812D01*
X173851000Y-88988741D01*
X173851000Y-88811259D01*
X173885624Y-88637188D01*
X173953544Y-88473216D01*
X174052147Y-88325646D01*
X174177646Y-88200147D01*
X174325216Y-88101544D01*
X174489188Y-88033624D01*
X174638488Y-88003927D01*
X174663258Y-87999000D01*
X174840742Y-87999000D01*
X174865512Y-88003927D01*
G37*
G36*
X155561512Y-88003927D02*
G01*
X155710812Y-88033624D01*
X155874784Y-88101544D01*
X156022354Y-88200147D01*
X156147853Y-88325646D01*
X156246456Y-88473216D01*
X156314376Y-88637188D01*
X156349000Y-88811259D01*
X156349000Y-88988741D01*
X156314376Y-89162812D01*
X156246456Y-89326784D01*
X156147853Y-89474354D01*
X156022354Y-89599853D01*
X155874784Y-89698456D01*
X155710812Y-89766376D01*
X155561512Y-89796073D01*
X155536742Y-89801000D01*
X155359258Y-89801000D01*
X155334488Y-89796073D01*
X155185188Y-89766376D01*
X155021216Y-89698456D01*
X154873646Y-89599853D01*
X154748147Y-89474354D01*
X154649544Y-89326784D01*
X154581624Y-89162812D01*
X154547000Y-88988741D01*
X154547000Y-88811259D01*
X154581624Y-88637188D01*
X154649544Y-88473216D01*
X154748147Y-88325646D01*
X154873646Y-88200147D01*
X155021216Y-88101544D01*
X155185188Y-88033624D01*
X155334488Y-88003927D01*
X155359258Y-87999000D01*
X155536742Y-87999000D01*
X155561512Y-88003927D01*
G37*
G36*
X78345512Y-88003927D02*
G01*
X78494812Y-88033624D01*
X78658784Y-88101544D01*
X78806354Y-88200147D01*
X78931853Y-88325646D01*
X79030456Y-88473216D01*
X79098376Y-88637188D01*
X79133000Y-88811259D01*
X79133000Y-88988741D01*
X79098376Y-89162812D01*
X79030456Y-89326784D01*
X78931853Y-89474354D01*
X78806354Y-89599853D01*
X78658784Y-89698456D01*
X78494812Y-89766376D01*
X78345512Y-89796073D01*
X78320742Y-89801000D01*
X78143258Y-89801000D01*
X78118488Y-89796073D01*
X77969188Y-89766376D01*
X77805216Y-89698456D01*
X77657646Y-89599853D01*
X77532147Y-89474354D01*
X77433544Y-89326784D01*
X77365624Y-89162812D01*
X77331000Y-88988741D01*
X77331000Y-88811259D01*
X77365624Y-88637188D01*
X77433544Y-88473216D01*
X77532147Y-88325646D01*
X77657646Y-88200147D01*
X77805216Y-88101544D01*
X77969188Y-88033624D01*
X78118488Y-88003927D01*
X78143258Y-87999000D01*
X78320742Y-87999000D01*
X78345512Y-88003927D01*
G37*
G36*
X68185512Y-88003927D02*
G01*
X68334812Y-88033624D01*
X68498784Y-88101544D01*
X68646354Y-88200147D01*
X68771853Y-88325646D01*
X68870456Y-88473216D01*
X68938376Y-88637188D01*
X68973000Y-88811259D01*
X68973000Y-88988741D01*
X68938376Y-89162812D01*
X68870456Y-89326784D01*
X68771853Y-89474354D01*
X68646354Y-89599853D01*
X68498784Y-89698456D01*
X68334812Y-89766376D01*
X68185512Y-89796073D01*
X68160742Y-89801000D01*
X67983258Y-89801000D01*
X67958488Y-89796073D01*
X67809188Y-89766376D01*
X67645216Y-89698456D01*
X67497646Y-89599853D01*
X67372147Y-89474354D01*
X67273544Y-89326784D01*
X67205624Y-89162812D01*
X67171000Y-88988741D01*
X67171000Y-88811259D01*
X67205624Y-88637188D01*
X67273544Y-88473216D01*
X67372147Y-88325646D01*
X67497646Y-88200147D01*
X67645216Y-88101544D01*
X67809188Y-88033624D01*
X67958488Y-88003927D01*
X67983258Y-87999000D01*
X68160742Y-87999000D01*
X68185512Y-88003927D01*
G37*
G36*
X97649512Y-88003927D02*
G01*
X97798812Y-88033624D01*
X97962784Y-88101544D01*
X98110354Y-88200147D01*
X98235853Y-88325646D01*
X98334456Y-88473216D01*
X98402376Y-88637188D01*
X98437000Y-88811259D01*
X98437000Y-88988741D01*
X98402376Y-89162812D01*
X98334456Y-89326784D01*
X98235853Y-89474354D01*
X98110354Y-89599853D01*
X97962784Y-89698456D01*
X97798812Y-89766376D01*
X97649512Y-89796073D01*
X97624742Y-89801000D01*
X97447258Y-89801000D01*
X97422488Y-89796073D01*
X97273188Y-89766376D01*
X97109216Y-89698456D01*
X96961646Y-89599853D01*
X96836147Y-89474354D01*
X96737544Y-89326784D01*
X96669624Y-89162812D01*
X96635000Y-88988741D01*
X96635000Y-88811259D01*
X96669624Y-88637188D01*
X96737544Y-88473216D01*
X96836147Y-88325646D01*
X96961646Y-88200147D01*
X97109216Y-88101544D01*
X97273188Y-88033624D01*
X97422488Y-88003927D01*
X97447258Y-87999000D01*
X97624742Y-87999000D01*
X97649512Y-88003927D01*
G37*
G36*
X116953512Y-88003927D02*
G01*
X117102812Y-88033624D01*
X117266784Y-88101544D01*
X117414354Y-88200147D01*
X117539853Y-88325646D01*
X117638456Y-88473216D01*
X117706376Y-88637188D01*
X117741000Y-88811259D01*
X117741000Y-88988741D01*
X117706376Y-89162812D01*
X117638456Y-89326784D01*
X117539853Y-89474354D01*
X117414354Y-89599853D01*
X117266784Y-89698456D01*
X117102812Y-89766376D01*
X116953512Y-89796073D01*
X116928742Y-89801000D01*
X116751258Y-89801000D01*
X116726488Y-89796073D01*
X116577188Y-89766376D01*
X116413216Y-89698456D01*
X116265646Y-89599853D01*
X116140147Y-89474354D01*
X116041544Y-89326784D01*
X115973624Y-89162812D01*
X115939000Y-88988741D01*
X115939000Y-88811259D01*
X115973624Y-88637188D01*
X116041544Y-88473216D01*
X116140147Y-88325646D01*
X116265646Y-88200147D01*
X116413216Y-88101544D01*
X116577188Y-88033624D01*
X116726488Y-88003927D01*
X116751258Y-87999000D01*
X116928742Y-87999000D01*
X116953512Y-88003927D01*
G37*
G36*
X106793512Y-88003927D02*
G01*
X106942812Y-88033624D01*
X107106784Y-88101544D01*
X107254354Y-88200147D01*
X107379853Y-88325646D01*
X107478456Y-88473216D01*
X107546376Y-88637188D01*
X107581000Y-88811259D01*
X107581000Y-88988741D01*
X107546376Y-89162812D01*
X107478456Y-89326784D01*
X107379853Y-89474354D01*
X107254354Y-89599853D01*
X107106784Y-89698456D01*
X106942812Y-89766376D01*
X106793512Y-89796073D01*
X106768742Y-89801000D01*
X106591258Y-89801000D01*
X106566488Y-89796073D01*
X106417188Y-89766376D01*
X106253216Y-89698456D01*
X106105646Y-89599853D01*
X105980147Y-89474354D01*
X105881544Y-89326784D01*
X105813624Y-89162812D01*
X105779000Y-88988741D01*
X105779000Y-88811259D01*
X105813624Y-88637188D01*
X105881544Y-88473216D01*
X105980147Y-88325646D01*
X106105646Y-88200147D01*
X106253216Y-88101544D01*
X106417188Y-88033624D01*
X106566488Y-88003927D01*
X106591258Y-87999000D01*
X106768742Y-87999000D01*
X106793512Y-88003927D01*
G37*
G36*
X145401512Y-88003927D02*
G01*
X145550812Y-88033624D01*
X145714784Y-88101544D01*
X145862354Y-88200147D01*
X145987853Y-88325646D01*
X146086456Y-88473216D01*
X146154376Y-88637188D01*
X146189000Y-88811259D01*
X146189000Y-88988741D01*
X146154376Y-89162812D01*
X146086456Y-89326784D01*
X145987853Y-89474354D01*
X145862354Y-89599853D01*
X145714784Y-89698456D01*
X145550812Y-89766376D01*
X145401512Y-89796073D01*
X145376742Y-89801000D01*
X145199258Y-89801000D01*
X145174488Y-89796073D01*
X145025188Y-89766376D01*
X144861216Y-89698456D01*
X144713646Y-89599853D01*
X144588147Y-89474354D01*
X144489544Y-89326784D01*
X144421624Y-89162812D01*
X144387000Y-88988741D01*
X144387000Y-88811259D01*
X144421624Y-88637188D01*
X144489544Y-88473216D01*
X144588147Y-88325646D01*
X144713646Y-88200147D01*
X144861216Y-88101544D01*
X145025188Y-88033624D01*
X145174488Y-88003927D01*
X145199258Y-87999000D01*
X145376742Y-87999000D01*
X145401512Y-88003927D01*
G37*
G36*
X136257512Y-88003927D02*
G01*
X136406812Y-88033624D01*
X136570784Y-88101544D01*
X136718354Y-88200147D01*
X136843853Y-88325646D01*
X136942456Y-88473216D01*
X137010376Y-88637188D01*
X137045000Y-88811259D01*
X137045000Y-88988741D01*
X137010376Y-89162812D01*
X136942456Y-89326784D01*
X136843853Y-89474354D01*
X136718354Y-89599853D01*
X136570784Y-89698456D01*
X136406812Y-89766376D01*
X136257512Y-89796073D01*
X136232742Y-89801000D01*
X136055258Y-89801000D01*
X136030488Y-89796073D01*
X135881188Y-89766376D01*
X135717216Y-89698456D01*
X135569646Y-89599853D01*
X135444147Y-89474354D01*
X135345544Y-89326784D01*
X135277624Y-89162812D01*
X135243000Y-88988741D01*
X135243000Y-88811259D01*
X135277624Y-88637188D01*
X135345544Y-88473216D01*
X135444147Y-88325646D01*
X135569646Y-88200147D01*
X135717216Y-88101544D01*
X135881188Y-88033624D01*
X136030488Y-88003927D01*
X136055258Y-87999000D01*
X136232742Y-87999000D01*
X136257512Y-88003927D01*
G37*
G36*
X126097512Y-88003927D02*
G01*
X126246812Y-88033624D01*
X126410784Y-88101544D01*
X126558354Y-88200147D01*
X126683853Y-88325646D01*
X126782456Y-88473216D01*
X126850376Y-88637188D01*
X126885000Y-88811259D01*
X126885000Y-88988741D01*
X126850376Y-89162812D01*
X126782456Y-89326784D01*
X126683853Y-89474354D01*
X126558354Y-89599853D01*
X126410784Y-89698456D01*
X126246812Y-89766376D01*
X126097512Y-89796073D01*
X126072742Y-89801000D01*
X125895258Y-89801000D01*
X125870488Y-89796073D01*
X125721188Y-89766376D01*
X125557216Y-89698456D01*
X125409646Y-89599853D01*
X125284147Y-89474354D01*
X125185544Y-89326784D01*
X125117624Y-89162812D01*
X125083000Y-88988741D01*
X125083000Y-88811259D01*
X125117624Y-88637188D01*
X125185544Y-88473216D01*
X125284147Y-88325646D01*
X125409646Y-88200147D01*
X125557216Y-88101544D01*
X125721188Y-88033624D01*
X125870488Y-88003927D01*
X125895258Y-87999000D01*
X126072742Y-87999000D01*
X126097512Y-88003927D01*
G37*
G36*
X87489512Y-88003927D02*
G01*
X87638812Y-88033624D01*
X87802784Y-88101544D01*
X87950354Y-88200147D01*
X88075853Y-88325646D01*
X88174456Y-88473216D01*
X88242376Y-88637188D01*
X88277000Y-88811259D01*
X88277000Y-88988741D01*
X88242376Y-89162812D01*
X88174456Y-89326784D01*
X88075853Y-89474354D01*
X87950354Y-89599853D01*
X87802784Y-89698456D01*
X87638812Y-89766376D01*
X87489512Y-89796073D01*
X87464742Y-89801000D01*
X87287258Y-89801000D01*
X87262488Y-89796073D01*
X87113188Y-89766376D01*
X86949216Y-89698456D01*
X86801646Y-89599853D01*
X86676147Y-89474354D01*
X86577544Y-89326784D01*
X86509624Y-89162812D01*
X86475000Y-88988741D01*
X86475000Y-88811259D01*
X86509624Y-88637188D01*
X86577544Y-88473216D01*
X86676147Y-88325646D01*
X86801646Y-88200147D01*
X86949216Y-88101544D01*
X87113188Y-88033624D01*
X87262488Y-88003927D01*
X87287258Y-87999000D01*
X87464742Y-87999000D01*
X87489512Y-88003927D01*
G37*
G36*
X194231000Y-88175000D02*
G01*
X193129000Y-88175000D01*
X193129000Y-86373000D01*
X194231000Y-86373000D01*
X194231000Y-88175000D01*
G37*
G36*
X198031000Y-88175000D02*
G01*
X196929000Y-88175000D01*
X196929000Y-86373000D01*
X198031000Y-86373000D01*
X198031000Y-88175000D01*
G37*
G36*
X201244468Y-86812065D02*
G01*
X201283138Y-86823796D01*
X201318777Y-86842846D01*
X201350017Y-86868483D01*
X201375654Y-86899723D01*
X201394704Y-86935362D01*
X201406435Y-86974032D01*
X201411000Y-87020388D01*
X201411000Y-87671612D01*
X201406435Y-87717968D01*
X201394704Y-87756638D01*
X201375654Y-87792277D01*
X201350017Y-87823517D01*
X201318777Y-87849154D01*
X201283138Y-87868204D01*
X201244468Y-87879935D01*
X201198112Y-87884500D01*
X200121888Y-87884500D01*
X200075532Y-87879935D01*
X200036862Y-87868204D01*
X200001223Y-87849154D01*
X199969983Y-87823517D01*
X199944346Y-87792277D01*
X199925296Y-87756638D01*
X199913565Y-87717968D01*
X199909000Y-87671612D01*
X199909000Y-87020388D01*
X199913565Y-86974032D01*
X199925296Y-86935362D01*
X199944346Y-86899723D01*
X199969983Y-86868483D01*
X200001223Y-86842846D01*
X200036862Y-86823796D01*
X200075532Y-86812065D01*
X200121888Y-86807500D01*
X201198112Y-86807500D01*
X201244468Y-86812065D01*
G37*
G36*
X146782549Y-85231116D02*
G01*
X146893734Y-85253232D01*
X147103203Y-85339997D01*
X147291720Y-85465960D01*
X147452040Y-85626280D01*
X147578003Y-85814797D01*
X147664768Y-86024266D01*
X147709000Y-86246636D01*
X147709000Y-86473364D01*
X147664768Y-86695734D01*
X147578003Y-86905203D01*
X147452040Y-87093720D01*
X147291720Y-87254040D01*
X147103203Y-87380003D01*
X146893734Y-87466768D01*
X146782549Y-87488884D01*
X146671365Y-87511000D01*
X146444635Y-87511000D01*
X146333451Y-87488884D01*
X146222266Y-87466768D01*
X146012797Y-87380003D01*
X145824280Y-87254040D01*
X145663960Y-87093720D01*
X145537997Y-86905203D01*
X145451232Y-86695734D01*
X145407000Y-86473364D01*
X145407000Y-86246636D01*
X145451232Y-86024266D01*
X145537997Y-85814797D01*
X145663960Y-85626280D01*
X145824280Y-85465960D01*
X146012797Y-85339997D01*
X146222266Y-85253232D01*
X146333451Y-85231116D01*
X146444635Y-85209000D01*
X146671365Y-85209000D01*
X146782549Y-85231116D01*
G37*
G36*
X88870549Y-85231116D02*
G01*
X88981734Y-85253232D01*
X89191203Y-85339997D01*
X89379720Y-85465960D01*
X89540040Y-85626280D01*
X89666003Y-85814797D01*
X89752768Y-86024266D01*
X89797000Y-86246636D01*
X89797000Y-86473364D01*
X89752768Y-86695734D01*
X89666003Y-86905203D01*
X89540040Y-87093720D01*
X89379720Y-87254040D01*
X89191203Y-87380003D01*
X88981734Y-87466768D01*
X88870549Y-87488884D01*
X88759365Y-87511000D01*
X88532635Y-87511000D01*
X88421451Y-87488884D01*
X88310266Y-87466768D01*
X88100797Y-87380003D01*
X87912280Y-87254040D01*
X87751960Y-87093720D01*
X87625997Y-86905203D01*
X87539232Y-86695734D01*
X87495000Y-86473364D01*
X87495000Y-86246636D01*
X87539232Y-86024266D01*
X87625997Y-85814797D01*
X87751960Y-85626280D01*
X87912280Y-85465960D01*
X88100797Y-85339997D01*
X88310266Y-85253232D01*
X88421451Y-85231116D01*
X88532635Y-85209000D01*
X88759365Y-85209000D01*
X88870549Y-85231116D01*
G37*
G36*
X69566549Y-85231116D02*
G01*
X69677734Y-85253232D01*
X69887203Y-85339997D01*
X70075720Y-85465960D01*
X70236040Y-85626280D01*
X70362003Y-85814797D01*
X70448768Y-86024266D01*
X70493000Y-86246636D01*
X70493000Y-86473364D01*
X70448768Y-86695734D01*
X70362003Y-86905203D01*
X70236040Y-87093720D01*
X70075720Y-87254040D01*
X69887203Y-87380003D01*
X69677734Y-87466768D01*
X69566549Y-87488884D01*
X69455365Y-87511000D01*
X69228635Y-87511000D01*
X69117451Y-87488884D01*
X69006266Y-87466768D01*
X68796797Y-87380003D01*
X68608280Y-87254040D01*
X68447960Y-87093720D01*
X68321997Y-86905203D01*
X68235232Y-86695734D01*
X68191000Y-86473364D01*
X68191000Y-86246636D01*
X68235232Y-86024266D01*
X68321997Y-85814797D01*
X68447960Y-85626280D01*
X68608280Y-85465960D01*
X68796797Y-85339997D01*
X69006266Y-85253232D01*
X69117451Y-85231116D01*
X69228635Y-85209000D01*
X69455365Y-85209000D01*
X69566549Y-85231116D01*
G37*
G36*
X127478549Y-85231116D02*
G01*
X127589734Y-85253232D01*
X127799203Y-85339997D01*
X127987720Y-85465960D01*
X128148040Y-85626280D01*
X128274003Y-85814797D01*
X128360768Y-86024266D01*
X128405000Y-86246636D01*
X128405000Y-86473364D01*
X128360768Y-86695734D01*
X128274003Y-86905203D01*
X128148040Y-87093720D01*
X127987720Y-87254040D01*
X127799203Y-87380003D01*
X127589734Y-87466768D01*
X127478549Y-87488884D01*
X127367365Y-87511000D01*
X127140635Y-87511000D01*
X127029451Y-87488884D01*
X126918266Y-87466768D01*
X126708797Y-87380003D01*
X126520280Y-87254040D01*
X126359960Y-87093720D01*
X126233997Y-86905203D01*
X126147232Y-86695734D01*
X126103000Y-86473364D01*
X126103000Y-86246636D01*
X126147232Y-86024266D01*
X126233997Y-85814797D01*
X126359960Y-85626280D01*
X126520280Y-85465960D01*
X126708797Y-85339997D01*
X126918266Y-85253232D01*
X127029451Y-85231116D01*
X127140635Y-85209000D01*
X127367365Y-85209000D01*
X127478549Y-85231116D01*
G37*
G36*
X108174549Y-85231116D02*
G01*
X108285734Y-85253232D01*
X108495203Y-85339997D01*
X108683720Y-85465960D01*
X108844040Y-85626280D01*
X108970003Y-85814797D01*
X109056768Y-86024266D01*
X109101000Y-86246636D01*
X109101000Y-86473364D01*
X109056768Y-86695734D01*
X108970003Y-86905203D01*
X108844040Y-87093720D01*
X108683720Y-87254040D01*
X108495203Y-87380003D01*
X108285734Y-87466768D01*
X108174549Y-87488884D01*
X108063365Y-87511000D01*
X107836635Y-87511000D01*
X107725451Y-87488884D01*
X107614266Y-87466768D01*
X107404797Y-87380003D01*
X107216280Y-87254040D01*
X107055960Y-87093720D01*
X106929997Y-86905203D01*
X106843232Y-86695734D01*
X106799000Y-86473364D01*
X106799000Y-86246636D01*
X106843232Y-86024266D01*
X106929997Y-85814797D01*
X107055960Y-85626280D01*
X107216280Y-85465960D01*
X107404797Y-85339997D01*
X107614266Y-85253232D01*
X107725451Y-85231116D01*
X107836635Y-85209000D01*
X108063365Y-85209000D01*
X108174549Y-85231116D01*
G37*
G36*
X166086549Y-85231116D02*
G01*
X166197734Y-85253232D01*
X166407203Y-85339997D01*
X166595720Y-85465960D01*
X166756040Y-85626280D01*
X166882003Y-85814797D01*
X166968768Y-86024266D01*
X167013000Y-86246636D01*
X167013000Y-86473364D01*
X166968768Y-86695734D01*
X166882003Y-86905203D01*
X166756040Y-87093720D01*
X166595720Y-87254040D01*
X166407203Y-87380003D01*
X166197734Y-87466768D01*
X166086549Y-87488884D01*
X165975365Y-87511000D01*
X165748635Y-87511000D01*
X165637451Y-87488884D01*
X165526266Y-87466768D01*
X165316797Y-87380003D01*
X165128280Y-87254040D01*
X164967960Y-87093720D01*
X164841997Y-86905203D01*
X164755232Y-86695734D01*
X164711000Y-86473364D01*
X164711000Y-86246636D01*
X164755232Y-86024266D01*
X164841997Y-85814797D01*
X164967960Y-85626280D01*
X165128280Y-85465960D01*
X165316797Y-85339997D01*
X165526266Y-85253232D01*
X165637451Y-85231116D01*
X165748635Y-85209000D01*
X165975365Y-85209000D01*
X166086549Y-85231116D01*
G37*
G36*
X201244468Y-84937065D02*
G01*
X201283138Y-84948796D01*
X201318777Y-84967846D01*
X201350017Y-84993483D01*
X201375654Y-85024723D01*
X201394704Y-85060362D01*
X201406435Y-85099032D01*
X201411000Y-85145388D01*
X201411000Y-85796612D01*
X201406435Y-85842968D01*
X201394704Y-85881638D01*
X201375654Y-85917277D01*
X201350017Y-85948517D01*
X201318777Y-85974154D01*
X201283138Y-85993204D01*
X201244468Y-86004935D01*
X201198112Y-86009500D01*
X200121888Y-86009500D01*
X200075532Y-86004935D01*
X200036862Y-85993204D01*
X200001223Y-85974154D01*
X199969983Y-85948517D01*
X199944346Y-85917277D01*
X199925296Y-85881638D01*
X199913565Y-85842968D01*
X199909000Y-85796612D01*
X199909000Y-85145388D01*
X199913565Y-85099032D01*
X199925296Y-85060362D01*
X199944346Y-85024723D01*
X199969983Y-84993483D01*
X200001223Y-84967846D01*
X200036862Y-84948796D01*
X200075532Y-84937065D01*
X200121888Y-84932500D01*
X201198112Y-84932500D01*
X201244468Y-84937065D01*
G37*
G36*
X75916549Y-82691116D02*
G01*
X76027734Y-82713232D01*
X76237203Y-82799997D01*
X76425720Y-82925960D01*
X76586040Y-83086280D01*
X76712003Y-83274797D01*
X76798768Y-83484266D01*
X76843000Y-83706636D01*
X76843000Y-83933364D01*
X76798768Y-84155734D01*
X76712003Y-84365203D01*
X76586040Y-84553720D01*
X76425720Y-84714040D01*
X76237203Y-84840003D01*
X76027734Y-84926768D01*
X75916991Y-84948796D01*
X75805365Y-84971000D01*
X75578635Y-84971000D01*
X75467009Y-84948796D01*
X75356266Y-84926768D01*
X75146797Y-84840003D01*
X74958280Y-84714040D01*
X74797960Y-84553720D01*
X74671997Y-84365203D01*
X74585232Y-84155734D01*
X74541000Y-83933364D01*
X74541000Y-83706636D01*
X74585232Y-83484266D01*
X74671997Y-83274797D01*
X74797960Y-83086280D01*
X74958280Y-82925960D01*
X75146797Y-82799997D01*
X75356266Y-82713232D01*
X75467451Y-82691116D01*
X75578635Y-82669000D01*
X75805365Y-82669000D01*
X75916549Y-82691116D01*
G37*
G36*
X95220549Y-82691116D02*
G01*
X95331734Y-82713232D01*
X95541203Y-82799997D01*
X95729720Y-82925960D01*
X95890040Y-83086280D01*
X96016003Y-83274797D01*
X96102768Y-83484266D01*
X96147000Y-83706636D01*
X96147000Y-83933364D01*
X96102768Y-84155734D01*
X96016003Y-84365203D01*
X95890040Y-84553720D01*
X95729720Y-84714040D01*
X95541203Y-84840003D01*
X95331734Y-84926768D01*
X95220991Y-84948796D01*
X95109365Y-84971000D01*
X94882635Y-84971000D01*
X94771009Y-84948796D01*
X94660266Y-84926768D01*
X94450797Y-84840003D01*
X94262280Y-84714040D01*
X94101960Y-84553720D01*
X93975997Y-84365203D01*
X93889232Y-84155734D01*
X93845000Y-83933364D01*
X93845000Y-83706636D01*
X93889232Y-83484266D01*
X93975997Y-83274797D01*
X94101960Y-83086280D01*
X94262280Y-82925960D01*
X94450797Y-82799997D01*
X94660266Y-82713232D01*
X94771451Y-82691116D01*
X94882635Y-82669000D01*
X95109365Y-82669000D01*
X95220549Y-82691116D01*
G37*
G36*
X172436549Y-82691116D02*
G01*
X172547734Y-82713232D01*
X172757203Y-82799997D01*
X172945720Y-82925960D01*
X173106040Y-83086280D01*
X173232003Y-83274797D01*
X173318768Y-83484266D01*
X173363000Y-83706636D01*
X173363000Y-83933364D01*
X173318768Y-84155734D01*
X173232003Y-84365203D01*
X173106040Y-84553720D01*
X172945720Y-84714040D01*
X172757203Y-84840003D01*
X172547734Y-84926768D01*
X172436991Y-84948796D01*
X172325365Y-84971000D01*
X172098635Y-84971000D01*
X171987009Y-84948796D01*
X171876266Y-84926768D01*
X171666797Y-84840003D01*
X171478280Y-84714040D01*
X171317960Y-84553720D01*
X171191997Y-84365203D01*
X171105232Y-84155734D01*
X171061000Y-83933364D01*
X171061000Y-83706636D01*
X171105232Y-83484266D01*
X171191997Y-83274797D01*
X171317960Y-83086280D01*
X171478280Y-82925960D01*
X171666797Y-82799997D01*
X171876266Y-82713232D01*
X171987451Y-82691116D01*
X172098635Y-82669000D01*
X172325365Y-82669000D01*
X172436549Y-82691116D01*
G37*
G36*
X133828549Y-82691116D02*
G01*
X133939734Y-82713232D01*
X134149203Y-82799997D01*
X134337720Y-82925960D01*
X134498040Y-83086280D01*
X134624003Y-83274797D01*
X134710768Y-83484266D01*
X134755000Y-83706636D01*
X134755000Y-83933364D01*
X134710768Y-84155734D01*
X134624003Y-84365203D01*
X134498040Y-84553720D01*
X134337720Y-84714040D01*
X134149203Y-84840003D01*
X133939734Y-84926768D01*
X133828991Y-84948796D01*
X133717365Y-84971000D01*
X133490635Y-84971000D01*
X133379009Y-84948796D01*
X133268266Y-84926768D01*
X133058797Y-84840003D01*
X132870280Y-84714040D01*
X132709960Y-84553720D01*
X132583997Y-84365203D01*
X132497232Y-84155734D01*
X132453000Y-83933364D01*
X132453000Y-83706636D01*
X132497232Y-83484266D01*
X132583997Y-83274797D01*
X132709960Y-83086280D01*
X132870280Y-82925960D01*
X133058797Y-82799997D01*
X133268266Y-82713232D01*
X133379451Y-82691116D01*
X133490635Y-82669000D01*
X133717365Y-82669000D01*
X133828549Y-82691116D01*
G37*
G36*
X153132549Y-82691116D02*
G01*
X153243734Y-82713232D01*
X153453203Y-82799997D01*
X153641720Y-82925960D01*
X153802040Y-83086280D01*
X153928003Y-83274797D01*
X154014768Y-83484266D01*
X154059000Y-83706636D01*
X154059000Y-83933364D01*
X154014768Y-84155734D01*
X153928003Y-84365203D01*
X153802040Y-84553720D01*
X153641720Y-84714040D01*
X153453203Y-84840003D01*
X153243734Y-84926768D01*
X153132991Y-84948796D01*
X153021365Y-84971000D01*
X152794635Y-84971000D01*
X152683009Y-84948796D01*
X152572266Y-84926768D01*
X152362797Y-84840003D01*
X152174280Y-84714040D01*
X152013960Y-84553720D01*
X151887997Y-84365203D01*
X151801232Y-84155734D01*
X151757000Y-83933364D01*
X151757000Y-83706636D01*
X151801232Y-83484266D01*
X151887997Y-83274797D01*
X152013960Y-83086280D01*
X152174280Y-82925960D01*
X152362797Y-82799997D01*
X152572266Y-82713232D01*
X152683451Y-82691116D01*
X152794635Y-82669000D01*
X153021365Y-82669000D01*
X153132549Y-82691116D01*
G37*
G36*
X114524549Y-82691116D02*
G01*
X114635734Y-82713232D01*
X114845203Y-82799997D01*
X115033720Y-82925960D01*
X115194040Y-83086280D01*
X115320003Y-83274797D01*
X115406768Y-83484266D01*
X115451000Y-83706636D01*
X115451000Y-83933364D01*
X115406768Y-84155734D01*
X115320003Y-84365203D01*
X115194040Y-84553720D01*
X115033720Y-84714040D01*
X114845203Y-84840003D01*
X114635734Y-84926768D01*
X114524991Y-84948796D01*
X114413365Y-84971000D01*
X114186635Y-84971000D01*
X114075009Y-84948796D01*
X113964266Y-84926768D01*
X113754797Y-84840003D01*
X113566280Y-84714040D01*
X113405960Y-84553720D01*
X113279997Y-84365203D01*
X113193232Y-84155734D01*
X113149000Y-83933364D01*
X113149000Y-83706636D01*
X113193232Y-83484266D01*
X113279997Y-83274797D01*
X113405960Y-83086280D01*
X113566280Y-82925960D01*
X113754797Y-82799997D01*
X113964266Y-82713232D01*
X114075451Y-82691116D01*
X114186635Y-82669000D01*
X114413365Y-82669000D01*
X114524549Y-82691116D01*
G37*
G36*
X183464468Y-81381065D02*
G01*
X183503138Y-81392796D01*
X183538777Y-81411846D01*
X183570017Y-81437483D01*
X183595654Y-81468723D01*
X183614704Y-81504362D01*
X183626435Y-81543032D01*
X183631000Y-81589388D01*
X183631000Y-82240612D01*
X183626435Y-82286968D01*
X183614704Y-82325638D01*
X183595654Y-82361277D01*
X183570017Y-82392517D01*
X183538777Y-82418154D01*
X183503138Y-82437204D01*
X183464468Y-82448935D01*
X183418112Y-82453500D01*
X182341888Y-82453500D01*
X182295532Y-82448935D01*
X182256862Y-82437204D01*
X182221223Y-82418154D01*
X182189983Y-82392517D01*
X182164346Y-82361277D01*
X182145296Y-82325638D01*
X182133565Y-82286968D01*
X182129000Y-82240612D01*
X182129000Y-81589388D01*
X182133565Y-81543032D01*
X182145296Y-81504362D01*
X182164346Y-81468723D01*
X182189983Y-81437483D01*
X182221223Y-81411846D01*
X182256862Y-81392796D01*
X182295532Y-81381065D01*
X182341888Y-81376500D01*
X183418112Y-81376500D01*
X183464468Y-81381065D01*
G37*
G36*
X196096000Y-82447000D02*
G01*
X187444000Y-82447000D01*
X187444000Y-80845000D01*
X196096000Y-80845000D01*
X196096000Y-82447000D01*
G37*
G36*
X201244468Y-81366065D02*
G01*
X201283138Y-81377796D01*
X201318777Y-81396846D01*
X201350017Y-81422483D01*
X201375654Y-81453723D01*
X201394704Y-81489362D01*
X201406435Y-81528032D01*
X201411000Y-81574388D01*
X201411000Y-82225612D01*
X201406435Y-82271968D01*
X201394704Y-82310638D01*
X201375654Y-82346277D01*
X201350017Y-82377517D01*
X201318777Y-82403154D01*
X201283138Y-82422204D01*
X201244468Y-82433935D01*
X201198112Y-82438500D01*
X200121888Y-82438500D01*
X200075532Y-82433935D01*
X200036862Y-82422204D01*
X200001223Y-82403154D01*
X199969983Y-82377517D01*
X199944346Y-82346277D01*
X199925296Y-82310638D01*
X199913565Y-82271968D01*
X199909000Y-82225612D01*
X199909000Y-81574388D01*
X199913565Y-81528032D01*
X199925296Y-81489362D01*
X199944346Y-81453723D01*
X199969983Y-81422483D01*
X200001223Y-81396846D01*
X200036862Y-81377796D01*
X200075532Y-81366065D01*
X200121888Y-81361500D01*
X201198112Y-81361500D01*
X201244468Y-81366065D01*
G37*
G36*
X183464468Y-79506065D02*
G01*
X183503138Y-79517796D01*
X183538777Y-79536846D01*
X183570017Y-79562483D01*
X183595654Y-79593723D01*
X183614704Y-79629362D01*
X183626435Y-79668032D01*
X183631000Y-79714388D01*
X183631000Y-80365612D01*
X183626435Y-80411968D01*
X183614704Y-80450638D01*
X183595654Y-80486277D01*
X183570017Y-80517517D01*
X183538777Y-80543154D01*
X183503138Y-80562204D01*
X183464468Y-80573935D01*
X183418112Y-80578500D01*
X182341888Y-80578500D01*
X182295532Y-80573935D01*
X182256862Y-80562204D01*
X182221223Y-80543154D01*
X182189983Y-80517517D01*
X182164346Y-80486277D01*
X182145296Y-80450638D01*
X182133565Y-80411968D01*
X182129000Y-80365612D01*
X182129000Y-79714388D01*
X182133565Y-79668032D01*
X182145296Y-79629362D01*
X182164346Y-79593723D01*
X182189983Y-79562483D01*
X182221223Y-79536846D01*
X182256862Y-79517796D01*
X182295532Y-79506065D01*
X182341888Y-79501500D01*
X183418112Y-79501500D01*
X183464468Y-79506065D01*
G37*
G36*
X201244468Y-79491065D02*
G01*
X201283138Y-79502796D01*
X201318777Y-79521846D01*
X201350017Y-79547483D01*
X201375654Y-79578723D01*
X201394704Y-79614362D01*
X201406435Y-79653032D01*
X201411000Y-79699388D01*
X201411000Y-80350612D01*
X201406435Y-80396968D01*
X201394704Y-80435638D01*
X201375654Y-80471277D01*
X201350017Y-80502517D01*
X201318777Y-80528154D01*
X201283138Y-80547204D01*
X201244468Y-80558935D01*
X201198112Y-80563500D01*
X200121888Y-80563500D01*
X200075532Y-80558935D01*
X200036862Y-80547204D01*
X200001223Y-80528154D01*
X199969983Y-80502517D01*
X199944346Y-80471277D01*
X199925296Y-80435638D01*
X199913565Y-80396968D01*
X199909000Y-80350612D01*
X199909000Y-79699388D01*
X199913565Y-79653032D01*
X199925296Y-79614362D01*
X199944346Y-79578723D01*
X199969983Y-79547483D01*
X200001223Y-79521846D01*
X200036862Y-79502796D01*
X200075532Y-79491065D01*
X200121888Y-79486500D01*
X201198112Y-79486500D01*
X201244468Y-79491065D01*
G37*
G36*
X186871000Y-80272000D02*
G01*
X185269000Y-80272000D01*
X185269000Y-71620000D01*
X186871000Y-71620000D01*
X186871000Y-80272000D01*
G37*
G36*
X198271000Y-80272000D02*
G01*
X196669000Y-80272000D01*
X196669000Y-71620000D01*
X198271000Y-71620000D01*
X198271000Y-80272000D01*
G37*
G36*
X183464468Y-76349565D02*
G01*
X183503138Y-76361296D01*
X183538777Y-76380346D01*
X183570017Y-76405983D01*
X183595654Y-76437223D01*
X183614704Y-76472862D01*
X183626435Y-76511532D01*
X183631000Y-76557888D01*
X183631000Y-77209112D01*
X183626435Y-77255468D01*
X183614704Y-77294138D01*
X183595654Y-77329777D01*
X183570017Y-77361017D01*
X183538777Y-77386654D01*
X183503138Y-77405704D01*
X183464468Y-77417435D01*
X183418112Y-77422000D01*
X182341888Y-77422000D01*
X182295532Y-77417435D01*
X182256862Y-77405704D01*
X182221223Y-77386654D01*
X182189983Y-77361017D01*
X182164346Y-77329777D01*
X182145296Y-77294138D01*
X182133565Y-77255468D01*
X182129000Y-77209112D01*
X182129000Y-76557888D01*
X182133565Y-76511532D01*
X182145296Y-76472862D01*
X182164346Y-76437223D01*
X182189983Y-76405983D01*
X182221223Y-76380346D01*
X182256862Y-76361296D01*
X182295532Y-76349565D01*
X182341888Y-76345000D01*
X183418112Y-76345000D01*
X183464468Y-76349565D01*
G37*
G36*
X201244468Y-76301065D02*
G01*
X201283138Y-76312796D01*
X201318777Y-76331846D01*
X201350017Y-76357483D01*
X201375654Y-76388723D01*
X201394704Y-76424362D01*
X201406435Y-76463032D01*
X201411000Y-76509388D01*
X201411000Y-77160612D01*
X201406435Y-77206968D01*
X201394704Y-77245638D01*
X201375654Y-77281277D01*
X201350017Y-77312517D01*
X201318777Y-77338154D01*
X201283138Y-77357204D01*
X201244468Y-77368935D01*
X201198112Y-77373500D01*
X200121888Y-77373500D01*
X200075532Y-77368935D01*
X200036862Y-77357204D01*
X200001223Y-77338154D01*
X199969983Y-77312517D01*
X199944346Y-77281277D01*
X199925296Y-77245638D01*
X199913565Y-77206968D01*
X199909000Y-77160612D01*
X199909000Y-76509388D01*
X199913565Y-76463032D01*
X199925296Y-76424362D01*
X199944346Y-76388723D01*
X199969983Y-76357483D01*
X200001223Y-76331846D01*
X200036862Y-76312796D01*
X200075532Y-76301065D01*
X200121888Y-76296500D01*
X201198112Y-76296500D01*
X201244468Y-76301065D01*
G37*
G36*
X183464468Y-74474565D02*
G01*
X183503138Y-74486296D01*
X183538777Y-74505346D01*
X183570017Y-74530983D01*
X183595654Y-74562223D01*
X183614704Y-74597862D01*
X183626435Y-74636532D01*
X183631000Y-74682888D01*
X183631000Y-75334112D01*
X183626435Y-75380468D01*
X183614704Y-75419138D01*
X183595654Y-75454777D01*
X183570017Y-75486017D01*
X183538777Y-75511654D01*
X183503138Y-75530704D01*
X183464468Y-75542435D01*
X183418112Y-75547000D01*
X182341888Y-75547000D01*
X182295532Y-75542435D01*
X182256862Y-75530704D01*
X182221223Y-75511654D01*
X182189983Y-75486017D01*
X182164346Y-75454777D01*
X182145296Y-75419138D01*
X182133565Y-75380468D01*
X182129000Y-75334112D01*
X182129000Y-74682888D01*
X182133565Y-74636532D01*
X182145296Y-74597862D01*
X182164346Y-74562223D01*
X182189983Y-74530983D01*
X182221223Y-74505346D01*
X182256862Y-74486296D01*
X182295532Y-74474565D01*
X182341888Y-74470000D01*
X183418112Y-74470000D01*
X183464468Y-74474565D01*
G37*
G36*
X201244468Y-74426065D02*
G01*
X201283138Y-74437796D01*
X201318777Y-74456846D01*
X201350017Y-74482483D01*
X201375654Y-74513723D01*
X201394704Y-74549362D01*
X201406435Y-74588032D01*
X201411000Y-74634388D01*
X201411000Y-75285612D01*
X201406435Y-75331968D01*
X201394704Y-75370638D01*
X201375654Y-75406277D01*
X201350017Y-75437517D01*
X201318777Y-75463154D01*
X201283138Y-75482204D01*
X201244468Y-75493935D01*
X201198112Y-75498500D01*
X200121888Y-75498500D01*
X200075532Y-75493935D01*
X200036862Y-75482204D01*
X200001223Y-75463154D01*
X199969983Y-75437517D01*
X199944346Y-75406277D01*
X199925296Y-75370638D01*
X199913565Y-75331968D01*
X199909000Y-75285612D01*
X199909000Y-74634388D01*
X199913565Y-74588032D01*
X199925296Y-74549362D01*
X199944346Y-74513723D01*
X199969983Y-74482483D01*
X200001223Y-74456846D01*
X200036862Y-74437796D01*
X200075532Y-74426065D01*
X200121888Y-74421500D01*
X201198112Y-74421500D01*
X201244468Y-74426065D01*
G37*
G36*
X183464468Y-71348065D02*
G01*
X183503138Y-71359796D01*
X183538777Y-71378846D01*
X183570017Y-71404483D01*
X183595654Y-71435723D01*
X183614704Y-71471362D01*
X183626435Y-71510032D01*
X183631000Y-71556388D01*
X183631000Y-72207612D01*
X183626435Y-72253968D01*
X183614704Y-72292638D01*
X183595654Y-72328277D01*
X183570017Y-72359517D01*
X183538777Y-72385154D01*
X183503138Y-72404204D01*
X183464468Y-72415935D01*
X183418112Y-72420500D01*
X182341888Y-72420500D01*
X182295532Y-72415935D01*
X182256862Y-72404204D01*
X182221223Y-72385154D01*
X182189983Y-72359517D01*
X182164346Y-72328277D01*
X182145296Y-72292638D01*
X182133565Y-72253968D01*
X182129000Y-72207612D01*
X182129000Y-71556388D01*
X182133565Y-71510032D01*
X182145296Y-71471362D01*
X182164346Y-71435723D01*
X182189983Y-71404483D01*
X182221223Y-71378846D01*
X182256862Y-71359796D01*
X182295532Y-71348065D01*
X182341888Y-71343500D01*
X183418112Y-71343500D01*
X183464468Y-71348065D01*
G37*
G36*
X201244468Y-71348065D02*
G01*
X201283138Y-71359796D01*
X201318777Y-71378846D01*
X201350017Y-71404483D01*
X201375654Y-71435723D01*
X201394704Y-71471362D01*
X201406435Y-71510032D01*
X201411000Y-71556388D01*
X201411000Y-72207612D01*
X201406435Y-72253968D01*
X201394704Y-72292638D01*
X201375654Y-72328277D01*
X201350017Y-72359517D01*
X201318777Y-72385154D01*
X201283138Y-72404204D01*
X201244468Y-72415935D01*
X201198112Y-72420500D01*
X200121888Y-72420500D01*
X200075532Y-72415935D01*
X200036862Y-72404204D01*
X200001223Y-72385154D01*
X199969983Y-72359517D01*
X199944346Y-72328277D01*
X199925296Y-72292638D01*
X199913565Y-72253968D01*
X199909000Y-72207612D01*
X199909000Y-71556388D01*
X199913565Y-71510032D01*
X199925296Y-71471362D01*
X199944346Y-71435723D01*
X199969983Y-71404483D01*
X200001223Y-71378846D01*
X200036862Y-71359796D01*
X200075532Y-71348065D01*
X200121888Y-71343500D01*
X201198112Y-71343500D01*
X201244468Y-71348065D01*
G37*
G36*
X170270254Y-67623818D02*
G01*
X170643511Y-67778426D01*
X170643513Y-67778427D01*
X170979436Y-68002884D01*
X171265116Y-68288564D01*
X171489574Y-68624489D01*
X171644182Y-68997746D01*
X171723000Y-69393993D01*
X171723000Y-69798007D01*
X171644182Y-70194254D01*
X171505441Y-70529204D01*
X171489573Y-70567513D01*
X171265116Y-70903436D01*
X170979436Y-71189116D01*
X170643513Y-71413573D01*
X170643512Y-71413574D01*
X170643511Y-71413574D01*
X170270254Y-71568182D01*
X169874007Y-71647000D01*
X169469993Y-71647000D01*
X169073746Y-71568182D01*
X168700489Y-71413574D01*
X168700488Y-71413574D01*
X168700487Y-71413573D01*
X168364564Y-71189116D01*
X168078884Y-70903436D01*
X167854427Y-70567513D01*
X167838559Y-70529204D01*
X167699818Y-70194254D01*
X167621000Y-69798007D01*
X167621000Y-69393993D01*
X167699818Y-68997746D01*
X167854426Y-68624489D01*
X168078884Y-68288564D01*
X168364564Y-68002884D01*
X168700487Y-67778427D01*
X168700489Y-67778426D01*
X169073746Y-67623818D01*
X169469993Y-67545000D01*
X169874007Y-67545000D01*
X170270254Y-67623818D01*
G37*
G36*
X150966254Y-67623818D02*
G01*
X151339511Y-67778426D01*
X151339513Y-67778427D01*
X151675436Y-68002884D01*
X151961116Y-68288564D01*
X152185574Y-68624489D01*
X152340182Y-68997746D01*
X152419000Y-69393993D01*
X152419000Y-69798007D01*
X152340182Y-70194254D01*
X152201441Y-70529204D01*
X152185573Y-70567513D01*
X151961116Y-70903436D01*
X151675436Y-71189116D01*
X151339513Y-71413573D01*
X151339512Y-71413574D01*
X151339511Y-71413574D01*
X150966254Y-71568182D01*
X150570007Y-71647000D01*
X150165993Y-71647000D01*
X149769746Y-71568182D01*
X149396489Y-71413574D01*
X149396488Y-71413574D01*
X149396487Y-71413573D01*
X149060564Y-71189116D01*
X148774884Y-70903436D01*
X148550427Y-70567513D01*
X148534559Y-70529204D01*
X148395818Y-70194254D01*
X148317000Y-69798007D01*
X148317000Y-69393993D01*
X148395818Y-68997746D01*
X148550426Y-68624489D01*
X148774884Y-68288564D01*
X149060564Y-68002884D01*
X149396487Y-67778427D01*
X149396489Y-67778426D01*
X149769746Y-67623818D01*
X150165993Y-67545000D01*
X150570007Y-67545000D01*
X150966254Y-67623818D01*
G37*
G36*
X131662254Y-67623818D02*
G01*
X132035511Y-67778426D01*
X132035513Y-67778427D01*
X132371436Y-68002884D01*
X132657116Y-68288564D01*
X132881574Y-68624489D01*
X133036182Y-68997746D01*
X133115000Y-69393993D01*
X133115000Y-69798007D01*
X133036182Y-70194254D01*
X132897441Y-70529204D01*
X132881573Y-70567513D01*
X132657116Y-70903436D01*
X132371436Y-71189116D01*
X132035513Y-71413573D01*
X132035512Y-71413574D01*
X132035511Y-71413574D01*
X131662254Y-71568182D01*
X131266007Y-71647000D01*
X130861993Y-71647000D01*
X130465746Y-71568182D01*
X130092489Y-71413574D01*
X130092488Y-71413574D01*
X130092487Y-71413573D01*
X129756564Y-71189116D01*
X129470884Y-70903436D01*
X129246427Y-70567513D01*
X129230559Y-70529204D01*
X129091818Y-70194254D01*
X129013000Y-69798007D01*
X129013000Y-69393993D01*
X129091818Y-68997746D01*
X129246426Y-68624489D01*
X129470884Y-68288564D01*
X129756564Y-68002884D01*
X130092487Y-67778427D01*
X130092489Y-67778426D01*
X130465746Y-67623818D01*
X130861993Y-67545000D01*
X131266007Y-67545000D01*
X131662254Y-67623818D01*
G37*
G36*
X112358254Y-67623818D02*
G01*
X112731511Y-67778426D01*
X112731513Y-67778427D01*
X113067436Y-68002884D01*
X113353116Y-68288564D01*
X113577574Y-68624489D01*
X113732182Y-68997746D01*
X113811000Y-69393993D01*
X113811000Y-69798007D01*
X113732182Y-70194254D01*
X113593441Y-70529204D01*
X113577573Y-70567513D01*
X113353116Y-70903436D01*
X113067436Y-71189116D01*
X112731513Y-71413573D01*
X112731512Y-71413574D01*
X112731511Y-71413574D01*
X112358254Y-71568182D01*
X111962007Y-71647000D01*
X111557993Y-71647000D01*
X111161746Y-71568182D01*
X110788489Y-71413574D01*
X110788488Y-71413574D01*
X110788487Y-71413573D01*
X110452564Y-71189116D01*
X110166884Y-70903436D01*
X109942427Y-70567513D01*
X109926559Y-70529204D01*
X109787818Y-70194254D01*
X109709000Y-69798007D01*
X109709000Y-69393993D01*
X109787818Y-68997746D01*
X109942426Y-68624489D01*
X110166884Y-68288564D01*
X110452564Y-68002884D01*
X110788487Y-67778427D01*
X110788489Y-67778426D01*
X111161746Y-67623818D01*
X111557993Y-67545000D01*
X111962007Y-67545000D01*
X112358254Y-67623818D01*
G37*
G36*
X93054254Y-67623818D02*
G01*
X93427511Y-67778426D01*
X93427513Y-67778427D01*
X93763436Y-68002884D01*
X94049116Y-68288564D01*
X94273574Y-68624489D01*
X94428182Y-68997746D01*
X94507000Y-69393993D01*
X94507000Y-69798007D01*
X94428182Y-70194254D01*
X94289441Y-70529204D01*
X94273573Y-70567513D01*
X94049116Y-70903436D01*
X93763436Y-71189116D01*
X93427513Y-71413573D01*
X93427512Y-71413574D01*
X93427511Y-71413574D01*
X93054254Y-71568182D01*
X92658007Y-71647000D01*
X92253993Y-71647000D01*
X91857746Y-71568182D01*
X91484489Y-71413574D01*
X91484488Y-71413574D01*
X91484487Y-71413573D01*
X91148564Y-71189116D01*
X90862884Y-70903436D01*
X90638427Y-70567513D01*
X90622559Y-70529204D01*
X90483818Y-70194254D01*
X90405000Y-69798007D01*
X90405000Y-69393993D01*
X90483818Y-68997746D01*
X90638426Y-68624489D01*
X90862884Y-68288564D01*
X91148564Y-68002884D01*
X91484487Y-67778427D01*
X91484489Y-67778426D01*
X91857746Y-67623818D01*
X92253993Y-67545000D01*
X92658007Y-67545000D01*
X93054254Y-67623818D01*
G37*
G36*
X73750254Y-67623818D02*
G01*
X74123511Y-67778426D01*
X74123513Y-67778427D01*
X74459436Y-68002884D01*
X74745116Y-68288564D01*
X74969574Y-68624489D01*
X75124182Y-68997746D01*
X75203000Y-69393993D01*
X75203000Y-69798007D01*
X75124182Y-70194254D01*
X74985441Y-70529204D01*
X74969573Y-70567513D01*
X74745116Y-70903436D01*
X74459436Y-71189116D01*
X74123513Y-71413573D01*
X74123512Y-71413574D01*
X74123511Y-71413574D01*
X73750254Y-71568182D01*
X73354007Y-71647000D01*
X72949993Y-71647000D01*
X72553746Y-71568182D01*
X72180489Y-71413574D01*
X72180488Y-71413574D01*
X72180487Y-71413573D01*
X71844564Y-71189116D01*
X71558884Y-70903436D01*
X71334427Y-70567513D01*
X71318559Y-70529204D01*
X71179818Y-70194254D01*
X71101000Y-69798007D01*
X71101000Y-69393993D01*
X71179818Y-68997746D01*
X71334426Y-68624489D01*
X71558884Y-68288564D01*
X71844564Y-68002884D01*
X72180487Y-67778427D01*
X72180489Y-67778426D01*
X72553746Y-67623818D01*
X72949993Y-67545000D01*
X73354007Y-67545000D01*
X73750254Y-67623818D01*
G37*
G36*
X196096000Y-71047000D02*
G01*
X187444000Y-71047000D01*
X187444000Y-69445000D01*
X196096000Y-69445000D01*
X196096000Y-71047000D01*
G37*
G36*
X183464468Y-69473065D02*
G01*
X183503138Y-69484796D01*
X183538777Y-69503846D01*
X183570017Y-69529483D01*
X183595654Y-69560723D01*
X183614704Y-69596362D01*
X183626435Y-69635032D01*
X183631000Y-69681388D01*
X183631000Y-70332612D01*
X183626435Y-70378968D01*
X183614704Y-70417638D01*
X183595654Y-70453277D01*
X183570017Y-70484517D01*
X183538777Y-70510154D01*
X183503138Y-70529204D01*
X183464468Y-70540935D01*
X183418112Y-70545500D01*
X182341888Y-70545500D01*
X182295532Y-70540935D01*
X182256862Y-70529204D01*
X182221223Y-70510154D01*
X182189983Y-70484517D01*
X182164346Y-70453277D01*
X182145296Y-70417638D01*
X182133565Y-70378968D01*
X182129000Y-70332612D01*
X182129000Y-69681388D01*
X182133565Y-69635032D01*
X182145296Y-69596362D01*
X182164346Y-69560723D01*
X182189983Y-69529483D01*
X182221223Y-69503846D01*
X182256862Y-69484796D01*
X182295532Y-69473065D01*
X182341888Y-69468500D01*
X183418112Y-69468500D01*
X183464468Y-69473065D01*
G37*
G36*
X201244468Y-69473065D02*
G01*
X201283138Y-69484796D01*
X201318777Y-69503846D01*
X201350017Y-69529483D01*
X201375654Y-69560723D01*
X201394704Y-69596362D01*
X201406435Y-69635032D01*
X201411000Y-69681388D01*
X201411000Y-70332612D01*
X201406435Y-70378968D01*
X201394704Y-70417638D01*
X201375654Y-70453277D01*
X201350017Y-70484517D01*
X201318777Y-70510154D01*
X201283138Y-70529204D01*
X201244468Y-70540935D01*
X201198112Y-70545500D01*
X200121888Y-70545500D01*
X200075532Y-70540935D01*
X200036862Y-70529204D01*
X200001223Y-70510154D01*
X199969983Y-70484517D01*
X199944346Y-70453277D01*
X199925296Y-70417638D01*
X199913565Y-70378968D01*
X199909000Y-70332612D01*
X199909000Y-69681388D01*
X199913565Y-69635032D01*
X199925296Y-69596362D01*
X199944346Y-69560723D01*
X199969983Y-69529483D01*
X200001223Y-69503846D01*
X200036862Y-69484796D01*
X200075532Y-69473065D01*
X200121888Y-69468500D01*
X201198112Y-69468500D01*
X201244468Y-69473065D01*
G37*
G36*
X164705512Y-68699927D02*
G01*
X164854812Y-68729624D01*
X165018784Y-68797544D01*
X165166354Y-68896147D01*
X165291853Y-69021646D01*
X165390456Y-69169216D01*
X165458376Y-69333188D01*
X165486320Y-69473674D01*
X165493000Y-69507258D01*
X165493000Y-69684742D01*
X165488073Y-69709512D01*
X165458376Y-69858812D01*
X165390456Y-70022784D01*
X165291853Y-70170354D01*
X165166354Y-70295853D01*
X165018784Y-70394456D01*
X164854812Y-70462376D01*
X164705512Y-70492073D01*
X164680742Y-70497000D01*
X164503258Y-70497000D01*
X164478488Y-70492073D01*
X164329188Y-70462376D01*
X164165216Y-70394456D01*
X164017646Y-70295853D01*
X163892147Y-70170354D01*
X163793544Y-70022784D01*
X163725624Y-69858812D01*
X163695927Y-69709512D01*
X163691000Y-69684742D01*
X163691000Y-69507258D01*
X163697680Y-69473674D01*
X163725624Y-69333188D01*
X163793544Y-69169216D01*
X163892147Y-69021646D01*
X164017646Y-68896147D01*
X164165216Y-68797544D01*
X164329188Y-68729624D01*
X164478488Y-68699927D01*
X164503258Y-68695000D01*
X164680742Y-68695000D01*
X164705512Y-68699927D01*
G37*
G36*
X106793512Y-68699927D02*
G01*
X106942812Y-68729624D01*
X107106784Y-68797544D01*
X107254354Y-68896147D01*
X107379853Y-69021646D01*
X107478456Y-69169216D01*
X107546376Y-69333188D01*
X107574320Y-69473674D01*
X107581000Y-69507258D01*
X107581000Y-69684742D01*
X107576073Y-69709512D01*
X107546376Y-69858812D01*
X107478456Y-70022784D01*
X107379853Y-70170354D01*
X107254354Y-70295853D01*
X107106784Y-70394456D01*
X106942812Y-70462376D01*
X106793512Y-70492073D01*
X106768742Y-70497000D01*
X106591258Y-70497000D01*
X106566488Y-70492073D01*
X106417188Y-70462376D01*
X106253216Y-70394456D01*
X106105646Y-70295853D01*
X105980147Y-70170354D01*
X105881544Y-70022784D01*
X105813624Y-69858812D01*
X105783927Y-69709512D01*
X105779000Y-69684742D01*
X105779000Y-69507258D01*
X105785680Y-69473674D01*
X105813624Y-69333188D01*
X105881544Y-69169216D01*
X105980147Y-69021646D01*
X106105646Y-68896147D01*
X106253216Y-68797544D01*
X106417188Y-68729624D01*
X106566488Y-68699927D01*
X106591258Y-68695000D01*
X106768742Y-68695000D01*
X106793512Y-68699927D01*
G37*
G36*
X174865512Y-68699927D02*
G01*
X175014812Y-68729624D01*
X175178784Y-68797544D01*
X175326354Y-68896147D01*
X175451853Y-69021646D01*
X175550456Y-69169216D01*
X175618376Y-69333188D01*
X175646320Y-69473674D01*
X175653000Y-69507258D01*
X175653000Y-69684742D01*
X175648073Y-69709512D01*
X175618376Y-69858812D01*
X175550456Y-70022784D01*
X175451853Y-70170354D01*
X175326354Y-70295853D01*
X175178784Y-70394456D01*
X175014812Y-70462376D01*
X174865512Y-70492073D01*
X174840742Y-70497000D01*
X174663258Y-70497000D01*
X174638488Y-70492073D01*
X174489188Y-70462376D01*
X174325216Y-70394456D01*
X174177646Y-70295853D01*
X174052147Y-70170354D01*
X173953544Y-70022784D01*
X173885624Y-69858812D01*
X173855927Y-69709512D01*
X173851000Y-69684742D01*
X173851000Y-69507258D01*
X173857680Y-69473674D01*
X173885624Y-69333188D01*
X173953544Y-69169216D01*
X174052147Y-69021646D01*
X174177646Y-68896147D01*
X174325216Y-68797544D01*
X174489188Y-68729624D01*
X174638488Y-68699927D01*
X174663258Y-68695000D01*
X174840742Y-68695000D01*
X174865512Y-68699927D01*
G37*
G36*
X68185512Y-68699927D02*
G01*
X68334812Y-68729624D01*
X68498784Y-68797544D01*
X68646354Y-68896147D01*
X68771853Y-69021646D01*
X68870456Y-69169216D01*
X68938376Y-69333188D01*
X68966320Y-69473674D01*
X68973000Y-69507258D01*
X68973000Y-69684742D01*
X68968073Y-69709512D01*
X68938376Y-69858812D01*
X68870456Y-70022784D01*
X68771853Y-70170354D01*
X68646354Y-70295853D01*
X68498784Y-70394456D01*
X68334812Y-70462376D01*
X68185512Y-70492073D01*
X68160742Y-70497000D01*
X67983258Y-70497000D01*
X67958488Y-70492073D01*
X67809188Y-70462376D01*
X67645216Y-70394456D01*
X67497646Y-70295853D01*
X67372147Y-70170354D01*
X67273544Y-70022784D01*
X67205624Y-69858812D01*
X67175927Y-69709512D01*
X67171000Y-69684742D01*
X67171000Y-69507258D01*
X67177680Y-69473674D01*
X67205624Y-69333188D01*
X67273544Y-69169216D01*
X67372147Y-69021646D01*
X67497646Y-68896147D01*
X67645216Y-68797544D01*
X67809188Y-68729624D01*
X67958488Y-68699927D01*
X67983258Y-68695000D01*
X68160742Y-68695000D01*
X68185512Y-68699927D01*
G37*
G36*
X78345512Y-68699927D02*
G01*
X78494812Y-68729624D01*
X78658784Y-68797544D01*
X78806354Y-68896147D01*
X78931853Y-69021646D01*
X79030456Y-69169216D01*
X79098376Y-69333188D01*
X79126320Y-69473674D01*
X79133000Y-69507258D01*
X79133000Y-69684742D01*
X79128073Y-69709512D01*
X79098376Y-69858812D01*
X79030456Y-70022784D01*
X78931853Y-70170354D01*
X78806354Y-70295853D01*
X78658784Y-70394456D01*
X78494812Y-70462376D01*
X78345512Y-70492073D01*
X78320742Y-70497000D01*
X78143258Y-70497000D01*
X78118488Y-70492073D01*
X77969188Y-70462376D01*
X77805216Y-70394456D01*
X77657646Y-70295853D01*
X77532147Y-70170354D01*
X77433544Y-70022784D01*
X77365624Y-69858812D01*
X77335927Y-69709512D01*
X77331000Y-69684742D01*
X77331000Y-69507258D01*
X77337680Y-69473674D01*
X77365624Y-69333188D01*
X77433544Y-69169216D01*
X77532147Y-69021646D01*
X77657646Y-68896147D01*
X77805216Y-68797544D01*
X77969188Y-68729624D01*
X78118488Y-68699927D01*
X78143258Y-68695000D01*
X78320742Y-68695000D01*
X78345512Y-68699927D01*
G37*
G36*
X87489512Y-68699927D02*
G01*
X87638812Y-68729624D01*
X87802784Y-68797544D01*
X87950354Y-68896147D01*
X88075853Y-69021646D01*
X88174456Y-69169216D01*
X88242376Y-69333188D01*
X88270320Y-69473674D01*
X88277000Y-69507258D01*
X88277000Y-69684742D01*
X88272073Y-69709512D01*
X88242376Y-69858812D01*
X88174456Y-70022784D01*
X88075853Y-70170354D01*
X87950354Y-70295853D01*
X87802784Y-70394456D01*
X87638812Y-70462376D01*
X87489512Y-70492073D01*
X87464742Y-70497000D01*
X87287258Y-70497000D01*
X87262488Y-70492073D01*
X87113188Y-70462376D01*
X86949216Y-70394456D01*
X86801646Y-70295853D01*
X86676147Y-70170354D01*
X86577544Y-70022784D01*
X86509624Y-69858812D01*
X86479927Y-69709512D01*
X86475000Y-69684742D01*
X86475000Y-69507258D01*
X86481680Y-69473674D01*
X86509624Y-69333188D01*
X86577544Y-69169216D01*
X86676147Y-69021646D01*
X86801646Y-68896147D01*
X86949216Y-68797544D01*
X87113188Y-68729624D01*
X87262488Y-68699927D01*
X87287258Y-68695000D01*
X87464742Y-68695000D01*
X87489512Y-68699927D01*
G37*
G36*
X97649512Y-68699927D02*
G01*
X97798812Y-68729624D01*
X97962784Y-68797544D01*
X98110354Y-68896147D01*
X98235853Y-69021646D01*
X98334456Y-69169216D01*
X98402376Y-69333188D01*
X98430320Y-69473674D01*
X98437000Y-69507258D01*
X98437000Y-69684742D01*
X98432073Y-69709512D01*
X98402376Y-69858812D01*
X98334456Y-70022784D01*
X98235853Y-70170354D01*
X98110354Y-70295853D01*
X97962784Y-70394456D01*
X97798812Y-70462376D01*
X97649512Y-70492073D01*
X97624742Y-70497000D01*
X97447258Y-70497000D01*
X97422488Y-70492073D01*
X97273188Y-70462376D01*
X97109216Y-70394456D01*
X96961646Y-70295853D01*
X96836147Y-70170354D01*
X96737544Y-70022784D01*
X96669624Y-69858812D01*
X96639927Y-69709512D01*
X96635000Y-69684742D01*
X96635000Y-69507258D01*
X96641680Y-69473674D01*
X96669624Y-69333188D01*
X96737544Y-69169216D01*
X96836147Y-69021646D01*
X96961646Y-68896147D01*
X97109216Y-68797544D01*
X97273188Y-68729624D01*
X97422488Y-68699927D01*
X97447258Y-68695000D01*
X97624742Y-68695000D01*
X97649512Y-68699927D01*
G37*
G36*
X116953512Y-68699927D02*
G01*
X117102812Y-68729624D01*
X117266784Y-68797544D01*
X117414354Y-68896147D01*
X117539853Y-69021646D01*
X117638456Y-69169216D01*
X117706376Y-69333188D01*
X117734320Y-69473674D01*
X117741000Y-69507258D01*
X117741000Y-69684742D01*
X117736073Y-69709512D01*
X117706376Y-69858812D01*
X117638456Y-70022784D01*
X117539853Y-70170354D01*
X117414354Y-70295853D01*
X117266784Y-70394456D01*
X117102812Y-70462376D01*
X116953512Y-70492073D01*
X116928742Y-70497000D01*
X116751258Y-70497000D01*
X116726488Y-70492073D01*
X116577188Y-70462376D01*
X116413216Y-70394456D01*
X116265646Y-70295853D01*
X116140147Y-70170354D01*
X116041544Y-70022784D01*
X115973624Y-69858812D01*
X115943927Y-69709512D01*
X115939000Y-69684742D01*
X115939000Y-69507258D01*
X115945680Y-69473674D01*
X115973624Y-69333188D01*
X116041544Y-69169216D01*
X116140147Y-69021646D01*
X116265646Y-68896147D01*
X116413216Y-68797544D01*
X116577188Y-68729624D01*
X116726488Y-68699927D01*
X116751258Y-68695000D01*
X116928742Y-68695000D01*
X116953512Y-68699927D01*
G37*
G36*
X126097512Y-68699927D02*
G01*
X126246812Y-68729624D01*
X126410784Y-68797544D01*
X126558354Y-68896147D01*
X126683853Y-69021646D01*
X126782456Y-69169216D01*
X126850376Y-69333188D01*
X126878320Y-69473674D01*
X126885000Y-69507258D01*
X126885000Y-69684742D01*
X126880073Y-69709512D01*
X126850376Y-69858812D01*
X126782456Y-70022784D01*
X126683853Y-70170354D01*
X126558354Y-70295853D01*
X126410784Y-70394456D01*
X126246812Y-70462376D01*
X126097512Y-70492073D01*
X126072742Y-70497000D01*
X125895258Y-70497000D01*
X125870488Y-70492073D01*
X125721188Y-70462376D01*
X125557216Y-70394456D01*
X125409646Y-70295853D01*
X125284147Y-70170354D01*
X125185544Y-70022784D01*
X125117624Y-69858812D01*
X125087927Y-69709512D01*
X125083000Y-69684742D01*
X125083000Y-69507258D01*
X125089680Y-69473674D01*
X125117624Y-69333188D01*
X125185544Y-69169216D01*
X125284147Y-69021646D01*
X125409646Y-68896147D01*
X125557216Y-68797544D01*
X125721188Y-68729624D01*
X125870488Y-68699927D01*
X125895258Y-68695000D01*
X126072742Y-68695000D01*
X126097512Y-68699927D01*
G37*
G36*
X136257512Y-68699927D02*
G01*
X136406812Y-68729624D01*
X136570784Y-68797544D01*
X136718354Y-68896147D01*
X136843853Y-69021646D01*
X136942456Y-69169216D01*
X137010376Y-69333188D01*
X137038320Y-69473674D01*
X137045000Y-69507258D01*
X137045000Y-69684742D01*
X137040073Y-69709512D01*
X137010376Y-69858812D01*
X136942456Y-70022784D01*
X136843853Y-70170354D01*
X136718354Y-70295853D01*
X136570784Y-70394456D01*
X136406812Y-70462376D01*
X136257512Y-70492073D01*
X136232742Y-70497000D01*
X136055258Y-70497000D01*
X136030488Y-70492073D01*
X135881188Y-70462376D01*
X135717216Y-70394456D01*
X135569646Y-70295853D01*
X135444147Y-70170354D01*
X135345544Y-70022784D01*
X135277624Y-69858812D01*
X135247927Y-69709512D01*
X135243000Y-69684742D01*
X135243000Y-69507258D01*
X135249680Y-69473674D01*
X135277624Y-69333188D01*
X135345544Y-69169216D01*
X135444147Y-69021646D01*
X135569646Y-68896147D01*
X135717216Y-68797544D01*
X135881188Y-68729624D01*
X136030488Y-68699927D01*
X136055258Y-68695000D01*
X136232742Y-68695000D01*
X136257512Y-68699927D01*
G37*
G36*
X155561512Y-68699927D02*
G01*
X155710812Y-68729624D01*
X155874784Y-68797544D01*
X156022354Y-68896147D01*
X156147853Y-69021646D01*
X156246456Y-69169216D01*
X156314376Y-69333188D01*
X156342320Y-69473674D01*
X156349000Y-69507258D01*
X156349000Y-69684742D01*
X156344073Y-69709512D01*
X156314376Y-69858812D01*
X156246456Y-70022784D01*
X156147853Y-70170354D01*
X156022354Y-70295853D01*
X155874784Y-70394456D01*
X155710812Y-70462376D01*
X155561512Y-70492073D01*
X155536742Y-70497000D01*
X155359258Y-70497000D01*
X155334488Y-70492073D01*
X155185188Y-70462376D01*
X155021216Y-70394456D01*
X154873646Y-70295853D01*
X154748147Y-70170354D01*
X154649544Y-70022784D01*
X154581624Y-69858812D01*
X154551927Y-69709512D01*
X154547000Y-69684742D01*
X154547000Y-69507258D01*
X154553680Y-69473674D01*
X154581624Y-69333188D01*
X154649544Y-69169216D01*
X154748147Y-69021646D01*
X154873646Y-68896147D01*
X155021216Y-68797544D01*
X155185188Y-68729624D01*
X155334488Y-68699927D01*
X155359258Y-68695000D01*
X155536742Y-68695000D01*
X155561512Y-68699927D01*
G37*
G36*
X145401512Y-68699927D02*
G01*
X145550812Y-68729624D01*
X145714784Y-68797544D01*
X145862354Y-68896147D01*
X145987853Y-69021646D01*
X146086456Y-69169216D01*
X146154376Y-69333188D01*
X146182320Y-69473674D01*
X146189000Y-69507258D01*
X146189000Y-69684742D01*
X146184073Y-69709512D01*
X146154376Y-69858812D01*
X146086456Y-70022784D01*
X145987853Y-70170354D01*
X145862354Y-70295853D01*
X145714784Y-70394456D01*
X145550812Y-70462376D01*
X145401512Y-70492073D01*
X145376742Y-70497000D01*
X145199258Y-70497000D01*
X145174488Y-70492073D01*
X145025188Y-70462376D01*
X144861216Y-70394456D01*
X144713646Y-70295853D01*
X144588147Y-70170354D01*
X144489544Y-70022784D01*
X144421624Y-69858812D01*
X144391927Y-69709512D01*
X144387000Y-69684742D01*
X144387000Y-69507258D01*
X144393680Y-69473674D01*
X144421624Y-69333188D01*
X144489544Y-69169216D01*
X144588147Y-69021646D01*
X144713646Y-68896147D01*
X144861216Y-68797544D01*
X145025188Y-68729624D01*
X145174488Y-68699927D01*
X145199258Y-68695000D01*
X145376742Y-68695000D01*
X145401512Y-68699927D01*
G37*
G36*
X166016282Y-65913139D02*
G01*
X166197734Y-65949232D01*
X166407203Y-66035997D01*
X166595720Y-66161960D01*
X166756040Y-66322280D01*
X166882003Y-66510797D01*
X166968768Y-66720266D01*
X167013000Y-66942636D01*
X167013000Y-67169364D01*
X166968768Y-67391734D01*
X166882003Y-67601203D01*
X166756040Y-67789720D01*
X166595720Y-67950040D01*
X166407203Y-68076003D01*
X166197734Y-68162768D01*
X166086549Y-68184884D01*
X165975365Y-68207000D01*
X165748635Y-68207000D01*
X165637451Y-68184884D01*
X165526266Y-68162768D01*
X165316797Y-68076003D01*
X165128280Y-67950040D01*
X164967960Y-67789720D01*
X164841997Y-67601203D01*
X164755232Y-67391734D01*
X164711000Y-67169364D01*
X164711000Y-66942636D01*
X164755232Y-66720266D01*
X164841997Y-66510797D01*
X164967960Y-66322280D01*
X165128280Y-66161960D01*
X165316797Y-66035997D01*
X165526266Y-65949232D01*
X165707718Y-65913139D01*
X165748635Y-65905000D01*
X165975365Y-65905000D01*
X166016282Y-65913139D01*
G37*
G36*
X88800282Y-65913139D02*
G01*
X88981734Y-65949232D01*
X89191203Y-66035997D01*
X89379720Y-66161960D01*
X89540040Y-66322280D01*
X89666003Y-66510797D01*
X89752768Y-66720266D01*
X89797000Y-66942636D01*
X89797000Y-67169364D01*
X89752768Y-67391734D01*
X89666003Y-67601203D01*
X89540040Y-67789720D01*
X89379720Y-67950040D01*
X89191203Y-68076003D01*
X88981734Y-68162768D01*
X88870549Y-68184884D01*
X88759365Y-68207000D01*
X88532635Y-68207000D01*
X88421451Y-68184884D01*
X88310266Y-68162768D01*
X88100797Y-68076003D01*
X87912280Y-67950040D01*
X87751960Y-67789720D01*
X87625997Y-67601203D01*
X87539232Y-67391734D01*
X87495000Y-67169364D01*
X87495000Y-66942636D01*
X87539232Y-66720266D01*
X87625997Y-66510797D01*
X87751960Y-66322280D01*
X87912280Y-66161960D01*
X88100797Y-66035997D01*
X88310266Y-65949232D01*
X88491718Y-65913139D01*
X88532635Y-65905000D01*
X88759365Y-65905000D01*
X88800282Y-65913139D01*
G37*
G36*
X108104282Y-65913139D02*
G01*
X108285734Y-65949232D01*
X108495203Y-66035997D01*
X108683720Y-66161960D01*
X108844040Y-66322280D01*
X108970003Y-66510797D01*
X109056768Y-66720266D01*
X109101000Y-66942636D01*
X109101000Y-67169364D01*
X109056768Y-67391734D01*
X108970003Y-67601203D01*
X108844040Y-67789720D01*
X108683720Y-67950040D01*
X108495203Y-68076003D01*
X108285734Y-68162768D01*
X108174549Y-68184884D01*
X108063365Y-68207000D01*
X107836635Y-68207000D01*
X107725451Y-68184884D01*
X107614266Y-68162768D01*
X107404797Y-68076003D01*
X107216280Y-67950040D01*
X107055960Y-67789720D01*
X106929997Y-67601203D01*
X106843232Y-67391734D01*
X106799000Y-67169364D01*
X106799000Y-66942636D01*
X106843232Y-66720266D01*
X106929997Y-66510797D01*
X107055960Y-66322280D01*
X107216280Y-66161960D01*
X107404797Y-66035997D01*
X107614266Y-65949232D01*
X107795718Y-65913139D01*
X107836635Y-65905000D01*
X108063365Y-65905000D01*
X108104282Y-65913139D01*
G37*
G36*
X127408282Y-65913139D02*
G01*
X127589734Y-65949232D01*
X127799203Y-66035997D01*
X127987720Y-66161960D01*
X128148040Y-66322280D01*
X128274003Y-66510797D01*
X128360768Y-66720266D01*
X128405000Y-66942636D01*
X128405000Y-67169364D01*
X128360768Y-67391734D01*
X128274003Y-67601203D01*
X128148040Y-67789720D01*
X127987720Y-67950040D01*
X127799203Y-68076003D01*
X127589734Y-68162768D01*
X127478549Y-68184884D01*
X127367365Y-68207000D01*
X127140635Y-68207000D01*
X127029451Y-68184884D01*
X126918266Y-68162768D01*
X126708797Y-68076003D01*
X126520280Y-67950040D01*
X126359960Y-67789720D01*
X126233997Y-67601203D01*
X126147232Y-67391734D01*
X126103000Y-67169364D01*
X126103000Y-66942636D01*
X126147232Y-66720266D01*
X126233997Y-66510797D01*
X126359960Y-66322280D01*
X126520280Y-66161960D01*
X126708797Y-66035997D01*
X126918266Y-65949232D01*
X127099718Y-65913139D01*
X127140635Y-65905000D01*
X127367365Y-65905000D01*
X127408282Y-65913139D01*
G37*
G36*
X146712282Y-65913139D02*
G01*
X146893734Y-65949232D01*
X147103203Y-66035997D01*
X147291720Y-66161960D01*
X147452040Y-66322280D01*
X147578003Y-66510797D01*
X147664768Y-66720266D01*
X147709000Y-66942636D01*
X147709000Y-67169364D01*
X147664768Y-67391734D01*
X147578003Y-67601203D01*
X147452040Y-67789720D01*
X147291720Y-67950040D01*
X147103203Y-68076003D01*
X146893734Y-68162768D01*
X146782549Y-68184884D01*
X146671365Y-68207000D01*
X146444635Y-68207000D01*
X146333451Y-68184884D01*
X146222266Y-68162768D01*
X146012797Y-68076003D01*
X145824280Y-67950040D01*
X145663960Y-67789720D01*
X145537997Y-67601203D01*
X145451232Y-67391734D01*
X145407000Y-67169364D01*
X145407000Y-66942636D01*
X145451232Y-66720266D01*
X145537997Y-66510797D01*
X145663960Y-66322280D01*
X145824280Y-66161960D01*
X146012797Y-66035997D01*
X146222266Y-65949232D01*
X146403718Y-65913139D01*
X146444635Y-65905000D01*
X146671365Y-65905000D01*
X146712282Y-65913139D01*
G37*
G36*
X69496282Y-65913139D02*
G01*
X69677734Y-65949232D01*
X69887203Y-66035997D01*
X70075720Y-66161960D01*
X70236040Y-66322280D01*
X70362003Y-66510797D01*
X70448768Y-66720266D01*
X70493000Y-66942636D01*
X70493000Y-67169364D01*
X70448768Y-67391734D01*
X70362003Y-67601203D01*
X70236040Y-67789720D01*
X70075720Y-67950040D01*
X69887203Y-68076003D01*
X69677734Y-68162768D01*
X69566549Y-68184884D01*
X69455365Y-68207000D01*
X69228635Y-68207000D01*
X69117451Y-68184884D01*
X69006266Y-68162768D01*
X68796797Y-68076003D01*
X68608280Y-67950040D01*
X68447960Y-67789720D01*
X68321997Y-67601203D01*
X68235232Y-67391734D01*
X68191000Y-67169364D01*
X68191000Y-66942636D01*
X68235232Y-66720266D01*
X68321997Y-66510797D01*
X68447960Y-66322280D01*
X68608280Y-66161960D01*
X68796797Y-66035997D01*
X69006266Y-65949232D01*
X69187718Y-65913139D01*
X69228635Y-65905000D01*
X69455365Y-65905000D01*
X69496282Y-65913139D01*
G37*
G36*
X192938141Y-65965569D02*
G01*
X192017488Y-66886222D01*
X190955413Y-65824147D01*
X191876066Y-64903494D01*
X192938141Y-65965569D01*
G37*
G36*
X196672468Y-64919565D02*
G01*
X196711138Y-64931296D01*
X196746777Y-64950346D01*
X196778017Y-64975983D01*
X196803654Y-65007223D01*
X196822704Y-65042862D01*
X196834435Y-65081532D01*
X196839000Y-65127888D01*
X196839000Y-65779112D01*
X196834435Y-65825468D01*
X196822704Y-65864138D01*
X196803654Y-65899777D01*
X196778017Y-65931017D01*
X196746777Y-65956654D01*
X196711138Y-65975704D01*
X196672468Y-65987435D01*
X196626112Y-65992000D01*
X195549888Y-65992000D01*
X195503532Y-65987435D01*
X195464862Y-65975704D01*
X195429223Y-65956654D01*
X195397983Y-65931017D01*
X195372346Y-65899777D01*
X195353296Y-65864138D01*
X195341565Y-65825468D01*
X195337000Y-65779112D01*
X195337000Y-65127888D01*
X195341565Y-65081532D01*
X195353296Y-65042862D01*
X195372346Y-65007223D01*
X195397983Y-64975983D01*
X195429223Y-64950346D01*
X195464862Y-64931296D01*
X195503532Y-64919565D01*
X195549888Y-64915000D01*
X196626112Y-64915000D01*
X196672468Y-64919565D01*
G37*
G36*
X201244468Y-64919565D02*
G01*
X201283138Y-64931296D01*
X201318777Y-64950346D01*
X201350017Y-64975983D01*
X201375654Y-65007223D01*
X201394704Y-65042862D01*
X201406435Y-65081532D01*
X201411000Y-65127888D01*
X201411000Y-65779112D01*
X201406435Y-65825468D01*
X201394704Y-65864138D01*
X201375654Y-65899777D01*
X201350017Y-65931017D01*
X201318777Y-65956654D01*
X201283138Y-65975704D01*
X201244468Y-65987435D01*
X201198112Y-65992000D01*
X200121888Y-65992000D01*
X200075532Y-65987435D01*
X200036862Y-65975704D01*
X200001223Y-65956654D01*
X199969983Y-65931017D01*
X199944346Y-65899777D01*
X199925296Y-65864138D01*
X199913565Y-65825468D01*
X199909000Y-65779112D01*
X199909000Y-65127888D01*
X199913565Y-65081532D01*
X199925296Y-65042862D01*
X199944346Y-65007223D01*
X199969983Y-64975983D01*
X200001223Y-64950346D01*
X200036862Y-64931296D01*
X200075532Y-64919565D01*
X200121888Y-64915000D01*
X201198112Y-64915000D01*
X201244468Y-64919565D01*
G37*
G36*
X188036468Y-64919565D02*
G01*
X188075138Y-64931296D01*
X188110777Y-64950346D01*
X188142017Y-64975983D01*
X188167654Y-65007223D01*
X188186704Y-65042862D01*
X188198435Y-65081532D01*
X188203000Y-65127888D01*
X188203000Y-65779112D01*
X188198435Y-65825468D01*
X188186704Y-65864138D01*
X188167654Y-65899777D01*
X188142017Y-65931017D01*
X188110777Y-65956654D01*
X188075138Y-65975704D01*
X188036468Y-65987435D01*
X187990112Y-65992000D01*
X186913888Y-65992000D01*
X186867532Y-65987435D01*
X186828862Y-65975704D01*
X186793223Y-65956654D01*
X186761983Y-65931017D01*
X186736346Y-65899777D01*
X186717296Y-65864138D01*
X186705565Y-65825468D01*
X186701000Y-65779112D01*
X186701000Y-65127888D01*
X186705565Y-65081532D01*
X186717296Y-65042862D01*
X186736346Y-65007223D01*
X186761983Y-64975983D01*
X186793223Y-64950346D01*
X186828862Y-64931296D01*
X186867532Y-64919565D01*
X186913888Y-64915000D01*
X187990112Y-64915000D01*
X188036468Y-64919565D01*
G37*
G36*
X194140222Y-64763488D02*
G01*
X193219569Y-65684141D01*
X192157494Y-64622066D01*
X193078147Y-63701413D01*
X194140222Y-64763488D01*
G37*
G36*
X172436549Y-63387116D02*
G01*
X172547734Y-63409232D01*
X172757203Y-63495997D01*
X172945720Y-63621960D01*
X173106040Y-63782280D01*
X173232003Y-63970797D01*
X173318768Y-64180266D01*
X173363000Y-64402636D01*
X173363000Y-64629364D01*
X173318768Y-64851734D01*
X173232003Y-65061203D01*
X173106040Y-65249720D01*
X172945720Y-65410040D01*
X172757203Y-65536003D01*
X172547734Y-65622768D01*
X172436549Y-65644884D01*
X172325365Y-65667000D01*
X172098635Y-65667000D01*
X171987451Y-65644884D01*
X171876266Y-65622768D01*
X171666797Y-65536003D01*
X171478280Y-65410040D01*
X171317960Y-65249720D01*
X171191997Y-65061203D01*
X171105232Y-64851734D01*
X171061000Y-64629364D01*
X171061000Y-64402636D01*
X171105232Y-64180266D01*
X171191997Y-63970797D01*
X171317960Y-63782280D01*
X171478280Y-63621960D01*
X171666797Y-63495997D01*
X171876266Y-63409232D01*
X171987451Y-63387116D01*
X172098635Y-63365000D01*
X172325365Y-63365000D01*
X172436549Y-63387116D01*
G37*
G36*
X114524549Y-63387116D02*
G01*
X114635734Y-63409232D01*
X114845203Y-63495997D01*
X115033720Y-63621960D01*
X115194040Y-63782280D01*
X115320003Y-63970797D01*
X115406768Y-64180266D01*
X115451000Y-64402636D01*
X115451000Y-64629364D01*
X115406768Y-64851734D01*
X115320003Y-65061203D01*
X115194040Y-65249720D01*
X115033720Y-65410040D01*
X114845203Y-65536003D01*
X114635734Y-65622768D01*
X114524549Y-65644884D01*
X114413365Y-65667000D01*
X114186635Y-65667000D01*
X114075451Y-65644884D01*
X113964266Y-65622768D01*
X113754797Y-65536003D01*
X113566280Y-65410040D01*
X113405960Y-65249720D01*
X113279997Y-65061203D01*
X113193232Y-64851734D01*
X113149000Y-64629364D01*
X113149000Y-64402636D01*
X113193232Y-64180266D01*
X113279997Y-63970797D01*
X113405960Y-63782280D01*
X113566280Y-63621960D01*
X113754797Y-63495997D01*
X113964266Y-63409232D01*
X114075451Y-63387116D01*
X114186635Y-63365000D01*
X114413365Y-63365000D01*
X114524549Y-63387116D01*
G37*
G36*
X95220549Y-63387116D02*
G01*
X95331734Y-63409232D01*
X95541203Y-63495997D01*
X95729720Y-63621960D01*
X95890040Y-63782280D01*
X96016003Y-63970797D01*
X96102768Y-64180266D01*
X96147000Y-64402636D01*
X96147000Y-64629364D01*
X96102768Y-64851734D01*
X96016003Y-65061203D01*
X95890040Y-65249720D01*
X95729720Y-65410040D01*
X95541203Y-65536003D01*
X95331734Y-65622768D01*
X95220549Y-65644884D01*
X95109365Y-65667000D01*
X94882635Y-65667000D01*
X94771451Y-65644884D01*
X94660266Y-65622768D01*
X94450797Y-65536003D01*
X94262280Y-65410040D01*
X94101960Y-65249720D01*
X93975997Y-65061203D01*
X93889232Y-64851734D01*
X93845000Y-64629364D01*
X93845000Y-64402636D01*
X93889232Y-64180266D01*
X93975997Y-63970797D01*
X94101960Y-63782280D01*
X94262280Y-63621960D01*
X94450797Y-63495997D01*
X94660266Y-63409232D01*
X94771451Y-63387116D01*
X94882635Y-63365000D01*
X95109365Y-63365000D01*
X95220549Y-63387116D01*
G37*
G36*
X133828549Y-63387116D02*
G01*
X133939734Y-63409232D01*
X134149203Y-63495997D01*
X134337720Y-63621960D01*
X134498040Y-63782280D01*
X134624003Y-63970797D01*
X134710768Y-64180266D01*
X134755000Y-64402636D01*
X134755000Y-64629364D01*
X134710768Y-64851734D01*
X134624003Y-65061203D01*
X134498040Y-65249720D01*
X134337720Y-65410040D01*
X134149203Y-65536003D01*
X133939734Y-65622768D01*
X133828549Y-65644884D01*
X133717365Y-65667000D01*
X133490635Y-65667000D01*
X133379451Y-65644884D01*
X133268266Y-65622768D01*
X133058797Y-65536003D01*
X132870280Y-65410040D01*
X132709960Y-65249720D01*
X132583997Y-65061203D01*
X132497232Y-64851734D01*
X132453000Y-64629364D01*
X132453000Y-64402636D01*
X132497232Y-64180266D01*
X132583997Y-63970797D01*
X132709960Y-63782280D01*
X132870280Y-63621960D01*
X133058797Y-63495997D01*
X133268266Y-63409232D01*
X133379451Y-63387116D01*
X133490635Y-63365000D01*
X133717365Y-63365000D01*
X133828549Y-63387116D01*
G37*
G36*
X75916549Y-63387116D02*
G01*
X76027734Y-63409232D01*
X76237203Y-63495997D01*
X76425720Y-63621960D01*
X76586040Y-63782280D01*
X76712003Y-63970797D01*
X76798768Y-64180266D01*
X76843000Y-64402636D01*
X76843000Y-64629364D01*
X76798768Y-64851734D01*
X76712003Y-65061203D01*
X76586040Y-65249720D01*
X76425720Y-65410040D01*
X76237203Y-65536003D01*
X76027734Y-65622768D01*
X75916549Y-65644884D01*
X75805365Y-65667000D01*
X75578635Y-65667000D01*
X75467451Y-65644884D01*
X75356266Y-65622768D01*
X75146797Y-65536003D01*
X74958280Y-65410040D01*
X74797960Y-65249720D01*
X74671997Y-65061203D01*
X74585232Y-64851734D01*
X74541000Y-64629364D01*
X74541000Y-64402636D01*
X74585232Y-64180266D01*
X74671997Y-63970797D01*
X74797960Y-63782280D01*
X74958280Y-63621960D01*
X75146797Y-63495997D01*
X75356266Y-63409232D01*
X75467451Y-63387116D01*
X75578635Y-63365000D01*
X75805365Y-63365000D01*
X75916549Y-63387116D01*
G37*
G36*
X153132549Y-63387116D02*
G01*
X153243734Y-63409232D01*
X153453203Y-63495997D01*
X153641720Y-63621960D01*
X153802040Y-63782280D01*
X153928003Y-63970797D01*
X154014768Y-64180266D01*
X154059000Y-64402636D01*
X154059000Y-64629364D01*
X154014768Y-64851734D01*
X153928003Y-65061203D01*
X153802040Y-65249720D01*
X153641720Y-65410040D01*
X153453203Y-65536003D01*
X153243734Y-65622768D01*
X153132549Y-65644884D01*
X153021365Y-65667000D01*
X152794635Y-65667000D01*
X152683451Y-65644884D01*
X152572266Y-65622768D01*
X152362797Y-65536003D01*
X152174280Y-65410040D01*
X152013960Y-65249720D01*
X151887997Y-65061203D01*
X151801232Y-64851734D01*
X151757000Y-64629364D01*
X151757000Y-64402636D01*
X151801232Y-64180266D01*
X151887997Y-63970797D01*
X152013960Y-63782280D01*
X152174280Y-63621960D01*
X152362797Y-63495997D01*
X152572266Y-63409232D01*
X152683451Y-63387116D01*
X152794635Y-63365000D01*
X153021365Y-63365000D01*
X153132549Y-63387116D01*
G37*
G36*
X191382506Y-64409934D02*
G01*
X190461853Y-65330587D01*
X189399778Y-64268512D01*
X190320431Y-63347859D01*
X191382506Y-64409934D01*
G37*
G36*
X192584587Y-63207853D02*
G01*
X191663934Y-64128506D01*
X190601859Y-63066431D01*
X191522512Y-62145778D01*
X192584587Y-63207853D01*
G37*
G36*
X201244468Y-63044565D02*
G01*
X201283138Y-63056296D01*
X201318777Y-63075346D01*
X201350017Y-63100983D01*
X201375654Y-63132223D01*
X201394704Y-63167862D01*
X201406435Y-63206532D01*
X201411000Y-63252888D01*
X201411000Y-63904112D01*
X201406435Y-63950468D01*
X201394704Y-63989138D01*
X201375654Y-64024777D01*
X201350017Y-64056017D01*
X201318777Y-64081654D01*
X201283138Y-64100704D01*
X201244468Y-64112435D01*
X201198112Y-64117000D01*
X200121888Y-64117000D01*
X200075532Y-64112435D01*
X200036862Y-64100704D01*
X200001223Y-64081654D01*
X199969983Y-64056017D01*
X199944346Y-64024777D01*
X199925296Y-63989138D01*
X199913565Y-63950468D01*
X199909000Y-63904112D01*
X199909000Y-63252888D01*
X199913565Y-63206532D01*
X199925296Y-63167862D01*
X199944346Y-63132223D01*
X199969983Y-63100983D01*
X200001223Y-63075346D01*
X200036862Y-63056296D01*
X200075532Y-63044565D01*
X200121888Y-63040000D01*
X201198112Y-63040000D01*
X201244468Y-63044565D01*
G37*
G36*
X196672468Y-63044565D02*
G01*
X196711138Y-63056296D01*
X196746777Y-63075346D01*
X196778017Y-63100983D01*
X196803654Y-63132223D01*
X196822704Y-63167862D01*
X196834435Y-63206532D01*
X196839000Y-63252888D01*
X196839000Y-63904112D01*
X196834435Y-63950468D01*
X196822704Y-63989138D01*
X196803654Y-64024777D01*
X196778017Y-64056017D01*
X196746777Y-64081654D01*
X196711138Y-64100704D01*
X196672468Y-64112435D01*
X196626112Y-64117000D01*
X195549888Y-64117000D01*
X195503532Y-64112435D01*
X195464862Y-64100704D01*
X195429223Y-64081654D01*
X195397983Y-64056017D01*
X195372346Y-64024777D01*
X195353296Y-63989138D01*
X195341565Y-63950468D01*
X195337000Y-63904112D01*
X195337000Y-63252888D01*
X195341565Y-63206532D01*
X195353296Y-63167862D01*
X195372346Y-63132223D01*
X195397983Y-63100983D01*
X195429223Y-63075346D01*
X195464862Y-63056296D01*
X195503532Y-63044565D01*
X195549888Y-63040000D01*
X196626112Y-63040000D01*
X196672468Y-63044565D01*
G37*
G36*
X188036468Y-63044565D02*
G01*
X188075138Y-63056296D01*
X188110777Y-63075346D01*
X188142017Y-63100983D01*
X188167654Y-63132223D01*
X188186704Y-63167862D01*
X188198435Y-63206532D01*
X188203000Y-63252888D01*
X188203000Y-63904112D01*
X188198435Y-63950468D01*
X188186704Y-63989138D01*
X188167654Y-64024777D01*
X188142017Y-64056017D01*
X188110777Y-64081654D01*
X188075138Y-64100704D01*
X188036468Y-64112435D01*
X187990112Y-64117000D01*
X186913888Y-64117000D01*
X186867532Y-64112435D01*
X186828862Y-64100704D01*
X186793223Y-64081654D01*
X186761983Y-64056017D01*
X186736346Y-64024777D01*
X186717296Y-63989138D01*
X186705565Y-63950468D01*
X186701000Y-63904112D01*
X186701000Y-63252888D01*
X186705565Y-63206532D01*
X186717296Y-63167862D01*
X186736346Y-63132223D01*
X186761983Y-63100983D01*
X186793223Y-63075346D01*
X186828862Y-63056296D01*
X186867532Y-63044565D01*
X186913888Y-63040000D01*
X187990112Y-63040000D01*
X188036468Y-63044565D01*
G37*
G36*
X195722468Y-56791565D02*
G01*
X195761138Y-56803296D01*
X195796777Y-56822346D01*
X195828017Y-56847983D01*
X195853654Y-56879223D01*
X195872704Y-56914862D01*
X195884435Y-56953532D01*
X195889000Y-56999888D01*
X195889000Y-57651112D01*
X195884435Y-57697468D01*
X195872704Y-57736138D01*
X195853654Y-57771777D01*
X195828017Y-57803017D01*
X195796777Y-57828654D01*
X195761138Y-57847704D01*
X195722468Y-57859435D01*
X195676112Y-57864000D01*
X194599888Y-57864000D01*
X194553532Y-57859435D01*
X194514862Y-57847704D01*
X194479223Y-57828654D01*
X194447983Y-57803017D01*
X194422346Y-57771777D01*
X194403296Y-57736138D01*
X194391565Y-57697468D01*
X194387000Y-57651112D01*
X194387000Y-56999888D01*
X194391565Y-56953532D01*
X194403296Y-56914862D01*
X194422346Y-56879223D01*
X194447983Y-56847983D01*
X194479223Y-56822346D01*
X194514862Y-56803296D01*
X194553532Y-56791565D01*
X194599888Y-56787000D01*
X195676112Y-56787000D01*
X195722468Y-56791565D01*
G37*
G36*
X198450468Y-56791565D02*
G01*
X198489138Y-56803296D01*
X198524777Y-56822346D01*
X198556017Y-56847983D01*
X198581654Y-56879223D01*
X198600704Y-56914862D01*
X198612435Y-56953532D01*
X198617000Y-56999888D01*
X198617000Y-57651112D01*
X198612435Y-57697468D01*
X198600704Y-57736138D01*
X198581654Y-57771777D01*
X198556017Y-57803017D01*
X198524777Y-57828654D01*
X198489138Y-57847704D01*
X198450468Y-57859435D01*
X198404112Y-57864000D01*
X197327888Y-57864000D01*
X197281532Y-57859435D01*
X197242862Y-57847704D01*
X197207223Y-57828654D01*
X197175983Y-57803017D01*
X197150346Y-57771777D01*
X197131296Y-57736138D01*
X197119565Y-57697468D01*
X197115000Y-57651112D01*
X197115000Y-56999888D01*
X197119565Y-56953532D01*
X197131296Y-56914862D01*
X197150346Y-56879223D01*
X197175983Y-56847983D01*
X197207223Y-56822346D01*
X197242862Y-56803296D01*
X197281532Y-56791565D01*
X197327888Y-56787000D01*
X198404112Y-56787000D01*
X198450468Y-56791565D01*
G37*
G36*
X198450468Y-54916565D02*
G01*
X198489138Y-54928296D01*
X198524777Y-54947346D01*
X198556017Y-54972983D01*
X198581654Y-55004223D01*
X198600704Y-55039862D01*
X198612435Y-55078532D01*
X198617000Y-55124888D01*
X198617000Y-55776112D01*
X198612435Y-55822468D01*
X198600704Y-55861138D01*
X198581654Y-55896777D01*
X198556017Y-55928017D01*
X198524777Y-55953654D01*
X198489138Y-55972704D01*
X198450468Y-55984435D01*
X198404112Y-55989000D01*
X197327888Y-55989000D01*
X197281532Y-55984435D01*
X197242862Y-55972704D01*
X197207223Y-55953654D01*
X197175983Y-55928017D01*
X197150346Y-55896777D01*
X197131296Y-55861138D01*
X197119565Y-55822468D01*
X197115000Y-55776112D01*
X197115000Y-55124888D01*
X197119565Y-55078532D01*
X197131296Y-55039862D01*
X197150346Y-55004223D01*
X197175983Y-54972983D01*
X197207223Y-54947346D01*
X197242862Y-54928296D01*
X197281532Y-54916565D01*
X197327888Y-54912000D01*
X198404112Y-54912000D01*
X198450468Y-54916565D01*
G37*
G36*
X195722468Y-54916565D02*
G01*
X195761138Y-54928296D01*
X195796777Y-54947346D01*
X195828017Y-54972983D01*
X195853654Y-55004223D01*
X195872704Y-55039862D01*
X195884435Y-55078532D01*
X195889000Y-55124888D01*
X195889000Y-55776112D01*
X195884435Y-55822468D01*
X195872704Y-55861138D01*
X195853654Y-55896777D01*
X195828017Y-55928017D01*
X195796777Y-55953654D01*
X195761138Y-55972704D01*
X195722468Y-55984435D01*
X195676112Y-55989000D01*
X194599888Y-55989000D01*
X194553532Y-55984435D01*
X194514862Y-55972704D01*
X194479223Y-55953654D01*
X194447983Y-55928017D01*
X194422346Y-55896777D01*
X194403296Y-55861138D01*
X194391565Y-55822468D01*
X194387000Y-55776112D01*
X194387000Y-55124888D01*
X194391565Y-55078532D01*
X194403296Y-55039862D01*
X194422346Y-55004223D01*
X194447983Y-54972983D01*
X194479223Y-54947346D01*
X194514862Y-54928296D01*
X194553532Y-54916565D01*
X194599888Y-54912000D01*
X195676112Y-54912000D01*
X195722468Y-54916565D01*
G37*
G36*
X186511222Y-53545867D02*
G01*
X186652786Y-53588810D01*
X186783252Y-53658546D01*
X186813040Y-53682992D01*
X186897607Y-53752393D01*
X186967008Y-53836960D01*
X186991454Y-53866748D01*
X187061190Y-53997214D01*
X187104133Y-54138778D01*
X187115000Y-54249113D01*
X187115000Y-54922887D01*
X187104133Y-55033222D01*
X187061190Y-55174786D01*
X186991454Y-55305252D01*
X186954784Y-55349934D01*
X186897607Y-55419606D01*
X186833415Y-55472286D01*
X186783251Y-55513454D01*
X186652785Y-55583190D01*
X186511221Y-55626133D01*
X186364000Y-55640633D01*
X186216778Y-55626133D01*
X186075214Y-55583190D01*
X185944748Y-55513454D01*
X185900066Y-55476784D01*
X185830394Y-55419607D01*
X185736547Y-55305252D01*
X185736546Y-55305251D01*
X185666810Y-55174785D01*
X185623867Y-55033221D01*
X185613000Y-54922886D01*
X185613000Y-54249113D01*
X185623867Y-54138778D01*
X185666810Y-53997214D01*
X185736547Y-53866748D01*
X185830394Y-53752393D01*
X185914961Y-53682992D01*
X185944749Y-53658546D01*
X186075215Y-53588810D01*
X186216779Y-53545867D01*
X186364000Y-53531367D01*
X186511222Y-53545867D01*
G37*
G36*
X184315561Y-53752393D02*
G01*
X184353890Y-53760017D01*
X184472364Y-53809091D01*
X184558654Y-53866748D01*
X184578988Y-53880335D01*
X184669665Y-53971012D01*
X184740910Y-54077638D01*
X184789983Y-54196110D01*
X184800526Y-54249112D01*
X184815000Y-54321882D01*
X184815000Y-54450118D01*
X184789983Y-54575890D01*
X184740909Y-54694364D01*
X184669665Y-54800988D01*
X184578988Y-54891665D01*
X184472364Y-54962909D01*
X184472363Y-54962910D01*
X184472362Y-54962910D01*
X184353890Y-55011983D01*
X184228119Y-55037000D01*
X184099881Y-55037000D01*
X183974110Y-55011983D01*
X183855638Y-54962910D01*
X183855637Y-54962910D01*
X183855636Y-54962909D01*
X183749012Y-54891665D01*
X183658335Y-54800988D01*
X183587091Y-54694364D01*
X183538017Y-54575890D01*
X183513000Y-54450118D01*
X183513000Y-54321882D01*
X183527475Y-54249112D01*
X183538017Y-54196110D01*
X183587090Y-54077638D01*
X183658335Y-53971012D01*
X183749012Y-53880335D01*
X183769346Y-53866748D01*
X183855636Y-53809091D01*
X183974110Y-53760017D01*
X184012439Y-53752393D01*
X184099881Y-53735000D01*
X184228119Y-53735000D01*
X184315561Y-53752393D01*
G37*
G36*
X182615000Y-54137000D02*
G01*
X181113000Y-54137000D01*
X181113000Y-52035000D01*
X182615000Y-52035000D01*
X182615000Y-54137000D01*
G37*
G36*
X112358254Y-48319818D02*
G01*
X112731511Y-48474426D01*
X112731513Y-48474427D01*
X113052644Y-48689000D01*
X113067436Y-48698884D01*
X113353116Y-48984564D01*
X113577574Y-49320489D01*
X113732182Y-49693746D01*
X113811000Y-50089993D01*
X113811000Y-50494007D01*
X113732182Y-50890254D01*
X113577574Y-51263511D01*
X113577573Y-51263513D01*
X113353116Y-51599436D01*
X113067436Y-51885116D01*
X112731513Y-52109573D01*
X112731512Y-52109574D01*
X112731511Y-52109574D01*
X112358254Y-52264182D01*
X111962007Y-52343000D01*
X111557993Y-52343000D01*
X111161746Y-52264182D01*
X110788489Y-52109574D01*
X110788488Y-52109574D01*
X110788487Y-52109573D01*
X110452564Y-51885116D01*
X110166884Y-51599436D01*
X109942427Y-51263513D01*
X109942426Y-51263511D01*
X109787818Y-50890254D01*
X109709000Y-50494007D01*
X109709000Y-50089993D01*
X109787818Y-49693746D01*
X109942426Y-49320489D01*
X110166884Y-48984564D01*
X110452564Y-48698884D01*
X110467356Y-48689000D01*
X110788487Y-48474427D01*
X110788489Y-48474426D01*
X111161746Y-48319818D01*
X111557993Y-48241000D01*
X111962007Y-48241000D01*
X112358254Y-48319818D01*
G37*
G36*
X73750254Y-48319818D02*
G01*
X74123511Y-48474426D01*
X74123513Y-48474427D01*
X74444644Y-48689000D01*
X74459436Y-48698884D01*
X74745116Y-48984564D01*
X74969574Y-49320489D01*
X75124182Y-49693746D01*
X75203000Y-50089993D01*
X75203000Y-50494007D01*
X75124182Y-50890254D01*
X74969574Y-51263511D01*
X74969573Y-51263513D01*
X74745116Y-51599436D01*
X74459436Y-51885116D01*
X74123513Y-52109573D01*
X74123512Y-52109574D01*
X74123511Y-52109574D01*
X73750254Y-52264182D01*
X73354007Y-52343000D01*
X72949993Y-52343000D01*
X72553746Y-52264182D01*
X72180489Y-52109574D01*
X72180488Y-52109574D01*
X72180487Y-52109573D01*
X71844564Y-51885116D01*
X71558884Y-51599436D01*
X71334427Y-51263513D01*
X71334426Y-51263511D01*
X71179818Y-50890254D01*
X71101000Y-50494007D01*
X71101000Y-50089993D01*
X71179818Y-49693746D01*
X71334426Y-49320489D01*
X71558884Y-48984564D01*
X71844564Y-48698884D01*
X71859356Y-48689000D01*
X72180487Y-48474427D01*
X72180489Y-48474426D01*
X72553746Y-48319818D01*
X72949993Y-48241000D01*
X73354007Y-48241000D01*
X73750254Y-48319818D01*
G37*
G36*
X93054254Y-48319818D02*
G01*
X93427511Y-48474426D01*
X93427513Y-48474427D01*
X93748644Y-48689000D01*
X93763436Y-48698884D01*
X94049116Y-48984564D01*
X94273574Y-49320489D01*
X94428182Y-49693746D01*
X94507000Y-50089993D01*
X94507000Y-50494007D01*
X94428182Y-50890254D01*
X94273574Y-51263511D01*
X94273573Y-51263513D01*
X94049116Y-51599436D01*
X93763436Y-51885116D01*
X93427513Y-52109573D01*
X93427512Y-52109574D01*
X93427511Y-52109574D01*
X93054254Y-52264182D01*
X92658007Y-52343000D01*
X92253993Y-52343000D01*
X91857746Y-52264182D01*
X91484489Y-52109574D01*
X91484488Y-52109574D01*
X91484487Y-52109573D01*
X91148564Y-51885116D01*
X90862884Y-51599436D01*
X90638427Y-51263513D01*
X90638426Y-51263511D01*
X90483818Y-50890254D01*
X90405000Y-50494007D01*
X90405000Y-50089993D01*
X90483818Y-49693746D01*
X90638426Y-49320489D01*
X90862884Y-48984564D01*
X91148564Y-48698884D01*
X91163356Y-48689000D01*
X91484487Y-48474427D01*
X91484489Y-48474426D01*
X91857746Y-48319818D01*
X92253993Y-48241000D01*
X92658007Y-48241000D01*
X93054254Y-48319818D01*
G37*
G36*
X131662254Y-48319818D02*
G01*
X132035511Y-48474426D01*
X132035513Y-48474427D01*
X132356644Y-48689000D01*
X132371436Y-48698884D01*
X132657116Y-48984564D01*
X132881574Y-49320489D01*
X133036182Y-49693746D01*
X133115000Y-50089993D01*
X133115000Y-50494007D01*
X133036182Y-50890254D01*
X132881574Y-51263511D01*
X132881573Y-51263513D01*
X132657116Y-51599436D01*
X132371436Y-51885116D01*
X132035513Y-52109573D01*
X132035512Y-52109574D01*
X132035511Y-52109574D01*
X131662254Y-52264182D01*
X131266007Y-52343000D01*
X130861993Y-52343000D01*
X130465746Y-52264182D01*
X130092489Y-52109574D01*
X130092488Y-52109574D01*
X130092487Y-52109573D01*
X129756564Y-51885116D01*
X129470884Y-51599436D01*
X129246427Y-51263513D01*
X129246426Y-51263511D01*
X129091818Y-50890254D01*
X129013000Y-50494007D01*
X129013000Y-50089993D01*
X129091818Y-49693746D01*
X129246426Y-49320489D01*
X129470884Y-48984564D01*
X129756564Y-48698884D01*
X129771356Y-48689000D01*
X130092487Y-48474427D01*
X130092489Y-48474426D01*
X130465746Y-48319818D01*
X130861993Y-48241000D01*
X131266007Y-48241000D01*
X131662254Y-48319818D01*
G37*
G36*
X150966254Y-48319818D02*
G01*
X151339511Y-48474426D01*
X151339513Y-48474427D01*
X151660644Y-48689000D01*
X151675436Y-48698884D01*
X151961116Y-48984564D01*
X152185574Y-49320489D01*
X152340182Y-49693746D01*
X152419000Y-50089993D01*
X152419000Y-50494007D01*
X152340182Y-50890254D01*
X152185574Y-51263511D01*
X152185573Y-51263513D01*
X151961116Y-51599436D01*
X151675436Y-51885116D01*
X151339513Y-52109573D01*
X151339512Y-52109574D01*
X151339511Y-52109574D01*
X150966254Y-52264182D01*
X150570007Y-52343000D01*
X150165993Y-52343000D01*
X149769746Y-52264182D01*
X149396489Y-52109574D01*
X149396488Y-52109574D01*
X149396487Y-52109573D01*
X149060564Y-51885116D01*
X148774884Y-51599436D01*
X148550427Y-51263513D01*
X148550426Y-51263511D01*
X148395818Y-50890254D01*
X148317000Y-50494007D01*
X148317000Y-50089993D01*
X148395818Y-49693746D01*
X148550426Y-49320489D01*
X148774884Y-48984564D01*
X149060564Y-48698884D01*
X149075356Y-48689000D01*
X149396487Y-48474427D01*
X149396489Y-48474426D01*
X149769746Y-48319818D01*
X150165993Y-48241000D01*
X150570007Y-48241000D01*
X150966254Y-48319818D01*
G37*
G36*
X170270254Y-48319818D02*
G01*
X170643511Y-48474426D01*
X170643513Y-48474427D01*
X170964644Y-48689000D01*
X170979436Y-48698884D01*
X171265116Y-48984564D01*
X171489574Y-49320489D01*
X171644182Y-49693746D01*
X171723000Y-50089993D01*
X171723000Y-50494007D01*
X171644182Y-50890254D01*
X171489574Y-51263511D01*
X171489573Y-51263513D01*
X171265116Y-51599436D01*
X170979436Y-51885116D01*
X170643513Y-52109573D01*
X170643512Y-52109574D01*
X170643511Y-52109574D01*
X170270254Y-52264182D01*
X169874007Y-52343000D01*
X169469993Y-52343000D01*
X169073746Y-52264182D01*
X168700489Y-52109574D01*
X168700488Y-52109574D01*
X168700487Y-52109573D01*
X168364564Y-51885116D01*
X168078884Y-51599436D01*
X167854427Y-51263513D01*
X167854426Y-51263511D01*
X167699818Y-50890254D01*
X167621000Y-50494007D01*
X167621000Y-50089993D01*
X167699818Y-49693746D01*
X167854426Y-49320489D01*
X168078884Y-48984564D01*
X168364564Y-48698884D01*
X168379356Y-48689000D01*
X168700487Y-48474427D01*
X168700489Y-48474426D01*
X169073746Y-48319818D01*
X169469993Y-48241000D01*
X169874007Y-48241000D01*
X170270254Y-48319818D01*
G37*
G36*
X97649512Y-49395927D02*
G01*
X97798812Y-49425624D01*
X97962784Y-49493544D01*
X98110354Y-49592147D01*
X98235853Y-49717646D01*
X98334456Y-49865216D01*
X98402376Y-50029188D01*
X98437000Y-50203259D01*
X98437000Y-50380741D01*
X98402376Y-50554812D01*
X98334456Y-50718784D01*
X98235853Y-50866354D01*
X98110354Y-50991853D01*
X97962784Y-51090456D01*
X97798812Y-51158376D01*
X97649512Y-51188073D01*
X97624742Y-51193000D01*
X97447258Y-51193000D01*
X97422488Y-51188073D01*
X97273188Y-51158376D01*
X97109216Y-51090456D01*
X96961646Y-50991853D01*
X96836147Y-50866354D01*
X96737544Y-50718784D01*
X96669624Y-50554812D01*
X96635000Y-50380741D01*
X96635000Y-50203259D01*
X96669624Y-50029188D01*
X96737544Y-49865216D01*
X96836147Y-49717646D01*
X96961646Y-49592147D01*
X97109216Y-49493544D01*
X97273188Y-49425624D01*
X97422488Y-49395927D01*
X97447258Y-49391000D01*
X97624742Y-49391000D01*
X97649512Y-49395927D01*
G37*
G36*
X155561512Y-49395927D02*
G01*
X155710812Y-49425624D01*
X155874784Y-49493544D01*
X156022354Y-49592147D01*
X156147853Y-49717646D01*
X156246456Y-49865216D01*
X156314376Y-50029188D01*
X156349000Y-50203259D01*
X156349000Y-50380741D01*
X156314376Y-50554812D01*
X156246456Y-50718784D01*
X156147853Y-50866354D01*
X156022354Y-50991853D01*
X155874784Y-51090456D01*
X155710812Y-51158376D01*
X155561512Y-51188073D01*
X155536742Y-51193000D01*
X155359258Y-51193000D01*
X155334488Y-51188073D01*
X155185188Y-51158376D01*
X155021216Y-51090456D01*
X154873646Y-50991853D01*
X154748147Y-50866354D01*
X154649544Y-50718784D01*
X154581624Y-50554812D01*
X154547000Y-50380741D01*
X154547000Y-50203259D01*
X154581624Y-50029188D01*
X154649544Y-49865216D01*
X154748147Y-49717646D01*
X154873646Y-49592147D01*
X155021216Y-49493544D01*
X155185188Y-49425624D01*
X155334488Y-49395927D01*
X155359258Y-49391000D01*
X155536742Y-49391000D01*
X155561512Y-49395927D01*
G37*
G36*
X68185512Y-49395927D02*
G01*
X68334812Y-49425624D01*
X68498784Y-49493544D01*
X68646354Y-49592147D01*
X68771853Y-49717646D01*
X68870456Y-49865216D01*
X68938376Y-50029188D01*
X68973000Y-50203259D01*
X68973000Y-50380741D01*
X68938376Y-50554812D01*
X68870456Y-50718784D01*
X68771853Y-50866354D01*
X68646354Y-50991853D01*
X68498784Y-51090456D01*
X68334812Y-51158376D01*
X68185512Y-51188073D01*
X68160742Y-51193000D01*
X67983258Y-51193000D01*
X67958488Y-51188073D01*
X67809188Y-51158376D01*
X67645216Y-51090456D01*
X67497646Y-50991853D01*
X67372147Y-50866354D01*
X67273544Y-50718784D01*
X67205624Y-50554812D01*
X67171000Y-50380741D01*
X67171000Y-50203259D01*
X67205624Y-50029188D01*
X67273544Y-49865216D01*
X67372147Y-49717646D01*
X67497646Y-49592147D01*
X67645216Y-49493544D01*
X67809188Y-49425624D01*
X67958488Y-49395927D01*
X67983258Y-49391000D01*
X68160742Y-49391000D01*
X68185512Y-49395927D01*
G37*
G36*
X78345512Y-49395927D02*
G01*
X78494812Y-49425624D01*
X78658784Y-49493544D01*
X78806354Y-49592147D01*
X78931853Y-49717646D01*
X79030456Y-49865216D01*
X79098376Y-50029188D01*
X79133000Y-50203259D01*
X79133000Y-50380741D01*
X79098376Y-50554812D01*
X79030456Y-50718784D01*
X78931853Y-50866354D01*
X78806354Y-50991853D01*
X78658784Y-51090456D01*
X78494812Y-51158376D01*
X78345512Y-51188073D01*
X78320742Y-51193000D01*
X78143258Y-51193000D01*
X78118488Y-51188073D01*
X77969188Y-51158376D01*
X77805216Y-51090456D01*
X77657646Y-50991853D01*
X77532147Y-50866354D01*
X77433544Y-50718784D01*
X77365624Y-50554812D01*
X77331000Y-50380741D01*
X77331000Y-50203259D01*
X77365624Y-50029188D01*
X77433544Y-49865216D01*
X77532147Y-49717646D01*
X77657646Y-49592147D01*
X77805216Y-49493544D01*
X77969188Y-49425624D01*
X78118488Y-49395927D01*
X78143258Y-49391000D01*
X78320742Y-49391000D01*
X78345512Y-49395927D01*
G37*
G36*
X87489512Y-49395927D02*
G01*
X87638812Y-49425624D01*
X87802784Y-49493544D01*
X87950354Y-49592147D01*
X88075853Y-49717646D01*
X88174456Y-49865216D01*
X88242376Y-50029188D01*
X88277000Y-50203259D01*
X88277000Y-50380741D01*
X88242376Y-50554812D01*
X88174456Y-50718784D01*
X88075853Y-50866354D01*
X87950354Y-50991853D01*
X87802784Y-51090456D01*
X87638812Y-51158376D01*
X87489512Y-51188073D01*
X87464742Y-51193000D01*
X87287258Y-51193000D01*
X87262488Y-51188073D01*
X87113188Y-51158376D01*
X86949216Y-51090456D01*
X86801646Y-50991853D01*
X86676147Y-50866354D01*
X86577544Y-50718784D01*
X86509624Y-50554812D01*
X86475000Y-50380741D01*
X86475000Y-50203259D01*
X86509624Y-50029188D01*
X86577544Y-49865216D01*
X86676147Y-49717646D01*
X86801646Y-49592147D01*
X86949216Y-49493544D01*
X87113188Y-49425624D01*
X87262488Y-49395927D01*
X87287258Y-49391000D01*
X87464742Y-49391000D01*
X87489512Y-49395927D01*
G37*
G36*
X136257512Y-49395927D02*
G01*
X136406812Y-49425624D01*
X136570784Y-49493544D01*
X136718354Y-49592147D01*
X136843853Y-49717646D01*
X136942456Y-49865216D01*
X137010376Y-50029188D01*
X137045000Y-50203259D01*
X137045000Y-50380741D01*
X137010376Y-50554812D01*
X136942456Y-50718784D01*
X136843853Y-50866354D01*
X136718354Y-50991853D01*
X136570784Y-51090456D01*
X136406812Y-51158376D01*
X136257512Y-51188073D01*
X136232742Y-51193000D01*
X136055258Y-51193000D01*
X136030488Y-51188073D01*
X135881188Y-51158376D01*
X135717216Y-51090456D01*
X135569646Y-50991853D01*
X135444147Y-50866354D01*
X135345544Y-50718784D01*
X135277624Y-50554812D01*
X135243000Y-50380741D01*
X135243000Y-50203259D01*
X135277624Y-50029188D01*
X135345544Y-49865216D01*
X135444147Y-49717646D01*
X135569646Y-49592147D01*
X135717216Y-49493544D01*
X135881188Y-49425624D01*
X136030488Y-49395927D01*
X136055258Y-49391000D01*
X136232742Y-49391000D01*
X136257512Y-49395927D01*
G37*
G36*
X106793512Y-49395927D02*
G01*
X106942812Y-49425624D01*
X107106784Y-49493544D01*
X107254354Y-49592147D01*
X107379853Y-49717646D01*
X107478456Y-49865216D01*
X107546376Y-50029188D01*
X107581000Y-50203259D01*
X107581000Y-50380741D01*
X107546376Y-50554812D01*
X107478456Y-50718784D01*
X107379853Y-50866354D01*
X107254354Y-50991853D01*
X107106784Y-51090456D01*
X106942812Y-51158376D01*
X106793512Y-51188073D01*
X106768742Y-51193000D01*
X106591258Y-51193000D01*
X106566488Y-51188073D01*
X106417188Y-51158376D01*
X106253216Y-51090456D01*
X106105646Y-50991853D01*
X105980147Y-50866354D01*
X105881544Y-50718784D01*
X105813624Y-50554812D01*
X105779000Y-50380741D01*
X105779000Y-50203259D01*
X105813624Y-50029188D01*
X105881544Y-49865216D01*
X105980147Y-49717646D01*
X106105646Y-49592147D01*
X106253216Y-49493544D01*
X106417188Y-49425624D01*
X106566488Y-49395927D01*
X106591258Y-49391000D01*
X106768742Y-49391000D01*
X106793512Y-49395927D01*
G37*
G36*
X174865512Y-49395927D02*
G01*
X175014812Y-49425624D01*
X175178784Y-49493544D01*
X175326354Y-49592147D01*
X175451853Y-49717646D01*
X175550456Y-49865216D01*
X175618376Y-50029188D01*
X175653000Y-50203259D01*
X175653000Y-50380741D01*
X175618376Y-50554812D01*
X175550456Y-50718784D01*
X175451853Y-50866354D01*
X175326354Y-50991853D01*
X175178784Y-51090456D01*
X175014812Y-51158376D01*
X174865512Y-51188073D01*
X174840742Y-51193000D01*
X174663258Y-51193000D01*
X174638488Y-51188073D01*
X174489188Y-51158376D01*
X174325216Y-51090456D01*
X174177646Y-50991853D01*
X174052147Y-50866354D01*
X173953544Y-50718784D01*
X173885624Y-50554812D01*
X173851000Y-50380741D01*
X173851000Y-50203259D01*
X173885624Y-50029188D01*
X173953544Y-49865216D01*
X174052147Y-49717646D01*
X174177646Y-49592147D01*
X174325216Y-49493544D01*
X174489188Y-49425624D01*
X174638488Y-49395927D01*
X174663258Y-49391000D01*
X174840742Y-49391000D01*
X174865512Y-49395927D01*
G37*
G36*
X164705512Y-49395927D02*
G01*
X164854812Y-49425624D01*
X165018784Y-49493544D01*
X165166354Y-49592147D01*
X165291853Y-49717646D01*
X165390456Y-49865216D01*
X165458376Y-50029188D01*
X165493000Y-50203259D01*
X165493000Y-50380741D01*
X165458376Y-50554812D01*
X165390456Y-50718784D01*
X165291853Y-50866354D01*
X165166354Y-50991853D01*
X165018784Y-51090456D01*
X164854812Y-51158376D01*
X164705512Y-51188073D01*
X164680742Y-51193000D01*
X164503258Y-51193000D01*
X164478488Y-51188073D01*
X164329188Y-51158376D01*
X164165216Y-51090456D01*
X164017646Y-50991853D01*
X163892147Y-50866354D01*
X163793544Y-50718784D01*
X163725624Y-50554812D01*
X163691000Y-50380741D01*
X163691000Y-50203259D01*
X163725624Y-50029188D01*
X163793544Y-49865216D01*
X163892147Y-49717646D01*
X164017646Y-49592147D01*
X164165216Y-49493544D01*
X164329188Y-49425624D01*
X164478488Y-49395927D01*
X164503258Y-49391000D01*
X164680742Y-49391000D01*
X164705512Y-49395927D01*
G37*
G36*
X145401512Y-49395927D02*
G01*
X145550812Y-49425624D01*
X145714784Y-49493544D01*
X145862354Y-49592147D01*
X145987853Y-49717646D01*
X146086456Y-49865216D01*
X146154376Y-50029188D01*
X146189000Y-50203259D01*
X146189000Y-50380741D01*
X146154376Y-50554812D01*
X146086456Y-50718784D01*
X145987853Y-50866354D01*
X145862354Y-50991853D01*
X145714784Y-51090456D01*
X145550812Y-51158376D01*
X145401512Y-51188073D01*
X145376742Y-51193000D01*
X145199258Y-51193000D01*
X145174488Y-51188073D01*
X145025188Y-51158376D01*
X144861216Y-51090456D01*
X144713646Y-50991853D01*
X144588147Y-50866354D01*
X144489544Y-50718784D01*
X144421624Y-50554812D01*
X144387000Y-50380741D01*
X144387000Y-50203259D01*
X144421624Y-50029188D01*
X144489544Y-49865216D01*
X144588147Y-49717646D01*
X144713646Y-49592147D01*
X144861216Y-49493544D01*
X145025188Y-49425624D01*
X145174488Y-49395927D01*
X145199258Y-49391000D01*
X145376742Y-49391000D01*
X145401512Y-49395927D01*
G37*
G36*
X116953512Y-49395927D02*
G01*
X117102812Y-49425624D01*
X117266784Y-49493544D01*
X117414354Y-49592147D01*
X117539853Y-49717646D01*
X117638456Y-49865216D01*
X117706376Y-50029188D01*
X117741000Y-50203259D01*
X117741000Y-50380741D01*
X117706376Y-50554812D01*
X117638456Y-50718784D01*
X117539853Y-50866354D01*
X117414354Y-50991853D01*
X117266784Y-51090456D01*
X117102812Y-51158376D01*
X116953512Y-51188073D01*
X116928742Y-51193000D01*
X116751258Y-51193000D01*
X116726488Y-51188073D01*
X116577188Y-51158376D01*
X116413216Y-51090456D01*
X116265646Y-50991853D01*
X116140147Y-50866354D01*
X116041544Y-50718784D01*
X115973624Y-50554812D01*
X115939000Y-50380741D01*
X115939000Y-50203259D01*
X115973624Y-50029188D01*
X116041544Y-49865216D01*
X116140147Y-49717646D01*
X116265646Y-49592147D01*
X116413216Y-49493544D01*
X116577188Y-49425624D01*
X116726488Y-49395927D01*
X116751258Y-49391000D01*
X116928742Y-49391000D01*
X116953512Y-49395927D01*
G37*
G36*
X126097512Y-49395927D02*
G01*
X126246812Y-49425624D01*
X126410784Y-49493544D01*
X126558354Y-49592147D01*
X126683853Y-49717646D01*
X126782456Y-49865216D01*
X126850376Y-50029188D01*
X126885000Y-50203259D01*
X126885000Y-50380741D01*
X126850376Y-50554812D01*
X126782456Y-50718784D01*
X126683853Y-50866354D01*
X126558354Y-50991853D01*
X126410784Y-51090456D01*
X126246812Y-51158376D01*
X126097512Y-51188073D01*
X126072742Y-51193000D01*
X125895258Y-51193000D01*
X125870488Y-51188073D01*
X125721188Y-51158376D01*
X125557216Y-51090456D01*
X125409646Y-50991853D01*
X125284147Y-50866354D01*
X125185544Y-50718784D01*
X125117624Y-50554812D01*
X125083000Y-50380741D01*
X125083000Y-50203259D01*
X125117624Y-50029188D01*
X125185544Y-49865216D01*
X125284147Y-49717646D01*
X125409646Y-49592147D01*
X125557216Y-49493544D01*
X125721188Y-49425624D01*
X125870488Y-49395927D01*
X125895258Y-49391000D01*
X126072742Y-49391000D01*
X126097512Y-49395927D01*
G37*
G36*
X197989000Y-50741000D02*
G01*
X194187000Y-50741000D01*
X194187000Y-48639000D01*
X197989000Y-48639000D01*
X197989000Y-50741000D01*
G37*
G36*
X192689000Y-50491000D02*
G01*
X190587000Y-50491000D01*
X190587000Y-48689000D01*
X192689000Y-48689000D01*
X192689000Y-50491000D01*
G37*
G36*
X201589000Y-50491000D02*
G01*
X199487000Y-50491000D01*
X199487000Y-48689000D01*
X201589000Y-48689000D01*
X201589000Y-50491000D01*
G37*
G36*
X182011222Y-48045867D02*
G01*
X182152786Y-48088810D01*
X182283252Y-48158546D01*
X182313040Y-48182992D01*
X182397607Y-48252393D01*
X182467008Y-48336960D01*
X182491454Y-48366748D01*
X182491455Y-48366750D01*
X182549010Y-48474426D01*
X182561190Y-48497214D01*
X182604133Y-48638778D01*
X182604133Y-48638780D01*
X182615000Y-48749112D01*
X182615000Y-49422888D01*
X182614730Y-49425625D01*
X182604133Y-49533222D01*
X182561190Y-49674786D01*
X182491454Y-49805252D01*
X182454784Y-49849934D01*
X182397607Y-49919606D01*
X182333415Y-49972286D01*
X182283251Y-50013454D01*
X182152785Y-50083190D01*
X182011221Y-50126133D01*
X181864000Y-50140633D01*
X181716778Y-50126133D01*
X181575214Y-50083190D01*
X181444748Y-50013454D01*
X181400066Y-49976784D01*
X181330394Y-49919607D01*
X181236547Y-49805252D01*
X181236546Y-49805251D01*
X181166810Y-49674785D01*
X181123867Y-49533221D01*
X181113000Y-49422886D01*
X181113000Y-48749113D01*
X181123867Y-48638778D01*
X181166810Y-48497214D01*
X181236547Y-48366748D01*
X181330394Y-48252393D01*
X181414961Y-48182992D01*
X181444749Y-48158546D01*
X181575215Y-48088810D01*
X181716779Y-48045867D01*
X181864000Y-48031367D01*
X182011222Y-48045867D01*
G37*
G36*
X69566549Y-46623116D02*
G01*
X69677734Y-46645232D01*
X69749088Y-46674788D01*
X69879978Y-46729004D01*
X69887203Y-46731997D01*
X70075720Y-46857960D01*
X70236040Y-47018280D01*
X70362003Y-47206797D01*
X70448768Y-47416266D01*
X70455502Y-47450119D01*
X70493000Y-47638635D01*
X70493000Y-47865365D01*
X70473597Y-47962909D01*
X70448768Y-48087734D01*
X70362003Y-48297203D01*
X70236040Y-48485720D01*
X70075720Y-48646040D01*
X69887203Y-48772003D01*
X69677734Y-48858768D01*
X69566549Y-48880884D01*
X69455365Y-48903000D01*
X69228635Y-48903000D01*
X69117451Y-48880884D01*
X69006266Y-48858768D01*
X68796797Y-48772003D01*
X68608280Y-48646040D01*
X68447960Y-48485720D01*
X68321997Y-48297203D01*
X68235232Y-48087734D01*
X68210403Y-47962909D01*
X68191000Y-47865365D01*
X68191000Y-47638635D01*
X68228498Y-47450119D01*
X68235232Y-47416266D01*
X68321997Y-47206797D01*
X68447960Y-47018280D01*
X68608280Y-46857960D01*
X68796797Y-46731997D01*
X68804023Y-46729004D01*
X68934912Y-46674788D01*
X69006266Y-46645232D01*
X69117451Y-46623116D01*
X69228635Y-46601000D01*
X69455365Y-46601000D01*
X69566549Y-46623116D01*
G37*
G36*
X166086549Y-46623116D02*
G01*
X166197734Y-46645232D01*
X166269088Y-46674788D01*
X166399978Y-46729004D01*
X166407203Y-46731997D01*
X166595720Y-46857960D01*
X166756040Y-47018280D01*
X166882003Y-47206797D01*
X166968768Y-47416266D01*
X166975502Y-47450119D01*
X167013000Y-47638635D01*
X167013000Y-47865365D01*
X166993597Y-47962909D01*
X166968768Y-48087734D01*
X166882003Y-48297203D01*
X166756040Y-48485720D01*
X166595720Y-48646040D01*
X166407203Y-48772003D01*
X166197734Y-48858768D01*
X166086549Y-48880884D01*
X165975365Y-48903000D01*
X165748635Y-48903000D01*
X165637451Y-48880884D01*
X165526266Y-48858768D01*
X165316797Y-48772003D01*
X165128280Y-48646040D01*
X164967960Y-48485720D01*
X164841997Y-48297203D01*
X164755232Y-48087734D01*
X164730403Y-47962909D01*
X164711000Y-47865365D01*
X164711000Y-47638635D01*
X164748498Y-47450119D01*
X164755232Y-47416266D01*
X164841997Y-47206797D01*
X164967960Y-47018280D01*
X165128280Y-46857960D01*
X165316797Y-46731997D01*
X165324023Y-46729004D01*
X165454912Y-46674788D01*
X165526266Y-46645232D01*
X165637451Y-46623116D01*
X165748635Y-46601000D01*
X165975365Y-46601000D01*
X166086549Y-46623116D01*
G37*
G36*
X127478549Y-46623116D02*
G01*
X127589734Y-46645232D01*
X127661088Y-46674788D01*
X127791978Y-46729004D01*
X127799203Y-46731997D01*
X127987720Y-46857960D01*
X128148040Y-47018280D01*
X128274003Y-47206797D01*
X128360768Y-47416266D01*
X128367502Y-47450119D01*
X128405000Y-47638635D01*
X128405000Y-47865365D01*
X128385597Y-47962909D01*
X128360768Y-48087734D01*
X128274003Y-48297203D01*
X128148040Y-48485720D01*
X127987720Y-48646040D01*
X127799203Y-48772003D01*
X127589734Y-48858768D01*
X127478549Y-48880884D01*
X127367365Y-48903000D01*
X127140635Y-48903000D01*
X127029451Y-48880884D01*
X126918266Y-48858768D01*
X126708797Y-48772003D01*
X126520280Y-48646040D01*
X126359960Y-48485720D01*
X126233997Y-48297203D01*
X126147232Y-48087734D01*
X126122403Y-47962909D01*
X126103000Y-47865365D01*
X126103000Y-47638635D01*
X126140498Y-47450119D01*
X126147232Y-47416266D01*
X126233997Y-47206797D01*
X126359960Y-47018280D01*
X126520280Y-46857960D01*
X126708797Y-46731997D01*
X126716023Y-46729004D01*
X126846912Y-46674788D01*
X126918266Y-46645232D01*
X127029451Y-46623116D01*
X127140635Y-46601000D01*
X127367365Y-46601000D01*
X127478549Y-46623116D01*
G37*
G36*
X146782549Y-46623116D02*
G01*
X146893734Y-46645232D01*
X146965088Y-46674788D01*
X147095978Y-46729004D01*
X147103203Y-46731997D01*
X147291720Y-46857960D01*
X147452040Y-47018280D01*
X147578003Y-47206797D01*
X147664768Y-47416266D01*
X147671502Y-47450119D01*
X147709000Y-47638635D01*
X147709000Y-47865365D01*
X147689597Y-47962909D01*
X147664768Y-48087734D01*
X147578003Y-48297203D01*
X147452040Y-48485720D01*
X147291720Y-48646040D01*
X147103203Y-48772003D01*
X146893734Y-48858768D01*
X146782549Y-48880884D01*
X146671365Y-48903000D01*
X146444635Y-48903000D01*
X146333451Y-48880884D01*
X146222266Y-48858768D01*
X146012797Y-48772003D01*
X145824280Y-48646040D01*
X145663960Y-48485720D01*
X145537997Y-48297203D01*
X145451232Y-48087734D01*
X145426403Y-47962909D01*
X145407000Y-47865365D01*
X145407000Y-47638635D01*
X145444498Y-47450119D01*
X145451232Y-47416266D01*
X145537997Y-47206797D01*
X145663960Y-47018280D01*
X145824280Y-46857960D01*
X146012797Y-46731997D01*
X146020023Y-46729004D01*
X146150912Y-46674788D01*
X146222266Y-46645232D01*
X146333451Y-46623116D01*
X146444635Y-46601000D01*
X146671365Y-46601000D01*
X146782549Y-46623116D01*
G37*
G36*
X108174549Y-46623116D02*
G01*
X108285734Y-46645232D01*
X108357088Y-46674788D01*
X108487978Y-46729004D01*
X108495203Y-46731997D01*
X108683720Y-46857960D01*
X108844040Y-47018280D01*
X108970003Y-47206797D01*
X109056768Y-47416266D01*
X109063502Y-47450119D01*
X109101000Y-47638635D01*
X109101000Y-47865365D01*
X109081597Y-47962909D01*
X109056768Y-48087734D01*
X108970003Y-48297203D01*
X108844040Y-48485720D01*
X108683720Y-48646040D01*
X108495203Y-48772003D01*
X108285734Y-48858768D01*
X108174549Y-48880884D01*
X108063365Y-48903000D01*
X107836635Y-48903000D01*
X107725451Y-48880884D01*
X107614266Y-48858768D01*
X107404797Y-48772003D01*
X107216280Y-48646040D01*
X107055960Y-48485720D01*
X106929997Y-48297203D01*
X106843232Y-48087734D01*
X106818403Y-47962909D01*
X106799000Y-47865365D01*
X106799000Y-47638635D01*
X106836498Y-47450119D01*
X106843232Y-47416266D01*
X106929997Y-47206797D01*
X107055960Y-47018280D01*
X107216280Y-46857960D01*
X107404797Y-46731997D01*
X107412023Y-46729004D01*
X107542912Y-46674788D01*
X107614266Y-46645232D01*
X107725451Y-46623116D01*
X107836635Y-46601000D01*
X108063365Y-46601000D01*
X108174549Y-46623116D01*
G37*
G36*
X88870549Y-46623116D02*
G01*
X88981734Y-46645232D01*
X89053088Y-46674788D01*
X89183978Y-46729004D01*
X89191203Y-46731997D01*
X89379720Y-46857960D01*
X89540040Y-47018280D01*
X89666003Y-47206797D01*
X89752768Y-47416266D01*
X89759502Y-47450119D01*
X89797000Y-47638635D01*
X89797000Y-47865365D01*
X89777597Y-47962909D01*
X89752768Y-48087734D01*
X89666003Y-48297203D01*
X89540040Y-48485720D01*
X89379720Y-48646040D01*
X89191203Y-48772003D01*
X88981734Y-48858768D01*
X88870549Y-48880884D01*
X88759365Y-48903000D01*
X88532635Y-48903000D01*
X88421451Y-48880884D01*
X88310266Y-48858768D01*
X88100797Y-48772003D01*
X87912280Y-48646040D01*
X87751960Y-48485720D01*
X87625997Y-48297203D01*
X87539232Y-48087734D01*
X87514403Y-47962909D01*
X87495000Y-47865365D01*
X87495000Y-47638635D01*
X87532498Y-47450119D01*
X87539232Y-47416266D01*
X87625997Y-47206797D01*
X87751960Y-47018280D01*
X87912280Y-46857960D01*
X88100797Y-46731997D01*
X88108023Y-46729004D01*
X88238912Y-46674788D01*
X88310266Y-46645232D01*
X88421451Y-46623116D01*
X88532635Y-46601000D01*
X88759365Y-46601000D01*
X88870549Y-46623116D01*
G37*
G36*
X184353890Y-46760017D02*
G01*
X184472364Y-46809091D01*
X184578988Y-46880335D01*
X184669665Y-46971012D01*
X184718615Y-47044270D01*
X184740910Y-47077638D01*
X184789983Y-47196110D01*
X184815000Y-47321881D01*
X184815000Y-47450119D01*
X184809396Y-47478291D01*
X184789983Y-47575890D01*
X184740909Y-47694364D01*
X184669665Y-47800988D01*
X184578988Y-47891665D01*
X184472364Y-47962909D01*
X184472363Y-47962910D01*
X184472362Y-47962910D01*
X184353890Y-48011983D01*
X184228119Y-48037000D01*
X184099881Y-48037000D01*
X183974110Y-48011983D01*
X183855638Y-47962910D01*
X183855637Y-47962910D01*
X183855636Y-47962909D01*
X183749012Y-47891665D01*
X183658335Y-47800988D01*
X183587091Y-47694364D01*
X183538017Y-47575890D01*
X183518604Y-47478291D01*
X183513000Y-47450119D01*
X183513000Y-47321881D01*
X183538017Y-47196110D01*
X183587090Y-47077638D01*
X183609386Y-47044270D01*
X183658335Y-46971012D01*
X183749012Y-46880335D01*
X183855636Y-46809091D01*
X183974110Y-46760017D01*
X184099881Y-46735000D01*
X184228119Y-46735000D01*
X184353890Y-46760017D01*
G37*
G36*
X198448721Y-46460174D02*
G01*
X198548995Y-46501709D01*
X198548996Y-46501710D01*
X198639242Y-46562010D01*
X198715990Y-46638758D01*
X198740062Y-46674785D01*
X198776291Y-46729005D01*
X198817826Y-46829279D01*
X198839000Y-46935730D01*
X198839000Y-47044270D01*
X198817826Y-47150721D01*
X198776291Y-47250995D01*
X198776290Y-47250996D01*
X198715990Y-47341242D01*
X198639242Y-47417990D01*
X198593812Y-47448345D01*
X198548995Y-47478291D01*
X198448721Y-47519826D01*
X198342270Y-47541000D01*
X198233730Y-47541000D01*
X198127279Y-47519826D01*
X198027005Y-47478291D01*
X197982188Y-47448345D01*
X197936758Y-47417990D01*
X197860010Y-47341242D01*
X197799710Y-47250996D01*
X197799709Y-47250995D01*
X197758174Y-47150721D01*
X197737000Y-47044270D01*
X197737000Y-46935730D01*
X197758174Y-46829279D01*
X197799709Y-46729005D01*
X197835938Y-46674785D01*
X197860010Y-46638758D01*
X197936758Y-46562010D01*
X198027004Y-46501710D01*
X198027005Y-46501709D01*
X198127279Y-46460174D01*
X198233730Y-46439000D01*
X198342270Y-46439000D01*
X198448721Y-46460174D01*
G37*
G36*
X194048721Y-46460174D02*
G01*
X194148995Y-46501709D01*
X194148996Y-46501710D01*
X194239242Y-46562010D01*
X194315990Y-46638758D01*
X194340062Y-46674785D01*
X194376291Y-46729005D01*
X194417826Y-46829279D01*
X194439000Y-46935730D01*
X194439000Y-47044270D01*
X194417826Y-47150721D01*
X194376291Y-47250995D01*
X194376290Y-47250996D01*
X194315990Y-47341242D01*
X194239242Y-47417990D01*
X194193812Y-47448345D01*
X194148995Y-47478291D01*
X194048721Y-47519826D01*
X193942270Y-47541000D01*
X193833730Y-47541000D01*
X193727279Y-47519826D01*
X193627005Y-47478291D01*
X193582188Y-47448345D01*
X193536758Y-47417990D01*
X193460010Y-47341242D01*
X193399710Y-47250996D01*
X193399709Y-47250995D01*
X193358174Y-47150721D01*
X193337000Y-47044270D01*
X193337000Y-46935730D01*
X193358174Y-46829279D01*
X193399709Y-46729005D01*
X193435938Y-46674785D01*
X193460010Y-46638758D01*
X193536758Y-46562010D01*
X193627004Y-46501710D01*
X193627005Y-46501709D01*
X193727279Y-46460174D01*
X193833730Y-46439000D01*
X193942270Y-46439000D01*
X194048721Y-46460174D01*
G37*
G36*
X187511222Y-45045867D02*
G01*
X187652786Y-45088810D01*
X187783252Y-45158546D01*
X187813040Y-45182992D01*
X187897607Y-45252393D01*
X187957491Y-45325364D01*
X187991454Y-45366748D01*
X188061190Y-45497214D01*
X188104133Y-45638778D01*
X188115000Y-45749113D01*
X188115000Y-46422887D01*
X188104133Y-46533222D01*
X188061190Y-46674786D01*
X187991454Y-46805252D01*
X187954784Y-46849934D01*
X187897607Y-46919606D01*
X187834967Y-46971012D01*
X187783251Y-47013454D01*
X187652785Y-47083190D01*
X187511221Y-47126133D01*
X187364000Y-47140633D01*
X187216778Y-47126133D01*
X187075214Y-47083190D01*
X186944748Y-47013454D01*
X186893032Y-46971012D01*
X186830394Y-46919607D01*
X186756265Y-46829279D01*
X186736546Y-46805251D01*
X186666810Y-46674785D01*
X186623867Y-46533221D01*
X186613000Y-46422886D01*
X186613000Y-45749113D01*
X186623867Y-45638778D01*
X186666810Y-45497214D01*
X186736547Y-45366748D01*
X186770509Y-45325365D01*
X186830394Y-45252393D01*
X186914961Y-45182992D01*
X186944749Y-45158546D01*
X187075215Y-45088810D01*
X187216779Y-45045867D01*
X187364000Y-45031367D01*
X187511222Y-45045867D01*
G37*
G36*
X182011222Y-45045867D02*
G01*
X182152786Y-45088810D01*
X182283252Y-45158546D01*
X182313040Y-45182992D01*
X182397607Y-45252393D01*
X182457491Y-45325364D01*
X182491454Y-45366748D01*
X182561190Y-45497214D01*
X182604133Y-45638778D01*
X182615000Y-45749113D01*
X182615000Y-46422887D01*
X182604133Y-46533222D01*
X182561190Y-46674786D01*
X182491454Y-46805252D01*
X182454784Y-46849934D01*
X182397607Y-46919606D01*
X182334967Y-46971012D01*
X182283251Y-47013454D01*
X182152785Y-47083190D01*
X182011221Y-47126133D01*
X181864000Y-47140633D01*
X181716778Y-47126133D01*
X181575214Y-47083190D01*
X181444748Y-47013454D01*
X181393032Y-46971012D01*
X181330394Y-46919607D01*
X181256265Y-46829279D01*
X181236546Y-46805251D01*
X181166810Y-46674785D01*
X181123867Y-46533221D01*
X181113000Y-46422886D01*
X181113000Y-45749113D01*
X181123867Y-45638778D01*
X181166810Y-45497214D01*
X181236547Y-45366748D01*
X181270509Y-45325365D01*
X181330394Y-45252393D01*
X181414961Y-45182992D01*
X181444749Y-45158546D01*
X181575215Y-45088810D01*
X181716779Y-45045867D01*
X181864000Y-45031367D01*
X182011222Y-45045867D01*
G37*
G36*
X153132549Y-44083116D02*
G01*
X153243734Y-44105232D01*
X153453203Y-44191997D01*
X153641720Y-44317960D01*
X153802040Y-44478280D01*
X153928003Y-44666797D01*
X153928004Y-44666799D01*
X154014768Y-44876267D01*
X154059000Y-45098635D01*
X154059000Y-45325365D01*
X154014768Y-45547733D01*
X153931355Y-45749112D01*
X153928003Y-45757203D01*
X153802040Y-45945720D01*
X153641720Y-46106040D01*
X153453203Y-46232003D01*
X153243734Y-46318768D01*
X153132549Y-46340884D01*
X153021365Y-46363000D01*
X152794635Y-46363000D01*
X152683451Y-46340884D01*
X152572266Y-46318768D01*
X152362797Y-46232003D01*
X152174280Y-46106040D01*
X152013960Y-45945720D01*
X151887997Y-45757203D01*
X151884646Y-45749112D01*
X151801232Y-45547733D01*
X151757000Y-45325365D01*
X151757000Y-45098635D01*
X151801232Y-44876267D01*
X151887996Y-44666799D01*
X151887997Y-44666797D01*
X152013960Y-44478280D01*
X152174280Y-44317960D01*
X152362797Y-44191997D01*
X152572266Y-44105232D01*
X152683451Y-44083116D01*
X152794635Y-44061000D01*
X153021365Y-44061000D01*
X153132549Y-44083116D01*
G37*
G36*
X133828549Y-44083116D02*
G01*
X133939734Y-44105232D01*
X134149203Y-44191997D01*
X134337720Y-44317960D01*
X134498040Y-44478280D01*
X134624003Y-44666797D01*
X134624004Y-44666799D01*
X134710768Y-44876267D01*
X134755000Y-45098635D01*
X134755000Y-45325365D01*
X134710768Y-45547733D01*
X134627355Y-45749112D01*
X134624003Y-45757203D01*
X134498040Y-45945720D01*
X134337720Y-46106040D01*
X134149203Y-46232003D01*
X133939734Y-46318768D01*
X133828549Y-46340884D01*
X133717365Y-46363000D01*
X133490635Y-46363000D01*
X133379451Y-46340884D01*
X133268266Y-46318768D01*
X133058797Y-46232003D01*
X132870280Y-46106040D01*
X132709960Y-45945720D01*
X132583997Y-45757203D01*
X132580646Y-45749112D01*
X132497232Y-45547733D01*
X132453000Y-45325365D01*
X132453000Y-45098635D01*
X132497232Y-44876267D01*
X132583996Y-44666799D01*
X132583997Y-44666797D01*
X132709960Y-44478280D01*
X132870280Y-44317960D01*
X133058797Y-44191997D01*
X133268266Y-44105232D01*
X133379451Y-44083116D01*
X133490635Y-44061000D01*
X133717365Y-44061000D01*
X133828549Y-44083116D01*
G37*
G36*
X114524549Y-44083116D02*
G01*
X114635734Y-44105232D01*
X114845203Y-44191997D01*
X115033720Y-44317960D01*
X115194040Y-44478280D01*
X115320003Y-44666797D01*
X115320004Y-44666799D01*
X115406768Y-44876267D01*
X115451000Y-45098635D01*
X115451000Y-45325365D01*
X115406768Y-45547733D01*
X115323355Y-45749112D01*
X115320003Y-45757203D01*
X115194040Y-45945720D01*
X115033720Y-46106040D01*
X114845203Y-46232003D01*
X114635734Y-46318768D01*
X114524549Y-46340884D01*
X114413365Y-46363000D01*
X114186635Y-46363000D01*
X114075451Y-46340884D01*
X113964266Y-46318768D01*
X113754797Y-46232003D01*
X113566280Y-46106040D01*
X113405960Y-45945720D01*
X113279997Y-45757203D01*
X113276646Y-45749112D01*
X113193232Y-45547733D01*
X113149000Y-45325365D01*
X113149000Y-45098635D01*
X113193232Y-44876267D01*
X113279996Y-44666799D01*
X113279997Y-44666797D01*
X113405960Y-44478280D01*
X113566280Y-44317960D01*
X113754797Y-44191997D01*
X113964266Y-44105232D01*
X114075451Y-44083116D01*
X114186635Y-44061000D01*
X114413365Y-44061000D01*
X114524549Y-44083116D01*
G37*
G36*
X172436549Y-44083116D02*
G01*
X172547734Y-44105232D01*
X172757203Y-44191997D01*
X172945720Y-44317960D01*
X173106040Y-44478280D01*
X173232003Y-44666797D01*
X173232004Y-44666799D01*
X173318768Y-44876267D01*
X173363000Y-45098635D01*
X173363000Y-45325365D01*
X173318768Y-45547733D01*
X173235355Y-45749112D01*
X173232003Y-45757203D01*
X173106040Y-45945720D01*
X172945720Y-46106040D01*
X172757203Y-46232003D01*
X172547734Y-46318768D01*
X172436549Y-46340884D01*
X172325365Y-46363000D01*
X172098635Y-46363000D01*
X171987451Y-46340884D01*
X171876266Y-46318768D01*
X171666797Y-46232003D01*
X171478280Y-46106040D01*
X171317960Y-45945720D01*
X171191997Y-45757203D01*
X171188646Y-45749112D01*
X171105232Y-45547733D01*
X171061000Y-45325365D01*
X171061000Y-45098635D01*
X171105232Y-44876267D01*
X171191996Y-44666799D01*
X171191997Y-44666797D01*
X171317960Y-44478280D01*
X171478280Y-44317960D01*
X171666797Y-44191997D01*
X171876266Y-44105232D01*
X171987451Y-44083116D01*
X172098635Y-44061000D01*
X172325365Y-44061000D01*
X172436549Y-44083116D01*
G37*
G36*
X95220549Y-44083116D02*
G01*
X95331734Y-44105232D01*
X95541203Y-44191997D01*
X95729720Y-44317960D01*
X95890040Y-44478280D01*
X96016003Y-44666797D01*
X96016004Y-44666799D01*
X96102768Y-44876267D01*
X96147000Y-45098635D01*
X96147000Y-45325365D01*
X96102768Y-45547733D01*
X96019355Y-45749112D01*
X96016003Y-45757203D01*
X95890040Y-45945720D01*
X95729720Y-46106040D01*
X95541203Y-46232003D01*
X95331734Y-46318768D01*
X95220549Y-46340884D01*
X95109365Y-46363000D01*
X94882635Y-46363000D01*
X94771451Y-46340884D01*
X94660266Y-46318768D01*
X94450797Y-46232003D01*
X94262280Y-46106040D01*
X94101960Y-45945720D01*
X93975997Y-45757203D01*
X93972646Y-45749112D01*
X93889232Y-45547733D01*
X93845000Y-45325365D01*
X93845000Y-45098635D01*
X93889232Y-44876267D01*
X93975996Y-44666799D01*
X93975997Y-44666797D01*
X94101960Y-44478280D01*
X94262280Y-44317960D01*
X94450797Y-44191997D01*
X94660266Y-44105232D01*
X94771451Y-44083116D01*
X94882635Y-44061000D01*
X95109365Y-44061000D01*
X95220549Y-44083116D01*
G37*
G36*
X75916549Y-44083116D02*
G01*
X76027734Y-44105232D01*
X76237203Y-44191997D01*
X76425720Y-44317960D01*
X76586040Y-44478280D01*
X76712003Y-44666797D01*
X76712004Y-44666799D01*
X76798768Y-44876267D01*
X76843000Y-45098635D01*
X76843000Y-45325365D01*
X76798768Y-45547733D01*
X76715355Y-45749112D01*
X76712003Y-45757203D01*
X76586040Y-45945720D01*
X76425720Y-46106040D01*
X76237203Y-46232003D01*
X76027734Y-46318768D01*
X75916549Y-46340884D01*
X75805365Y-46363000D01*
X75578635Y-46363000D01*
X75467451Y-46340884D01*
X75356266Y-46318768D01*
X75146797Y-46232003D01*
X74958280Y-46106040D01*
X74797960Y-45945720D01*
X74671997Y-45757203D01*
X74668646Y-45749112D01*
X74585232Y-45547733D01*
X74541000Y-45325365D01*
X74541000Y-45098635D01*
X74585232Y-44876267D01*
X74671996Y-44666799D01*
X74671997Y-44666797D01*
X74797960Y-44478280D01*
X74958280Y-44317960D01*
X75146797Y-44191997D01*
X75356266Y-44105232D01*
X75467451Y-44083116D01*
X75578635Y-44061000D01*
X75805365Y-44061000D01*
X75916549Y-44083116D01*
G37*
G36*
X201589000Y-45041000D02*
G01*
X199487000Y-45041000D01*
X199487000Y-43239000D01*
X201589000Y-43239000D01*
X201589000Y-45041000D01*
G37*
G36*
X192689000Y-45041000D02*
G01*
X190587000Y-45041000D01*
X190587000Y-43239000D01*
X192689000Y-43239000D01*
X192689000Y-45041000D01*
G37*
M02*
