M48
; DRILL file {KiCad (5.1.2)-2} date 1/2/2020 1:45:41 PM
; FORMAT={-:-/ absolute / inch / decimal}
; #@! TF.CreationDate,2020-01-02T13:45:41-06:00
; #@! TF.GenerationSoftware,Kicad,Pcbnew,(5.1.2)-2
FMAT,2
INCH
T1C0.0157
T2C0.0236
T3C0.0591
T4C0.0394
T5C0.0472
T6C0.0669
T7C0.1575
%
G90
G05
T1
X2.73Y-2.18
X2.73Y-2.94
X2.73Y-3.7
X2.73Y-4.46
X2.98Y-2.18
X2.98Y-2.94
X2.98Y-3.7
X2.98Y-4.46
X2.98Y-4.52
X3.06Y-2.18
X3.06Y-2.94
X3.06Y-3.7
X3.06Y-4.46
X3.2Y-2.3
X3.2Y-2.45
X3.2Y-3.05
X3.2Y-3.2
X3.2Y-3.8
X3.2Y-3.95
X3.35Y-2.3
X3.35Y-2.45
X3.35Y-3.05
X3.35Y-3.2
X3.35Y-3.8
X3.35Y-3.95
X3.49Y-2.18
X3.49Y-2.94
X3.49Y-3.7
X3.49Y-4.46
X3.74Y-2.18
X3.74Y-2.94
X3.74Y-3.7
X3.74Y-4.46
X3.74Y-4.54
X3.82Y-2.18
X3.82Y-2.94
X3.82Y-3.7
X3.82Y-4.46
X3.95Y-2.3
X3.95Y-2.45
X3.95Y-3.05
X3.95Y-3.2
X3.95Y-3.8
X3.95Y-3.95
X4.1Y-2.3
X4.1Y-2.45
X4.1Y-3.05
X4.1Y-3.2
X4.1Y-3.8
X4.1Y-3.95
X4.25Y-2.18
X4.25Y-2.94
X4.25Y-3.7
X4.25Y-4.46
X4.5Y-2.18
X4.5Y-2.94
X4.5Y-3.7
X4.5Y-4.46
X4.5Y-4.52
X4.58Y-2.18
X4.58Y-2.94
X4.58Y-3.7
X4.58Y-4.46
X4.7Y-2.3
X4.7Y-2.45
X4.7Y-3.05
X4.7Y-3.2
X4.7Y-3.8
X4.7Y-3.95
X4.85Y-2.3
X4.85Y-2.45
X4.85Y-3.05
X4.85Y-3.2
X4.85Y-3.8
X4.85Y-3.95
X5.01Y-2.18
X5.01Y-2.94
X5.01Y-3.7
X5.01Y-4.46
X5.26Y-2.18
X5.26Y-2.94
X5.26Y-3.7
X5.26Y-4.46
X5.26Y-4.52
X5.34Y-2.18
X5.34Y-2.94
X5.34Y-3.7
X5.34Y-4.46
X5.45Y-2.3
X5.45Y-2.45
X5.45Y-3.05
X5.45Y-3.2
X5.45Y-3.8
X5.45Y-3.95
X5.6Y-2.3
X5.6Y-2.45
X5.6Y-3.05
X5.6Y-3.2
X5.6Y-3.8
X5.6Y-3.95
X5.77Y-2.18
X5.77Y-2.94
X5.77Y-3.7
X5.77Y-4.46
X6.02Y-2.18
X6.02Y-2.94
X6.02Y-3.7
X6.02Y-4.46
X6.02Y-4.52
X6.1Y-2.18
X6.1Y-2.94
X6.1Y-3.7
X6.1Y-4.46
X6.2Y-2.3
X6.2Y-2.45
X6.2Y-3.05
X6.2Y-3.2
X6.2Y-3.8
X6.2Y-3.95
X6.35Y-2.3
X6.35Y-2.45
X6.35Y-3.05
X6.35Y-3.2
X6.35Y-3.8
X6.35Y-3.95
X6.53Y-2.18
X6.53Y-2.94
X6.53Y-3.7
X6.53Y-4.46
X6.78Y-2.18
X6.78Y-2.94
X6.78Y-3.7
X6.78Y-4.46
X7.0Y-2.3
X7.1Y-2.4
X7.1Y-3.9
X7.1Y-4.3
X7.2Y-2.5
X7.2Y-3.4
X7.2Y-3.5
X7.2Y-3.6
X7.2Y-3.7
X7.2Y-3.8
X7.2Y-3.9
X7.2Y-4.2
X7.3Y-3.4
X7.3Y-3.5
X7.3Y-3.6
X7.3Y-3.7
X7.3Y-3.8
X7.3Y-4.1
X7.325Y-2.78
X7.4Y-4.0
X7.6Y-2.97
X7.6Y-4.0
X7.64Y-3.05
X7.675Y-3.085
X7.685Y-2.335
X7.7Y-3.9
X7.715Y-2.365
X7.78Y-3.34
X7.8Y-3.8
X7.835Y-2.755
X7.9Y-2.1
X7.9Y-2.2
X7.9Y-2.3
X7.9Y-2.4
X7.9Y-3.7
T3
X5.01Y-4.16
X5.26Y-4.06
X3.49Y-1.88
X3.74Y-1.78
X2.73Y-1.88
X2.98Y-1.78
X5.01Y-3.4
X5.26Y-3.3
X6.53Y-1.88
X6.78Y-1.78
X5.77Y-3.4
X6.02Y-3.3
X5.01Y-1.88
X5.26Y-1.78
X5.77Y-4.16
X6.02Y-4.06
X6.53Y-2.64
X6.78Y-2.54
X2.73Y-3.4
X2.98Y-3.3
X3.49Y-2.64
X3.74Y-2.54
X3.49Y-4.16
X3.74Y-4.06
X4.25Y-3.4
X4.5Y-3.3
X2.73Y-2.64
X2.98Y-2.54
X5.01Y-2.64
X5.26Y-2.54
X3.49Y-3.4
X3.74Y-3.3
X4.25Y-2.64
X4.5Y-2.54
X4.25Y-1.88
X4.5Y-1.78
X4.25Y-4.16
X4.5Y-4.06
X5.77Y-2.64
X6.02Y-2.54
X6.53Y-3.4
X6.78Y-3.3
X2.73Y-4.16
X2.98Y-4.06
X5.77Y-1.88
X6.02Y-1.78
X6.53Y-4.16
X6.78Y-4.06
T4
X7.6334Y-1.85
X7.8066Y-1.85
T5
X7.2506Y-1.8656
X7.2506Y-2.1412
T6
X2.68Y-1.98
X3.08Y-1.98
X4.96Y-3.5
X5.36Y-3.5
X6.48Y-1.98
X6.88Y-1.98
X5.72Y-3.5
X6.12Y-3.5
X4.96Y-1.98
X5.36Y-1.98
X5.72Y-4.26
X6.12Y-4.26
X6.48Y-2.74
X6.88Y-2.74
X2.68Y-3.5
X3.08Y-3.5
X3.44Y-2.74
X3.84Y-2.74
X3.44Y-4.26
X3.84Y-4.26
X4.2Y-3.5
X4.6Y-3.5
X2.68Y-2.74
X3.08Y-2.74
X4.96Y-2.74
X5.36Y-2.74
X3.44Y-3.5
X3.84Y-3.5
X4.2Y-2.74
X4.6Y-2.74
X4.2Y-1.98
X4.6Y-1.98
X4.2Y-4.26
X4.6Y-4.26
X5.72Y-2.74
X6.12Y-2.74
X6.48Y-3.5
X6.88Y-3.5
X2.68Y-4.26
X3.08Y-4.26
X5.72Y-1.98
X6.12Y-1.98
X6.48Y-4.26
X6.88Y-4.26
X4.96Y-4.26
X5.36Y-4.26
X3.44Y-1.98
X3.84Y-1.98
T7
X5.16Y-4.26
X3.64Y-1.98
X2.88Y-1.98
X5.16Y-3.5
X6.68Y-1.98
X5.92Y-3.5
X5.16Y-1.98
X5.92Y-4.26
X6.68Y-2.74
X2.88Y-3.5
X3.64Y-2.74
X3.64Y-4.26
X4.4Y-3.5
X2.88Y-2.74
X5.16Y-2.74
X3.64Y-3.5
X4.4Y-2.74
X4.4Y-1.98
X4.4Y-4.26
X5.92Y-2.74
X6.68Y-3.5
X2.88Y-4.26
X5.92Y-1.98
X6.68Y-4.26
T2
G00X7.16Y-1.8026
M15
G01X7.16Y-1.8262
M16
G05
G00X7.16Y-1.9207
M15
G01X7.16Y-1.9443
M16
G05
G00X7.16Y-2.0782
M15
G01X7.16Y-2.1018
M16
G05
G00X7.3372Y-2.1372
M15
G01X7.3372Y-2.1609
M16
G05
G00X7.3765Y-1.8026
M15
G01X7.3765Y-1.8262
M16
G05
T0
M30
