G04 #@! TF.GenerationSoftware,KiCad,Pcbnew,(5.1.5)-3*
G04 #@! TF.CreationDate,2020-01-02T00:08:27-06:00*
G04 #@! TF.ProjectId,untitled-keyboard-project,756e7469-746c-4656-942d-6b6579626f61,rev?*
G04 #@! TF.SameCoordinates,Original*
G04 #@! TF.FileFunction,Paste,Top*
G04 #@! TF.FilePolarity,Positive*
%FSLAX46Y46*%
G04 Gerber Fmt 4.6, Leading zero omitted, Abs format (unit mm)*
G04 Created by KiCad (PCBNEW (5.1.5)-3) date 2020-01-02 00:08:27*
%MOMM*%
%LPD*%
G04 APERTURE LIST*
%ADD10R,1.000000X1.700000*%
%ADD11C,0.100000*%
%ADD12R,0.550000X1.500000*%
%ADD13R,1.500000X0.550000*%
%ADD14R,2.000000X1.700000*%
%ADD15R,0.500000X2.000000*%
G04 APERTURE END LIST*
D10*
X197480000Y-87274000D03*
X197480000Y-93574000D03*
X193680000Y-87274000D03*
X193680000Y-93574000D03*
D11*
G36*
X201140142Y-84984674D02*
G01*
X201163803Y-84988184D01*
X201187007Y-84993996D01*
X201209529Y-85002054D01*
X201231153Y-85012282D01*
X201251670Y-85024579D01*
X201270883Y-85038829D01*
X201288607Y-85054893D01*
X201304671Y-85072617D01*
X201318921Y-85091830D01*
X201331218Y-85112347D01*
X201341446Y-85133971D01*
X201349504Y-85156493D01*
X201355316Y-85179697D01*
X201358826Y-85203358D01*
X201360000Y-85227250D01*
X201360000Y-85714750D01*
X201358826Y-85738642D01*
X201355316Y-85762303D01*
X201349504Y-85785507D01*
X201341446Y-85808029D01*
X201331218Y-85829653D01*
X201318921Y-85850170D01*
X201304671Y-85869383D01*
X201288607Y-85887107D01*
X201270883Y-85903171D01*
X201251670Y-85917421D01*
X201231153Y-85929718D01*
X201209529Y-85939946D01*
X201187007Y-85948004D01*
X201163803Y-85953816D01*
X201140142Y-85957326D01*
X201116250Y-85958500D01*
X200203750Y-85958500D01*
X200179858Y-85957326D01*
X200156197Y-85953816D01*
X200132993Y-85948004D01*
X200110471Y-85939946D01*
X200088847Y-85929718D01*
X200068330Y-85917421D01*
X200049117Y-85903171D01*
X200031393Y-85887107D01*
X200015329Y-85869383D01*
X200001079Y-85850170D01*
X199988782Y-85829653D01*
X199978554Y-85808029D01*
X199970496Y-85785507D01*
X199964684Y-85762303D01*
X199961174Y-85738642D01*
X199960000Y-85714750D01*
X199960000Y-85227250D01*
X199961174Y-85203358D01*
X199964684Y-85179697D01*
X199970496Y-85156493D01*
X199978554Y-85133971D01*
X199988782Y-85112347D01*
X200001079Y-85091830D01*
X200015329Y-85072617D01*
X200031393Y-85054893D01*
X200049117Y-85038829D01*
X200068330Y-85024579D01*
X200088847Y-85012282D01*
X200110471Y-85002054D01*
X200132993Y-84993996D01*
X200156197Y-84988184D01*
X200179858Y-84984674D01*
X200203750Y-84983500D01*
X201116250Y-84983500D01*
X201140142Y-84984674D01*
G37*
G36*
X201140142Y-86859674D02*
G01*
X201163803Y-86863184D01*
X201187007Y-86868996D01*
X201209529Y-86877054D01*
X201231153Y-86887282D01*
X201251670Y-86899579D01*
X201270883Y-86913829D01*
X201288607Y-86929893D01*
X201304671Y-86947617D01*
X201318921Y-86966830D01*
X201331218Y-86987347D01*
X201341446Y-87008971D01*
X201349504Y-87031493D01*
X201355316Y-87054697D01*
X201358826Y-87078358D01*
X201360000Y-87102250D01*
X201360000Y-87589750D01*
X201358826Y-87613642D01*
X201355316Y-87637303D01*
X201349504Y-87660507D01*
X201341446Y-87683029D01*
X201331218Y-87704653D01*
X201318921Y-87725170D01*
X201304671Y-87744383D01*
X201288607Y-87762107D01*
X201270883Y-87778171D01*
X201251670Y-87792421D01*
X201231153Y-87804718D01*
X201209529Y-87814946D01*
X201187007Y-87823004D01*
X201163803Y-87828816D01*
X201140142Y-87832326D01*
X201116250Y-87833500D01*
X200203750Y-87833500D01*
X200179858Y-87832326D01*
X200156197Y-87828816D01*
X200132993Y-87823004D01*
X200110471Y-87814946D01*
X200088847Y-87804718D01*
X200068330Y-87792421D01*
X200049117Y-87778171D01*
X200031393Y-87762107D01*
X200015329Y-87744383D01*
X200001079Y-87725170D01*
X199988782Y-87704653D01*
X199978554Y-87683029D01*
X199970496Y-87660507D01*
X199964684Y-87637303D01*
X199961174Y-87613642D01*
X199960000Y-87589750D01*
X199960000Y-87102250D01*
X199961174Y-87078358D01*
X199964684Y-87054697D01*
X199970496Y-87031493D01*
X199978554Y-87008971D01*
X199988782Y-86987347D01*
X200001079Y-86966830D01*
X200015329Y-86947617D01*
X200031393Y-86929893D01*
X200049117Y-86913829D01*
X200068330Y-86899579D01*
X200088847Y-86887282D01*
X200110471Y-86877054D01*
X200132993Y-86868996D01*
X200156197Y-86863184D01*
X200179858Y-86859674D01*
X200203750Y-86858500D01*
X201116250Y-86858500D01*
X201140142Y-86859674D01*
G37*
G36*
X201140142Y-63092174D02*
G01*
X201163803Y-63095684D01*
X201187007Y-63101496D01*
X201209529Y-63109554D01*
X201231153Y-63119782D01*
X201251670Y-63132079D01*
X201270883Y-63146329D01*
X201288607Y-63162393D01*
X201304671Y-63180117D01*
X201318921Y-63199330D01*
X201331218Y-63219847D01*
X201341446Y-63241471D01*
X201349504Y-63263993D01*
X201355316Y-63287197D01*
X201358826Y-63310858D01*
X201360000Y-63334750D01*
X201360000Y-63822250D01*
X201358826Y-63846142D01*
X201355316Y-63869803D01*
X201349504Y-63893007D01*
X201341446Y-63915529D01*
X201331218Y-63937153D01*
X201318921Y-63957670D01*
X201304671Y-63976883D01*
X201288607Y-63994607D01*
X201270883Y-64010671D01*
X201251670Y-64024921D01*
X201231153Y-64037218D01*
X201209529Y-64047446D01*
X201187007Y-64055504D01*
X201163803Y-64061316D01*
X201140142Y-64064826D01*
X201116250Y-64066000D01*
X200203750Y-64066000D01*
X200179858Y-64064826D01*
X200156197Y-64061316D01*
X200132993Y-64055504D01*
X200110471Y-64047446D01*
X200088847Y-64037218D01*
X200068330Y-64024921D01*
X200049117Y-64010671D01*
X200031393Y-63994607D01*
X200015329Y-63976883D01*
X200001079Y-63957670D01*
X199988782Y-63937153D01*
X199978554Y-63915529D01*
X199970496Y-63893007D01*
X199964684Y-63869803D01*
X199961174Y-63846142D01*
X199960000Y-63822250D01*
X199960000Y-63334750D01*
X199961174Y-63310858D01*
X199964684Y-63287197D01*
X199970496Y-63263993D01*
X199978554Y-63241471D01*
X199988782Y-63219847D01*
X200001079Y-63199330D01*
X200015329Y-63180117D01*
X200031393Y-63162393D01*
X200049117Y-63146329D01*
X200068330Y-63132079D01*
X200088847Y-63119782D01*
X200110471Y-63109554D01*
X200132993Y-63101496D01*
X200156197Y-63095684D01*
X200179858Y-63092174D01*
X200203750Y-63091000D01*
X201116250Y-63091000D01*
X201140142Y-63092174D01*
G37*
G36*
X201140142Y-64967174D02*
G01*
X201163803Y-64970684D01*
X201187007Y-64976496D01*
X201209529Y-64984554D01*
X201231153Y-64994782D01*
X201251670Y-65007079D01*
X201270883Y-65021329D01*
X201288607Y-65037393D01*
X201304671Y-65055117D01*
X201318921Y-65074330D01*
X201331218Y-65094847D01*
X201341446Y-65116471D01*
X201349504Y-65138993D01*
X201355316Y-65162197D01*
X201358826Y-65185858D01*
X201360000Y-65209750D01*
X201360000Y-65697250D01*
X201358826Y-65721142D01*
X201355316Y-65744803D01*
X201349504Y-65768007D01*
X201341446Y-65790529D01*
X201331218Y-65812153D01*
X201318921Y-65832670D01*
X201304671Y-65851883D01*
X201288607Y-65869607D01*
X201270883Y-65885671D01*
X201251670Y-65899921D01*
X201231153Y-65912218D01*
X201209529Y-65922446D01*
X201187007Y-65930504D01*
X201163803Y-65936316D01*
X201140142Y-65939826D01*
X201116250Y-65941000D01*
X200203750Y-65941000D01*
X200179858Y-65939826D01*
X200156197Y-65936316D01*
X200132993Y-65930504D01*
X200110471Y-65922446D01*
X200088847Y-65912218D01*
X200068330Y-65899921D01*
X200049117Y-65885671D01*
X200031393Y-65869607D01*
X200015329Y-65851883D01*
X200001079Y-65832670D01*
X199988782Y-65812153D01*
X199978554Y-65790529D01*
X199970496Y-65768007D01*
X199964684Y-65744803D01*
X199961174Y-65721142D01*
X199960000Y-65697250D01*
X199960000Y-65209750D01*
X199961174Y-65185858D01*
X199964684Y-65162197D01*
X199970496Y-65138993D01*
X199978554Y-65116471D01*
X199988782Y-65094847D01*
X200001079Y-65074330D01*
X200015329Y-65055117D01*
X200031393Y-65037393D01*
X200049117Y-65021329D01*
X200068330Y-65007079D01*
X200088847Y-64994782D01*
X200110471Y-64984554D01*
X200132993Y-64976496D01*
X200156197Y-64970684D01*
X200179858Y-64967174D01*
X200203750Y-64966000D01*
X201116250Y-64966000D01*
X201140142Y-64967174D01*
G37*
G36*
X201140142Y-79538674D02*
G01*
X201163803Y-79542184D01*
X201187007Y-79547996D01*
X201209529Y-79556054D01*
X201231153Y-79566282D01*
X201251670Y-79578579D01*
X201270883Y-79592829D01*
X201288607Y-79608893D01*
X201304671Y-79626617D01*
X201318921Y-79645830D01*
X201331218Y-79666347D01*
X201341446Y-79687971D01*
X201349504Y-79710493D01*
X201355316Y-79733697D01*
X201358826Y-79757358D01*
X201360000Y-79781250D01*
X201360000Y-80268750D01*
X201358826Y-80292642D01*
X201355316Y-80316303D01*
X201349504Y-80339507D01*
X201341446Y-80362029D01*
X201331218Y-80383653D01*
X201318921Y-80404170D01*
X201304671Y-80423383D01*
X201288607Y-80441107D01*
X201270883Y-80457171D01*
X201251670Y-80471421D01*
X201231153Y-80483718D01*
X201209529Y-80493946D01*
X201187007Y-80502004D01*
X201163803Y-80507816D01*
X201140142Y-80511326D01*
X201116250Y-80512500D01*
X200203750Y-80512500D01*
X200179858Y-80511326D01*
X200156197Y-80507816D01*
X200132993Y-80502004D01*
X200110471Y-80493946D01*
X200088847Y-80483718D01*
X200068330Y-80471421D01*
X200049117Y-80457171D01*
X200031393Y-80441107D01*
X200015329Y-80423383D01*
X200001079Y-80404170D01*
X199988782Y-80383653D01*
X199978554Y-80362029D01*
X199970496Y-80339507D01*
X199964684Y-80316303D01*
X199961174Y-80292642D01*
X199960000Y-80268750D01*
X199960000Y-79781250D01*
X199961174Y-79757358D01*
X199964684Y-79733697D01*
X199970496Y-79710493D01*
X199978554Y-79687971D01*
X199988782Y-79666347D01*
X200001079Y-79645830D01*
X200015329Y-79626617D01*
X200031393Y-79608893D01*
X200049117Y-79592829D01*
X200068330Y-79578579D01*
X200088847Y-79566282D01*
X200110471Y-79556054D01*
X200132993Y-79547996D01*
X200156197Y-79542184D01*
X200179858Y-79538674D01*
X200203750Y-79537500D01*
X201116250Y-79537500D01*
X201140142Y-79538674D01*
G37*
G36*
X201140142Y-81413674D02*
G01*
X201163803Y-81417184D01*
X201187007Y-81422996D01*
X201209529Y-81431054D01*
X201231153Y-81441282D01*
X201251670Y-81453579D01*
X201270883Y-81467829D01*
X201288607Y-81483893D01*
X201304671Y-81501617D01*
X201318921Y-81520830D01*
X201331218Y-81541347D01*
X201341446Y-81562971D01*
X201349504Y-81585493D01*
X201355316Y-81608697D01*
X201358826Y-81632358D01*
X201360000Y-81656250D01*
X201360000Y-82143750D01*
X201358826Y-82167642D01*
X201355316Y-82191303D01*
X201349504Y-82214507D01*
X201341446Y-82237029D01*
X201331218Y-82258653D01*
X201318921Y-82279170D01*
X201304671Y-82298383D01*
X201288607Y-82316107D01*
X201270883Y-82332171D01*
X201251670Y-82346421D01*
X201231153Y-82358718D01*
X201209529Y-82368946D01*
X201187007Y-82377004D01*
X201163803Y-82382816D01*
X201140142Y-82386326D01*
X201116250Y-82387500D01*
X200203750Y-82387500D01*
X200179858Y-82386326D01*
X200156197Y-82382816D01*
X200132993Y-82377004D01*
X200110471Y-82368946D01*
X200088847Y-82358718D01*
X200068330Y-82346421D01*
X200049117Y-82332171D01*
X200031393Y-82316107D01*
X200015329Y-82298383D01*
X200001079Y-82279170D01*
X199988782Y-82258653D01*
X199978554Y-82237029D01*
X199970496Y-82214507D01*
X199964684Y-82191303D01*
X199961174Y-82167642D01*
X199960000Y-82143750D01*
X199960000Y-81656250D01*
X199961174Y-81632358D01*
X199964684Y-81608697D01*
X199970496Y-81585493D01*
X199978554Y-81562971D01*
X199988782Y-81541347D01*
X200001079Y-81520830D01*
X200015329Y-81501617D01*
X200031393Y-81483893D01*
X200049117Y-81467829D01*
X200068330Y-81453579D01*
X200088847Y-81441282D01*
X200110471Y-81431054D01*
X200132993Y-81422996D01*
X200156197Y-81417184D01*
X200179858Y-81413674D01*
X200203750Y-81412500D01*
X201116250Y-81412500D01*
X201140142Y-81413674D01*
G37*
G36*
X201140142Y-69520674D02*
G01*
X201163803Y-69524184D01*
X201187007Y-69529996D01*
X201209529Y-69538054D01*
X201231153Y-69548282D01*
X201251670Y-69560579D01*
X201270883Y-69574829D01*
X201288607Y-69590893D01*
X201304671Y-69608617D01*
X201318921Y-69627830D01*
X201331218Y-69648347D01*
X201341446Y-69669971D01*
X201349504Y-69692493D01*
X201355316Y-69715697D01*
X201358826Y-69739358D01*
X201360000Y-69763250D01*
X201360000Y-70250750D01*
X201358826Y-70274642D01*
X201355316Y-70298303D01*
X201349504Y-70321507D01*
X201341446Y-70344029D01*
X201331218Y-70365653D01*
X201318921Y-70386170D01*
X201304671Y-70405383D01*
X201288607Y-70423107D01*
X201270883Y-70439171D01*
X201251670Y-70453421D01*
X201231153Y-70465718D01*
X201209529Y-70475946D01*
X201187007Y-70484004D01*
X201163803Y-70489816D01*
X201140142Y-70493326D01*
X201116250Y-70494500D01*
X200203750Y-70494500D01*
X200179858Y-70493326D01*
X200156197Y-70489816D01*
X200132993Y-70484004D01*
X200110471Y-70475946D01*
X200088847Y-70465718D01*
X200068330Y-70453421D01*
X200049117Y-70439171D01*
X200031393Y-70423107D01*
X200015329Y-70405383D01*
X200001079Y-70386170D01*
X199988782Y-70365653D01*
X199978554Y-70344029D01*
X199970496Y-70321507D01*
X199964684Y-70298303D01*
X199961174Y-70274642D01*
X199960000Y-70250750D01*
X199960000Y-69763250D01*
X199961174Y-69739358D01*
X199964684Y-69715697D01*
X199970496Y-69692493D01*
X199978554Y-69669971D01*
X199988782Y-69648347D01*
X200001079Y-69627830D01*
X200015329Y-69608617D01*
X200031393Y-69590893D01*
X200049117Y-69574829D01*
X200068330Y-69560579D01*
X200088847Y-69548282D01*
X200110471Y-69538054D01*
X200132993Y-69529996D01*
X200156197Y-69524184D01*
X200179858Y-69520674D01*
X200203750Y-69519500D01*
X201116250Y-69519500D01*
X201140142Y-69520674D01*
G37*
G36*
X201140142Y-71395674D02*
G01*
X201163803Y-71399184D01*
X201187007Y-71404996D01*
X201209529Y-71413054D01*
X201231153Y-71423282D01*
X201251670Y-71435579D01*
X201270883Y-71449829D01*
X201288607Y-71465893D01*
X201304671Y-71483617D01*
X201318921Y-71502830D01*
X201331218Y-71523347D01*
X201341446Y-71544971D01*
X201349504Y-71567493D01*
X201355316Y-71590697D01*
X201358826Y-71614358D01*
X201360000Y-71638250D01*
X201360000Y-72125750D01*
X201358826Y-72149642D01*
X201355316Y-72173303D01*
X201349504Y-72196507D01*
X201341446Y-72219029D01*
X201331218Y-72240653D01*
X201318921Y-72261170D01*
X201304671Y-72280383D01*
X201288607Y-72298107D01*
X201270883Y-72314171D01*
X201251670Y-72328421D01*
X201231153Y-72340718D01*
X201209529Y-72350946D01*
X201187007Y-72359004D01*
X201163803Y-72364816D01*
X201140142Y-72368326D01*
X201116250Y-72369500D01*
X200203750Y-72369500D01*
X200179858Y-72368326D01*
X200156197Y-72364816D01*
X200132993Y-72359004D01*
X200110471Y-72350946D01*
X200088847Y-72340718D01*
X200068330Y-72328421D01*
X200049117Y-72314171D01*
X200031393Y-72298107D01*
X200015329Y-72280383D01*
X200001079Y-72261170D01*
X199988782Y-72240653D01*
X199978554Y-72219029D01*
X199970496Y-72196507D01*
X199964684Y-72173303D01*
X199961174Y-72149642D01*
X199960000Y-72125750D01*
X199960000Y-71638250D01*
X199961174Y-71614358D01*
X199964684Y-71590697D01*
X199970496Y-71567493D01*
X199978554Y-71544971D01*
X199988782Y-71523347D01*
X200001079Y-71502830D01*
X200015329Y-71483617D01*
X200031393Y-71465893D01*
X200049117Y-71449829D01*
X200068330Y-71435579D01*
X200088847Y-71423282D01*
X200110471Y-71413054D01*
X200132993Y-71404996D01*
X200156197Y-71399184D01*
X200179858Y-71395674D01*
X200203750Y-71394500D01*
X201116250Y-71394500D01*
X201140142Y-71395674D01*
G37*
D12*
X195770000Y-81646000D03*
X194970000Y-81646000D03*
X194170000Y-81646000D03*
X193370000Y-81646000D03*
X192570000Y-81646000D03*
X191770000Y-81646000D03*
X190970000Y-81646000D03*
X190170000Y-81646000D03*
X189370000Y-81646000D03*
X188570000Y-81646000D03*
X187770000Y-81646000D03*
D13*
X186070000Y-79946000D03*
X186070000Y-79146000D03*
X186070000Y-78346000D03*
X186070000Y-77546000D03*
X186070000Y-76746000D03*
X186070000Y-75946000D03*
X186070000Y-75146000D03*
X186070000Y-74346000D03*
X186070000Y-73546000D03*
X186070000Y-72746000D03*
X186070000Y-71946000D03*
D12*
X187770000Y-70246000D03*
X188570000Y-70246000D03*
X189370000Y-70246000D03*
X190170000Y-70246000D03*
X190970000Y-70246000D03*
X191770000Y-70246000D03*
X192570000Y-70246000D03*
X193370000Y-70246000D03*
X194170000Y-70246000D03*
X194970000Y-70246000D03*
X195770000Y-70246000D03*
D13*
X197470000Y-71946000D03*
X197470000Y-72746000D03*
X197470000Y-73546000D03*
X197470000Y-74346000D03*
X197470000Y-75146000D03*
X197470000Y-75946000D03*
X197470000Y-76746000D03*
X197470000Y-77546000D03*
X197470000Y-78346000D03*
X197470000Y-79146000D03*
X197470000Y-79946000D03*
D11*
G36*
X201140142Y-74473674D02*
G01*
X201163803Y-74477184D01*
X201187007Y-74482996D01*
X201209529Y-74491054D01*
X201231153Y-74501282D01*
X201251670Y-74513579D01*
X201270883Y-74527829D01*
X201288607Y-74543893D01*
X201304671Y-74561617D01*
X201318921Y-74580830D01*
X201331218Y-74601347D01*
X201341446Y-74622971D01*
X201349504Y-74645493D01*
X201355316Y-74668697D01*
X201358826Y-74692358D01*
X201360000Y-74716250D01*
X201360000Y-75203750D01*
X201358826Y-75227642D01*
X201355316Y-75251303D01*
X201349504Y-75274507D01*
X201341446Y-75297029D01*
X201331218Y-75318653D01*
X201318921Y-75339170D01*
X201304671Y-75358383D01*
X201288607Y-75376107D01*
X201270883Y-75392171D01*
X201251670Y-75406421D01*
X201231153Y-75418718D01*
X201209529Y-75428946D01*
X201187007Y-75437004D01*
X201163803Y-75442816D01*
X201140142Y-75446326D01*
X201116250Y-75447500D01*
X200203750Y-75447500D01*
X200179858Y-75446326D01*
X200156197Y-75442816D01*
X200132993Y-75437004D01*
X200110471Y-75428946D01*
X200088847Y-75418718D01*
X200068330Y-75406421D01*
X200049117Y-75392171D01*
X200031393Y-75376107D01*
X200015329Y-75358383D01*
X200001079Y-75339170D01*
X199988782Y-75318653D01*
X199978554Y-75297029D01*
X199970496Y-75274507D01*
X199964684Y-75251303D01*
X199961174Y-75227642D01*
X199960000Y-75203750D01*
X199960000Y-74716250D01*
X199961174Y-74692358D01*
X199964684Y-74668697D01*
X199970496Y-74645493D01*
X199978554Y-74622971D01*
X199988782Y-74601347D01*
X200001079Y-74580830D01*
X200015329Y-74561617D01*
X200031393Y-74543893D01*
X200049117Y-74527829D01*
X200068330Y-74513579D01*
X200088847Y-74501282D01*
X200110471Y-74491054D01*
X200132993Y-74482996D01*
X200156197Y-74477184D01*
X200179858Y-74473674D01*
X200203750Y-74472500D01*
X201116250Y-74472500D01*
X201140142Y-74473674D01*
G37*
G36*
X201140142Y-76348674D02*
G01*
X201163803Y-76352184D01*
X201187007Y-76357996D01*
X201209529Y-76366054D01*
X201231153Y-76376282D01*
X201251670Y-76388579D01*
X201270883Y-76402829D01*
X201288607Y-76418893D01*
X201304671Y-76436617D01*
X201318921Y-76455830D01*
X201331218Y-76476347D01*
X201341446Y-76497971D01*
X201349504Y-76520493D01*
X201355316Y-76543697D01*
X201358826Y-76567358D01*
X201360000Y-76591250D01*
X201360000Y-77078750D01*
X201358826Y-77102642D01*
X201355316Y-77126303D01*
X201349504Y-77149507D01*
X201341446Y-77172029D01*
X201331218Y-77193653D01*
X201318921Y-77214170D01*
X201304671Y-77233383D01*
X201288607Y-77251107D01*
X201270883Y-77267171D01*
X201251670Y-77281421D01*
X201231153Y-77293718D01*
X201209529Y-77303946D01*
X201187007Y-77312004D01*
X201163803Y-77317816D01*
X201140142Y-77321326D01*
X201116250Y-77322500D01*
X200203750Y-77322500D01*
X200179858Y-77321326D01*
X200156197Y-77317816D01*
X200132993Y-77312004D01*
X200110471Y-77303946D01*
X200088847Y-77293718D01*
X200068330Y-77281421D01*
X200049117Y-77267171D01*
X200031393Y-77251107D01*
X200015329Y-77233383D01*
X200001079Y-77214170D01*
X199988782Y-77193653D01*
X199978554Y-77172029D01*
X199970496Y-77149507D01*
X199964684Y-77126303D01*
X199961174Y-77102642D01*
X199960000Y-77078750D01*
X199960000Y-76591250D01*
X199961174Y-76567358D01*
X199964684Y-76543697D01*
X199970496Y-76520493D01*
X199978554Y-76497971D01*
X199988782Y-76476347D01*
X200001079Y-76455830D01*
X200015329Y-76436617D01*
X200031393Y-76418893D01*
X200049117Y-76402829D01*
X200068330Y-76388579D01*
X200088847Y-76376282D01*
X200110471Y-76366054D01*
X200132993Y-76357996D01*
X200156197Y-76352184D01*
X200179858Y-76348674D01*
X200203750Y-76347500D01*
X201116250Y-76347500D01*
X201140142Y-76348674D01*
G37*
G36*
X187932142Y-63092174D02*
G01*
X187955803Y-63095684D01*
X187979007Y-63101496D01*
X188001529Y-63109554D01*
X188023153Y-63119782D01*
X188043670Y-63132079D01*
X188062883Y-63146329D01*
X188080607Y-63162393D01*
X188096671Y-63180117D01*
X188110921Y-63199330D01*
X188123218Y-63219847D01*
X188133446Y-63241471D01*
X188141504Y-63263993D01*
X188147316Y-63287197D01*
X188150826Y-63310858D01*
X188152000Y-63334750D01*
X188152000Y-63822250D01*
X188150826Y-63846142D01*
X188147316Y-63869803D01*
X188141504Y-63893007D01*
X188133446Y-63915529D01*
X188123218Y-63937153D01*
X188110921Y-63957670D01*
X188096671Y-63976883D01*
X188080607Y-63994607D01*
X188062883Y-64010671D01*
X188043670Y-64024921D01*
X188023153Y-64037218D01*
X188001529Y-64047446D01*
X187979007Y-64055504D01*
X187955803Y-64061316D01*
X187932142Y-64064826D01*
X187908250Y-64066000D01*
X186995750Y-64066000D01*
X186971858Y-64064826D01*
X186948197Y-64061316D01*
X186924993Y-64055504D01*
X186902471Y-64047446D01*
X186880847Y-64037218D01*
X186860330Y-64024921D01*
X186841117Y-64010671D01*
X186823393Y-63994607D01*
X186807329Y-63976883D01*
X186793079Y-63957670D01*
X186780782Y-63937153D01*
X186770554Y-63915529D01*
X186762496Y-63893007D01*
X186756684Y-63869803D01*
X186753174Y-63846142D01*
X186752000Y-63822250D01*
X186752000Y-63334750D01*
X186753174Y-63310858D01*
X186756684Y-63287197D01*
X186762496Y-63263993D01*
X186770554Y-63241471D01*
X186780782Y-63219847D01*
X186793079Y-63199330D01*
X186807329Y-63180117D01*
X186823393Y-63162393D01*
X186841117Y-63146329D01*
X186860330Y-63132079D01*
X186880847Y-63119782D01*
X186902471Y-63109554D01*
X186924993Y-63101496D01*
X186948197Y-63095684D01*
X186971858Y-63092174D01*
X186995750Y-63091000D01*
X187908250Y-63091000D01*
X187932142Y-63092174D01*
G37*
G36*
X187932142Y-64967174D02*
G01*
X187955803Y-64970684D01*
X187979007Y-64976496D01*
X188001529Y-64984554D01*
X188023153Y-64994782D01*
X188043670Y-65007079D01*
X188062883Y-65021329D01*
X188080607Y-65037393D01*
X188096671Y-65055117D01*
X188110921Y-65074330D01*
X188123218Y-65094847D01*
X188133446Y-65116471D01*
X188141504Y-65138993D01*
X188147316Y-65162197D01*
X188150826Y-65185858D01*
X188152000Y-65209750D01*
X188152000Y-65697250D01*
X188150826Y-65721142D01*
X188147316Y-65744803D01*
X188141504Y-65768007D01*
X188133446Y-65790529D01*
X188123218Y-65812153D01*
X188110921Y-65832670D01*
X188096671Y-65851883D01*
X188080607Y-65869607D01*
X188062883Y-65885671D01*
X188043670Y-65899921D01*
X188023153Y-65912218D01*
X188001529Y-65922446D01*
X187979007Y-65930504D01*
X187955803Y-65936316D01*
X187932142Y-65939826D01*
X187908250Y-65941000D01*
X186995750Y-65941000D01*
X186971858Y-65939826D01*
X186948197Y-65936316D01*
X186924993Y-65930504D01*
X186902471Y-65922446D01*
X186880847Y-65912218D01*
X186860330Y-65899921D01*
X186841117Y-65885671D01*
X186823393Y-65869607D01*
X186807329Y-65851883D01*
X186793079Y-65832670D01*
X186780782Y-65812153D01*
X186770554Y-65790529D01*
X186762496Y-65768007D01*
X186756684Y-65744803D01*
X186753174Y-65721142D01*
X186752000Y-65697250D01*
X186752000Y-65209750D01*
X186753174Y-65185858D01*
X186756684Y-65162197D01*
X186762496Y-65138993D01*
X186770554Y-65116471D01*
X186780782Y-65094847D01*
X186793079Y-65074330D01*
X186807329Y-65055117D01*
X186823393Y-65037393D01*
X186841117Y-65021329D01*
X186860330Y-65007079D01*
X186880847Y-64994782D01*
X186902471Y-64984554D01*
X186924993Y-64976496D01*
X186948197Y-64970684D01*
X186971858Y-64967174D01*
X186995750Y-64966000D01*
X187908250Y-64966000D01*
X187932142Y-64967174D01*
G37*
G36*
X196568142Y-63092174D02*
G01*
X196591803Y-63095684D01*
X196615007Y-63101496D01*
X196637529Y-63109554D01*
X196659153Y-63119782D01*
X196679670Y-63132079D01*
X196698883Y-63146329D01*
X196716607Y-63162393D01*
X196732671Y-63180117D01*
X196746921Y-63199330D01*
X196759218Y-63219847D01*
X196769446Y-63241471D01*
X196777504Y-63263993D01*
X196783316Y-63287197D01*
X196786826Y-63310858D01*
X196788000Y-63334750D01*
X196788000Y-63822250D01*
X196786826Y-63846142D01*
X196783316Y-63869803D01*
X196777504Y-63893007D01*
X196769446Y-63915529D01*
X196759218Y-63937153D01*
X196746921Y-63957670D01*
X196732671Y-63976883D01*
X196716607Y-63994607D01*
X196698883Y-64010671D01*
X196679670Y-64024921D01*
X196659153Y-64037218D01*
X196637529Y-64047446D01*
X196615007Y-64055504D01*
X196591803Y-64061316D01*
X196568142Y-64064826D01*
X196544250Y-64066000D01*
X195631750Y-64066000D01*
X195607858Y-64064826D01*
X195584197Y-64061316D01*
X195560993Y-64055504D01*
X195538471Y-64047446D01*
X195516847Y-64037218D01*
X195496330Y-64024921D01*
X195477117Y-64010671D01*
X195459393Y-63994607D01*
X195443329Y-63976883D01*
X195429079Y-63957670D01*
X195416782Y-63937153D01*
X195406554Y-63915529D01*
X195398496Y-63893007D01*
X195392684Y-63869803D01*
X195389174Y-63846142D01*
X195388000Y-63822250D01*
X195388000Y-63334750D01*
X195389174Y-63310858D01*
X195392684Y-63287197D01*
X195398496Y-63263993D01*
X195406554Y-63241471D01*
X195416782Y-63219847D01*
X195429079Y-63199330D01*
X195443329Y-63180117D01*
X195459393Y-63162393D01*
X195477117Y-63146329D01*
X195496330Y-63132079D01*
X195516847Y-63119782D01*
X195538471Y-63109554D01*
X195560993Y-63101496D01*
X195584197Y-63095684D01*
X195607858Y-63092174D01*
X195631750Y-63091000D01*
X196544250Y-63091000D01*
X196568142Y-63092174D01*
G37*
G36*
X196568142Y-64967174D02*
G01*
X196591803Y-64970684D01*
X196615007Y-64976496D01*
X196637529Y-64984554D01*
X196659153Y-64994782D01*
X196679670Y-65007079D01*
X196698883Y-65021329D01*
X196716607Y-65037393D01*
X196732671Y-65055117D01*
X196746921Y-65074330D01*
X196759218Y-65094847D01*
X196769446Y-65116471D01*
X196777504Y-65138993D01*
X196783316Y-65162197D01*
X196786826Y-65185858D01*
X196788000Y-65209750D01*
X196788000Y-65697250D01*
X196786826Y-65721142D01*
X196783316Y-65744803D01*
X196777504Y-65768007D01*
X196769446Y-65790529D01*
X196759218Y-65812153D01*
X196746921Y-65832670D01*
X196732671Y-65851883D01*
X196716607Y-65869607D01*
X196698883Y-65885671D01*
X196679670Y-65899921D01*
X196659153Y-65912218D01*
X196637529Y-65922446D01*
X196615007Y-65930504D01*
X196591803Y-65936316D01*
X196568142Y-65939826D01*
X196544250Y-65941000D01*
X195631750Y-65941000D01*
X195607858Y-65939826D01*
X195584197Y-65936316D01*
X195560993Y-65930504D01*
X195538471Y-65922446D01*
X195516847Y-65912218D01*
X195496330Y-65899921D01*
X195477117Y-65885671D01*
X195459393Y-65869607D01*
X195443329Y-65851883D01*
X195429079Y-65832670D01*
X195416782Y-65812153D01*
X195406554Y-65790529D01*
X195398496Y-65768007D01*
X195392684Y-65744803D01*
X195389174Y-65721142D01*
X195388000Y-65697250D01*
X195388000Y-65209750D01*
X195389174Y-65185858D01*
X195392684Y-65162197D01*
X195398496Y-65138993D01*
X195406554Y-65116471D01*
X195416782Y-65094847D01*
X195429079Y-65074330D01*
X195443329Y-65055117D01*
X195459393Y-65037393D01*
X195477117Y-65021329D01*
X195496330Y-65007079D01*
X195516847Y-64994782D01*
X195538471Y-64984554D01*
X195560993Y-64976496D01*
X195584197Y-64970684D01*
X195607858Y-64967174D01*
X195631750Y-64966000D01*
X196544250Y-64966000D01*
X196568142Y-64967174D01*
G37*
D14*
X191638000Y-44140000D03*
X191638000Y-49590000D03*
X200538000Y-44140000D03*
X200538000Y-49590000D03*
D15*
X194488000Y-49690000D03*
X195288000Y-49690000D03*
X196088000Y-49690000D03*
X196888000Y-49690000D03*
X197688000Y-49690000D03*
D11*
G36*
X195618142Y-56839174D02*
G01*
X195641803Y-56842684D01*
X195665007Y-56848496D01*
X195687529Y-56856554D01*
X195709153Y-56866782D01*
X195729670Y-56879079D01*
X195748883Y-56893329D01*
X195766607Y-56909393D01*
X195782671Y-56927117D01*
X195796921Y-56946330D01*
X195809218Y-56966847D01*
X195819446Y-56988471D01*
X195827504Y-57010993D01*
X195833316Y-57034197D01*
X195836826Y-57057858D01*
X195838000Y-57081750D01*
X195838000Y-57569250D01*
X195836826Y-57593142D01*
X195833316Y-57616803D01*
X195827504Y-57640007D01*
X195819446Y-57662529D01*
X195809218Y-57684153D01*
X195796921Y-57704670D01*
X195782671Y-57723883D01*
X195766607Y-57741607D01*
X195748883Y-57757671D01*
X195729670Y-57771921D01*
X195709153Y-57784218D01*
X195687529Y-57794446D01*
X195665007Y-57802504D01*
X195641803Y-57808316D01*
X195618142Y-57811826D01*
X195594250Y-57813000D01*
X194681750Y-57813000D01*
X194657858Y-57811826D01*
X194634197Y-57808316D01*
X194610993Y-57802504D01*
X194588471Y-57794446D01*
X194566847Y-57784218D01*
X194546330Y-57771921D01*
X194527117Y-57757671D01*
X194509393Y-57741607D01*
X194493329Y-57723883D01*
X194479079Y-57704670D01*
X194466782Y-57684153D01*
X194456554Y-57662529D01*
X194448496Y-57640007D01*
X194442684Y-57616803D01*
X194439174Y-57593142D01*
X194438000Y-57569250D01*
X194438000Y-57081750D01*
X194439174Y-57057858D01*
X194442684Y-57034197D01*
X194448496Y-57010993D01*
X194456554Y-56988471D01*
X194466782Y-56966847D01*
X194479079Y-56946330D01*
X194493329Y-56927117D01*
X194509393Y-56909393D01*
X194527117Y-56893329D01*
X194546330Y-56879079D01*
X194566847Y-56866782D01*
X194588471Y-56856554D01*
X194610993Y-56848496D01*
X194634197Y-56842684D01*
X194657858Y-56839174D01*
X194681750Y-56838000D01*
X195594250Y-56838000D01*
X195618142Y-56839174D01*
G37*
G36*
X195618142Y-54964174D02*
G01*
X195641803Y-54967684D01*
X195665007Y-54973496D01*
X195687529Y-54981554D01*
X195709153Y-54991782D01*
X195729670Y-55004079D01*
X195748883Y-55018329D01*
X195766607Y-55034393D01*
X195782671Y-55052117D01*
X195796921Y-55071330D01*
X195809218Y-55091847D01*
X195819446Y-55113471D01*
X195827504Y-55135993D01*
X195833316Y-55159197D01*
X195836826Y-55182858D01*
X195838000Y-55206750D01*
X195838000Y-55694250D01*
X195836826Y-55718142D01*
X195833316Y-55741803D01*
X195827504Y-55765007D01*
X195819446Y-55787529D01*
X195809218Y-55809153D01*
X195796921Y-55829670D01*
X195782671Y-55848883D01*
X195766607Y-55866607D01*
X195748883Y-55882671D01*
X195729670Y-55896921D01*
X195709153Y-55909218D01*
X195687529Y-55919446D01*
X195665007Y-55927504D01*
X195641803Y-55933316D01*
X195618142Y-55936826D01*
X195594250Y-55938000D01*
X194681750Y-55938000D01*
X194657858Y-55936826D01*
X194634197Y-55933316D01*
X194610993Y-55927504D01*
X194588471Y-55919446D01*
X194566847Y-55909218D01*
X194546330Y-55896921D01*
X194527117Y-55882671D01*
X194509393Y-55866607D01*
X194493329Y-55848883D01*
X194479079Y-55829670D01*
X194466782Y-55809153D01*
X194456554Y-55787529D01*
X194448496Y-55765007D01*
X194442684Y-55741803D01*
X194439174Y-55718142D01*
X194438000Y-55694250D01*
X194438000Y-55206750D01*
X194439174Y-55182858D01*
X194442684Y-55159197D01*
X194448496Y-55135993D01*
X194456554Y-55113471D01*
X194466782Y-55091847D01*
X194479079Y-55071330D01*
X194493329Y-55052117D01*
X194509393Y-55034393D01*
X194527117Y-55018329D01*
X194546330Y-55004079D01*
X194566847Y-54991782D01*
X194588471Y-54981554D01*
X194610993Y-54973496D01*
X194634197Y-54967684D01*
X194657858Y-54964174D01*
X194681750Y-54963000D01*
X195594250Y-54963000D01*
X195618142Y-54964174D01*
G37*
G36*
X198346142Y-56839174D02*
G01*
X198369803Y-56842684D01*
X198393007Y-56848496D01*
X198415529Y-56856554D01*
X198437153Y-56866782D01*
X198457670Y-56879079D01*
X198476883Y-56893329D01*
X198494607Y-56909393D01*
X198510671Y-56927117D01*
X198524921Y-56946330D01*
X198537218Y-56966847D01*
X198547446Y-56988471D01*
X198555504Y-57010993D01*
X198561316Y-57034197D01*
X198564826Y-57057858D01*
X198566000Y-57081750D01*
X198566000Y-57569250D01*
X198564826Y-57593142D01*
X198561316Y-57616803D01*
X198555504Y-57640007D01*
X198547446Y-57662529D01*
X198537218Y-57684153D01*
X198524921Y-57704670D01*
X198510671Y-57723883D01*
X198494607Y-57741607D01*
X198476883Y-57757671D01*
X198457670Y-57771921D01*
X198437153Y-57784218D01*
X198415529Y-57794446D01*
X198393007Y-57802504D01*
X198369803Y-57808316D01*
X198346142Y-57811826D01*
X198322250Y-57813000D01*
X197409750Y-57813000D01*
X197385858Y-57811826D01*
X197362197Y-57808316D01*
X197338993Y-57802504D01*
X197316471Y-57794446D01*
X197294847Y-57784218D01*
X197274330Y-57771921D01*
X197255117Y-57757671D01*
X197237393Y-57741607D01*
X197221329Y-57723883D01*
X197207079Y-57704670D01*
X197194782Y-57684153D01*
X197184554Y-57662529D01*
X197176496Y-57640007D01*
X197170684Y-57616803D01*
X197167174Y-57593142D01*
X197166000Y-57569250D01*
X197166000Y-57081750D01*
X197167174Y-57057858D01*
X197170684Y-57034197D01*
X197176496Y-57010993D01*
X197184554Y-56988471D01*
X197194782Y-56966847D01*
X197207079Y-56946330D01*
X197221329Y-56927117D01*
X197237393Y-56909393D01*
X197255117Y-56893329D01*
X197274330Y-56879079D01*
X197294847Y-56866782D01*
X197316471Y-56856554D01*
X197338993Y-56848496D01*
X197362197Y-56842684D01*
X197385858Y-56839174D01*
X197409750Y-56838000D01*
X198322250Y-56838000D01*
X198346142Y-56839174D01*
G37*
G36*
X198346142Y-54964174D02*
G01*
X198369803Y-54967684D01*
X198393007Y-54973496D01*
X198415529Y-54981554D01*
X198437153Y-54991782D01*
X198457670Y-55004079D01*
X198476883Y-55018329D01*
X198494607Y-55034393D01*
X198510671Y-55052117D01*
X198524921Y-55071330D01*
X198537218Y-55091847D01*
X198547446Y-55113471D01*
X198555504Y-55135993D01*
X198561316Y-55159197D01*
X198564826Y-55182858D01*
X198566000Y-55206750D01*
X198566000Y-55694250D01*
X198564826Y-55718142D01*
X198561316Y-55741803D01*
X198555504Y-55765007D01*
X198547446Y-55787529D01*
X198537218Y-55809153D01*
X198524921Y-55829670D01*
X198510671Y-55848883D01*
X198494607Y-55866607D01*
X198476883Y-55882671D01*
X198457670Y-55896921D01*
X198437153Y-55909218D01*
X198415529Y-55919446D01*
X198393007Y-55927504D01*
X198369803Y-55933316D01*
X198346142Y-55936826D01*
X198322250Y-55938000D01*
X197409750Y-55938000D01*
X197385858Y-55936826D01*
X197362197Y-55933316D01*
X197338993Y-55927504D01*
X197316471Y-55919446D01*
X197294847Y-55909218D01*
X197274330Y-55896921D01*
X197255117Y-55882671D01*
X197237393Y-55866607D01*
X197221329Y-55848883D01*
X197207079Y-55829670D01*
X197194782Y-55809153D01*
X197184554Y-55787529D01*
X197176496Y-55765007D01*
X197170684Y-55741803D01*
X197167174Y-55718142D01*
X197166000Y-55694250D01*
X197166000Y-55206750D01*
X197167174Y-55182858D01*
X197170684Y-55159197D01*
X197176496Y-55135993D01*
X197184554Y-55113471D01*
X197194782Y-55091847D01*
X197207079Y-55071330D01*
X197221329Y-55052117D01*
X197237393Y-55034393D01*
X197255117Y-55018329D01*
X197274330Y-55004079D01*
X197294847Y-54991782D01*
X197316471Y-54981554D01*
X197338993Y-54973496D01*
X197362197Y-54967684D01*
X197385858Y-54964174D01*
X197409750Y-54963000D01*
X198322250Y-54963000D01*
X198346142Y-54964174D01*
G37*
G36*
X183360142Y-74522174D02*
G01*
X183383803Y-74525684D01*
X183407007Y-74531496D01*
X183429529Y-74539554D01*
X183451153Y-74549782D01*
X183471670Y-74562079D01*
X183490883Y-74576329D01*
X183508607Y-74592393D01*
X183524671Y-74610117D01*
X183538921Y-74629330D01*
X183551218Y-74649847D01*
X183561446Y-74671471D01*
X183569504Y-74693993D01*
X183575316Y-74717197D01*
X183578826Y-74740858D01*
X183580000Y-74764750D01*
X183580000Y-75252250D01*
X183578826Y-75276142D01*
X183575316Y-75299803D01*
X183569504Y-75323007D01*
X183561446Y-75345529D01*
X183551218Y-75367153D01*
X183538921Y-75387670D01*
X183524671Y-75406883D01*
X183508607Y-75424607D01*
X183490883Y-75440671D01*
X183471670Y-75454921D01*
X183451153Y-75467218D01*
X183429529Y-75477446D01*
X183407007Y-75485504D01*
X183383803Y-75491316D01*
X183360142Y-75494826D01*
X183336250Y-75496000D01*
X182423750Y-75496000D01*
X182399858Y-75494826D01*
X182376197Y-75491316D01*
X182352993Y-75485504D01*
X182330471Y-75477446D01*
X182308847Y-75467218D01*
X182288330Y-75454921D01*
X182269117Y-75440671D01*
X182251393Y-75424607D01*
X182235329Y-75406883D01*
X182221079Y-75387670D01*
X182208782Y-75367153D01*
X182198554Y-75345529D01*
X182190496Y-75323007D01*
X182184684Y-75299803D01*
X182181174Y-75276142D01*
X182180000Y-75252250D01*
X182180000Y-74764750D01*
X182181174Y-74740858D01*
X182184684Y-74717197D01*
X182190496Y-74693993D01*
X182198554Y-74671471D01*
X182208782Y-74649847D01*
X182221079Y-74629330D01*
X182235329Y-74610117D01*
X182251393Y-74592393D01*
X182269117Y-74576329D01*
X182288330Y-74562079D01*
X182308847Y-74549782D01*
X182330471Y-74539554D01*
X182352993Y-74531496D01*
X182376197Y-74525684D01*
X182399858Y-74522174D01*
X182423750Y-74521000D01*
X183336250Y-74521000D01*
X183360142Y-74522174D01*
G37*
G36*
X183360142Y-76397174D02*
G01*
X183383803Y-76400684D01*
X183407007Y-76406496D01*
X183429529Y-76414554D01*
X183451153Y-76424782D01*
X183471670Y-76437079D01*
X183490883Y-76451329D01*
X183508607Y-76467393D01*
X183524671Y-76485117D01*
X183538921Y-76504330D01*
X183551218Y-76524847D01*
X183561446Y-76546471D01*
X183569504Y-76568993D01*
X183575316Y-76592197D01*
X183578826Y-76615858D01*
X183580000Y-76639750D01*
X183580000Y-77127250D01*
X183578826Y-77151142D01*
X183575316Y-77174803D01*
X183569504Y-77198007D01*
X183561446Y-77220529D01*
X183551218Y-77242153D01*
X183538921Y-77262670D01*
X183524671Y-77281883D01*
X183508607Y-77299607D01*
X183490883Y-77315671D01*
X183471670Y-77329921D01*
X183451153Y-77342218D01*
X183429529Y-77352446D01*
X183407007Y-77360504D01*
X183383803Y-77366316D01*
X183360142Y-77369826D01*
X183336250Y-77371000D01*
X182423750Y-77371000D01*
X182399858Y-77369826D01*
X182376197Y-77366316D01*
X182352993Y-77360504D01*
X182330471Y-77352446D01*
X182308847Y-77342218D01*
X182288330Y-77329921D01*
X182269117Y-77315671D01*
X182251393Y-77299607D01*
X182235329Y-77281883D01*
X182221079Y-77262670D01*
X182208782Y-77242153D01*
X182198554Y-77220529D01*
X182190496Y-77198007D01*
X182184684Y-77174803D01*
X182181174Y-77151142D01*
X182180000Y-77127250D01*
X182180000Y-76639750D01*
X182181174Y-76615858D01*
X182184684Y-76592197D01*
X182190496Y-76568993D01*
X182198554Y-76546471D01*
X182208782Y-76524847D01*
X182221079Y-76504330D01*
X182235329Y-76485117D01*
X182251393Y-76467393D01*
X182269117Y-76451329D01*
X182288330Y-76437079D01*
X182308847Y-76424782D01*
X182330471Y-76414554D01*
X182352993Y-76406496D01*
X182376197Y-76400684D01*
X182399858Y-76397174D01*
X182423750Y-76396000D01*
X183336250Y-76396000D01*
X183360142Y-76397174D01*
G37*
G36*
X183360142Y-81428674D02*
G01*
X183383803Y-81432184D01*
X183407007Y-81437996D01*
X183429529Y-81446054D01*
X183451153Y-81456282D01*
X183471670Y-81468579D01*
X183490883Y-81482829D01*
X183508607Y-81498893D01*
X183524671Y-81516617D01*
X183538921Y-81535830D01*
X183551218Y-81556347D01*
X183561446Y-81577971D01*
X183569504Y-81600493D01*
X183575316Y-81623697D01*
X183578826Y-81647358D01*
X183580000Y-81671250D01*
X183580000Y-82158750D01*
X183578826Y-82182642D01*
X183575316Y-82206303D01*
X183569504Y-82229507D01*
X183561446Y-82252029D01*
X183551218Y-82273653D01*
X183538921Y-82294170D01*
X183524671Y-82313383D01*
X183508607Y-82331107D01*
X183490883Y-82347171D01*
X183471670Y-82361421D01*
X183451153Y-82373718D01*
X183429529Y-82383946D01*
X183407007Y-82392004D01*
X183383803Y-82397816D01*
X183360142Y-82401326D01*
X183336250Y-82402500D01*
X182423750Y-82402500D01*
X182399858Y-82401326D01*
X182376197Y-82397816D01*
X182352993Y-82392004D01*
X182330471Y-82383946D01*
X182308847Y-82373718D01*
X182288330Y-82361421D01*
X182269117Y-82347171D01*
X182251393Y-82331107D01*
X182235329Y-82313383D01*
X182221079Y-82294170D01*
X182208782Y-82273653D01*
X182198554Y-82252029D01*
X182190496Y-82229507D01*
X182184684Y-82206303D01*
X182181174Y-82182642D01*
X182180000Y-82158750D01*
X182180000Y-81671250D01*
X182181174Y-81647358D01*
X182184684Y-81623697D01*
X182190496Y-81600493D01*
X182198554Y-81577971D01*
X182208782Y-81556347D01*
X182221079Y-81535830D01*
X182235329Y-81516617D01*
X182251393Y-81498893D01*
X182269117Y-81482829D01*
X182288330Y-81468579D01*
X182308847Y-81456282D01*
X182330471Y-81446054D01*
X182352993Y-81437996D01*
X182376197Y-81432184D01*
X182399858Y-81428674D01*
X182423750Y-81427500D01*
X183336250Y-81427500D01*
X183360142Y-81428674D01*
G37*
G36*
X183360142Y-79553674D02*
G01*
X183383803Y-79557184D01*
X183407007Y-79562996D01*
X183429529Y-79571054D01*
X183451153Y-79581282D01*
X183471670Y-79593579D01*
X183490883Y-79607829D01*
X183508607Y-79623893D01*
X183524671Y-79641617D01*
X183538921Y-79660830D01*
X183551218Y-79681347D01*
X183561446Y-79702971D01*
X183569504Y-79725493D01*
X183575316Y-79748697D01*
X183578826Y-79772358D01*
X183580000Y-79796250D01*
X183580000Y-80283750D01*
X183578826Y-80307642D01*
X183575316Y-80331303D01*
X183569504Y-80354507D01*
X183561446Y-80377029D01*
X183551218Y-80398653D01*
X183538921Y-80419170D01*
X183524671Y-80438383D01*
X183508607Y-80456107D01*
X183490883Y-80472171D01*
X183471670Y-80486421D01*
X183451153Y-80498718D01*
X183429529Y-80508946D01*
X183407007Y-80517004D01*
X183383803Y-80522816D01*
X183360142Y-80526326D01*
X183336250Y-80527500D01*
X182423750Y-80527500D01*
X182399858Y-80526326D01*
X182376197Y-80522816D01*
X182352993Y-80517004D01*
X182330471Y-80508946D01*
X182308847Y-80498718D01*
X182288330Y-80486421D01*
X182269117Y-80472171D01*
X182251393Y-80456107D01*
X182235329Y-80438383D01*
X182221079Y-80419170D01*
X182208782Y-80398653D01*
X182198554Y-80377029D01*
X182190496Y-80354507D01*
X182184684Y-80331303D01*
X182181174Y-80307642D01*
X182180000Y-80283750D01*
X182180000Y-79796250D01*
X182181174Y-79772358D01*
X182184684Y-79748697D01*
X182190496Y-79725493D01*
X182198554Y-79702971D01*
X182208782Y-79681347D01*
X182221079Y-79660830D01*
X182235329Y-79641617D01*
X182251393Y-79623893D01*
X182269117Y-79607829D01*
X182288330Y-79593579D01*
X182308847Y-79581282D01*
X182330471Y-79571054D01*
X182352993Y-79562996D01*
X182376197Y-79557184D01*
X182399858Y-79553674D01*
X182423750Y-79552500D01*
X183336250Y-79552500D01*
X183360142Y-79553674D01*
G37*
G36*
X183360142Y-69520674D02*
G01*
X183383803Y-69524184D01*
X183407007Y-69529996D01*
X183429529Y-69538054D01*
X183451153Y-69548282D01*
X183471670Y-69560579D01*
X183490883Y-69574829D01*
X183508607Y-69590893D01*
X183524671Y-69608617D01*
X183538921Y-69627830D01*
X183551218Y-69648347D01*
X183561446Y-69669971D01*
X183569504Y-69692493D01*
X183575316Y-69715697D01*
X183578826Y-69739358D01*
X183580000Y-69763250D01*
X183580000Y-70250750D01*
X183578826Y-70274642D01*
X183575316Y-70298303D01*
X183569504Y-70321507D01*
X183561446Y-70344029D01*
X183551218Y-70365653D01*
X183538921Y-70386170D01*
X183524671Y-70405383D01*
X183508607Y-70423107D01*
X183490883Y-70439171D01*
X183471670Y-70453421D01*
X183451153Y-70465718D01*
X183429529Y-70475946D01*
X183407007Y-70484004D01*
X183383803Y-70489816D01*
X183360142Y-70493326D01*
X183336250Y-70494500D01*
X182423750Y-70494500D01*
X182399858Y-70493326D01*
X182376197Y-70489816D01*
X182352993Y-70484004D01*
X182330471Y-70475946D01*
X182308847Y-70465718D01*
X182288330Y-70453421D01*
X182269117Y-70439171D01*
X182251393Y-70423107D01*
X182235329Y-70405383D01*
X182221079Y-70386170D01*
X182208782Y-70365653D01*
X182198554Y-70344029D01*
X182190496Y-70321507D01*
X182184684Y-70298303D01*
X182181174Y-70274642D01*
X182180000Y-70250750D01*
X182180000Y-69763250D01*
X182181174Y-69739358D01*
X182184684Y-69715697D01*
X182190496Y-69692493D01*
X182198554Y-69669971D01*
X182208782Y-69648347D01*
X182221079Y-69627830D01*
X182235329Y-69608617D01*
X182251393Y-69590893D01*
X182269117Y-69574829D01*
X182288330Y-69560579D01*
X182308847Y-69548282D01*
X182330471Y-69538054D01*
X182352993Y-69529996D01*
X182376197Y-69524184D01*
X182399858Y-69520674D01*
X182423750Y-69519500D01*
X183336250Y-69519500D01*
X183360142Y-69520674D01*
G37*
G36*
X183360142Y-71395674D02*
G01*
X183383803Y-71399184D01*
X183407007Y-71404996D01*
X183429529Y-71413054D01*
X183451153Y-71423282D01*
X183471670Y-71435579D01*
X183490883Y-71449829D01*
X183508607Y-71465893D01*
X183524671Y-71483617D01*
X183538921Y-71502830D01*
X183551218Y-71523347D01*
X183561446Y-71544971D01*
X183569504Y-71567493D01*
X183575316Y-71590697D01*
X183578826Y-71614358D01*
X183580000Y-71638250D01*
X183580000Y-72125750D01*
X183578826Y-72149642D01*
X183575316Y-72173303D01*
X183569504Y-72196507D01*
X183561446Y-72219029D01*
X183551218Y-72240653D01*
X183538921Y-72261170D01*
X183524671Y-72280383D01*
X183508607Y-72298107D01*
X183490883Y-72314171D01*
X183471670Y-72328421D01*
X183451153Y-72340718D01*
X183429529Y-72350946D01*
X183407007Y-72359004D01*
X183383803Y-72364816D01*
X183360142Y-72368326D01*
X183336250Y-72369500D01*
X182423750Y-72369500D01*
X182399858Y-72368326D01*
X182376197Y-72364816D01*
X182352993Y-72359004D01*
X182330471Y-72350946D01*
X182308847Y-72340718D01*
X182288330Y-72328421D01*
X182269117Y-72314171D01*
X182251393Y-72298107D01*
X182235329Y-72280383D01*
X182221079Y-72261170D01*
X182208782Y-72240653D01*
X182198554Y-72219029D01*
X182190496Y-72196507D01*
X182184684Y-72173303D01*
X182181174Y-72149642D01*
X182180000Y-72125750D01*
X182180000Y-71638250D01*
X182181174Y-71614358D01*
X182184684Y-71590697D01*
X182190496Y-71567493D01*
X182198554Y-71544971D01*
X182208782Y-71523347D01*
X182221079Y-71502830D01*
X182235329Y-71483617D01*
X182251393Y-71465893D01*
X182269117Y-71449829D01*
X182288330Y-71435579D01*
X182308847Y-71423282D01*
X182330471Y-71413054D01*
X182352993Y-71404996D01*
X182376197Y-71399184D01*
X182399858Y-71395674D01*
X182423750Y-71394500D01*
X183336250Y-71394500D01*
X183360142Y-71395674D01*
G37*
G36*
X194068097Y-64763488D02*
G01*
X193219569Y-65612016D01*
X192229619Y-64622066D01*
X193078147Y-63773538D01*
X194068097Y-64763488D01*
G37*
G36*
X192512462Y-63207853D02*
G01*
X191663934Y-64056381D01*
X190673984Y-63066431D01*
X191522512Y-62217903D01*
X192512462Y-63207853D01*
G37*
G36*
X191310381Y-64409934D02*
G01*
X190461853Y-65258462D01*
X189471903Y-64268512D01*
X190320431Y-63419984D01*
X191310381Y-64409934D01*
G37*
G36*
X192866016Y-65965569D02*
G01*
X192017488Y-66814097D01*
X191027538Y-65824147D01*
X191876066Y-64975619D01*
X192866016Y-65965569D01*
G37*
M02*
