M48
; DRILL file {KiCad (5.1.5)-3} date 1/1/2020 11:53:53 PM
; FORMAT={-:-/ absolute / inch / decimal}
; #@! TF.CreationDate,2020-01-01T23:53:53-06:00
; #@! TF.GenerationSoftware,Kicad,Pcbnew,(5.1.5)-3
; #@! TF.FileFunction,NonPlated,1,2,NPTH
FMAT,2
INCH
T1C0.0394
T2C0.0472
T3C0.0669
T4C0.1575
%
G90
G05
T1
X7.6334Y-1.85
X7.8066Y-1.85
T2
X7.2506Y-1.8656
X7.2506Y-2.1412
T3
X4.2Y-4.26
X4.6Y-4.26
X5.72Y-4.26
X6.12Y-4.26
X5.72Y-2.74
X6.12Y-2.74
X4.2Y-2.74
X4.6Y-2.74
X2.68Y-1.98
X3.08Y-1.98
X2.68Y-4.26
X3.08Y-4.26
X6.48Y-1.98
X6.88Y-1.98
X3.44Y-4.26
X3.84Y-4.26
X4.96Y-3.5
X5.36Y-3.5
X4.96Y-1.98
X5.36Y-1.98
X4.96Y-2.74
X5.36Y-2.74
X4.96Y-4.26
X5.36Y-4.26
X3.44Y-1.98
X3.84Y-1.98
X4.2Y-3.5
X4.6Y-3.5
X6.48Y-3.5
X6.88Y-3.5
X3.44Y-2.74
X3.84Y-2.74
X2.68Y-3.5
X3.08Y-3.5
X6.48Y-2.74
X6.88Y-2.74
X5.72Y-3.5
X6.12Y-3.5
X2.68Y-2.74
X3.08Y-2.74
X4.2Y-1.98
X4.6Y-1.98
X6.48Y-4.26
X6.88Y-4.26
X3.44Y-3.5
X3.84Y-3.5
X5.72Y-1.98
X6.12Y-1.98
T4
X2.88Y-4.26
X6.68Y-1.98
X3.64Y-4.26
X5.16Y-3.5
X5.16Y-1.98
X5.16Y-2.74
X5.16Y-4.26
X3.64Y-1.98
X4.4Y-3.5
X6.68Y-3.5
X3.64Y-2.74
X2.88Y-3.5
X6.68Y-2.74
X5.92Y-3.5
X2.88Y-2.74
X4.4Y-1.98
X6.68Y-4.26
X3.64Y-3.5
X5.92Y-1.98
X4.4Y-4.26
X5.92Y-4.26
X5.92Y-2.74
X4.4Y-2.74
X2.88Y-1.98
T0
M30
