G04 #@! TF.GenerationSoftware,KiCad,Pcbnew,(5.1.5)-3*
G04 #@! TF.CreationDate,2020-01-02T00:08:27-06:00*
G04 #@! TF.ProjectId,untitled-keyboard-project,756e7469-746c-4656-942d-6b6579626f61,rev?*
G04 #@! TF.SameCoordinates,Original*
G04 #@! TF.FileFunction,Legend,Bot*
G04 #@! TF.FilePolarity,Positive*
%FSLAX46Y46*%
G04 Gerber Fmt 4.6, Leading zero omitted, Abs format (unit mm)*
G04 Created by KiCad (PCBNEW (5.1.5)-3) date 2020-01-02 00:08:27*
%MOMM*%
%LPD*%
G04 APERTURE LIST*
%ADD10C,0.120000*%
%ADD11C,0.150000*%
G04 APERTURE END LIST*
D10*
X74637000Y-56107000D02*
X72352000Y-56107000D01*
X74637000Y-54637000D02*
X74637000Y-56107000D01*
X72352000Y-54637000D02*
X74637000Y-54637000D01*
X93941000Y-56107000D02*
X91656000Y-56107000D01*
X93941000Y-54637000D02*
X93941000Y-56107000D01*
X91656000Y-54637000D02*
X93941000Y-54637000D01*
X113245000Y-56107000D02*
X110960000Y-56107000D01*
X113245000Y-54637000D02*
X113245000Y-56107000D01*
X110960000Y-54637000D02*
X113245000Y-54637000D01*
X132549000Y-56107000D02*
X130264000Y-56107000D01*
X132549000Y-54637000D02*
X132549000Y-56107000D01*
X130264000Y-54637000D02*
X132549000Y-54637000D01*
X149568000Y-54637000D02*
X151853000Y-54637000D01*
X151853000Y-54637000D02*
X151853000Y-56107000D01*
X151853000Y-56107000D02*
X149568000Y-56107000D01*
X168872000Y-54637000D02*
X171157000Y-54637000D01*
X171157000Y-54637000D02*
X171157000Y-56107000D01*
X171157000Y-56107000D02*
X168872000Y-56107000D01*
X72352000Y-73941000D02*
X74637000Y-73941000D01*
X74637000Y-73941000D02*
X74637000Y-75411000D01*
X74637000Y-75411000D02*
X72352000Y-75411000D01*
X93941000Y-75411000D02*
X91656000Y-75411000D01*
X93941000Y-73941000D02*
X93941000Y-75411000D01*
X91656000Y-73941000D02*
X93941000Y-73941000D01*
X113245000Y-75411000D02*
X110960000Y-75411000D01*
X113245000Y-73941000D02*
X113245000Y-75411000D01*
X110960000Y-73941000D02*
X113245000Y-73941000D01*
X132549000Y-75411000D02*
X130264000Y-75411000D01*
X132549000Y-73941000D02*
X132549000Y-75411000D01*
X130264000Y-73941000D02*
X132549000Y-73941000D01*
X149568000Y-73941000D02*
X151853000Y-73941000D01*
X151853000Y-73941000D02*
X151853000Y-75411000D01*
X151853000Y-75411000D02*
X149568000Y-75411000D01*
X168872000Y-73941000D02*
X171157000Y-73941000D01*
X171157000Y-73941000D02*
X171157000Y-75411000D01*
X171157000Y-75411000D02*
X168872000Y-75411000D01*
X72352000Y-93245000D02*
X74637000Y-93245000D01*
X74637000Y-93245000D02*
X74637000Y-94715000D01*
X74637000Y-94715000D02*
X72352000Y-94715000D01*
X91656000Y-93245000D02*
X93941000Y-93245000D01*
X93941000Y-93245000D02*
X93941000Y-94715000D01*
X93941000Y-94715000D02*
X91656000Y-94715000D01*
X110960000Y-93245000D02*
X113245000Y-93245000D01*
X113245000Y-93245000D02*
X113245000Y-94715000D01*
X113245000Y-94715000D02*
X110960000Y-94715000D01*
X130264000Y-93245000D02*
X132549000Y-93245000D01*
X132549000Y-93245000D02*
X132549000Y-94715000D01*
X132549000Y-94715000D02*
X130264000Y-94715000D01*
X149568000Y-93245000D02*
X151853000Y-93245000D01*
X151853000Y-93245000D02*
X151853000Y-94715000D01*
X151853000Y-94715000D02*
X149568000Y-94715000D01*
X168872000Y-93245000D02*
X171157000Y-93245000D01*
X171157000Y-93245000D02*
X171157000Y-94715000D01*
X171157000Y-94715000D02*
X168872000Y-94715000D01*
X72352000Y-112549000D02*
X74637000Y-112549000D01*
X74637000Y-112549000D02*
X74637000Y-114019000D01*
X74637000Y-114019000D02*
X72352000Y-114019000D01*
X93941000Y-114019000D02*
X91656000Y-114019000D01*
X93941000Y-112549000D02*
X93941000Y-114019000D01*
X91656000Y-112549000D02*
X93941000Y-112549000D01*
X113245000Y-114019000D02*
X110960000Y-114019000D01*
X113245000Y-112549000D02*
X113245000Y-114019000D01*
X110960000Y-112549000D02*
X113245000Y-112549000D01*
X132549000Y-114019000D02*
X130264000Y-114019000D01*
X132549000Y-112549000D02*
X132549000Y-114019000D01*
X130264000Y-112549000D02*
X132549000Y-112549000D01*
X151853000Y-114019000D02*
X149568000Y-114019000D01*
X151853000Y-112549000D02*
X151853000Y-114019000D01*
X149568000Y-112549000D02*
X151853000Y-112549000D01*
X171157000Y-114019000D02*
X168872000Y-114019000D01*
X171157000Y-112549000D02*
X171157000Y-114019000D01*
X168872000Y-112549000D02*
X171157000Y-112549000D01*
D11*
X73890095Y-54394380D02*
X73890095Y-53394380D01*
X73652000Y-53394380D01*
X73509142Y-53442000D01*
X73413904Y-53537238D01*
X73366285Y-53632476D01*
X73318666Y-53822952D01*
X73318666Y-53965809D01*
X73366285Y-54156285D01*
X73413904Y-54251523D01*
X73509142Y-54346761D01*
X73652000Y-54394380D01*
X73890095Y-54394380D01*
X72366285Y-54394380D02*
X72937714Y-54394380D01*
X72652000Y-54394380D02*
X72652000Y-53394380D01*
X72747238Y-53537238D01*
X72842476Y-53632476D01*
X72937714Y-53680095D01*
X93194095Y-54394380D02*
X93194095Y-53394380D01*
X92956000Y-53394380D01*
X92813142Y-53442000D01*
X92717904Y-53537238D01*
X92670285Y-53632476D01*
X92622666Y-53822952D01*
X92622666Y-53965809D01*
X92670285Y-54156285D01*
X92717904Y-54251523D01*
X92813142Y-54346761D01*
X92956000Y-54394380D01*
X93194095Y-54394380D01*
X92241714Y-53489619D02*
X92194095Y-53442000D01*
X92098857Y-53394380D01*
X91860761Y-53394380D01*
X91765523Y-53442000D01*
X91717904Y-53489619D01*
X91670285Y-53584857D01*
X91670285Y-53680095D01*
X91717904Y-53822952D01*
X92289333Y-54394380D01*
X91670285Y-54394380D01*
X112498095Y-54394380D02*
X112498095Y-53394380D01*
X112260000Y-53394380D01*
X112117142Y-53442000D01*
X112021904Y-53537238D01*
X111974285Y-53632476D01*
X111926666Y-53822952D01*
X111926666Y-53965809D01*
X111974285Y-54156285D01*
X112021904Y-54251523D01*
X112117142Y-54346761D01*
X112260000Y-54394380D01*
X112498095Y-54394380D01*
X111593333Y-53394380D02*
X110974285Y-53394380D01*
X111307619Y-53775333D01*
X111164761Y-53775333D01*
X111069523Y-53822952D01*
X111021904Y-53870571D01*
X110974285Y-53965809D01*
X110974285Y-54203904D01*
X111021904Y-54299142D01*
X111069523Y-54346761D01*
X111164761Y-54394380D01*
X111450476Y-54394380D01*
X111545714Y-54346761D01*
X111593333Y-54299142D01*
X131802095Y-54394380D02*
X131802095Y-53394380D01*
X131564000Y-53394380D01*
X131421142Y-53442000D01*
X131325904Y-53537238D01*
X131278285Y-53632476D01*
X131230666Y-53822952D01*
X131230666Y-53965809D01*
X131278285Y-54156285D01*
X131325904Y-54251523D01*
X131421142Y-54346761D01*
X131564000Y-54394380D01*
X131802095Y-54394380D01*
X130373523Y-53727714D02*
X130373523Y-54394380D01*
X130611619Y-53346761D02*
X130849714Y-54061047D01*
X130230666Y-54061047D01*
X151106095Y-54394380D02*
X151106095Y-53394380D01*
X150868000Y-53394380D01*
X150725142Y-53442000D01*
X150629904Y-53537238D01*
X150582285Y-53632476D01*
X150534666Y-53822952D01*
X150534666Y-53965809D01*
X150582285Y-54156285D01*
X150629904Y-54251523D01*
X150725142Y-54346761D01*
X150868000Y-54394380D01*
X151106095Y-54394380D01*
X149629904Y-53394380D02*
X150106095Y-53394380D01*
X150153714Y-53870571D01*
X150106095Y-53822952D01*
X150010857Y-53775333D01*
X149772761Y-53775333D01*
X149677523Y-53822952D01*
X149629904Y-53870571D01*
X149582285Y-53965809D01*
X149582285Y-54203904D01*
X149629904Y-54299142D01*
X149677523Y-54346761D01*
X149772761Y-54394380D01*
X150010857Y-54394380D01*
X150106095Y-54346761D01*
X150153714Y-54299142D01*
X170410095Y-54394380D02*
X170410095Y-53394380D01*
X170172000Y-53394380D01*
X170029142Y-53442000D01*
X169933904Y-53537238D01*
X169886285Y-53632476D01*
X169838666Y-53822952D01*
X169838666Y-53965809D01*
X169886285Y-54156285D01*
X169933904Y-54251523D01*
X170029142Y-54346761D01*
X170172000Y-54394380D01*
X170410095Y-54394380D01*
X168981523Y-53394380D02*
X169172000Y-53394380D01*
X169267238Y-53442000D01*
X169314857Y-53489619D01*
X169410095Y-53632476D01*
X169457714Y-53822952D01*
X169457714Y-54203904D01*
X169410095Y-54299142D01*
X169362476Y-54346761D01*
X169267238Y-54394380D01*
X169076761Y-54394380D01*
X168981523Y-54346761D01*
X168933904Y-54299142D01*
X168886285Y-54203904D01*
X168886285Y-53965809D01*
X168933904Y-53870571D01*
X168981523Y-53822952D01*
X169076761Y-53775333D01*
X169267238Y-53775333D01*
X169362476Y-53822952D01*
X169410095Y-53870571D01*
X169457714Y-53965809D01*
X73890095Y-73698380D02*
X73890095Y-72698380D01*
X73652000Y-72698380D01*
X73509142Y-72746000D01*
X73413904Y-72841238D01*
X73366285Y-72936476D01*
X73318666Y-73126952D01*
X73318666Y-73269809D01*
X73366285Y-73460285D01*
X73413904Y-73555523D01*
X73509142Y-73650761D01*
X73652000Y-73698380D01*
X73890095Y-73698380D01*
X72985333Y-72698380D02*
X72318666Y-72698380D01*
X72747238Y-73698380D01*
X93194095Y-73698380D02*
X93194095Y-72698380D01*
X92956000Y-72698380D01*
X92813142Y-72746000D01*
X92717904Y-72841238D01*
X92670285Y-72936476D01*
X92622666Y-73126952D01*
X92622666Y-73269809D01*
X92670285Y-73460285D01*
X92717904Y-73555523D01*
X92813142Y-73650761D01*
X92956000Y-73698380D01*
X93194095Y-73698380D01*
X92051238Y-73126952D02*
X92146476Y-73079333D01*
X92194095Y-73031714D01*
X92241714Y-72936476D01*
X92241714Y-72888857D01*
X92194095Y-72793619D01*
X92146476Y-72746000D01*
X92051238Y-72698380D01*
X91860761Y-72698380D01*
X91765523Y-72746000D01*
X91717904Y-72793619D01*
X91670285Y-72888857D01*
X91670285Y-72936476D01*
X91717904Y-73031714D01*
X91765523Y-73079333D01*
X91860761Y-73126952D01*
X92051238Y-73126952D01*
X92146476Y-73174571D01*
X92194095Y-73222190D01*
X92241714Y-73317428D01*
X92241714Y-73507904D01*
X92194095Y-73603142D01*
X92146476Y-73650761D01*
X92051238Y-73698380D01*
X91860761Y-73698380D01*
X91765523Y-73650761D01*
X91717904Y-73603142D01*
X91670285Y-73507904D01*
X91670285Y-73317428D01*
X91717904Y-73222190D01*
X91765523Y-73174571D01*
X91860761Y-73126952D01*
X112498095Y-73698380D02*
X112498095Y-72698380D01*
X112260000Y-72698380D01*
X112117142Y-72746000D01*
X112021904Y-72841238D01*
X111974285Y-72936476D01*
X111926666Y-73126952D01*
X111926666Y-73269809D01*
X111974285Y-73460285D01*
X112021904Y-73555523D01*
X112117142Y-73650761D01*
X112260000Y-73698380D01*
X112498095Y-73698380D01*
X111450476Y-73698380D02*
X111260000Y-73698380D01*
X111164761Y-73650761D01*
X111117142Y-73603142D01*
X111021904Y-73460285D01*
X110974285Y-73269809D01*
X110974285Y-72888857D01*
X111021904Y-72793619D01*
X111069523Y-72746000D01*
X111164761Y-72698380D01*
X111355238Y-72698380D01*
X111450476Y-72746000D01*
X111498095Y-72793619D01*
X111545714Y-72888857D01*
X111545714Y-73126952D01*
X111498095Y-73222190D01*
X111450476Y-73269809D01*
X111355238Y-73317428D01*
X111164761Y-73317428D01*
X111069523Y-73269809D01*
X111021904Y-73222190D01*
X110974285Y-73126952D01*
X132278285Y-73698380D02*
X132278285Y-72698380D01*
X132040190Y-72698380D01*
X131897333Y-72746000D01*
X131802095Y-72841238D01*
X131754476Y-72936476D01*
X131706857Y-73126952D01*
X131706857Y-73269809D01*
X131754476Y-73460285D01*
X131802095Y-73555523D01*
X131897333Y-73650761D01*
X132040190Y-73698380D01*
X132278285Y-73698380D01*
X130754476Y-73698380D02*
X131325904Y-73698380D01*
X131040190Y-73698380D02*
X131040190Y-72698380D01*
X131135428Y-72841238D01*
X131230666Y-72936476D01*
X131325904Y-72984095D01*
X130135428Y-72698380D02*
X130040190Y-72698380D01*
X129944952Y-72746000D01*
X129897333Y-72793619D01*
X129849714Y-72888857D01*
X129802095Y-73079333D01*
X129802095Y-73317428D01*
X129849714Y-73507904D01*
X129897333Y-73603142D01*
X129944952Y-73650761D01*
X130040190Y-73698380D01*
X130135428Y-73698380D01*
X130230666Y-73650761D01*
X130278285Y-73603142D01*
X130325904Y-73507904D01*
X130373523Y-73317428D01*
X130373523Y-73079333D01*
X130325904Y-72888857D01*
X130278285Y-72793619D01*
X130230666Y-72746000D01*
X130135428Y-72698380D01*
X151582285Y-73698380D02*
X151582285Y-72698380D01*
X151344190Y-72698380D01*
X151201333Y-72746000D01*
X151106095Y-72841238D01*
X151058476Y-72936476D01*
X151010857Y-73126952D01*
X151010857Y-73269809D01*
X151058476Y-73460285D01*
X151106095Y-73555523D01*
X151201333Y-73650761D01*
X151344190Y-73698380D01*
X151582285Y-73698380D01*
X150058476Y-73698380D02*
X150629904Y-73698380D01*
X150344190Y-73698380D02*
X150344190Y-72698380D01*
X150439428Y-72841238D01*
X150534666Y-72936476D01*
X150629904Y-72984095D01*
X149106095Y-73698380D02*
X149677523Y-73698380D01*
X149391809Y-73698380D02*
X149391809Y-72698380D01*
X149487047Y-72841238D01*
X149582285Y-72936476D01*
X149677523Y-72984095D01*
X170886285Y-73698380D02*
X170886285Y-72698380D01*
X170648190Y-72698380D01*
X170505333Y-72746000D01*
X170410095Y-72841238D01*
X170362476Y-72936476D01*
X170314857Y-73126952D01*
X170314857Y-73269809D01*
X170362476Y-73460285D01*
X170410095Y-73555523D01*
X170505333Y-73650761D01*
X170648190Y-73698380D01*
X170886285Y-73698380D01*
X169362476Y-73698380D02*
X169933904Y-73698380D01*
X169648190Y-73698380D02*
X169648190Y-72698380D01*
X169743428Y-72841238D01*
X169838666Y-72936476D01*
X169933904Y-72984095D01*
X168981523Y-72793619D02*
X168933904Y-72746000D01*
X168838666Y-72698380D01*
X168600571Y-72698380D01*
X168505333Y-72746000D01*
X168457714Y-72793619D01*
X168410095Y-72888857D01*
X168410095Y-72984095D01*
X168457714Y-73126952D01*
X169029142Y-73698380D01*
X168410095Y-73698380D01*
X74366285Y-93002380D02*
X74366285Y-92002380D01*
X74128190Y-92002380D01*
X73985333Y-92050000D01*
X73890095Y-92145238D01*
X73842476Y-92240476D01*
X73794857Y-92430952D01*
X73794857Y-92573809D01*
X73842476Y-92764285D01*
X73890095Y-92859523D01*
X73985333Y-92954761D01*
X74128190Y-93002380D01*
X74366285Y-93002380D01*
X72842476Y-93002380D02*
X73413904Y-93002380D01*
X73128190Y-93002380D02*
X73128190Y-92002380D01*
X73223428Y-92145238D01*
X73318666Y-92240476D01*
X73413904Y-92288095D01*
X72509142Y-92002380D02*
X71890095Y-92002380D01*
X72223428Y-92383333D01*
X72080571Y-92383333D01*
X71985333Y-92430952D01*
X71937714Y-92478571D01*
X71890095Y-92573809D01*
X71890095Y-92811904D01*
X71937714Y-92907142D01*
X71985333Y-92954761D01*
X72080571Y-93002380D01*
X72366285Y-93002380D01*
X72461523Y-92954761D01*
X72509142Y-92907142D01*
X93670285Y-93002380D02*
X93670285Y-92002380D01*
X93432190Y-92002380D01*
X93289333Y-92050000D01*
X93194095Y-92145238D01*
X93146476Y-92240476D01*
X93098857Y-92430952D01*
X93098857Y-92573809D01*
X93146476Y-92764285D01*
X93194095Y-92859523D01*
X93289333Y-92954761D01*
X93432190Y-93002380D01*
X93670285Y-93002380D01*
X92146476Y-93002380D02*
X92717904Y-93002380D01*
X92432190Y-93002380D02*
X92432190Y-92002380D01*
X92527428Y-92145238D01*
X92622666Y-92240476D01*
X92717904Y-92288095D01*
X91289333Y-92335714D02*
X91289333Y-93002380D01*
X91527428Y-91954761D02*
X91765523Y-92669047D01*
X91146476Y-92669047D01*
X112974285Y-93002380D02*
X112974285Y-92002380D01*
X112736190Y-92002380D01*
X112593333Y-92050000D01*
X112498095Y-92145238D01*
X112450476Y-92240476D01*
X112402857Y-92430952D01*
X112402857Y-92573809D01*
X112450476Y-92764285D01*
X112498095Y-92859523D01*
X112593333Y-92954761D01*
X112736190Y-93002380D01*
X112974285Y-93002380D01*
X111450476Y-93002380D02*
X112021904Y-93002380D01*
X111736190Y-93002380D02*
X111736190Y-92002380D01*
X111831428Y-92145238D01*
X111926666Y-92240476D01*
X112021904Y-92288095D01*
X110545714Y-92002380D02*
X111021904Y-92002380D01*
X111069523Y-92478571D01*
X111021904Y-92430952D01*
X110926666Y-92383333D01*
X110688571Y-92383333D01*
X110593333Y-92430952D01*
X110545714Y-92478571D01*
X110498095Y-92573809D01*
X110498095Y-92811904D01*
X110545714Y-92907142D01*
X110593333Y-92954761D01*
X110688571Y-93002380D01*
X110926666Y-93002380D01*
X111021904Y-92954761D01*
X111069523Y-92907142D01*
X132278285Y-93002380D02*
X132278285Y-92002380D01*
X132040190Y-92002380D01*
X131897333Y-92050000D01*
X131802095Y-92145238D01*
X131754476Y-92240476D01*
X131706857Y-92430952D01*
X131706857Y-92573809D01*
X131754476Y-92764285D01*
X131802095Y-92859523D01*
X131897333Y-92954761D01*
X132040190Y-93002380D01*
X132278285Y-93002380D01*
X130754476Y-93002380D02*
X131325904Y-93002380D01*
X131040190Y-93002380D02*
X131040190Y-92002380D01*
X131135428Y-92145238D01*
X131230666Y-92240476D01*
X131325904Y-92288095D01*
X129897333Y-92002380D02*
X130087809Y-92002380D01*
X130183047Y-92050000D01*
X130230666Y-92097619D01*
X130325904Y-92240476D01*
X130373523Y-92430952D01*
X130373523Y-92811904D01*
X130325904Y-92907142D01*
X130278285Y-92954761D01*
X130183047Y-93002380D01*
X129992571Y-93002380D01*
X129897333Y-92954761D01*
X129849714Y-92907142D01*
X129802095Y-92811904D01*
X129802095Y-92573809D01*
X129849714Y-92478571D01*
X129897333Y-92430952D01*
X129992571Y-92383333D01*
X130183047Y-92383333D01*
X130278285Y-92430952D01*
X130325904Y-92478571D01*
X130373523Y-92573809D01*
X151582285Y-93002380D02*
X151582285Y-92002380D01*
X151344190Y-92002380D01*
X151201333Y-92050000D01*
X151106095Y-92145238D01*
X151058476Y-92240476D01*
X151010857Y-92430952D01*
X151010857Y-92573809D01*
X151058476Y-92764285D01*
X151106095Y-92859523D01*
X151201333Y-92954761D01*
X151344190Y-93002380D01*
X151582285Y-93002380D01*
X150058476Y-93002380D02*
X150629904Y-93002380D01*
X150344190Y-93002380D02*
X150344190Y-92002380D01*
X150439428Y-92145238D01*
X150534666Y-92240476D01*
X150629904Y-92288095D01*
X149725142Y-92002380D02*
X149058476Y-92002380D01*
X149487047Y-93002380D01*
X170886285Y-93002380D02*
X170886285Y-92002380D01*
X170648190Y-92002380D01*
X170505333Y-92050000D01*
X170410095Y-92145238D01*
X170362476Y-92240476D01*
X170314857Y-92430952D01*
X170314857Y-92573809D01*
X170362476Y-92764285D01*
X170410095Y-92859523D01*
X170505333Y-92954761D01*
X170648190Y-93002380D01*
X170886285Y-93002380D01*
X169362476Y-93002380D02*
X169933904Y-93002380D01*
X169648190Y-93002380D02*
X169648190Y-92002380D01*
X169743428Y-92145238D01*
X169838666Y-92240476D01*
X169933904Y-92288095D01*
X168791047Y-92430952D02*
X168886285Y-92383333D01*
X168933904Y-92335714D01*
X168981523Y-92240476D01*
X168981523Y-92192857D01*
X168933904Y-92097619D01*
X168886285Y-92050000D01*
X168791047Y-92002380D01*
X168600571Y-92002380D01*
X168505333Y-92050000D01*
X168457714Y-92097619D01*
X168410095Y-92192857D01*
X168410095Y-92240476D01*
X168457714Y-92335714D01*
X168505333Y-92383333D01*
X168600571Y-92430952D01*
X168791047Y-92430952D01*
X168886285Y-92478571D01*
X168933904Y-92526190D01*
X168981523Y-92621428D01*
X168981523Y-92811904D01*
X168933904Y-92907142D01*
X168886285Y-92954761D01*
X168791047Y-93002380D01*
X168600571Y-93002380D01*
X168505333Y-92954761D01*
X168457714Y-92907142D01*
X168410095Y-92811904D01*
X168410095Y-92621428D01*
X168457714Y-92526190D01*
X168505333Y-92478571D01*
X168600571Y-92430952D01*
X74366285Y-112306380D02*
X74366285Y-111306380D01*
X74128190Y-111306380D01*
X73985333Y-111354000D01*
X73890095Y-111449238D01*
X73842476Y-111544476D01*
X73794857Y-111734952D01*
X73794857Y-111877809D01*
X73842476Y-112068285D01*
X73890095Y-112163523D01*
X73985333Y-112258761D01*
X74128190Y-112306380D01*
X74366285Y-112306380D01*
X72842476Y-112306380D02*
X73413904Y-112306380D01*
X73128190Y-112306380D02*
X73128190Y-111306380D01*
X73223428Y-111449238D01*
X73318666Y-111544476D01*
X73413904Y-111592095D01*
X72366285Y-112306380D02*
X72175809Y-112306380D01*
X72080571Y-112258761D01*
X72032952Y-112211142D01*
X71937714Y-112068285D01*
X71890095Y-111877809D01*
X71890095Y-111496857D01*
X71937714Y-111401619D01*
X71985333Y-111354000D01*
X72080571Y-111306380D01*
X72271047Y-111306380D01*
X72366285Y-111354000D01*
X72413904Y-111401619D01*
X72461523Y-111496857D01*
X72461523Y-111734952D01*
X72413904Y-111830190D01*
X72366285Y-111877809D01*
X72271047Y-111925428D01*
X72080571Y-111925428D01*
X71985333Y-111877809D01*
X71937714Y-111830190D01*
X71890095Y-111734952D01*
X93670285Y-112306380D02*
X93670285Y-111306380D01*
X93432190Y-111306380D01*
X93289333Y-111354000D01*
X93194095Y-111449238D01*
X93146476Y-111544476D01*
X93098857Y-111734952D01*
X93098857Y-111877809D01*
X93146476Y-112068285D01*
X93194095Y-112163523D01*
X93289333Y-112258761D01*
X93432190Y-112306380D01*
X93670285Y-112306380D01*
X92717904Y-111401619D02*
X92670285Y-111354000D01*
X92575047Y-111306380D01*
X92336952Y-111306380D01*
X92241714Y-111354000D01*
X92194095Y-111401619D01*
X92146476Y-111496857D01*
X92146476Y-111592095D01*
X92194095Y-111734952D01*
X92765523Y-112306380D01*
X92146476Y-112306380D01*
X91527428Y-111306380D02*
X91432190Y-111306380D01*
X91336952Y-111354000D01*
X91289333Y-111401619D01*
X91241714Y-111496857D01*
X91194095Y-111687333D01*
X91194095Y-111925428D01*
X91241714Y-112115904D01*
X91289333Y-112211142D01*
X91336952Y-112258761D01*
X91432190Y-112306380D01*
X91527428Y-112306380D01*
X91622666Y-112258761D01*
X91670285Y-112211142D01*
X91717904Y-112115904D01*
X91765523Y-111925428D01*
X91765523Y-111687333D01*
X91717904Y-111496857D01*
X91670285Y-111401619D01*
X91622666Y-111354000D01*
X91527428Y-111306380D01*
X112974285Y-112306380D02*
X112974285Y-111306380D01*
X112736190Y-111306380D01*
X112593333Y-111354000D01*
X112498095Y-111449238D01*
X112450476Y-111544476D01*
X112402857Y-111734952D01*
X112402857Y-111877809D01*
X112450476Y-112068285D01*
X112498095Y-112163523D01*
X112593333Y-112258761D01*
X112736190Y-112306380D01*
X112974285Y-112306380D01*
X112021904Y-111401619D02*
X111974285Y-111354000D01*
X111879047Y-111306380D01*
X111640952Y-111306380D01*
X111545714Y-111354000D01*
X111498095Y-111401619D01*
X111450476Y-111496857D01*
X111450476Y-111592095D01*
X111498095Y-111734952D01*
X112069523Y-112306380D01*
X111450476Y-112306380D01*
X110498095Y-112306380D02*
X111069523Y-112306380D01*
X110783809Y-112306380D02*
X110783809Y-111306380D01*
X110879047Y-111449238D01*
X110974285Y-111544476D01*
X111069523Y-111592095D01*
X132278285Y-112306380D02*
X132278285Y-111306380D01*
X132040190Y-111306380D01*
X131897333Y-111354000D01*
X131802095Y-111449238D01*
X131754476Y-111544476D01*
X131706857Y-111734952D01*
X131706857Y-111877809D01*
X131754476Y-112068285D01*
X131802095Y-112163523D01*
X131897333Y-112258761D01*
X132040190Y-112306380D01*
X132278285Y-112306380D01*
X131325904Y-111401619D02*
X131278285Y-111354000D01*
X131183047Y-111306380D01*
X130944952Y-111306380D01*
X130849714Y-111354000D01*
X130802095Y-111401619D01*
X130754476Y-111496857D01*
X130754476Y-111592095D01*
X130802095Y-111734952D01*
X131373523Y-112306380D01*
X130754476Y-112306380D01*
X130373523Y-111401619D02*
X130325904Y-111354000D01*
X130230666Y-111306380D01*
X129992571Y-111306380D01*
X129897333Y-111354000D01*
X129849714Y-111401619D01*
X129802095Y-111496857D01*
X129802095Y-111592095D01*
X129849714Y-111734952D01*
X130421142Y-112306380D01*
X129802095Y-112306380D01*
X151582285Y-112306380D02*
X151582285Y-111306380D01*
X151344190Y-111306380D01*
X151201333Y-111354000D01*
X151106095Y-111449238D01*
X151058476Y-111544476D01*
X151010857Y-111734952D01*
X151010857Y-111877809D01*
X151058476Y-112068285D01*
X151106095Y-112163523D01*
X151201333Y-112258761D01*
X151344190Y-112306380D01*
X151582285Y-112306380D01*
X150629904Y-111401619D02*
X150582285Y-111354000D01*
X150487047Y-111306380D01*
X150248952Y-111306380D01*
X150153714Y-111354000D01*
X150106095Y-111401619D01*
X150058476Y-111496857D01*
X150058476Y-111592095D01*
X150106095Y-111734952D01*
X150677523Y-112306380D01*
X150058476Y-112306380D01*
X149725142Y-111306380D02*
X149106095Y-111306380D01*
X149439428Y-111687333D01*
X149296571Y-111687333D01*
X149201333Y-111734952D01*
X149153714Y-111782571D01*
X149106095Y-111877809D01*
X149106095Y-112115904D01*
X149153714Y-112211142D01*
X149201333Y-112258761D01*
X149296571Y-112306380D01*
X149582285Y-112306380D01*
X149677523Y-112258761D01*
X149725142Y-112211142D01*
X170886285Y-112306380D02*
X170886285Y-111306380D01*
X170648190Y-111306380D01*
X170505333Y-111354000D01*
X170410095Y-111449238D01*
X170362476Y-111544476D01*
X170314857Y-111734952D01*
X170314857Y-111877809D01*
X170362476Y-112068285D01*
X170410095Y-112163523D01*
X170505333Y-112258761D01*
X170648190Y-112306380D01*
X170886285Y-112306380D01*
X169933904Y-111401619D02*
X169886285Y-111354000D01*
X169791047Y-111306380D01*
X169552952Y-111306380D01*
X169457714Y-111354000D01*
X169410095Y-111401619D01*
X169362476Y-111496857D01*
X169362476Y-111592095D01*
X169410095Y-111734952D01*
X169981523Y-112306380D01*
X169362476Y-112306380D01*
X168505333Y-111639714D02*
X168505333Y-112306380D01*
X168743428Y-111258761D02*
X168981523Y-111973047D01*
X168362476Y-111973047D01*
M02*
