G04 #@! TF.GenerationSoftware,KiCad,Pcbnew,(5.1.2)-2*
G04 #@! TF.CreationDate,2020-01-02T13:45:33-06:00*
G04 #@! TF.ProjectId,untitled-keyboard-project,756e7469-746c-4656-942d-6b6579626f61,rev?*
G04 #@! TF.SameCoordinates,Original*
G04 #@! TF.FileFunction,Paste,Bot*
G04 #@! TF.FilePolarity,Positive*
%FSLAX46Y46*%
G04 Gerber Fmt 4.6, Leading zero omitted, Abs format (unit mm)*
G04 Created by KiCad (PCBNEW (5.1.2)-2) date 2020-01-02 13:45:33*
%MOMM*%
%LPD*%
G04 APERTURE LIST*
%ADD10C,0.100000*%
%ADD11C,0.875000*%
G04 APERTURE END LIST*
D10*
G36*
X72604691Y-54898053D02*
G01*
X72625926Y-54901203D01*
X72646750Y-54906419D01*
X72666962Y-54913651D01*
X72686368Y-54922830D01*
X72704781Y-54933866D01*
X72722024Y-54946654D01*
X72737930Y-54961070D01*
X72752346Y-54976976D01*
X72765134Y-54994219D01*
X72776170Y-55012632D01*
X72785349Y-55032038D01*
X72792581Y-55052250D01*
X72797797Y-55073074D01*
X72800947Y-55094309D01*
X72802000Y-55115750D01*
X72802000Y-55628250D01*
X72800947Y-55649691D01*
X72797797Y-55670926D01*
X72792581Y-55691750D01*
X72785349Y-55711962D01*
X72776170Y-55731368D01*
X72765134Y-55749781D01*
X72752346Y-55767024D01*
X72737930Y-55782930D01*
X72722024Y-55797346D01*
X72704781Y-55810134D01*
X72686368Y-55821170D01*
X72666962Y-55830349D01*
X72646750Y-55837581D01*
X72625926Y-55842797D01*
X72604691Y-55845947D01*
X72583250Y-55847000D01*
X72145750Y-55847000D01*
X72124309Y-55845947D01*
X72103074Y-55842797D01*
X72082250Y-55837581D01*
X72062038Y-55830349D01*
X72042632Y-55821170D01*
X72024219Y-55810134D01*
X72006976Y-55797346D01*
X71991070Y-55782930D01*
X71976654Y-55767024D01*
X71963866Y-55749781D01*
X71952830Y-55731368D01*
X71943651Y-55711962D01*
X71936419Y-55691750D01*
X71931203Y-55670926D01*
X71928053Y-55649691D01*
X71927000Y-55628250D01*
X71927000Y-55115750D01*
X71928053Y-55094309D01*
X71931203Y-55073074D01*
X71936419Y-55052250D01*
X71943651Y-55032038D01*
X71952830Y-55012632D01*
X71963866Y-54994219D01*
X71976654Y-54976976D01*
X71991070Y-54961070D01*
X72006976Y-54946654D01*
X72024219Y-54933866D01*
X72042632Y-54922830D01*
X72062038Y-54913651D01*
X72082250Y-54906419D01*
X72103074Y-54901203D01*
X72124309Y-54898053D01*
X72145750Y-54897000D01*
X72583250Y-54897000D01*
X72604691Y-54898053D01*
X72604691Y-54898053D01*
G37*
D11*
X72364500Y-55372000D03*
D10*
G36*
X74179691Y-54898053D02*
G01*
X74200926Y-54901203D01*
X74221750Y-54906419D01*
X74241962Y-54913651D01*
X74261368Y-54922830D01*
X74279781Y-54933866D01*
X74297024Y-54946654D01*
X74312930Y-54961070D01*
X74327346Y-54976976D01*
X74340134Y-54994219D01*
X74351170Y-55012632D01*
X74360349Y-55032038D01*
X74367581Y-55052250D01*
X74372797Y-55073074D01*
X74375947Y-55094309D01*
X74377000Y-55115750D01*
X74377000Y-55628250D01*
X74375947Y-55649691D01*
X74372797Y-55670926D01*
X74367581Y-55691750D01*
X74360349Y-55711962D01*
X74351170Y-55731368D01*
X74340134Y-55749781D01*
X74327346Y-55767024D01*
X74312930Y-55782930D01*
X74297024Y-55797346D01*
X74279781Y-55810134D01*
X74261368Y-55821170D01*
X74241962Y-55830349D01*
X74221750Y-55837581D01*
X74200926Y-55842797D01*
X74179691Y-55845947D01*
X74158250Y-55847000D01*
X73720750Y-55847000D01*
X73699309Y-55845947D01*
X73678074Y-55842797D01*
X73657250Y-55837581D01*
X73637038Y-55830349D01*
X73617632Y-55821170D01*
X73599219Y-55810134D01*
X73581976Y-55797346D01*
X73566070Y-55782930D01*
X73551654Y-55767024D01*
X73538866Y-55749781D01*
X73527830Y-55731368D01*
X73518651Y-55711962D01*
X73511419Y-55691750D01*
X73506203Y-55670926D01*
X73503053Y-55649691D01*
X73502000Y-55628250D01*
X73502000Y-55115750D01*
X73503053Y-55094309D01*
X73506203Y-55073074D01*
X73511419Y-55052250D01*
X73518651Y-55032038D01*
X73527830Y-55012632D01*
X73538866Y-54994219D01*
X73551654Y-54976976D01*
X73566070Y-54961070D01*
X73581976Y-54946654D01*
X73599219Y-54933866D01*
X73617632Y-54922830D01*
X73637038Y-54913651D01*
X73657250Y-54906419D01*
X73678074Y-54901203D01*
X73699309Y-54898053D01*
X73720750Y-54897000D01*
X74158250Y-54897000D01*
X74179691Y-54898053D01*
X74179691Y-54898053D01*
G37*
D11*
X73939500Y-55372000D03*
D10*
G36*
X91908691Y-54898053D02*
G01*
X91929926Y-54901203D01*
X91950750Y-54906419D01*
X91970962Y-54913651D01*
X91990368Y-54922830D01*
X92008781Y-54933866D01*
X92026024Y-54946654D01*
X92041930Y-54961070D01*
X92056346Y-54976976D01*
X92069134Y-54994219D01*
X92080170Y-55012632D01*
X92089349Y-55032038D01*
X92096581Y-55052250D01*
X92101797Y-55073074D01*
X92104947Y-55094309D01*
X92106000Y-55115750D01*
X92106000Y-55628250D01*
X92104947Y-55649691D01*
X92101797Y-55670926D01*
X92096581Y-55691750D01*
X92089349Y-55711962D01*
X92080170Y-55731368D01*
X92069134Y-55749781D01*
X92056346Y-55767024D01*
X92041930Y-55782930D01*
X92026024Y-55797346D01*
X92008781Y-55810134D01*
X91990368Y-55821170D01*
X91970962Y-55830349D01*
X91950750Y-55837581D01*
X91929926Y-55842797D01*
X91908691Y-55845947D01*
X91887250Y-55847000D01*
X91449750Y-55847000D01*
X91428309Y-55845947D01*
X91407074Y-55842797D01*
X91386250Y-55837581D01*
X91366038Y-55830349D01*
X91346632Y-55821170D01*
X91328219Y-55810134D01*
X91310976Y-55797346D01*
X91295070Y-55782930D01*
X91280654Y-55767024D01*
X91267866Y-55749781D01*
X91256830Y-55731368D01*
X91247651Y-55711962D01*
X91240419Y-55691750D01*
X91235203Y-55670926D01*
X91232053Y-55649691D01*
X91231000Y-55628250D01*
X91231000Y-55115750D01*
X91232053Y-55094309D01*
X91235203Y-55073074D01*
X91240419Y-55052250D01*
X91247651Y-55032038D01*
X91256830Y-55012632D01*
X91267866Y-54994219D01*
X91280654Y-54976976D01*
X91295070Y-54961070D01*
X91310976Y-54946654D01*
X91328219Y-54933866D01*
X91346632Y-54922830D01*
X91366038Y-54913651D01*
X91386250Y-54906419D01*
X91407074Y-54901203D01*
X91428309Y-54898053D01*
X91449750Y-54897000D01*
X91887250Y-54897000D01*
X91908691Y-54898053D01*
X91908691Y-54898053D01*
G37*
D11*
X91668500Y-55372000D03*
D10*
G36*
X93483691Y-54898053D02*
G01*
X93504926Y-54901203D01*
X93525750Y-54906419D01*
X93545962Y-54913651D01*
X93565368Y-54922830D01*
X93583781Y-54933866D01*
X93601024Y-54946654D01*
X93616930Y-54961070D01*
X93631346Y-54976976D01*
X93644134Y-54994219D01*
X93655170Y-55012632D01*
X93664349Y-55032038D01*
X93671581Y-55052250D01*
X93676797Y-55073074D01*
X93679947Y-55094309D01*
X93681000Y-55115750D01*
X93681000Y-55628250D01*
X93679947Y-55649691D01*
X93676797Y-55670926D01*
X93671581Y-55691750D01*
X93664349Y-55711962D01*
X93655170Y-55731368D01*
X93644134Y-55749781D01*
X93631346Y-55767024D01*
X93616930Y-55782930D01*
X93601024Y-55797346D01*
X93583781Y-55810134D01*
X93565368Y-55821170D01*
X93545962Y-55830349D01*
X93525750Y-55837581D01*
X93504926Y-55842797D01*
X93483691Y-55845947D01*
X93462250Y-55847000D01*
X93024750Y-55847000D01*
X93003309Y-55845947D01*
X92982074Y-55842797D01*
X92961250Y-55837581D01*
X92941038Y-55830349D01*
X92921632Y-55821170D01*
X92903219Y-55810134D01*
X92885976Y-55797346D01*
X92870070Y-55782930D01*
X92855654Y-55767024D01*
X92842866Y-55749781D01*
X92831830Y-55731368D01*
X92822651Y-55711962D01*
X92815419Y-55691750D01*
X92810203Y-55670926D01*
X92807053Y-55649691D01*
X92806000Y-55628250D01*
X92806000Y-55115750D01*
X92807053Y-55094309D01*
X92810203Y-55073074D01*
X92815419Y-55052250D01*
X92822651Y-55032038D01*
X92831830Y-55012632D01*
X92842866Y-54994219D01*
X92855654Y-54976976D01*
X92870070Y-54961070D01*
X92885976Y-54946654D01*
X92903219Y-54933866D01*
X92921632Y-54922830D01*
X92941038Y-54913651D01*
X92961250Y-54906419D01*
X92982074Y-54901203D01*
X93003309Y-54898053D01*
X93024750Y-54897000D01*
X93462250Y-54897000D01*
X93483691Y-54898053D01*
X93483691Y-54898053D01*
G37*
D11*
X93243500Y-55372000D03*
D10*
G36*
X111212691Y-54898053D02*
G01*
X111233926Y-54901203D01*
X111254750Y-54906419D01*
X111274962Y-54913651D01*
X111294368Y-54922830D01*
X111312781Y-54933866D01*
X111330024Y-54946654D01*
X111345930Y-54961070D01*
X111360346Y-54976976D01*
X111373134Y-54994219D01*
X111384170Y-55012632D01*
X111393349Y-55032038D01*
X111400581Y-55052250D01*
X111405797Y-55073074D01*
X111408947Y-55094309D01*
X111410000Y-55115750D01*
X111410000Y-55628250D01*
X111408947Y-55649691D01*
X111405797Y-55670926D01*
X111400581Y-55691750D01*
X111393349Y-55711962D01*
X111384170Y-55731368D01*
X111373134Y-55749781D01*
X111360346Y-55767024D01*
X111345930Y-55782930D01*
X111330024Y-55797346D01*
X111312781Y-55810134D01*
X111294368Y-55821170D01*
X111274962Y-55830349D01*
X111254750Y-55837581D01*
X111233926Y-55842797D01*
X111212691Y-55845947D01*
X111191250Y-55847000D01*
X110753750Y-55847000D01*
X110732309Y-55845947D01*
X110711074Y-55842797D01*
X110690250Y-55837581D01*
X110670038Y-55830349D01*
X110650632Y-55821170D01*
X110632219Y-55810134D01*
X110614976Y-55797346D01*
X110599070Y-55782930D01*
X110584654Y-55767024D01*
X110571866Y-55749781D01*
X110560830Y-55731368D01*
X110551651Y-55711962D01*
X110544419Y-55691750D01*
X110539203Y-55670926D01*
X110536053Y-55649691D01*
X110535000Y-55628250D01*
X110535000Y-55115750D01*
X110536053Y-55094309D01*
X110539203Y-55073074D01*
X110544419Y-55052250D01*
X110551651Y-55032038D01*
X110560830Y-55012632D01*
X110571866Y-54994219D01*
X110584654Y-54976976D01*
X110599070Y-54961070D01*
X110614976Y-54946654D01*
X110632219Y-54933866D01*
X110650632Y-54922830D01*
X110670038Y-54913651D01*
X110690250Y-54906419D01*
X110711074Y-54901203D01*
X110732309Y-54898053D01*
X110753750Y-54897000D01*
X111191250Y-54897000D01*
X111212691Y-54898053D01*
X111212691Y-54898053D01*
G37*
D11*
X110972500Y-55372000D03*
D10*
G36*
X112787691Y-54898053D02*
G01*
X112808926Y-54901203D01*
X112829750Y-54906419D01*
X112849962Y-54913651D01*
X112869368Y-54922830D01*
X112887781Y-54933866D01*
X112905024Y-54946654D01*
X112920930Y-54961070D01*
X112935346Y-54976976D01*
X112948134Y-54994219D01*
X112959170Y-55012632D01*
X112968349Y-55032038D01*
X112975581Y-55052250D01*
X112980797Y-55073074D01*
X112983947Y-55094309D01*
X112985000Y-55115750D01*
X112985000Y-55628250D01*
X112983947Y-55649691D01*
X112980797Y-55670926D01*
X112975581Y-55691750D01*
X112968349Y-55711962D01*
X112959170Y-55731368D01*
X112948134Y-55749781D01*
X112935346Y-55767024D01*
X112920930Y-55782930D01*
X112905024Y-55797346D01*
X112887781Y-55810134D01*
X112869368Y-55821170D01*
X112849962Y-55830349D01*
X112829750Y-55837581D01*
X112808926Y-55842797D01*
X112787691Y-55845947D01*
X112766250Y-55847000D01*
X112328750Y-55847000D01*
X112307309Y-55845947D01*
X112286074Y-55842797D01*
X112265250Y-55837581D01*
X112245038Y-55830349D01*
X112225632Y-55821170D01*
X112207219Y-55810134D01*
X112189976Y-55797346D01*
X112174070Y-55782930D01*
X112159654Y-55767024D01*
X112146866Y-55749781D01*
X112135830Y-55731368D01*
X112126651Y-55711962D01*
X112119419Y-55691750D01*
X112114203Y-55670926D01*
X112111053Y-55649691D01*
X112110000Y-55628250D01*
X112110000Y-55115750D01*
X112111053Y-55094309D01*
X112114203Y-55073074D01*
X112119419Y-55052250D01*
X112126651Y-55032038D01*
X112135830Y-55012632D01*
X112146866Y-54994219D01*
X112159654Y-54976976D01*
X112174070Y-54961070D01*
X112189976Y-54946654D01*
X112207219Y-54933866D01*
X112225632Y-54922830D01*
X112245038Y-54913651D01*
X112265250Y-54906419D01*
X112286074Y-54901203D01*
X112307309Y-54898053D01*
X112328750Y-54897000D01*
X112766250Y-54897000D01*
X112787691Y-54898053D01*
X112787691Y-54898053D01*
G37*
D11*
X112547500Y-55372000D03*
D10*
G36*
X130516691Y-54898053D02*
G01*
X130537926Y-54901203D01*
X130558750Y-54906419D01*
X130578962Y-54913651D01*
X130598368Y-54922830D01*
X130616781Y-54933866D01*
X130634024Y-54946654D01*
X130649930Y-54961070D01*
X130664346Y-54976976D01*
X130677134Y-54994219D01*
X130688170Y-55012632D01*
X130697349Y-55032038D01*
X130704581Y-55052250D01*
X130709797Y-55073074D01*
X130712947Y-55094309D01*
X130714000Y-55115750D01*
X130714000Y-55628250D01*
X130712947Y-55649691D01*
X130709797Y-55670926D01*
X130704581Y-55691750D01*
X130697349Y-55711962D01*
X130688170Y-55731368D01*
X130677134Y-55749781D01*
X130664346Y-55767024D01*
X130649930Y-55782930D01*
X130634024Y-55797346D01*
X130616781Y-55810134D01*
X130598368Y-55821170D01*
X130578962Y-55830349D01*
X130558750Y-55837581D01*
X130537926Y-55842797D01*
X130516691Y-55845947D01*
X130495250Y-55847000D01*
X130057750Y-55847000D01*
X130036309Y-55845947D01*
X130015074Y-55842797D01*
X129994250Y-55837581D01*
X129974038Y-55830349D01*
X129954632Y-55821170D01*
X129936219Y-55810134D01*
X129918976Y-55797346D01*
X129903070Y-55782930D01*
X129888654Y-55767024D01*
X129875866Y-55749781D01*
X129864830Y-55731368D01*
X129855651Y-55711962D01*
X129848419Y-55691750D01*
X129843203Y-55670926D01*
X129840053Y-55649691D01*
X129839000Y-55628250D01*
X129839000Y-55115750D01*
X129840053Y-55094309D01*
X129843203Y-55073074D01*
X129848419Y-55052250D01*
X129855651Y-55032038D01*
X129864830Y-55012632D01*
X129875866Y-54994219D01*
X129888654Y-54976976D01*
X129903070Y-54961070D01*
X129918976Y-54946654D01*
X129936219Y-54933866D01*
X129954632Y-54922830D01*
X129974038Y-54913651D01*
X129994250Y-54906419D01*
X130015074Y-54901203D01*
X130036309Y-54898053D01*
X130057750Y-54897000D01*
X130495250Y-54897000D01*
X130516691Y-54898053D01*
X130516691Y-54898053D01*
G37*
D11*
X130276500Y-55372000D03*
D10*
G36*
X132091691Y-54898053D02*
G01*
X132112926Y-54901203D01*
X132133750Y-54906419D01*
X132153962Y-54913651D01*
X132173368Y-54922830D01*
X132191781Y-54933866D01*
X132209024Y-54946654D01*
X132224930Y-54961070D01*
X132239346Y-54976976D01*
X132252134Y-54994219D01*
X132263170Y-55012632D01*
X132272349Y-55032038D01*
X132279581Y-55052250D01*
X132284797Y-55073074D01*
X132287947Y-55094309D01*
X132289000Y-55115750D01*
X132289000Y-55628250D01*
X132287947Y-55649691D01*
X132284797Y-55670926D01*
X132279581Y-55691750D01*
X132272349Y-55711962D01*
X132263170Y-55731368D01*
X132252134Y-55749781D01*
X132239346Y-55767024D01*
X132224930Y-55782930D01*
X132209024Y-55797346D01*
X132191781Y-55810134D01*
X132173368Y-55821170D01*
X132153962Y-55830349D01*
X132133750Y-55837581D01*
X132112926Y-55842797D01*
X132091691Y-55845947D01*
X132070250Y-55847000D01*
X131632750Y-55847000D01*
X131611309Y-55845947D01*
X131590074Y-55842797D01*
X131569250Y-55837581D01*
X131549038Y-55830349D01*
X131529632Y-55821170D01*
X131511219Y-55810134D01*
X131493976Y-55797346D01*
X131478070Y-55782930D01*
X131463654Y-55767024D01*
X131450866Y-55749781D01*
X131439830Y-55731368D01*
X131430651Y-55711962D01*
X131423419Y-55691750D01*
X131418203Y-55670926D01*
X131415053Y-55649691D01*
X131414000Y-55628250D01*
X131414000Y-55115750D01*
X131415053Y-55094309D01*
X131418203Y-55073074D01*
X131423419Y-55052250D01*
X131430651Y-55032038D01*
X131439830Y-55012632D01*
X131450866Y-54994219D01*
X131463654Y-54976976D01*
X131478070Y-54961070D01*
X131493976Y-54946654D01*
X131511219Y-54933866D01*
X131529632Y-54922830D01*
X131549038Y-54913651D01*
X131569250Y-54906419D01*
X131590074Y-54901203D01*
X131611309Y-54898053D01*
X131632750Y-54897000D01*
X132070250Y-54897000D01*
X132091691Y-54898053D01*
X132091691Y-54898053D01*
G37*
D11*
X131851500Y-55372000D03*
D10*
G36*
X151395691Y-54898053D02*
G01*
X151416926Y-54901203D01*
X151437750Y-54906419D01*
X151457962Y-54913651D01*
X151477368Y-54922830D01*
X151495781Y-54933866D01*
X151513024Y-54946654D01*
X151528930Y-54961070D01*
X151543346Y-54976976D01*
X151556134Y-54994219D01*
X151567170Y-55012632D01*
X151576349Y-55032038D01*
X151583581Y-55052250D01*
X151588797Y-55073074D01*
X151591947Y-55094309D01*
X151593000Y-55115750D01*
X151593000Y-55628250D01*
X151591947Y-55649691D01*
X151588797Y-55670926D01*
X151583581Y-55691750D01*
X151576349Y-55711962D01*
X151567170Y-55731368D01*
X151556134Y-55749781D01*
X151543346Y-55767024D01*
X151528930Y-55782930D01*
X151513024Y-55797346D01*
X151495781Y-55810134D01*
X151477368Y-55821170D01*
X151457962Y-55830349D01*
X151437750Y-55837581D01*
X151416926Y-55842797D01*
X151395691Y-55845947D01*
X151374250Y-55847000D01*
X150936750Y-55847000D01*
X150915309Y-55845947D01*
X150894074Y-55842797D01*
X150873250Y-55837581D01*
X150853038Y-55830349D01*
X150833632Y-55821170D01*
X150815219Y-55810134D01*
X150797976Y-55797346D01*
X150782070Y-55782930D01*
X150767654Y-55767024D01*
X150754866Y-55749781D01*
X150743830Y-55731368D01*
X150734651Y-55711962D01*
X150727419Y-55691750D01*
X150722203Y-55670926D01*
X150719053Y-55649691D01*
X150718000Y-55628250D01*
X150718000Y-55115750D01*
X150719053Y-55094309D01*
X150722203Y-55073074D01*
X150727419Y-55052250D01*
X150734651Y-55032038D01*
X150743830Y-55012632D01*
X150754866Y-54994219D01*
X150767654Y-54976976D01*
X150782070Y-54961070D01*
X150797976Y-54946654D01*
X150815219Y-54933866D01*
X150833632Y-54922830D01*
X150853038Y-54913651D01*
X150873250Y-54906419D01*
X150894074Y-54901203D01*
X150915309Y-54898053D01*
X150936750Y-54897000D01*
X151374250Y-54897000D01*
X151395691Y-54898053D01*
X151395691Y-54898053D01*
G37*
D11*
X151155500Y-55372000D03*
D10*
G36*
X149820691Y-54898053D02*
G01*
X149841926Y-54901203D01*
X149862750Y-54906419D01*
X149882962Y-54913651D01*
X149902368Y-54922830D01*
X149920781Y-54933866D01*
X149938024Y-54946654D01*
X149953930Y-54961070D01*
X149968346Y-54976976D01*
X149981134Y-54994219D01*
X149992170Y-55012632D01*
X150001349Y-55032038D01*
X150008581Y-55052250D01*
X150013797Y-55073074D01*
X150016947Y-55094309D01*
X150018000Y-55115750D01*
X150018000Y-55628250D01*
X150016947Y-55649691D01*
X150013797Y-55670926D01*
X150008581Y-55691750D01*
X150001349Y-55711962D01*
X149992170Y-55731368D01*
X149981134Y-55749781D01*
X149968346Y-55767024D01*
X149953930Y-55782930D01*
X149938024Y-55797346D01*
X149920781Y-55810134D01*
X149902368Y-55821170D01*
X149882962Y-55830349D01*
X149862750Y-55837581D01*
X149841926Y-55842797D01*
X149820691Y-55845947D01*
X149799250Y-55847000D01*
X149361750Y-55847000D01*
X149340309Y-55845947D01*
X149319074Y-55842797D01*
X149298250Y-55837581D01*
X149278038Y-55830349D01*
X149258632Y-55821170D01*
X149240219Y-55810134D01*
X149222976Y-55797346D01*
X149207070Y-55782930D01*
X149192654Y-55767024D01*
X149179866Y-55749781D01*
X149168830Y-55731368D01*
X149159651Y-55711962D01*
X149152419Y-55691750D01*
X149147203Y-55670926D01*
X149144053Y-55649691D01*
X149143000Y-55628250D01*
X149143000Y-55115750D01*
X149144053Y-55094309D01*
X149147203Y-55073074D01*
X149152419Y-55052250D01*
X149159651Y-55032038D01*
X149168830Y-55012632D01*
X149179866Y-54994219D01*
X149192654Y-54976976D01*
X149207070Y-54961070D01*
X149222976Y-54946654D01*
X149240219Y-54933866D01*
X149258632Y-54922830D01*
X149278038Y-54913651D01*
X149298250Y-54906419D01*
X149319074Y-54901203D01*
X149340309Y-54898053D01*
X149361750Y-54897000D01*
X149799250Y-54897000D01*
X149820691Y-54898053D01*
X149820691Y-54898053D01*
G37*
D11*
X149580500Y-55372000D03*
D10*
G36*
X170699691Y-54898053D02*
G01*
X170720926Y-54901203D01*
X170741750Y-54906419D01*
X170761962Y-54913651D01*
X170781368Y-54922830D01*
X170799781Y-54933866D01*
X170817024Y-54946654D01*
X170832930Y-54961070D01*
X170847346Y-54976976D01*
X170860134Y-54994219D01*
X170871170Y-55012632D01*
X170880349Y-55032038D01*
X170887581Y-55052250D01*
X170892797Y-55073074D01*
X170895947Y-55094309D01*
X170897000Y-55115750D01*
X170897000Y-55628250D01*
X170895947Y-55649691D01*
X170892797Y-55670926D01*
X170887581Y-55691750D01*
X170880349Y-55711962D01*
X170871170Y-55731368D01*
X170860134Y-55749781D01*
X170847346Y-55767024D01*
X170832930Y-55782930D01*
X170817024Y-55797346D01*
X170799781Y-55810134D01*
X170781368Y-55821170D01*
X170761962Y-55830349D01*
X170741750Y-55837581D01*
X170720926Y-55842797D01*
X170699691Y-55845947D01*
X170678250Y-55847000D01*
X170240750Y-55847000D01*
X170219309Y-55845947D01*
X170198074Y-55842797D01*
X170177250Y-55837581D01*
X170157038Y-55830349D01*
X170137632Y-55821170D01*
X170119219Y-55810134D01*
X170101976Y-55797346D01*
X170086070Y-55782930D01*
X170071654Y-55767024D01*
X170058866Y-55749781D01*
X170047830Y-55731368D01*
X170038651Y-55711962D01*
X170031419Y-55691750D01*
X170026203Y-55670926D01*
X170023053Y-55649691D01*
X170022000Y-55628250D01*
X170022000Y-55115750D01*
X170023053Y-55094309D01*
X170026203Y-55073074D01*
X170031419Y-55052250D01*
X170038651Y-55032038D01*
X170047830Y-55012632D01*
X170058866Y-54994219D01*
X170071654Y-54976976D01*
X170086070Y-54961070D01*
X170101976Y-54946654D01*
X170119219Y-54933866D01*
X170137632Y-54922830D01*
X170157038Y-54913651D01*
X170177250Y-54906419D01*
X170198074Y-54901203D01*
X170219309Y-54898053D01*
X170240750Y-54897000D01*
X170678250Y-54897000D01*
X170699691Y-54898053D01*
X170699691Y-54898053D01*
G37*
D11*
X170459500Y-55372000D03*
D10*
G36*
X169124691Y-54898053D02*
G01*
X169145926Y-54901203D01*
X169166750Y-54906419D01*
X169186962Y-54913651D01*
X169206368Y-54922830D01*
X169224781Y-54933866D01*
X169242024Y-54946654D01*
X169257930Y-54961070D01*
X169272346Y-54976976D01*
X169285134Y-54994219D01*
X169296170Y-55012632D01*
X169305349Y-55032038D01*
X169312581Y-55052250D01*
X169317797Y-55073074D01*
X169320947Y-55094309D01*
X169322000Y-55115750D01*
X169322000Y-55628250D01*
X169320947Y-55649691D01*
X169317797Y-55670926D01*
X169312581Y-55691750D01*
X169305349Y-55711962D01*
X169296170Y-55731368D01*
X169285134Y-55749781D01*
X169272346Y-55767024D01*
X169257930Y-55782930D01*
X169242024Y-55797346D01*
X169224781Y-55810134D01*
X169206368Y-55821170D01*
X169186962Y-55830349D01*
X169166750Y-55837581D01*
X169145926Y-55842797D01*
X169124691Y-55845947D01*
X169103250Y-55847000D01*
X168665750Y-55847000D01*
X168644309Y-55845947D01*
X168623074Y-55842797D01*
X168602250Y-55837581D01*
X168582038Y-55830349D01*
X168562632Y-55821170D01*
X168544219Y-55810134D01*
X168526976Y-55797346D01*
X168511070Y-55782930D01*
X168496654Y-55767024D01*
X168483866Y-55749781D01*
X168472830Y-55731368D01*
X168463651Y-55711962D01*
X168456419Y-55691750D01*
X168451203Y-55670926D01*
X168448053Y-55649691D01*
X168447000Y-55628250D01*
X168447000Y-55115750D01*
X168448053Y-55094309D01*
X168451203Y-55073074D01*
X168456419Y-55052250D01*
X168463651Y-55032038D01*
X168472830Y-55012632D01*
X168483866Y-54994219D01*
X168496654Y-54976976D01*
X168511070Y-54961070D01*
X168526976Y-54946654D01*
X168544219Y-54933866D01*
X168562632Y-54922830D01*
X168582038Y-54913651D01*
X168602250Y-54906419D01*
X168623074Y-54901203D01*
X168644309Y-54898053D01*
X168665750Y-54897000D01*
X169103250Y-54897000D01*
X169124691Y-54898053D01*
X169124691Y-54898053D01*
G37*
D11*
X168884500Y-55372000D03*
D10*
G36*
X74179691Y-74202053D02*
G01*
X74200926Y-74205203D01*
X74221750Y-74210419D01*
X74241962Y-74217651D01*
X74261368Y-74226830D01*
X74279781Y-74237866D01*
X74297024Y-74250654D01*
X74312930Y-74265070D01*
X74327346Y-74280976D01*
X74340134Y-74298219D01*
X74351170Y-74316632D01*
X74360349Y-74336038D01*
X74367581Y-74356250D01*
X74372797Y-74377074D01*
X74375947Y-74398309D01*
X74377000Y-74419750D01*
X74377000Y-74932250D01*
X74375947Y-74953691D01*
X74372797Y-74974926D01*
X74367581Y-74995750D01*
X74360349Y-75015962D01*
X74351170Y-75035368D01*
X74340134Y-75053781D01*
X74327346Y-75071024D01*
X74312930Y-75086930D01*
X74297024Y-75101346D01*
X74279781Y-75114134D01*
X74261368Y-75125170D01*
X74241962Y-75134349D01*
X74221750Y-75141581D01*
X74200926Y-75146797D01*
X74179691Y-75149947D01*
X74158250Y-75151000D01*
X73720750Y-75151000D01*
X73699309Y-75149947D01*
X73678074Y-75146797D01*
X73657250Y-75141581D01*
X73637038Y-75134349D01*
X73617632Y-75125170D01*
X73599219Y-75114134D01*
X73581976Y-75101346D01*
X73566070Y-75086930D01*
X73551654Y-75071024D01*
X73538866Y-75053781D01*
X73527830Y-75035368D01*
X73518651Y-75015962D01*
X73511419Y-74995750D01*
X73506203Y-74974926D01*
X73503053Y-74953691D01*
X73502000Y-74932250D01*
X73502000Y-74419750D01*
X73503053Y-74398309D01*
X73506203Y-74377074D01*
X73511419Y-74356250D01*
X73518651Y-74336038D01*
X73527830Y-74316632D01*
X73538866Y-74298219D01*
X73551654Y-74280976D01*
X73566070Y-74265070D01*
X73581976Y-74250654D01*
X73599219Y-74237866D01*
X73617632Y-74226830D01*
X73637038Y-74217651D01*
X73657250Y-74210419D01*
X73678074Y-74205203D01*
X73699309Y-74202053D01*
X73720750Y-74201000D01*
X74158250Y-74201000D01*
X74179691Y-74202053D01*
X74179691Y-74202053D01*
G37*
D11*
X73939500Y-74676000D03*
D10*
G36*
X72604691Y-74202053D02*
G01*
X72625926Y-74205203D01*
X72646750Y-74210419D01*
X72666962Y-74217651D01*
X72686368Y-74226830D01*
X72704781Y-74237866D01*
X72722024Y-74250654D01*
X72737930Y-74265070D01*
X72752346Y-74280976D01*
X72765134Y-74298219D01*
X72776170Y-74316632D01*
X72785349Y-74336038D01*
X72792581Y-74356250D01*
X72797797Y-74377074D01*
X72800947Y-74398309D01*
X72802000Y-74419750D01*
X72802000Y-74932250D01*
X72800947Y-74953691D01*
X72797797Y-74974926D01*
X72792581Y-74995750D01*
X72785349Y-75015962D01*
X72776170Y-75035368D01*
X72765134Y-75053781D01*
X72752346Y-75071024D01*
X72737930Y-75086930D01*
X72722024Y-75101346D01*
X72704781Y-75114134D01*
X72686368Y-75125170D01*
X72666962Y-75134349D01*
X72646750Y-75141581D01*
X72625926Y-75146797D01*
X72604691Y-75149947D01*
X72583250Y-75151000D01*
X72145750Y-75151000D01*
X72124309Y-75149947D01*
X72103074Y-75146797D01*
X72082250Y-75141581D01*
X72062038Y-75134349D01*
X72042632Y-75125170D01*
X72024219Y-75114134D01*
X72006976Y-75101346D01*
X71991070Y-75086930D01*
X71976654Y-75071024D01*
X71963866Y-75053781D01*
X71952830Y-75035368D01*
X71943651Y-75015962D01*
X71936419Y-74995750D01*
X71931203Y-74974926D01*
X71928053Y-74953691D01*
X71927000Y-74932250D01*
X71927000Y-74419750D01*
X71928053Y-74398309D01*
X71931203Y-74377074D01*
X71936419Y-74356250D01*
X71943651Y-74336038D01*
X71952830Y-74316632D01*
X71963866Y-74298219D01*
X71976654Y-74280976D01*
X71991070Y-74265070D01*
X72006976Y-74250654D01*
X72024219Y-74237866D01*
X72042632Y-74226830D01*
X72062038Y-74217651D01*
X72082250Y-74210419D01*
X72103074Y-74205203D01*
X72124309Y-74202053D01*
X72145750Y-74201000D01*
X72583250Y-74201000D01*
X72604691Y-74202053D01*
X72604691Y-74202053D01*
G37*
D11*
X72364500Y-74676000D03*
D10*
G36*
X91908691Y-74202053D02*
G01*
X91929926Y-74205203D01*
X91950750Y-74210419D01*
X91970962Y-74217651D01*
X91990368Y-74226830D01*
X92008781Y-74237866D01*
X92026024Y-74250654D01*
X92041930Y-74265070D01*
X92056346Y-74280976D01*
X92069134Y-74298219D01*
X92080170Y-74316632D01*
X92089349Y-74336038D01*
X92096581Y-74356250D01*
X92101797Y-74377074D01*
X92104947Y-74398309D01*
X92106000Y-74419750D01*
X92106000Y-74932250D01*
X92104947Y-74953691D01*
X92101797Y-74974926D01*
X92096581Y-74995750D01*
X92089349Y-75015962D01*
X92080170Y-75035368D01*
X92069134Y-75053781D01*
X92056346Y-75071024D01*
X92041930Y-75086930D01*
X92026024Y-75101346D01*
X92008781Y-75114134D01*
X91990368Y-75125170D01*
X91970962Y-75134349D01*
X91950750Y-75141581D01*
X91929926Y-75146797D01*
X91908691Y-75149947D01*
X91887250Y-75151000D01*
X91449750Y-75151000D01*
X91428309Y-75149947D01*
X91407074Y-75146797D01*
X91386250Y-75141581D01*
X91366038Y-75134349D01*
X91346632Y-75125170D01*
X91328219Y-75114134D01*
X91310976Y-75101346D01*
X91295070Y-75086930D01*
X91280654Y-75071024D01*
X91267866Y-75053781D01*
X91256830Y-75035368D01*
X91247651Y-75015962D01*
X91240419Y-74995750D01*
X91235203Y-74974926D01*
X91232053Y-74953691D01*
X91231000Y-74932250D01*
X91231000Y-74419750D01*
X91232053Y-74398309D01*
X91235203Y-74377074D01*
X91240419Y-74356250D01*
X91247651Y-74336038D01*
X91256830Y-74316632D01*
X91267866Y-74298219D01*
X91280654Y-74280976D01*
X91295070Y-74265070D01*
X91310976Y-74250654D01*
X91328219Y-74237866D01*
X91346632Y-74226830D01*
X91366038Y-74217651D01*
X91386250Y-74210419D01*
X91407074Y-74205203D01*
X91428309Y-74202053D01*
X91449750Y-74201000D01*
X91887250Y-74201000D01*
X91908691Y-74202053D01*
X91908691Y-74202053D01*
G37*
D11*
X91668500Y-74676000D03*
D10*
G36*
X93483691Y-74202053D02*
G01*
X93504926Y-74205203D01*
X93525750Y-74210419D01*
X93545962Y-74217651D01*
X93565368Y-74226830D01*
X93583781Y-74237866D01*
X93601024Y-74250654D01*
X93616930Y-74265070D01*
X93631346Y-74280976D01*
X93644134Y-74298219D01*
X93655170Y-74316632D01*
X93664349Y-74336038D01*
X93671581Y-74356250D01*
X93676797Y-74377074D01*
X93679947Y-74398309D01*
X93681000Y-74419750D01*
X93681000Y-74932250D01*
X93679947Y-74953691D01*
X93676797Y-74974926D01*
X93671581Y-74995750D01*
X93664349Y-75015962D01*
X93655170Y-75035368D01*
X93644134Y-75053781D01*
X93631346Y-75071024D01*
X93616930Y-75086930D01*
X93601024Y-75101346D01*
X93583781Y-75114134D01*
X93565368Y-75125170D01*
X93545962Y-75134349D01*
X93525750Y-75141581D01*
X93504926Y-75146797D01*
X93483691Y-75149947D01*
X93462250Y-75151000D01*
X93024750Y-75151000D01*
X93003309Y-75149947D01*
X92982074Y-75146797D01*
X92961250Y-75141581D01*
X92941038Y-75134349D01*
X92921632Y-75125170D01*
X92903219Y-75114134D01*
X92885976Y-75101346D01*
X92870070Y-75086930D01*
X92855654Y-75071024D01*
X92842866Y-75053781D01*
X92831830Y-75035368D01*
X92822651Y-75015962D01*
X92815419Y-74995750D01*
X92810203Y-74974926D01*
X92807053Y-74953691D01*
X92806000Y-74932250D01*
X92806000Y-74419750D01*
X92807053Y-74398309D01*
X92810203Y-74377074D01*
X92815419Y-74356250D01*
X92822651Y-74336038D01*
X92831830Y-74316632D01*
X92842866Y-74298219D01*
X92855654Y-74280976D01*
X92870070Y-74265070D01*
X92885976Y-74250654D01*
X92903219Y-74237866D01*
X92921632Y-74226830D01*
X92941038Y-74217651D01*
X92961250Y-74210419D01*
X92982074Y-74205203D01*
X93003309Y-74202053D01*
X93024750Y-74201000D01*
X93462250Y-74201000D01*
X93483691Y-74202053D01*
X93483691Y-74202053D01*
G37*
D11*
X93243500Y-74676000D03*
D10*
G36*
X111212691Y-74202053D02*
G01*
X111233926Y-74205203D01*
X111254750Y-74210419D01*
X111274962Y-74217651D01*
X111294368Y-74226830D01*
X111312781Y-74237866D01*
X111330024Y-74250654D01*
X111345930Y-74265070D01*
X111360346Y-74280976D01*
X111373134Y-74298219D01*
X111384170Y-74316632D01*
X111393349Y-74336038D01*
X111400581Y-74356250D01*
X111405797Y-74377074D01*
X111408947Y-74398309D01*
X111410000Y-74419750D01*
X111410000Y-74932250D01*
X111408947Y-74953691D01*
X111405797Y-74974926D01*
X111400581Y-74995750D01*
X111393349Y-75015962D01*
X111384170Y-75035368D01*
X111373134Y-75053781D01*
X111360346Y-75071024D01*
X111345930Y-75086930D01*
X111330024Y-75101346D01*
X111312781Y-75114134D01*
X111294368Y-75125170D01*
X111274962Y-75134349D01*
X111254750Y-75141581D01*
X111233926Y-75146797D01*
X111212691Y-75149947D01*
X111191250Y-75151000D01*
X110753750Y-75151000D01*
X110732309Y-75149947D01*
X110711074Y-75146797D01*
X110690250Y-75141581D01*
X110670038Y-75134349D01*
X110650632Y-75125170D01*
X110632219Y-75114134D01*
X110614976Y-75101346D01*
X110599070Y-75086930D01*
X110584654Y-75071024D01*
X110571866Y-75053781D01*
X110560830Y-75035368D01*
X110551651Y-75015962D01*
X110544419Y-74995750D01*
X110539203Y-74974926D01*
X110536053Y-74953691D01*
X110535000Y-74932250D01*
X110535000Y-74419750D01*
X110536053Y-74398309D01*
X110539203Y-74377074D01*
X110544419Y-74356250D01*
X110551651Y-74336038D01*
X110560830Y-74316632D01*
X110571866Y-74298219D01*
X110584654Y-74280976D01*
X110599070Y-74265070D01*
X110614976Y-74250654D01*
X110632219Y-74237866D01*
X110650632Y-74226830D01*
X110670038Y-74217651D01*
X110690250Y-74210419D01*
X110711074Y-74205203D01*
X110732309Y-74202053D01*
X110753750Y-74201000D01*
X111191250Y-74201000D01*
X111212691Y-74202053D01*
X111212691Y-74202053D01*
G37*
D11*
X110972500Y-74676000D03*
D10*
G36*
X112787691Y-74202053D02*
G01*
X112808926Y-74205203D01*
X112829750Y-74210419D01*
X112849962Y-74217651D01*
X112869368Y-74226830D01*
X112887781Y-74237866D01*
X112905024Y-74250654D01*
X112920930Y-74265070D01*
X112935346Y-74280976D01*
X112948134Y-74298219D01*
X112959170Y-74316632D01*
X112968349Y-74336038D01*
X112975581Y-74356250D01*
X112980797Y-74377074D01*
X112983947Y-74398309D01*
X112985000Y-74419750D01*
X112985000Y-74932250D01*
X112983947Y-74953691D01*
X112980797Y-74974926D01*
X112975581Y-74995750D01*
X112968349Y-75015962D01*
X112959170Y-75035368D01*
X112948134Y-75053781D01*
X112935346Y-75071024D01*
X112920930Y-75086930D01*
X112905024Y-75101346D01*
X112887781Y-75114134D01*
X112869368Y-75125170D01*
X112849962Y-75134349D01*
X112829750Y-75141581D01*
X112808926Y-75146797D01*
X112787691Y-75149947D01*
X112766250Y-75151000D01*
X112328750Y-75151000D01*
X112307309Y-75149947D01*
X112286074Y-75146797D01*
X112265250Y-75141581D01*
X112245038Y-75134349D01*
X112225632Y-75125170D01*
X112207219Y-75114134D01*
X112189976Y-75101346D01*
X112174070Y-75086930D01*
X112159654Y-75071024D01*
X112146866Y-75053781D01*
X112135830Y-75035368D01*
X112126651Y-75015962D01*
X112119419Y-74995750D01*
X112114203Y-74974926D01*
X112111053Y-74953691D01*
X112110000Y-74932250D01*
X112110000Y-74419750D01*
X112111053Y-74398309D01*
X112114203Y-74377074D01*
X112119419Y-74356250D01*
X112126651Y-74336038D01*
X112135830Y-74316632D01*
X112146866Y-74298219D01*
X112159654Y-74280976D01*
X112174070Y-74265070D01*
X112189976Y-74250654D01*
X112207219Y-74237866D01*
X112225632Y-74226830D01*
X112245038Y-74217651D01*
X112265250Y-74210419D01*
X112286074Y-74205203D01*
X112307309Y-74202053D01*
X112328750Y-74201000D01*
X112766250Y-74201000D01*
X112787691Y-74202053D01*
X112787691Y-74202053D01*
G37*
D11*
X112547500Y-74676000D03*
D10*
G36*
X130516691Y-74202053D02*
G01*
X130537926Y-74205203D01*
X130558750Y-74210419D01*
X130578962Y-74217651D01*
X130598368Y-74226830D01*
X130616781Y-74237866D01*
X130634024Y-74250654D01*
X130649930Y-74265070D01*
X130664346Y-74280976D01*
X130677134Y-74298219D01*
X130688170Y-74316632D01*
X130697349Y-74336038D01*
X130704581Y-74356250D01*
X130709797Y-74377074D01*
X130712947Y-74398309D01*
X130714000Y-74419750D01*
X130714000Y-74932250D01*
X130712947Y-74953691D01*
X130709797Y-74974926D01*
X130704581Y-74995750D01*
X130697349Y-75015962D01*
X130688170Y-75035368D01*
X130677134Y-75053781D01*
X130664346Y-75071024D01*
X130649930Y-75086930D01*
X130634024Y-75101346D01*
X130616781Y-75114134D01*
X130598368Y-75125170D01*
X130578962Y-75134349D01*
X130558750Y-75141581D01*
X130537926Y-75146797D01*
X130516691Y-75149947D01*
X130495250Y-75151000D01*
X130057750Y-75151000D01*
X130036309Y-75149947D01*
X130015074Y-75146797D01*
X129994250Y-75141581D01*
X129974038Y-75134349D01*
X129954632Y-75125170D01*
X129936219Y-75114134D01*
X129918976Y-75101346D01*
X129903070Y-75086930D01*
X129888654Y-75071024D01*
X129875866Y-75053781D01*
X129864830Y-75035368D01*
X129855651Y-75015962D01*
X129848419Y-74995750D01*
X129843203Y-74974926D01*
X129840053Y-74953691D01*
X129839000Y-74932250D01*
X129839000Y-74419750D01*
X129840053Y-74398309D01*
X129843203Y-74377074D01*
X129848419Y-74356250D01*
X129855651Y-74336038D01*
X129864830Y-74316632D01*
X129875866Y-74298219D01*
X129888654Y-74280976D01*
X129903070Y-74265070D01*
X129918976Y-74250654D01*
X129936219Y-74237866D01*
X129954632Y-74226830D01*
X129974038Y-74217651D01*
X129994250Y-74210419D01*
X130015074Y-74205203D01*
X130036309Y-74202053D01*
X130057750Y-74201000D01*
X130495250Y-74201000D01*
X130516691Y-74202053D01*
X130516691Y-74202053D01*
G37*
D11*
X130276500Y-74676000D03*
D10*
G36*
X132091691Y-74202053D02*
G01*
X132112926Y-74205203D01*
X132133750Y-74210419D01*
X132153962Y-74217651D01*
X132173368Y-74226830D01*
X132191781Y-74237866D01*
X132209024Y-74250654D01*
X132224930Y-74265070D01*
X132239346Y-74280976D01*
X132252134Y-74298219D01*
X132263170Y-74316632D01*
X132272349Y-74336038D01*
X132279581Y-74356250D01*
X132284797Y-74377074D01*
X132287947Y-74398309D01*
X132289000Y-74419750D01*
X132289000Y-74932250D01*
X132287947Y-74953691D01*
X132284797Y-74974926D01*
X132279581Y-74995750D01*
X132272349Y-75015962D01*
X132263170Y-75035368D01*
X132252134Y-75053781D01*
X132239346Y-75071024D01*
X132224930Y-75086930D01*
X132209024Y-75101346D01*
X132191781Y-75114134D01*
X132173368Y-75125170D01*
X132153962Y-75134349D01*
X132133750Y-75141581D01*
X132112926Y-75146797D01*
X132091691Y-75149947D01*
X132070250Y-75151000D01*
X131632750Y-75151000D01*
X131611309Y-75149947D01*
X131590074Y-75146797D01*
X131569250Y-75141581D01*
X131549038Y-75134349D01*
X131529632Y-75125170D01*
X131511219Y-75114134D01*
X131493976Y-75101346D01*
X131478070Y-75086930D01*
X131463654Y-75071024D01*
X131450866Y-75053781D01*
X131439830Y-75035368D01*
X131430651Y-75015962D01*
X131423419Y-74995750D01*
X131418203Y-74974926D01*
X131415053Y-74953691D01*
X131414000Y-74932250D01*
X131414000Y-74419750D01*
X131415053Y-74398309D01*
X131418203Y-74377074D01*
X131423419Y-74356250D01*
X131430651Y-74336038D01*
X131439830Y-74316632D01*
X131450866Y-74298219D01*
X131463654Y-74280976D01*
X131478070Y-74265070D01*
X131493976Y-74250654D01*
X131511219Y-74237866D01*
X131529632Y-74226830D01*
X131549038Y-74217651D01*
X131569250Y-74210419D01*
X131590074Y-74205203D01*
X131611309Y-74202053D01*
X131632750Y-74201000D01*
X132070250Y-74201000D01*
X132091691Y-74202053D01*
X132091691Y-74202053D01*
G37*
D11*
X131851500Y-74676000D03*
D10*
G36*
X151395691Y-74202053D02*
G01*
X151416926Y-74205203D01*
X151437750Y-74210419D01*
X151457962Y-74217651D01*
X151477368Y-74226830D01*
X151495781Y-74237866D01*
X151513024Y-74250654D01*
X151528930Y-74265070D01*
X151543346Y-74280976D01*
X151556134Y-74298219D01*
X151567170Y-74316632D01*
X151576349Y-74336038D01*
X151583581Y-74356250D01*
X151588797Y-74377074D01*
X151591947Y-74398309D01*
X151593000Y-74419750D01*
X151593000Y-74932250D01*
X151591947Y-74953691D01*
X151588797Y-74974926D01*
X151583581Y-74995750D01*
X151576349Y-75015962D01*
X151567170Y-75035368D01*
X151556134Y-75053781D01*
X151543346Y-75071024D01*
X151528930Y-75086930D01*
X151513024Y-75101346D01*
X151495781Y-75114134D01*
X151477368Y-75125170D01*
X151457962Y-75134349D01*
X151437750Y-75141581D01*
X151416926Y-75146797D01*
X151395691Y-75149947D01*
X151374250Y-75151000D01*
X150936750Y-75151000D01*
X150915309Y-75149947D01*
X150894074Y-75146797D01*
X150873250Y-75141581D01*
X150853038Y-75134349D01*
X150833632Y-75125170D01*
X150815219Y-75114134D01*
X150797976Y-75101346D01*
X150782070Y-75086930D01*
X150767654Y-75071024D01*
X150754866Y-75053781D01*
X150743830Y-75035368D01*
X150734651Y-75015962D01*
X150727419Y-74995750D01*
X150722203Y-74974926D01*
X150719053Y-74953691D01*
X150718000Y-74932250D01*
X150718000Y-74419750D01*
X150719053Y-74398309D01*
X150722203Y-74377074D01*
X150727419Y-74356250D01*
X150734651Y-74336038D01*
X150743830Y-74316632D01*
X150754866Y-74298219D01*
X150767654Y-74280976D01*
X150782070Y-74265070D01*
X150797976Y-74250654D01*
X150815219Y-74237866D01*
X150833632Y-74226830D01*
X150853038Y-74217651D01*
X150873250Y-74210419D01*
X150894074Y-74205203D01*
X150915309Y-74202053D01*
X150936750Y-74201000D01*
X151374250Y-74201000D01*
X151395691Y-74202053D01*
X151395691Y-74202053D01*
G37*
D11*
X151155500Y-74676000D03*
D10*
G36*
X149820691Y-74202053D02*
G01*
X149841926Y-74205203D01*
X149862750Y-74210419D01*
X149882962Y-74217651D01*
X149902368Y-74226830D01*
X149920781Y-74237866D01*
X149938024Y-74250654D01*
X149953930Y-74265070D01*
X149968346Y-74280976D01*
X149981134Y-74298219D01*
X149992170Y-74316632D01*
X150001349Y-74336038D01*
X150008581Y-74356250D01*
X150013797Y-74377074D01*
X150016947Y-74398309D01*
X150018000Y-74419750D01*
X150018000Y-74932250D01*
X150016947Y-74953691D01*
X150013797Y-74974926D01*
X150008581Y-74995750D01*
X150001349Y-75015962D01*
X149992170Y-75035368D01*
X149981134Y-75053781D01*
X149968346Y-75071024D01*
X149953930Y-75086930D01*
X149938024Y-75101346D01*
X149920781Y-75114134D01*
X149902368Y-75125170D01*
X149882962Y-75134349D01*
X149862750Y-75141581D01*
X149841926Y-75146797D01*
X149820691Y-75149947D01*
X149799250Y-75151000D01*
X149361750Y-75151000D01*
X149340309Y-75149947D01*
X149319074Y-75146797D01*
X149298250Y-75141581D01*
X149278038Y-75134349D01*
X149258632Y-75125170D01*
X149240219Y-75114134D01*
X149222976Y-75101346D01*
X149207070Y-75086930D01*
X149192654Y-75071024D01*
X149179866Y-75053781D01*
X149168830Y-75035368D01*
X149159651Y-75015962D01*
X149152419Y-74995750D01*
X149147203Y-74974926D01*
X149144053Y-74953691D01*
X149143000Y-74932250D01*
X149143000Y-74419750D01*
X149144053Y-74398309D01*
X149147203Y-74377074D01*
X149152419Y-74356250D01*
X149159651Y-74336038D01*
X149168830Y-74316632D01*
X149179866Y-74298219D01*
X149192654Y-74280976D01*
X149207070Y-74265070D01*
X149222976Y-74250654D01*
X149240219Y-74237866D01*
X149258632Y-74226830D01*
X149278038Y-74217651D01*
X149298250Y-74210419D01*
X149319074Y-74205203D01*
X149340309Y-74202053D01*
X149361750Y-74201000D01*
X149799250Y-74201000D01*
X149820691Y-74202053D01*
X149820691Y-74202053D01*
G37*
D11*
X149580500Y-74676000D03*
D10*
G36*
X170699691Y-74202053D02*
G01*
X170720926Y-74205203D01*
X170741750Y-74210419D01*
X170761962Y-74217651D01*
X170781368Y-74226830D01*
X170799781Y-74237866D01*
X170817024Y-74250654D01*
X170832930Y-74265070D01*
X170847346Y-74280976D01*
X170860134Y-74298219D01*
X170871170Y-74316632D01*
X170880349Y-74336038D01*
X170887581Y-74356250D01*
X170892797Y-74377074D01*
X170895947Y-74398309D01*
X170897000Y-74419750D01*
X170897000Y-74932250D01*
X170895947Y-74953691D01*
X170892797Y-74974926D01*
X170887581Y-74995750D01*
X170880349Y-75015962D01*
X170871170Y-75035368D01*
X170860134Y-75053781D01*
X170847346Y-75071024D01*
X170832930Y-75086930D01*
X170817024Y-75101346D01*
X170799781Y-75114134D01*
X170781368Y-75125170D01*
X170761962Y-75134349D01*
X170741750Y-75141581D01*
X170720926Y-75146797D01*
X170699691Y-75149947D01*
X170678250Y-75151000D01*
X170240750Y-75151000D01*
X170219309Y-75149947D01*
X170198074Y-75146797D01*
X170177250Y-75141581D01*
X170157038Y-75134349D01*
X170137632Y-75125170D01*
X170119219Y-75114134D01*
X170101976Y-75101346D01*
X170086070Y-75086930D01*
X170071654Y-75071024D01*
X170058866Y-75053781D01*
X170047830Y-75035368D01*
X170038651Y-75015962D01*
X170031419Y-74995750D01*
X170026203Y-74974926D01*
X170023053Y-74953691D01*
X170022000Y-74932250D01*
X170022000Y-74419750D01*
X170023053Y-74398309D01*
X170026203Y-74377074D01*
X170031419Y-74356250D01*
X170038651Y-74336038D01*
X170047830Y-74316632D01*
X170058866Y-74298219D01*
X170071654Y-74280976D01*
X170086070Y-74265070D01*
X170101976Y-74250654D01*
X170119219Y-74237866D01*
X170137632Y-74226830D01*
X170157038Y-74217651D01*
X170177250Y-74210419D01*
X170198074Y-74205203D01*
X170219309Y-74202053D01*
X170240750Y-74201000D01*
X170678250Y-74201000D01*
X170699691Y-74202053D01*
X170699691Y-74202053D01*
G37*
D11*
X170459500Y-74676000D03*
D10*
G36*
X169124691Y-74202053D02*
G01*
X169145926Y-74205203D01*
X169166750Y-74210419D01*
X169186962Y-74217651D01*
X169206368Y-74226830D01*
X169224781Y-74237866D01*
X169242024Y-74250654D01*
X169257930Y-74265070D01*
X169272346Y-74280976D01*
X169285134Y-74298219D01*
X169296170Y-74316632D01*
X169305349Y-74336038D01*
X169312581Y-74356250D01*
X169317797Y-74377074D01*
X169320947Y-74398309D01*
X169322000Y-74419750D01*
X169322000Y-74932250D01*
X169320947Y-74953691D01*
X169317797Y-74974926D01*
X169312581Y-74995750D01*
X169305349Y-75015962D01*
X169296170Y-75035368D01*
X169285134Y-75053781D01*
X169272346Y-75071024D01*
X169257930Y-75086930D01*
X169242024Y-75101346D01*
X169224781Y-75114134D01*
X169206368Y-75125170D01*
X169186962Y-75134349D01*
X169166750Y-75141581D01*
X169145926Y-75146797D01*
X169124691Y-75149947D01*
X169103250Y-75151000D01*
X168665750Y-75151000D01*
X168644309Y-75149947D01*
X168623074Y-75146797D01*
X168602250Y-75141581D01*
X168582038Y-75134349D01*
X168562632Y-75125170D01*
X168544219Y-75114134D01*
X168526976Y-75101346D01*
X168511070Y-75086930D01*
X168496654Y-75071024D01*
X168483866Y-75053781D01*
X168472830Y-75035368D01*
X168463651Y-75015962D01*
X168456419Y-74995750D01*
X168451203Y-74974926D01*
X168448053Y-74953691D01*
X168447000Y-74932250D01*
X168447000Y-74419750D01*
X168448053Y-74398309D01*
X168451203Y-74377074D01*
X168456419Y-74356250D01*
X168463651Y-74336038D01*
X168472830Y-74316632D01*
X168483866Y-74298219D01*
X168496654Y-74280976D01*
X168511070Y-74265070D01*
X168526976Y-74250654D01*
X168544219Y-74237866D01*
X168562632Y-74226830D01*
X168582038Y-74217651D01*
X168602250Y-74210419D01*
X168623074Y-74205203D01*
X168644309Y-74202053D01*
X168665750Y-74201000D01*
X169103250Y-74201000D01*
X169124691Y-74202053D01*
X169124691Y-74202053D01*
G37*
D11*
X168884500Y-74676000D03*
D10*
G36*
X74179691Y-93506053D02*
G01*
X74200926Y-93509203D01*
X74221750Y-93514419D01*
X74241962Y-93521651D01*
X74261368Y-93530830D01*
X74279781Y-93541866D01*
X74297024Y-93554654D01*
X74312930Y-93569070D01*
X74327346Y-93584976D01*
X74340134Y-93602219D01*
X74351170Y-93620632D01*
X74360349Y-93640038D01*
X74367581Y-93660250D01*
X74372797Y-93681074D01*
X74375947Y-93702309D01*
X74377000Y-93723750D01*
X74377000Y-94236250D01*
X74375947Y-94257691D01*
X74372797Y-94278926D01*
X74367581Y-94299750D01*
X74360349Y-94319962D01*
X74351170Y-94339368D01*
X74340134Y-94357781D01*
X74327346Y-94375024D01*
X74312930Y-94390930D01*
X74297024Y-94405346D01*
X74279781Y-94418134D01*
X74261368Y-94429170D01*
X74241962Y-94438349D01*
X74221750Y-94445581D01*
X74200926Y-94450797D01*
X74179691Y-94453947D01*
X74158250Y-94455000D01*
X73720750Y-94455000D01*
X73699309Y-94453947D01*
X73678074Y-94450797D01*
X73657250Y-94445581D01*
X73637038Y-94438349D01*
X73617632Y-94429170D01*
X73599219Y-94418134D01*
X73581976Y-94405346D01*
X73566070Y-94390930D01*
X73551654Y-94375024D01*
X73538866Y-94357781D01*
X73527830Y-94339368D01*
X73518651Y-94319962D01*
X73511419Y-94299750D01*
X73506203Y-94278926D01*
X73503053Y-94257691D01*
X73502000Y-94236250D01*
X73502000Y-93723750D01*
X73503053Y-93702309D01*
X73506203Y-93681074D01*
X73511419Y-93660250D01*
X73518651Y-93640038D01*
X73527830Y-93620632D01*
X73538866Y-93602219D01*
X73551654Y-93584976D01*
X73566070Y-93569070D01*
X73581976Y-93554654D01*
X73599219Y-93541866D01*
X73617632Y-93530830D01*
X73637038Y-93521651D01*
X73657250Y-93514419D01*
X73678074Y-93509203D01*
X73699309Y-93506053D01*
X73720750Y-93505000D01*
X74158250Y-93505000D01*
X74179691Y-93506053D01*
X74179691Y-93506053D01*
G37*
D11*
X73939500Y-93980000D03*
D10*
G36*
X72604691Y-93506053D02*
G01*
X72625926Y-93509203D01*
X72646750Y-93514419D01*
X72666962Y-93521651D01*
X72686368Y-93530830D01*
X72704781Y-93541866D01*
X72722024Y-93554654D01*
X72737930Y-93569070D01*
X72752346Y-93584976D01*
X72765134Y-93602219D01*
X72776170Y-93620632D01*
X72785349Y-93640038D01*
X72792581Y-93660250D01*
X72797797Y-93681074D01*
X72800947Y-93702309D01*
X72802000Y-93723750D01*
X72802000Y-94236250D01*
X72800947Y-94257691D01*
X72797797Y-94278926D01*
X72792581Y-94299750D01*
X72785349Y-94319962D01*
X72776170Y-94339368D01*
X72765134Y-94357781D01*
X72752346Y-94375024D01*
X72737930Y-94390930D01*
X72722024Y-94405346D01*
X72704781Y-94418134D01*
X72686368Y-94429170D01*
X72666962Y-94438349D01*
X72646750Y-94445581D01*
X72625926Y-94450797D01*
X72604691Y-94453947D01*
X72583250Y-94455000D01*
X72145750Y-94455000D01*
X72124309Y-94453947D01*
X72103074Y-94450797D01*
X72082250Y-94445581D01*
X72062038Y-94438349D01*
X72042632Y-94429170D01*
X72024219Y-94418134D01*
X72006976Y-94405346D01*
X71991070Y-94390930D01*
X71976654Y-94375024D01*
X71963866Y-94357781D01*
X71952830Y-94339368D01*
X71943651Y-94319962D01*
X71936419Y-94299750D01*
X71931203Y-94278926D01*
X71928053Y-94257691D01*
X71927000Y-94236250D01*
X71927000Y-93723750D01*
X71928053Y-93702309D01*
X71931203Y-93681074D01*
X71936419Y-93660250D01*
X71943651Y-93640038D01*
X71952830Y-93620632D01*
X71963866Y-93602219D01*
X71976654Y-93584976D01*
X71991070Y-93569070D01*
X72006976Y-93554654D01*
X72024219Y-93541866D01*
X72042632Y-93530830D01*
X72062038Y-93521651D01*
X72082250Y-93514419D01*
X72103074Y-93509203D01*
X72124309Y-93506053D01*
X72145750Y-93505000D01*
X72583250Y-93505000D01*
X72604691Y-93506053D01*
X72604691Y-93506053D01*
G37*
D11*
X72364500Y-93980000D03*
D10*
G36*
X93483691Y-93506053D02*
G01*
X93504926Y-93509203D01*
X93525750Y-93514419D01*
X93545962Y-93521651D01*
X93565368Y-93530830D01*
X93583781Y-93541866D01*
X93601024Y-93554654D01*
X93616930Y-93569070D01*
X93631346Y-93584976D01*
X93644134Y-93602219D01*
X93655170Y-93620632D01*
X93664349Y-93640038D01*
X93671581Y-93660250D01*
X93676797Y-93681074D01*
X93679947Y-93702309D01*
X93681000Y-93723750D01*
X93681000Y-94236250D01*
X93679947Y-94257691D01*
X93676797Y-94278926D01*
X93671581Y-94299750D01*
X93664349Y-94319962D01*
X93655170Y-94339368D01*
X93644134Y-94357781D01*
X93631346Y-94375024D01*
X93616930Y-94390930D01*
X93601024Y-94405346D01*
X93583781Y-94418134D01*
X93565368Y-94429170D01*
X93545962Y-94438349D01*
X93525750Y-94445581D01*
X93504926Y-94450797D01*
X93483691Y-94453947D01*
X93462250Y-94455000D01*
X93024750Y-94455000D01*
X93003309Y-94453947D01*
X92982074Y-94450797D01*
X92961250Y-94445581D01*
X92941038Y-94438349D01*
X92921632Y-94429170D01*
X92903219Y-94418134D01*
X92885976Y-94405346D01*
X92870070Y-94390930D01*
X92855654Y-94375024D01*
X92842866Y-94357781D01*
X92831830Y-94339368D01*
X92822651Y-94319962D01*
X92815419Y-94299750D01*
X92810203Y-94278926D01*
X92807053Y-94257691D01*
X92806000Y-94236250D01*
X92806000Y-93723750D01*
X92807053Y-93702309D01*
X92810203Y-93681074D01*
X92815419Y-93660250D01*
X92822651Y-93640038D01*
X92831830Y-93620632D01*
X92842866Y-93602219D01*
X92855654Y-93584976D01*
X92870070Y-93569070D01*
X92885976Y-93554654D01*
X92903219Y-93541866D01*
X92921632Y-93530830D01*
X92941038Y-93521651D01*
X92961250Y-93514419D01*
X92982074Y-93509203D01*
X93003309Y-93506053D01*
X93024750Y-93505000D01*
X93462250Y-93505000D01*
X93483691Y-93506053D01*
X93483691Y-93506053D01*
G37*
D11*
X93243500Y-93980000D03*
D10*
G36*
X91908691Y-93506053D02*
G01*
X91929926Y-93509203D01*
X91950750Y-93514419D01*
X91970962Y-93521651D01*
X91990368Y-93530830D01*
X92008781Y-93541866D01*
X92026024Y-93554654D01*
X92041930Y-93569070D01*
X92056346Y-93584976D01*
X92069134Y-93602219D01*
X92080170Y-93620632D01*
X92089349Y-93640038D01*
X92096581Y-93660250D01*
X92101797Y-93681074D01*
X92104947Y-93702309D01*
X92106000Y-93723750D01*
X92106000Y-94236250D01*
X92104947Y-94257691D01*
X92101797Y-94278926D01*
X92096581Y-94299750D01*
X92089349Y-94319962D01*
X92080170Y-94339368D01*
X92069134Y-94357781D01*
X92056346Y-94375024D01*
X92041930Y-94390930D01*
X92026024Y-94405346D01*
X92008781Y-94418134D01*
X91990368Y-94429170D01*
X91970962Y-94438349D01*
X91950750Y-94445581D01*
X91929926Y-94450797D01*
X91908691Y-94453947D01*
X91887250Y-94455000D01*
X91449750Y-94455000D01*
X91428309Y-94453947D01*
X91407074Y-94450797D01*
X91386250Y-94445581D01*
X91366038Y-94438349D01*
X91346632Y-94429170D01*
X91328219Y-94418134D01*
X91310976Y-94405346D01*
X91295070Y-94390930D01*
X91280654Y-94375024D01*
X91267866Y-94357781D01*
X91256830Y-94339368D01*
X91247651Y-94319962D01*
X91240419Y-94299750D01*
X91235203Y-94278926D01*
X91232053Y-94257691D01*
X91231000Y-94236250D01*
X91231000Y-93723750D01*
X91232053Y-93702309D01*
X91235203Y-93681074D01*
X91240419Y-93660250D01*
X91247651Y-93640038D01*
X91256830Y-93620632D01*
X91267866Y-93602219D01*
X91280654Y-93584976D01*
X91295070Y-93569070D01*
X91310976Y-93554654D01*
X91328219Y-93541866D01*
X91346632Y-93530830D01*
X91366038Y-93521651D01*
X91386250Y-93514419D01*
X91407074Y-93509203D01*
X91428309Y-93506053D01*
X91449750Y-93505000D01*
X91887250Y-93505000D01*
X91908691Y-93506053D01*
X91908691Y-93506053D01*
G37*
D11*
X91668500Y-93980000D03*
D10*
G36*
X112787691Y-93506053D02*
G01*
X112808926Y-93509203D01*
X112829750Y-93514419D01*
X112849962Y-93521651D01*
X112869368Y-93530830D01*
X112887781Y-93541866D01*
X112905024Y-93554654D01*
X112920930Y-93569070D01*
X112935346Y-93584976D01*
X112948134Y-93602219D01*
X112959170Y-93620632D01*
X112968349Y-93640038D01*
X112975581Y-93660250D01*
X112980797Y-93681074D01*
X112983947Y-93702309D01*
X112985000Y-93723750D01*
X112985000Y-94236250D01*
X112983947Y-94257691D01*
X112980797Y-94278926D01*
X112975581Y-94299750D01*
X112968349Y-94319962D01*
X112959170Y-94339368D01*
X112948134Y-94357781D01*
X112935346Y-94375024D01*
X112920930Y-94390930D01*
X112905024Y-94405346D01*
X112887781Y-94418134D01*
X112869368Y-94429170D01*
X112849962Y-94438349D01*
X112829750Y-94445581D01*
X112808926Y-94450797D01*
X112787691Y-94453947D01*
X112766250Y-94455000D01*
X112328750Y-94455000D01*
X112307309Y-94453947D01*
X112286074Y-94450797D01*
X112265250Y-94445581D01*
X112245038Y-94438349D01*
X112225632Y-94429170D01*
X112207219Y-94418134D01*
X112189976Y-94405346D01*
X112174070Y-94390930D01*
X112159654Y-94375024D01*
X112146866Y-94357781D01*
X112135830Y-94339368D01*
X112126651Y-94319962D01*
X112119419Y-94299750D01*
X112114203Y-94278926D01*
X112111053Y-94257691D01*
X112110000Y-94236250D01*
X112110000Y-93723750D01*
X112111053Y-93702309D01*
X112114203Y-93681074D01*
X112119419Y-93660250D01*
X112126651Y-93640038D01*
X112135830Y-93620632D01*
X112146866Y-93602219D01*
X112159654Y-93584976D01*
X112174070Y-93569070D01*
X112189976Y-93554654D01*
X112207219Y-93541866D01*
X112225632Y-93530830D01*
X112245038Y-93521651D01*
X112265250Y-93514419D01*
X112286074Y-93509203D01*
X112307309Y-93506053D01*
X112328750Y-93505000D01*
X112766250Y-93505000D01*
X112787691Y-93506053D01*
X112787691Y-93506053D01*
G37*
D11*
X112547500Y-93980000D03*
D10*
G36*
X111212691Y-93506053D02*
G01*
X111233926Y-93509203D01*
X111254750Y-93514419D01*
X111274962Y-93521651D01*
X111294368Y-93530830D01*
X111312781Y-93541866D01*
X111330024Y-93554654D01*
X111345930Y-93569070D01*
X111360346Y-93584976D01*
X111373134Y-93602219D01*
X111384170Y-93620632D01*
X111393349Y-93640038D01*
X111400581Y-93660250D01*
X111405797Y-93681074D01*
X111408947Y-93702309D01*
X111410000Y-93723750D01*
X111410000Y-94236250D01*
X111408947Y-94257691D01*
X111405797Y-94278926D01*
X111400581Y-94299750D01*
X111393349Y-94319962D01*
X111384170Y-94339368D01*
X111373134Y-94357781D01*
X111360346Y-94375024D01*
X111345930Y-94390930D01*
X111330024Y-94405346D01*
X111312781Y-94418134D01*
X111294368Y-94429170D01*
X111274962Y-94438349D01*
X111254750Y-94445581D01*
X111233926Y-94450797D01*
X111212691Y-94453947D01*
X111191250Y-94455000D01*
X110753750Y-94455000D01*
X110732309Y-94453947D01*
X110711074Y-94450797D01*
X110690250Y-94445581D01*
X110670038Y-94438349D01*
X110650632Y-94429170D01*
X110632219Y-94418134D01*
X110614976Y-94405346D01*
X110599070Y-94390930D01*
X110584654Y-94375024D01*
X110571866Y-94357781D01*
X110560830Y-94339368D01*
X110551651Y-94319962D01*
X110544419Y-94299750D01*
X110539203Y-94278926D01*
X110536053Y-94257691D01*
X110535000Y-94236250D01*
X110535000Y-93723750D01*
X110536053Y-93702309D01*
X110539203Y-93681074D01*
X110544419Y-93660250D01*
X110551651Y-93640038D01*
X110560830Y-93620632D01*
X110571866Y-93602219D01*
X110584654Y-93584976D01*
X110599070Y-93569070D01*
X110614976Y-93554654D01*
X110632219Y-93541866D01*
X110650632Y-93530830D01*
X110670038Y-93521651D01*
X110690250Y-93514419D01*
X110711074Y-93509203D01*
X110732309Y-93506053D01*
X110753750Y-93505000D01*
X111191250Y-93505000D01*
X111212691Y-93506053D01*
X111212691Y-93506053D01*
G37*
D11*
X110972500Y-93980000D03*
D10*
G36*
X132091691Y-93506053D02*
G01*
X132112926Y-93509203D01*
X132133750Y-93514419D01*
X132153962Y-93521651D01*
X132173368Y-93530830D01*
X132191781Y-93541866D01*
X132209024Y-93554654D01*
X132224930Y-93569070D01*
X132239346Y-93584976D01*
X132252134Y-93602219D01*
X132263170Y-93620632D01*
X132272349Y-93640038D01*
X132279581Y-93660250D01*
X132284797Y-93681074D01*
X132287947Y-93702309D01*
X132289000Y-93723750D01*
X132289000Y-94236250D01*
X132287947Y-94257691D01*
X132284797Y-94278926D01*
X132279581Y-94299750D01*
X132272349Y-94319962D01*
X132263170Y-94339368D01*
X132252134Y-94357781D01*
X132239346Y-94375024D01*
X132224930Y-94390930D01*
X132209024Y-94405346D01*
X132191781Y-94418134D01*
X132173368Y-94429170D01*
X132153962Y-94438349D01*
X132133750Y-94445581D01*
X132112926Y-94450797D01*
X132091691Y-94453947D01*
X132070250Y-94455000D01*
X131632750Y-94455000D01*
X131611309Y-94453947D01*
X131590074Y-94450797D01*
X131569250Y-94445581D01*
X131549038Y-94438349D01*
X131529632Y-94429170D01*
X131511219Y-94418134D01*
X131493976Y-94405346D01*
X131478070Y-94390930D01*
X131463654Y-94375024D01*
X131450866Y-94357781D01*
X131439830Y-94339368D01*
X131430651Y-94319962D01*
X131423419Y-94299750D01*
X131418203Y-94278926D01*
X131415053Y-94257691D01*
X131414000Y-94236250D01*
X131414000Y-93723750D01*
X131415053Y-93702309D01*
X131418203Y-93681074D01*
X131423419Y-93660250D01*
X131430651Y-93640038D01*
X131439830Y-93620632D01*
X131450866Y-93602219D01*
X131463654Y-93584976D01*
X131478070Y-93569070D01*
X131493976Y-93554654D01*
X131511219Y-93541866D01*
X131529632Y-93530830D01*
X131549038Y-93521651D01*
X131569250Y-93514419D01*
X131590074Y-93509203D01*
X131611309Y-93506053D01*
X131632750Y-93505000D01*
X132070250Y-93505000D01*
X132091691Y-93506053D01*
X132091691Y-93506053D01*
G37*
D11*
X131851500Y-93980000D03*
D10*
G36*
X130516691Y-93506053D02*
G01*
X130537926Y-93509203D01*
X130558750Y-93514419D01*
X130578962Y-93521651D01*
X130598368Y-93530830D01*
X130616781Y-93541866D01*
X130634024Y-93554654D01*
X130649930Y-93569070D01*
X130664346Y-93584976D01*
X130677134Y-93602219D01*
X130688170Y-93620632D01*
X130697349Y-93640038D01*
X130704581Y-93660250D01*
X130709797Y-93681074D01*
X130712947Y-93702309D01*
X130714000Y-93723750D01*
X130714000Y-94236250D01*
X130712947Y-94257691D01*
X130709797Y-94278926D01*
X130704581Y-94299750D01*
X130697349Y-94319962D01*
X130688170Y-94339368D01*
X130677134Y-94357781D01*
X130664346Y-94375024D01*
X130649930Y-94390930D01*
X130634024Y-94405346D01*
X130616781Y-94418134D01*
X130598368Y-94429170D01*
X130578962Y-94438349D01*
X130558750Y-94445581D01*
X130537926Y-94450797D01*
X130516691Y-94453947D01*
X130495250Y-94455000D01*
X130057750Y-94455000D01*
X130036309Y-94453947D01*
X130015074Y-94450797D01*
X129994250Y-94445581D01*
X129974038Y-94438349D01*
X129954632Y-94429170D01*
X129936219Y-94418134D01*
X129918976Y-94405346D01*
X129903070Y-94390930D01*
X129888654Y-94375024D01*
X129875866Y-94357781D01*
X129864830Y-94339368D01*
X129855651Y-94319962D01*
X129848419Y-94299750D01*
X129843203Y-94278926D01*
X129840053Y-94257691D01*
X129839000Y-94236250D01*
X129839000Y-93723750D01*
X129840053Y-93702309D01*
X129843203Y-93681074D01*
X129848419Y-93660250D01*
X129855651Y-93640038D01*
X129864830Y-93620632D01*
X129875866Y-93602219D01*
X129888654Y-93584976D01*
X129903070Y-93569070D01*
X129918976Y-93554654D01*
X129936219Y-93541866D01*
X129954632Y-93530830D01*
X129974038Y-93521651D01*
X129994250Y-93514419D01*
X130015074Y-93509203D01*
X130036309Y-93506053D01*
X130057750Y-93505000D01*
X130495250Y-93505000D01*
X130516691Y-93506053D01*
X130516691Y-93506053D01*
G37*
D11*
X130276500Y-93980000D03*
D10*
G36*
X151395691Y-93506053D02*
G01*
X151416926Y-93509203D01*
X151437750Y-93514419D01*
X151457962Y-93521651D01*
X151477368Y-93530830D01*
X151495781Y-93541866D01*
X151513024Y-93554654D01*
X151528930Y-93569070D01*
X151543346Y-93584976D01*
X151556134Y-93602219D01*
X151567170Y-93620632D01*
X151576349Y-93640038D01*
X151583581Y-93660250D01*
X151588797Y-93681074D01*
X151591947Y-93702309D01*
X151593000Y-93723750D01*
X151593000Y-94236250D01*
X151591947Y-94257691D01*
X151588797Y-94278926D01*
X151583581Y-94299750D01*
X151576349Y-94319962D01*
X151567170Y-94339368D01*
X151556134Y-94357781D01*
X151543346Y-94375024D01*
X151528930Y-94390930D01*
X151513024Y-94405346D01*
X151495781Y-94418134D01*
X151477368Y-94429170D01*
X151457962Y-94438349D01*
X151437750Y-94445581D01*
X151416926Y-94450797D01*
X151395691Y-94453947D01*
X151374250Y-94455000D01*
X150936750Y-94455000D01*
X150915309Y-94453947D01*
X150894074Y-94450797D01*
X150873250Y-94445581D01*
X150853038Y-94438349D01*
X150833632Y-94429170D01*
X150815219Y-94418134D01*
X150797976Y-94405346D01*
X150782070Y-94390930D01*
X150767654Y-94375024D01*
X150754866Y-94357781D01*
X150743830Y-94339368D01*
X150734651Y-94319962D01*
X150727419Y-94299750D01*
X150722203Y-94278926D01*
X150719053Y-94257691D01*
X150718000Y-94236250D01*
X150718000Y-93723750D01*
X150719053Y-93702309D01*
X150722203Y-93681074D01*
X150727419Y-93660250D01*
X150734651Y-93640038D01*
X150743830Y-93620632D01*
X150754866Y-93602219D01*
X150767654Y-93584976D01*
X150782070Y-93569070D01*
X150797976Y-93554654D01*
X150815219Y-93541866D01*
X150833632Y-93530830D01*
X150853038Y-93521651D01*
X150873250Y-93514419D01*
X150894074Y-93509203D01*
X150915309Y-93506053D01*
X150936750Y-93505000D01*
X151374250Y-93505000D01*
X151395691Y-93506053D01*
X151395691Y-93506053D01*
G37*
D11*
X151155500Y-93980000D03*
D10*
G36*
X149820691Y-93506053D02*
G01*
X149841926Y-93509203D01*
X149862750Y-93514419D01*
X149882962Y-93521651D01*
X149902368Y-93530830D01*
X149920781Y-93541866D01*
X149938024Y-93554654D01*
X149953930Y-93569070D01*
X149968346Y-93584976D01*
X149981134Y-93602219D01*
X149992170Y-93620632D01*
X150001349Y-93640038D01*
X150008581Y-93660250D01*
X150013797Y-93681074D01*
X150016947Y-93702309D01*
X150018000Y-93723750D01*
X150018000Y-94236250D01*
X150016947Y-94257691D01*
X150013797Y-94278926D01*
X150008581Y-94299750D01*
X150001349Y-94319962D01*
X149992170Y-94339368D01*
X149981134Y-94357781D01*
X149968346Y-94375024D01*
X149953930Y-94390930D01*
X149938024Y-94405346D01*
X149920781Y-94418134D01*
X149902368Y-94429170D01*
X149882962Y-94438349D01*
X149862750Y-94445581D01*
X149841926Y-94450797D01*
X149820691Y-94453947D01*
X149799250Y-94455000D01*
X149361750Y-94455000D01*
X149340309Y-94453947D01*
X149319074Y-94450797D01*
X149298250Y-94445581D01*
X149278038Y-94438349D01*
X149258632Y-94429170D01*
X149240219Y-94418134D01*
X149222976Y-94405346D01*
X149207070Y-94390930D01*
X149192654Y-94375024D01*
X149179866Y-94357781D01*
X149168830Y-94339368D01*
X149159651Y-94319962D01*
X149152419Y-94299750D01*
X149147203Y-94278926D01*
X149144053Y-94257691D01*
X149143000Y-94236250D01*
X149143000Y-93723750D01*
X149144053Y-93702309D01*
X149147203Y-93681074D01*
X149152419Y-93660250D01*
X149159651Y-93640038D01*
X149168830Y-93620632D01*
X149179866Y-93602219D01*
X149192654Y-93584976D01*
X149207070Y-93569070D01*
X149222976Y-93554654D01*
X149240219Y-93541866D01*
X149258632Y-93530830D01*
X149278038Y-93521651D01*
X149298250Y-93514419D01*
X149319074Y-93509203D01*
X149340309Y-93506053D01*
X149361750Y-93505000D01*
X149799250Y-93505000D01*
X149820691Y-93506053D01*
X149820691Y-93506053D01*
G37*
D11*
X149580500Y-93980000D03*
D10*
G36*
X170699691Y-93506053D02*
G01*
X170720926Y-93509203D01*
X170741750Y-93514419D01*
X170761962Y-93521651D01*
X170781368Y-93530830D01*
X170799781Y-93541866D01*
X170817024Y-93554654D01*
X170832930Y-93569070D01*
X170847346Y-93584976D01*
X170860134Y-93602219D01*
X170871170Y-93620632D01*
X170880349Y-93640038D01*
X170887581Y-93660250D01*
X170892797Y-93681074D01*
X170895947Y-93702309D01*
X170897000Y-93723750D01*
X170897000Y-94236250D01*
X170895947Y-94257691D01*
X170892797Y-94278926D01*
X170887581Y-94299750D01*
X170880349Y-94319962D01*
X170871170Y-94339368D01*
X170860134Y-94357781D01*
X170847346Y-94375024D01*
X170832930Y-94390930D01*
X170817024Y-94405346D01*
X170799781Y-94418134D01*
X170781368Y-94429170D01*
X170761962Y-94438349D01*
X170741750Y-94445581D01*
X170720926Y-94450797D01*
X170699691Y-94453947D01*
X170678250Y-94455000D01*
X170240750Y-94455000D01*
X170219309Y-94453947D01*
X170198074Y-94450797D01*
X170177250Y-94445581D01*
X170157038Y-94438349D01*
X170137632Y-94429170D01*
X170119219Y-94418134D01*
X170101976Y-94405346D01*
X170086070Y-94390930D01*
X170071654Y-94375024D01*
X170058866Y-94357781D01*
X170047830Y-94339368D01*
X170038651Y-94319962D01*
X170031419Y-94299750D01*
X170026203Y-94278926D01*
X170023053Y-94257691D01*
X170022000Y-94236250D01*
X170022000Y-93723750D01*
X170023053Y-93702309D01*
X170026203Y-93681074D01*
X170031419Y-93660250D01*
X170038651Y-93640038D01*
X170047830Y-93620632D01*
X170058866Y-93602219D01*
X170071654Y-93584976D01*
X170086070Y-93569070D01*
X170101976Y-93554654D01*
X170119219Y-93541866D01*
X170137632Y-93530830D01*
X170157038Y-93521651D01*
X170177250Y-93514419D01*
X170198074Y-93509203D01*
X170219309Y-93506053D01*
X170240750Y-93505000D01*
X170678250Y-93505000D01*
X170699691Y-93506053D01*
X170699691Y-93506053D01*
G37*
D11*
X170459500Y-93980000D03*
D10*
G36*
X169124691Y-93506053D02*
G01*
X169145926Y-93509203D01*
X169166750Y-93514419D01*
X169186962Y-93521651D01*
X169206368Y-93530830D01*
X169224781Y-93541866D01*
X169242024Y-93554654D01*
X169257930Y-93569070D01*
X169272346Y-93584976D01*
X169285134Y-93602219D01*
X169296170Y-93620632D01*
X169305349Y-93640038D01*
X169312581Y-93660250D01*
X169317797Y-93681074D01*
X169320947Y-93702309D01*
X169322000Y-93723750D01*
X169322000Y-94236250D01*
X169320947Y-94257691D01*
X169317797Y-94278926D01*
X169312581Y-94299750D01*
X169305349Y-94319962D01*
X169296170Y-94339368D01*
X169285134Y-94357781D01*
X169272346Y-94375024D01*
X169257930Y-94390930D01*
X169242024Y-94405346D01*
X169224781Y-94418134D01*
X169206368Y-94429170D01*
X169186962Y-94438349D01*
X169166750Y-94445581D01*
X169145926Y-94450797D01*
X169124691Y-94453947D01*
X169103250Y-94455000D01*
X168665750Y-94455000D01*
X168644309Y-94453947D01*
X168623074Y-94450797D01*
X168602250Y-94445581D01*
X168582038Y-94438349D01*
X168562632Y-94429170D01*
X168544219Y-94418134D01*
X168526976Y-94405346D01*
X168511070Y-94390930D01*
X168496654Y-94375024D01*
X168483866Y-94357781D01*
X168472830Y-94339368D01*
X168463651Y-94319962D01*
X168456419Y-94299750D01*
X168451203Y-94278926D01*
X168448053Y-94257691D01*
X168447000Y-94236250D01*
X168447000Y-93723750D01*
X168448053Y-93702309D01*
X168451203Y-93681074D01*
X168456419Y-93660250D01*
X168463651Y-93640038D01*
X168472830Y-93620632D01*
X168483866Y-93602219D01*
X168496654Y-93584976D01*
X168511070Y-93569070D01*
X168526976Y-93554654D01*
X168544219Y-93541866D01*
X168562632Y-93530830D01*
X168582038Y-93521651D01*
X168602250Y-93514419D01*
X168623074Y-93509203D01*
X168644309Y-93506053D01*
X168665750Y-93505000D01*
X169103250Y-93505000D01*
X169124691Y-93506053D01*
X169124691Y-93506053D01*
G37*
D11*
X168884500Y-93980000D03*
D10*
G36*
X74179691Y-112810053D02*
G01*
X74200926Y-112813203D01*
X74221750Y-112818419D01*
X74241962Y-112825651D01*
X74261368Y-112834830D01*
X74279781Y-112845866D01*
X74297024Y-112858654D01*
X74312930Y-112873070D01*
X74327346Y-112888976D01*
X74340134Y-112906219D01*
X74351170Y-112924632D01*
X74360349Y-112944038D01*
X74367581Y-112964250D01*
X74372797Y-112985074D01*
X74375947Y-113006309D01*
X74377000Y-113027750D01*
X74377000Y-113540250D01*
X74375947Y-113561691D01*
X74372797Y-113582926D01*
X74367581Y-113603750D01*
X74360349Y-113623962D01*
X74351170Y-113643368D01*
X74340134Y-113661781D01*
X74327346Y-113679024D01*
X74312930Y-113694930D01*
X74297024Y-113709346D01*
X74279781Y-113722134D01*
X74261368Y-113733170D01*
X74241962Y-113742349D01*
X74221750Y-113749581D01*
X74200926Y-113754797D01*
X74179691Y-113757947D01*
X74158250Y-113759000D01*
X73720750Y-113759000D01*
X73699309Y-113757947D01*
X73678074Y-113754797D01*
X73657250Y-113749581D01*
X73637038Y-113742349D01*
X73617632Y-113733170D01*
X73599219Y-113722134D01*
X73581976Y-113709346D01*
X73566070Y-113694930D01*
X73551654Y-113679024D01*
X73538866Y-113661781D01*
X73527830Y-113643368D01*
X73518651Y-113623962D01*
X73511419Y-113603750D01*
X73506203Y-113582926D01*
X73503053Y-113561691D01*
X73502000Y-113540250D01*
X73502000Y-113027750D01*
X73503053Y-113006309D01*
X73506203Y-112985074D01*
X73511419Y-112964250D01*
X73518651Y-112944038D01*
X73527830Y-112924632D01*
X73538866Y-112906219D01*
X73551654Y-112888976D01*
X73566070Y-112873070D01*
X73581976Y-112858654D01*
X73599219Y-112845866D01*
X73617632Y-112834830D01*
X73637038Y-112825651D01*
X73657250Y-112818419D01*
X73678074Y-112813203D01*
X73699309Y-112810053D01*
X73720750Y-112809000D01*
X74158250Y-112809000D01*
X74179691Y-112810053D01*
X74179691Y-112810053D01*
G37*
D11*
X73939500Y-113284000D03*
D10*
G36*
X72604691Y-112810053D02*
G01*
X72625926Y-112813203D01*
X72646750Y-112818419D01*
X72666962Y-112825651D01*
X72686368Y-112834830D01*
X72704781Y-112845866D01*
X72722024Y-112858654D01*
X72737930Y-112873070D01*
X72752346Y-112888976D01*
X72765134Y-112906219D01*
X72776170Y-112924632D01*
X72785349Y-112944038D01*
X72792581Y-112964250D01*
X72797797Y-112985074D01*
X72800947Y-113006309D01*
X72802000Y-113027750D01*
X72802000Y-113540250D01*
X72800947Y-113561691D01*
X72797797Y-113582926D01*
X72792581Y-113603750D01*
X72785349Y-113623962D01*
X72776170Y-113643368D01*
X72765134Y-113661781D01*
X72752346Y-113679024D01*
X72737930Y-113694930D01*
X72722024Y-113709346D01*
X72704781Y-113722134D01*
X72686368Y-113733170D01*
X72666962Y-113742349D01*
X72646750Y-113749581D01*
X72625926Y-113754797D01*
X72604691Y-113757947D01*
X72583250Y-113759000D01*
X72145750Y-113759000D01*
X72124309Y-113757947D01*
X72103074Y-113754797D01*
X72082250Y-113749581D01*
X72062038Y-113742349D01*
X72042632Y-113733170D01*
X72024219Y-113722134D01*
X72006976Y-113709346D01*
X71991070Y-113694930D01*
X71976654Y-113679024D01*
X71963866Y-113661781D01*
X71952830Y-113643368D01*
X71943651Y-113623962D01*
X71936419Y-113603750D01*
X71931203Y-113582926D01*
X71928053Y-113561691D01*
X71927000Y-113540250D01*
X71927000Y-113027750D01*
X71928053Y-113006309D01*
X71931203Y-112985074D01*
X71936419Y-112964250D01*
X71943651Y-112944038D01*
X71952830Y-112924632D01*
X71963866Y-112906219D01*
X71976654Y-112888976D01*
X71991070Y-112873070D01*
X72006976Y-112858654D01*
X72024219Y-112845866D01*
X72042632Y-112834830D01*
X72062038Y-112825651D01*
X72082250Y-112818419D01*
X72103074Y-112813203D01*
X72124309Y-112810053D01*
X72145750Y-112809000D01*
X72583250Y-112809000D01*
X72604691Y-112810053D01*
X72604691Y-112810053D01*
G37*
D11*
X72364500Y-113284000D03*
D10*
G36*
X91908691Y-112810053D02*
G01*
X91929926Y-112813203D01*
X91950750Y-112818419D01*
X91970962Y-112825651D01*
X91990368Y-112834830D01*
X92008781Y-112845866D01*
X92026024Y-112858654D01*
X92041930Y-112873070D01*
X92056346Y-112888976D01*
X92069134Y-112906219D01*
X92080170Y-112924632D01*
X92089349Y-112944038D01*
X92096581Y-112964250D01*
X92101797Y-112985074D01*
X92104947Y-113006309D01*
X92106000Y-113027750D01*
X92106000Y-113540250D01*
X92104947Y-113561691D01*
X92101797Y-113582926D01*
X92096581Y-113603750D01*
X92089349Y-113623962D01*
X92080170Y-113643368D01*
X92069134Y-113661781D01*
X92056346Y-113679024D01*
X92041930Y-113694930D01*
X92026024Y-113709346D01*
X92008781Y-113722134D01*
X91990368Y-113733170D01*
X91970962Y-113742349D01*
X91950750Y-113749581D01*
X91929926Y-113754797D01*
X91908691Y-113757947D01*
X91887250Y-113759000D01*
X91449750Y-113759000D01*
X91428309Y-113757947D01*
X91407074Y-113754797D01*
X91386250Y-113749581D01*
X91366038Y-113742349D01*
X91346632Y-113733170D01*
X91328219Y-113722134D01*
X91310976Y-113709346D01*
X91295070Y-113694930D01*
X91280654Y-113679024D01*
X91267866Y-113661781D01*
X91256830Y-113643368D01*
X91247651Y-113623962D01*
X91240419Y-113603750D01*
X91235203Y-113582926D01*
X91232053Y-113561691D01*
X91231000Y-113540250D01*
X91231000Y-113027750D01*
X91232053Y-113006309D01*
X91235203Y-112985074D01*
X91240419Y-112964250D01*
X91247651Y-112944038D01*
X91256830Y-112924632D01*
X91267866Y-112906219D01*
X91280654Y-112888976D01*
X91295070Y-112873070D01*
X91310976Y-112858654D01*
X91328219Y-112845866D01*
X91346632Y-112834830D01*
X91366038Y-112825651D01*
X91386250Y-112818419D01*
X91407074Y-112813203D01*
X91428309Y-112810053D01*
X91449750Y-112809000D01*
X91887250Y-112809000D01*
X91908691Y-112810053D01*
X91908691Y-112810053D01*
G37*
D11*
X91668500Y-113284000D03*
D10*
G36*
X93483691Y-112810053D02*
G01*
X93504926Y-112813203D01*
X93525750Y-112818419D01*
X93545962Y-112825651D01*
X93565368Y-112834830D01*
X93583781Y-112845866D01*
X93601024Y-112858654D01*
X93616930Y-112873070D01*
X93631346Y-112888976D01*
X93644134Y-112906219D01*
X93655170Y-112924632D01*
X93664349Y-112944038D01*
X93671581Y-112964250D01*
X93676797Y-112985074D01*
X93679947Y-113006309D01*
X93681000Y-113027750D01*
X93681000Y-113540250D01*
X93679947Y-113561691D01*
X93676797Y-113582926D01*
X93671581Y-113603750D01*
X93664349Y-113623962D01*
X93655170Y-113643368D01*
X93644134Y-113661781D01*
X93631346Y-113679024D01*
X93616930Y-113694930D01*
X93601024Y-113709346D01*
X93583781Y-113722134D01*
X93565368Y-113733170D01*
X93545962Y-113742349D01*
X93525750Y-113749581D01*
X93504926Y-113754797D01*
X93483691Y-113757947D01*
X93462250Y-113759000D01*
X93024750Y-113759000D01*
X93003309Y-113757947D01*
X92982074Y-113754797D01*
X92961250Y-113749581D01*
X92941038Y-113742349D01*
X92921632Y-113733170D01*
X92903219Y-113722134D01*
X92885976Y-113709346D01*
X92870070Y-113694930D01*
X92855654Y-113679024D01*
X92842866Y-113661781D01*
X92831830Y-113643368D01*
X92822651Y-113623962D01*
X92815419Y-113603750D01*
X92810203Y-113582926D01*
X92807053Y-113561691D01*
X92806000Y-113540250D01*
X92806000Y-113027750D01*
X92807053Y-113006309D01*
X92810203Y-112985074D01*
X92815419Y-112964250D01*
X92822651Y-112944038D01*
X92831830Y-112924632D01*
X92842866Y-112906219D01*
X92855654Y-112888976D01*
X92870070Y-112873070D01*
X92885976Y-112858654D01*
X92903219Y-112845866D01*
X92921632Y-112834830D01*
X92941038Y-112825651D01*
X92961250Y-112818419D01*
X92982074Y-112813203D01*
X93003309Y-112810053D01*
X93024750Y-112809000D01*
X93462250Y-112809000D01*
X93483691Y-112810053D01*
X93483691Y-112810053D01*
G37*
D11*
X93243500Y-113284000D03*
D10*
G36*
X111212691Y-112810053D02*
G01*
X111233926Y-112813203D01*
X111254750Y-112818419D01*
X111274962Y-112825651D01*
X111294368Y-112834830D01*
X111312781Y-112845866D01*
X111330024Y-112858654D01*
X111345930Y-112873070D01*
X111360346Y-112888976D01*
X111373134Y-112906219D01*
X111384170Y-112924632D01*
X111393349Y-112944038D01*
X111400581Y-112964250D01*
X111405797Y-112985074D01*
X111408947Y-113006309D01*
X111410000Y-113027750D01*
X111410000Y-113540250D01*
X111408947Y-113561691D01*
X111405797Y-113582926D01*
X111400581Y-113603750D01*
X111393349Y-113623962D01*
X111384170Y-113643368D01*
X111373134Y-113661781D01*
X111360346Y-113679024D01*
X111345930Y-113694930D01*
X111330024Y-113709346D01*
X111312781Y-113722134D01*
X111294368Y-113733170D01*
X111274962Y-113742349D01*
X111254750Y-113749581D01*
X111233926Y-113754797D01*
X111212691Y-113757947D01*
X111191250Y-113759000D01*
X110753750Y-113759000D01*
X110732309Y-113757947D01*
X110711074Y-113754797D01*
X110690250Y-113749581D01*
X110670038Y-113742349D01*
X110650632Y-113733170D01*
X110632219Y-113722134D01*
X110614976Y-113709346D01*
X110599070Y-113694930D01*
X110584654Y-113679024D01*
X110571866Y-113661781D01*
X110560830Y-113643368D01*
X110551651Y-113623962D01*
X110544419Y-113603750D01*
X110539203Y-113582926D01*
X110536053Y-113561691D01*
X110535000Y-113540250D01*
X110535000Y-113027750D01*
X110536053Y-113006309D01*
X110539203Y-112985074D01*
X110544419Y-112964250D01*
X110551651Y-112944038D01*
X110560830Y-112924632D01*
X110571866Y-112906219D01*
X110584654Y-112888976D01*
X110599070Y-112873070D01*
X110614976Y-112858654D01*
X110632219Y-112845866D01*
X110650632Y-112834830D01*
X110670038Y-112825651D01*
X110690250Y-112818419D01*
X110711074Y-112813203D01*
X110732309Y-112810053D01*
X110753750Y-112809000D01*
X111191250Y-112809000D01*
X111212691Y-112810053D01*
X111212691Y-112810053D01*
G37*
D11*
X110972500Y-113284000D03*
D10*
G36*
X112787691Y-112810053D02*
G01*
X112808926Y-112813203D01*
X112829750Y-112818419D01*
X112849962Y-112825651D01*
X112869368Y-112834830D01*
X112887781Y-112845866D01*
X112905024Y-112858654D01*
X112920930Y-112873070D01*
X112935346Y-112888976D01*
X112948134Y-112906219D01*
X112959170Y-112924632D01*
X112968349Y-112944038D01*
X112975581Y-112964250D01*
X112980797Y-112985074D01*
X112983947Y-113006309D01*
X112985000Y-113027750D01*
X112985000Y-113540250D01*
X112983947Y-113561691D01*
X112980797Y-113582926D01*
X112975581Y-113603750D01*
X112968349Y-113623962D01*
X112959170Y-113643368D01*
X112948134Y-113661781D01*
X112935346Y-113679024D01*
X112920930Y-113694930D01*
X112905024Y-113709346D01*
X112887781Y-113722134D01*
X112869368Y-113733170D01*
X112849962Y-113742349D01*
X112829750Y-113749581D01*
X112808926Y-113754797D01*
X112787691Y-113757947D01*
X112766250Y-113759000D01*
X112328750Y-113759000D01*
X112307309Y-113757947D01*
X112286074Y-113754797D01*
X112265250Y-113749581D01*
X112245038Y-113742349D01*
X112225632Y-113733170D01*
X112207219Y-113722134D01*
X112189976Y-113709346D01*
X112174070Y-113694930D01*
X112159654Y-113679024D01*
X112146866Y-113661781D01*
X112135830Y-113643368D01*
X112126651Y-113623962D01*
X112119419Y-113603750D01*
X112114203Y-113582926D01*
X112111053Y-113561691D01*
X112110000Y-113540250D01*
X112110000Y-113027750D01*
X112111053Y-113006309D01*
X112114203Y-112985074D01*
X112119419Y-112964250D01*
X112126651Y-112944038D01*
X112135830Y-112924632D01*
X112146866Y-112906219D01*
X112159654Y-112888976D01*
X112174070Y-112873070D01*
X112189976Y-112858654D01*
X112207219Y-112845866D01*
X112225632Y-112834830D01*
X112245038Y-112825651D01*
X112265250Y-112818419D01*
X112286074Y-112813203D01*
X112307309Y-112810053D01*
X112328750Y-112809000D01*
X112766250Y-112809000D01*
X112787691Y-112810053D01*
X112787691Y-112810053D01*
G37*
D11*
X112547500Y-113284000D03*
D10*
G36*
X130516691Y-112810053D02*
G01*
X130537926Y-112813203D01*
X130558750Y-112818419D01*
X130578962Y-112825651D01*
X130598368Y-112834830D01*
X130616781Y-112845866D01*
X130634024Y-112858654D01*
X130649930Y-112873070D01*
X130664346Y-112888976D01*
X130677134Y-112906219D01*
X130688170Y-112924632D01*
X130697349Y-112944038D01*
X130704581Y-112964250D01*
X130709797Y-112985074D01*
X130712947Y-113006309D01*
X130714000Y-113027750D01*
X130714000Y-113540250D01*
X130712947Y-113561691D01*
X130709797Y-113582926D01*
X130704581Y-113603750D01*
X130697349Y-113623962D01*
X130688170Y-113643368D01*
X130677134Y-113661781D01*
X130664346Y-113679024D01*
X130649930Y-113694930D01*
X130634024Y-113709346D01*
X130616781Y-113722134D01*
X130598368Y-113733170D01*
X130578962Y-113742349D01*
X130558750Y-113749581D01*
X130537926Y-113754797D01*
X130516691Y-113757947D01*
X130495250Y-113759000D01*
X130057750Y-113759000D01*
X130036309Y-113757947D01*
X130015074Y-113754797D01*
X129994250Y-113749581D01*
X129974038Y-113742349D01*
X129954632Y-113733170D01*
X129936219Y-113722134D01*
X129918976Y-113709346D01*
X129903070Y-113694930D01*
X129888654Y-113679024D01*
X129875866Y-113661781D01*
X129864830Y-113643368D01*
X129855651Y-113623962D01*
X129848419Y-113603750D01*
X129843203Y-113582926D01*
X129840053Y-113561691D01*
X129839000Y-113540250D01*
X129839000Y-113027750D01*
X129840053Y-113006309D01*
X129843203Y-112985074D01*
X129848419Y-112964250D01*
X129855651Y-112944038D01*
X129864830Y-112924632D01*
X129875866Y-112906219D01*
X129888654Y-112888976D01*
X129903070Y-112873070D01*
X129918976Y-112858654D01*
X129936219Y-112845866D01*
X129954632Y-112834830D01*
X129974038Y-112825651D01*
X129994250Y-112818419D01*
X130015074Y-112813203D01*
X130036309Y-112810053D01*
X130057750Y-112809000D01*
X130495250Y-112809000D01*
X130516691Y-112810053D01*
X130516691Y-112810053D01*
G37*
D11*
X130276500Y-113284000D03*
D10*
G36*
X132091691Y-112810053D02*
G01*
X132112926Y-112813203D01*
X132133750Y-112818419D01*
X132153962Y-112825651D01*
X132173368Y-112834830D01*
X132191781Y-112845866D01*
X132209024Y-112858654D01*
X132224930Y-112873070D01*
X132239346Y-112888976D01*
X132252134Y-112906219D01*
X132263170Y-112924632D01*
X132272349Y-112944038D01*
X132279581Y-112964250D01*
X132284797Y-112985074D01*
X132287947Y-113006309D01*
X132289000Y-113027750D01*
X132289000Y-113540250D01*
X132287947Y-113561691D01*
X132284797Y-113582926D01*
X132279581Y-113603750D01*
X132272349Y-113623962D01*
X132263170Y-113643368D01*
X132252134Y-113661781D01*
X132239346Y-113679024D01*
X132224930Y-113694930D01*
X132209024Y-113709346D01*
X132191781Y-113722134D01*
X132173368Y-113733170D01*
X132153962Y-113742349D01*
X132133750Y-113749581D01*
X132112926Y-113754797D01*
X132091691Y-113757947D01*
X132070250Y-113759000D01*
X131632750Y-113759000D01*
X131611309Y-113757947D01*
X131590074Y-113754797D01*
X131569250Y-113749581D01*
X131549038Y-113742349D01*
X131529632Y-113733170D01*
X131511219Y-113722134D01*
X131493976Y-113709346D01*
X131478070Y-113694930D01*
X131463654Y-113679024D01*
X131450866Y-113661781D01*
X131439830Y-113643368D01*
X131430651Y-113623962D01*
X131423419Y-113603750D01*
X131418203Y-113582926D01*
X131415053Y-113561691D01*
X131414000Y-113540250D01*
X131414000Y-113027750D01*
X131415053Y-113006309D01*
X131418203Y-112985074D01*
X131423419Y-112964250D01*
X131430651Y-112944038D01*
X131439830Y-112924632D01*
X131450866Y-112906219D01*
X131463654Y-112888976D01*
X131478070Y-112873070D01*
X131493976Y-112858654D01*
X131511219Y-112845866D01*
X131529632Y-112834830D01*
X131549038Y-112825651D01*
X131569250Y-112818419D01*
X131590074Y-112813203D01*
X131611309Y-112810053D01*
X131632750Y-112809000D01*
X132070250Y-112809000D01*
X132091691Y-112810053D01*
X132091691Y-112810053D01*
G37*
D11*
X131851500Y-113284000D03*
D10*
G36*
X149820691Y-112810053D02*
G01*
X149841926Y-112813203D01*
X149862750Y-112818419D01*
X149882962Y-112825651D01*
X149902368Y-112834830D01*
X149920781Y-112845866D01*
X149938024Y-112858654D01*
X149953930Y-112873070D01*
X149968346Y-112888976D01*
X149981134Y-112906219D01*
X149992170Y-112924632D01*
X150001349Y-112944038D01*
X150008581Y-112964250D01*
X150013797Y-112985074D01*
X150016947Y-113006309D01*
X150018000Y-113027750D01*
X150018000Y-113540250D01*
X150016947Y-113561691D01*
X150013797Y-113582926D01*
X150008581Y-113603750D01*
X150001349Y-113623962D01*
X149992170Y-113643368D01*
X149981134Y-113661781D01*
X149968346Y-113679024D01*
X149953930Y-113694930D01*
X149938024Y-113709346D01*
X149920781Y-113722134D01*
X149902368Y-113733170D01*
X149882962Y-113742349D01*
X149862750Y-113749581D01*
X149841926Y-113754797D01*
X149820691Y-113757947D01*
X149799250Y-113759000D01*
X149361750Y-113759000D01*
X149340309Y-113757947D01*
X149319074Y-113754797D01*
X149298250Y-113749581D01*
X149278038Y-113742349D01*
X149258632Y-113733170D01*
X149240219Y-113722134D01*
X149222976Y-113709346D01*
X149207070Y-113694930D01*
X149192654Y-113679024D01*
X149179866Y-113661781D01*
X149168830Y-113643368D01*
X149159651Y-113623962D01*
X149152419Y-113603750D01*
X149147203Y-113582926D01*
X149144053Y-113561691D01*
X149143000Y-113540250D01*
X149143000Y-113027750D01*
X149144053Y-113006309D01*
X149147203Y-112985074D01*
X149152419Y-112964250D01*
X149159651Y-112944038D01*
X149168830Y-112924632D01*
X149179866Y-112906219D01*
X149192654Y-112888976D01*
X149207070Y-112873070D01*
X149222976Y-112858654D01*
X149240219Y-112845866D01*
X149258632Y-112834830D01*
X149278038Y-112825651D01*
X149298250Y-112818419D01*
X149319074Y-112813203D01*
X149340309Y-112810053D01*
X149361750Y-112809000D01*
X149799250Y-112809000D01*
X149820691Y-112810053D01*
X149820691Y-112810053D01*
G37*
D11*
X149580500Y-113284000D03*
D10*
G36*
X151395691Y-112810053D02*
G01*
X151416926Y-112813203D01*
X151437750Y-112818419D01*
X151457962Y-112825651D01*
X151477368Y-112834830D01*
X151495781Y-112845866D01*
X151513024Y-112858654D01*
X151528930Y-112873070D01*
X151543346Y-112888976D01*
X151556134Y-112906219D01*
X151567170Y-112924632D01*
X151576349Y-112944038D01*
X151583581Y-112964250D01*
X151588797Y-112985074D01*
X151591947Y-113006309D01*
X151593000Y-113027750D01*
X151593000Y-113540250D01*
X151591947Y-113561691D01*
X151588797Y-113582926D01*
X151583581Y-113603750D01*
X151576349Y-113623962D01*
X151567170Y-113643368D01*
X151556134Y-113661781D01*
X151543346Y-113679024D01*
X151528930Y-113694930D01*
X151513024Y-113709346D01*
X151495781Y-113722134D01*
X151477368Y-113733170D01*
X151457962Y-113742349D01*
X151437750Y-113749581D01*
X151416926Y-113754797D01*
X151395691Y-113757947D01*
X151374250Y-113759000D01*
X150936750Y-113759000D01*
X150915309Y-113757947D01*
X150894074Y-113754797D01*
X150873250Y-113749581D01*
X150853038Y-113742349D01*
X150833632Y-113733170D01*
X150815219Y-113722134D01*
X150797976Y-113709346D01*
X150782070Y-113694930D01*
X150767654Y-113679024D01*
X150754866Y-113661781D01*
X150743830Y-113643368D01*
X150734651Y-113623962D01*
X150727419Y-113603750D01*
X150722203Y-113582926D01*
X150719053Y-113561691D01*
X150718000Y-113540250D01*
X150718000Y-113027750D01*
X150719053Y-113006309D01*
X150722203Y-112985074D01*
X150727419Y-112964250D01*
X150734651Y-112944038D01*
X150743830Y-112924632D01*
X150754866Y-112906219D01*
X150767654Y-112888976D01*
X150782070Y-112873070D01*
X150797976Y-112858654D01*
X150815219Y-112845866D01*
X150833632Y-112834830D01*
X150853038Y-112825651D01*
X150873250Y-112818419D01*
X150894074Y-112813203D01*
X150915309Y-112810053D01*
X150936750Y-112809000D01*
X151374250Y-112809000D01*
X151395691Y-112810053D01*
X151395691Y-112810053D01*
G37*
D11*
X151155500Y-113284000D03*
D10*
G36*
X169124691Y-112810053D02*
G01*
X169145926Y-112813203D01*
X169166750Y-112818419D01*
X169186962Y-112825651D01*
X169206368Y-112834830D01*
X169224781Y-112845866D01*
X169242024Y-112858654D01*
X169257930Y-112873070D01*
X169272346Y-112888976D01*
X169285134Y-112906219D01*
X169296170Y-112924632D01*
X169305349Y-112944038D01*
X169312581Y-112964250D01*
X169317797Y-112985074D01*
X169320947Y-113006309D01*
X169322000Y-113027750D01*
X169322000Y-113540250D01*
X169320947Y-113561691D01*
X169317797Y-113582926D01*
X169312581Y-113603750D01*
X169305349Y-113623962D01*
X169296170Y-113643368D01*
X169285134Y-113661781D01*
X169272346Y-113679024D01*
X169257930Y-113694930D01*
X169242024Y-113709346D01*
X169224781Y-113722134D01*
X169206368Y-113733170D01*
X169186962Y-113742349D01*
X169166750Y-113749581D01*
X169145926Y-113754797D01*
X169124691Y-113757947D01*
X169103250Y-113759000D01*
X168665750Y-113759000D01*
X168644309Y-113757947D01*
X168623074Y-113754797D01*
X168602250Y-113749581D01*
X168582038Y-113742349D01*
X168562632Y-113733170D01*
X168544219Y-113722134D01*
X168526976Y-113709346D01*
X168511070Y-113694930D01*
X168496654Y-113679024D01*
X168483866Y-113661781D01*
X168472830Y-113643368D01*
X168463651Y-113623962D01*
X168456419Y-113603750D01*
X168451203Y-113582926D01*
X168448053Y-113561691D01*
X168447000Y-113540250D01*
X168447000Y-113027750D01*
X168448053Y-113006309D01*
X168451203Y-112985074D01*
X168456419Y-112964250D01*
X168463651Y-112944038D01*
X168472830Y-112924632D01*
X168483866Y-112906219D01*
X168496654Y-112888976D01*
X168511070Y-112873070D01*
X168526976Y-112858654D01*
X168544219Y-112845866D01*
X168562632Y-112834830D01*
X168582038Y-112825651D01*
X168602250Y-112818419D01*
X168623074Y-112813203D01*
X168644309Y-112810053D01*
X168665750Y-112809000D01*
X169103250Y-112809000D01*
X169124691Y-112810053D01*
X169124691Y-112810053D01*
G37*
D11*
X168884500Y-113284000D03*
D10*
G36*
X170699691Y-112810053D02*
G01*
X170720926Y-112813203D01*
X170741750Y-112818419D01*
X170761962Y-112825651D01*
X170781368Y-112834830D01*
X170799781Y-112845866D01*
X170817024Y-112858654D01*
X170832930Y-112873070D01*
X170847346Y-112888976D01*
X170860134Y-112906219D01*
X170871170Y-112924632D01*
X170880349Y-112944038D01*
X170887581Y-112964250D01*
X170892797Y-112985074D01*
X170895947Y-113006309D01*
X170897000Y-113027750D01*
X170897000Y-113540250D01*
X170895947Y-113561691D01*
X170892797Y-113582926D01*
X170887581Y-113603750D01*
X170880349Y-113623962D01*
X170871170Y-113643368D01*
X170860134Y-113661781D01*
X170847346Y-113679024D01*
X170832930Y-113694930D01*
X170817024Y-113709346D01*
X170799781Y-113722134D01*
X170781368Y-113733170D01*
X170761962Y-113742349D01*
X170741750Y-113749581D01*
X170720926Y-113754797D01*
X170699691Y-113757947D01*
X170678250Y-113759000D01*
X170240750Y-113759000D01*
X170219309Y-113757947D01*
X170198074Y-113754797D01*
X170177250Y-113749581D01*
X170157038Y-113742349D01*
X170137632Y-113733170D01*
X170119219Y-113722134D01*
X170101976Y-113709346D01*
X170086070Y-113694930D01*
X170071654Y-113679024D01*
X170058866Y-113661781D01*
X170047830Y-113643368D01*
X170038651Y-113623962D01*
X170031419Y-113603750D01*
X170026203Y-113582926D01*
X170023053Y-113561691D01*
X170022000Y-113540250D01*
X170022000Y-113027750D01*
X170023053Y-113006309D01*
X170026203Y-112985074D01*
X170031419Y-112964250D01*
X170038651Y-112944038D01*
X170047830Y-112924632D01*
X170058866Y-112906219D01*
X170071654Y-112888976D01*
X170086070Y-112873070D01*
X170101976Y-112858654D01*
X170119219Y-112845866D01*
X170137632Y-112834830D01*
X170157038Y-112825651D01*
X170177250Y-112818419D01*
X170198074Y-112813203D01*
X170219309Y-112810053D01*
X170240750Y-112809000D01*
X170678250Y-112809000D01*
X170699691Y-112810053D01*
X170699691Y-112810053D01*
G37*
D11*
X170459500Y-113284000D03*
M02*
